<svg xmlns="http://www.w3.org/2000/svg" width="750" height="1050" viewBox="0 0 750 1050">
<defs>
  <filter id="cardDrop" x="-6%" y="-3%" width="112%" height="110%" color-interpolation-filters="sRGB">
    <feDropShadow dx="0" dy="10" stdDeviation="14" flood-color="#000" flood-opacity="0.5"/>
    <feDropShadow dx="0" dy="3" stdDeviation="4" flood-color="#000" flood-opacity="0.35"/>
  </filter>
  <filter id="paperGrain" x="0" y="0" width="100%" height="100%">
    <feTurbulence type="fractalNoise" baseFrequency="0.72" numOctaves="4" seed="17" result="n"/>
    <feColorMatrix in="n" type="matrix" values="0 0 0 0 0.48  0 0 0 0 0.42  0 0 0 0 0.36  0 0 0 0.07 0" result="g"/>
    <feBlend in="SourceGraphic" in2="g" mode="multiply"/>
  </filter>
  <filter id="artDepth" x="-8%" y="-8%" width="116%" height="116%">
    <feGaussianBlur in="SourceAlpha" stdDeviation="6" result="blur"/>
    <feOffset dy="4" result="off"/><feFlood flood-color="#000" flood-opacity="0.45"/>
    <feComposite in2="off" operator="in" result="sh"/>
    <feMerge><feMergeNode in="sh"/><feMergeNode in="SourceGraphic"/></feMerge>
  </filter>
  <linearGradient id="bggrad" x1="0" y1="0" x2="0" y2="1">
    <stop offset="0" stop-color="#2c4928"/>
    <stop offset="0.45" stop-color="#12240f"/>
    <stop offset="1" stop-color="#060c05"/>
  </linearGradient>
  <linearGradient id="bevelHi" x1="0" y1="0" x2="1" y2="1">
    <stop offset="0" stop-color="#fff" stop-opacity="0.22"/>
    <stop offset="0.35" stop-color="#fff" stop-opacity="0"/>
    <stop offset="1" stop-color="#000" stop-opacity="0.28"/>
  </linearGradient>
  <radialGradient id="artgrad" cx="0.5" cy="0.38" r="0.82">
    <stop offset="0" stop-color="#26461e"/>
    <stop offset="0.7" stop-color="#0d1c0b"/>
    <stop offset="1" stop-color="#0812NaN"/>
  </radialGradient>
  <linearGradient id="artInset" x1="0" y1="0" x2="0" y2="1">
    <stop offset="0" stop-color="#000" stop-opacity="0.38"/>
    <stop offset="0.12" stop-color="#000" stop-opacity="0"/>
    <stop offset="0.88" stop-color="#000" stop-opacity="0"/>
    <stop offset="1" stop-color="#000" stop-opacity="0.42"/>
  </linearGradient>
  <linearGradient id="guldgrad" x1="0" y1="0" x2="0" y2="1">
    <stop offset="0" stop-color="#ffe9a0"/>
    <stop offset="0.45" stop-color="#ffd166"/>
    <stop offset="1" stop-color="#6a5018"/>
  </linearGradient>
  <linearGradient id="guldShine" x1="0" y1="0" x2="1" y2="0">
    <stop offset="0" stop-color="#fff" stop-opacity="0"/>
    <stop offset="0.5" stop-color="#fff" stop-opacity="0.45"/>
    <stop offset="1" stop-color="#fff" stop-opacity="0"/>
  </linearGradient>
  <linearGradient id="gloss" x1="0" y1="0" x2="1" y2="1">
    <stop offset="0.28" stop-color="#fff" stop-opacity="0"/>
    <stop offset="0.46" stop-color="#fff" stop-opacity="0.16"/>
    <stop offset="0.54" stop-color="#fff" stop-opacity="0.06"/>
    <stop offset="0.72" stop-color="#fff" stop-opacity="0"/>
  </linearGradient>
  <pattern id="fiber" width="6" height="6" patternUnits="userSpaceOnUse" patternTransform="rotate(12)">
    <line x1="0" y1="0" x2="0" y2="6" stroke="#fff" stroke-width="0.6" opacity="0.04"/>
    <line x1="3" y1="0" x2="3" y2="6" stroke="#000" stroke-width="0.5" opacity="0.06"/>
  </pattern>
  <clipPath id="artclip"><rect x="52" y="200" width="646" height="400" rx="14"/></clipPath>
  <clipPath id="cardclip"><rect x="6" y="6" width="738" height="1038" rx="36"/></clipPath>
  </defs>

  <rect x="10" y="1042" width="730" height="7" rx="3" fill="#080604" opacity="0.85"/>
  <rect x="10" y="1042" width="730" height="3" rx="2" fill="#5a3aNaN" opacity="0.5"/>
<g filter="url(#cardDrop)">
<g filter="url(#paperGrain)" clip-path="url(#cardclip)">
<rect x="6" y="6" width="738" height="1038" rx="36" fill="url(#bggrad)" stroke="#c9814a" stroke-width="7"/>
<rect x="6" y="6" width="738" height="1038" rx="36" fill="url(#fiber)"/>
<rect x="14" y="14" width="722" height="1022" rx="32" fill="none" stroke="url(#bevelHi)" stroke-width="3" opacity="0.5"/>
<circle cx="525" cy="350" r="7" fill="none" stroke="#c9814a" stroke-width="4" opacity="0.22"/><path d="M 525 350 L 625 450" fill="none" stroke="#c9814a" stroke-width="4" stroke-linecap="round" stroke-linejoin="round" opacity="0.22"/><rect x="617" y="442" width="16" height="16" fill="#c9814a" opacity="0.22"/><circle cx="450" cy="200" r="7" fill="none" stroke="#c9814a" stroke-width="4" opacity="0.22"/><path d="M 450 200 L 575 200" fill="none" stroke="#c9814a" stroke-width="4" stroke-linecap="round" stroke-linejoin="round" opacity="0.22"/><circle cx="575" cy="200" r="9" fill="#122419" stroke="#c9814a" stroke-width="4" opacity="0.22"/><circle cx="75" cy="400" r="7" fill="none" stroke="#c9814a" stroke-width="4" opacity="0.22"/><path d="M 75 400 L 75 450" fill="none" stroke="#c9814a" stroke-width="4" stroke-linecap="round" stroke-linejoin="round" opacity="0.22"/><circle cx="75" cy="450" r="9" fill="#122419" stroke="#c9814a" stroke-width="4" opacity="0.22"/><circle cx="325" cy="225" r="7" fill="none" stroke="#c9814a" stroke-width="4" opacity="0.22"/><path d="M 325 225 L 425 325" fill="none" stroke="#c9814a" stroke-width="4" stroke-linecap="round" stroke-linejoin="round" opacity="0.22"/><rect x="417" y="317" width="16" height="16" fill="#c9814a" opacity="0.22"/><circle cx="475" cy="700" r="7" fill="none" stroke="#c9814a" stroke-width="4" opacity="0.22"/><path d="M 475 700 L 325 700" fill="none" stroke="#c9814a" stroke-width="4" stroke-linecap="round" stroke-linejoin="round" opacity="0.22"/><circle cx="325" cy="700" r="9" fill="#122419" stroke="#c9814a" stroke-width="4" opacity="0.22"/><circle cx="300" cy="525" r="7" fill="none" stroke="#c9814a" stroke-width="4" opacity="0.22"/><path d="M 300 525 L 300 400" fill="none" stroke="#c9814a" stroke-width="4" stroke-linecap="round" stroke-linejoin="round" opacity="0.22"/><rect x="292" y="392" width="16" height="16" fill="#c9814a" opacity="0.22"/><circle cx="75" cy="200" r="7" fill="none" stroke="#c9814a" stroke-width="4" opacity="0.22"/><path d="M 75 200 L 75 250 L 40 250 L 40 125" fill="none" stroke="#c9814a" stroke-width="4" stroke-linecap="round" stroke-linejoin="round" opacity="0.22"/><circle cx="40" cy="125" r="9" fill="#122419" stroke="#c9814a" stroke-width="4" opacity="0.22"/><circle cx="600" cy="125" r="7" fill="none" stroke="#c9814a" stroke-width="4" opacity="0.22"/><path d="M 600 125 L 600 275 L 700 375" fill="none" stroke="#c9814a" stroke-width="4" stroke-linecap="round" stroke-linejoin="round" opacity="0.22"/><rect x="692" y="367" width="16" height="16" fill="#c9814a" opacity="0.22"/><circle cx="400" cy="250" r="7" fill="none" stroke="#c9814a" stroke-width="4" opacity="0.22"/><path d="M 400 250 L 500 150 L 500 60 L 375 60" fill="none" stroke="#c9814a" stroke-width="4" stroke-linecap="round" stroke-linejoin="round" opacity="0.22"/><circle cx="375" cy="60" r="9" fill="#122419" stroke="#c9814a" stroke-width="4" opacity="0.22"/><circle cx="375" cy="925" r="7" fill="none" stroke="#c9814a" stroke-width="4" opacity="0.22"/><path d="M 375 925 L 375 800 L 450 800" fill="none" stroke="#c9814a" stroke-width="4" stroke-linecap="round" stroke-linejoin="round" opacity="0.22"/><circle cx="450" cy="800" r="9" fill="#122419" stroke="#c9814a" stroke-width="4" opacity="0.22"/><circle cx="500" cy="750" r="7" fill="none" stroke="#c9814a" stroke-width="4" opacity="0.22"/><path d="M 500 750 L 625 750" fill="none" stroke="#c9814a" stroke-width="4" stroke-linecap="round" stroke-linejoin="round" opacity="0.22"/><rect x="617" y="742" width="16" height="16" fill="#c9814a" opacity="0.22"/><circle cx="175" cy="500" r="7" fill="none" stroke="#c9814a" stroke-width="4" opacity="0.22"/><path d="M 175 500 L 300 500" fill="none" stroke="#c9814a" stroke-width="4" stroke-linecap="round" stroke-linejoin="round" opacity="0.22"/><circle cx="300" cy="500" r="9" fill="#122419" stroke="#c9814a" stroke-width="4" opacity="0.22"/><circle cx="50" cy="75" r="7" fill="none" stroke="#c9814a" stroke-width="4" opacity="0.22"/><path d="M 50 75 L 50 125 L 100 175 L 40 175" fill="none" stroke="#c9814a" stroke-width="4" stroke-linecap="round" stroke-linejoin="round" opacity="0.22"/><circle cx="40" cy="175" r="9" fill="#122419" stroke="#c9814a" stroke-width="4" opacity="0.22"/><circle cx="350" cy="425" r="7" fill="none" stroke="#c9814a" stroke-width="4" opacity="0.22"/><path d="M 350 425 L 250 425 L 350 525 L 475 400" fill="none" stroke="#c9814a" stroke-width="4" stroke-linecap="round" stroke-linejoin="round" opacity="0.22"/><circle cx="475" cy="400" r="9" fill="#122419" stroke="#c9814a" stroke-width="4" opacity="0.22"/><circle cx="175" cy="675" r="7" fill="none" stroke="#c9814a" stroke-width="4" opacity="0.22"/><path d="M 175 675 L 175 550" fill="none" stroke="#c9814a" stroke-width="4" stroke-linecap="round" stroke-linejoin="round" opacity="0.22"/><rect x="167" y="542" width="16" height="16" fill="#c9814a" opacity="0.22"/><circle cx="325" cy="725" r="7" fill="none" stroke="#c9814a" stroke-width="4" opacity="0.22"/><path d="M 325 725 L 175 875" fill="none" stroke="#c9814a" stroke-width="4" stroke-linecap="round" stroke-linejoin="round" opacity="0.22"/><circle cx="175" cy="875" r="9" fill="#122419" stroke="#c9814a" stroke-width="4" opacity="0.22"/><rect x="475" y="875" width="14" height="20" fill="#c9814a" opacity="0.198"/><rect x="497" y="875" width="14" height="20" fill="#c9814a" opacity="0.198"/><rect x="519" y="875" width="14" height="20" fill="#c9814a" opacity="0.198"/><rect x="541" y="875" width="14" height="20" fill="#c9814a" opacity="0.198"/>
<circle cx="225" cy="150" r="7" fill="none" stroke="#5fe0a0" stroke-width="4" opacity="0.1"/><path d="M 225 150 L 75 150 L 125 200 L 125 60" fill="none" stroke="#5fe0a0" stroke-width="4" stroke-linecap="round" stroke-linejoin="round" opacity="0.1"/><rect x="117" y="52" width="16" height="16" fill="#5fe0a0" opacity="0.1"/><circle cx="400" cy="300" r="7" fill="none" stroke="#5fe0a0" stroke-width="4" opacity="0.1"/><path d="M 400 300 L 300 200 L 400 100 L 400 60" fill="none" stroke="#5fe0a0" stroke-width="4" stroke-linecap="round" stroke-linejoin="round" opacity="0.1"/><circle cx="400" cy="60" r="9" fill="#122419" stroke="#5fe0a0" stroke-width="4" opacity="0.1"/><circle cx="175" cy="125" r="7" fill="none" stroke="#5fe0a0" stroke-width="4" opacity="0.1"/><path d="M 175 125 L 175 60" fill="none" stroke="#5fe0a0" stroke-width="4" stroke-linecap="round" stroke-linejoin="round" opacity="0.1"/><rect x="167" y="52" width="16" height="16" fill="#5fe0a0" opacity="0.1"/><circle cx="175" cy="900" r="7" fill="none" stroke="#5fe0a0" stroke-width="4" opacity="0.1"/><path d="M 175 900 L 175 850 L 275 750 L 350 750" fill="none" stroke="#5fe0a0" stroke-width="4" stroke-linecap="round" stroke-linejoin="round" opacity="0.1"/><circle cx="350" cy="750" r="9" fill="#122419" stroke="#5fe0a0" stroke-width="4" opacity="0.1"/><circle cx="375" cy="250" r="7" fill="none" stroke="#5fe0a0" stroke-width="4" opacity="0.1"/><path d="M 375 250 L 225 400 L 225 525 L 100 525" fill="none" stroke="#5fe0a0" stroke-width="4" stroke-linecap="round" stroke-linejoin="round" opacity="0.1"/><circle cx="100" cy="525" r="9" fill="#122419" stroke="#5fe0a0" stroke-width="4" opacity="0.1"/><rect x="150" y="750" width="14" height="20" fill="#5fe0a0" opacity="0.09000000000000001"/><rect x="172" y="750" width="14" height="20" fill="#5fe0a0" opacity="0.09000000000000001"/><rect x="194" y="750" width="14" height="20" fill="#5fe0a0" opacity="0.09000000000000001"/><rect x="216" y="750" width="14" height="20" fill="#5fe0a0" opacity="0.09000000000000001"/>
<polygon points="539.5448267190434,410 539.5448267190434,600 375,695 210.45517328095664,600 210.45517328095661,410.00000000000006 374.9999999999998,315" fill="#0c1811" stroke="#e8a96a" stroke-width="9" filter="url(#cardDrop)"/>
<path d="M 408 350 L 318 545 L 372 545 L 340 660 L 448 470 L 386 470 Z" fill="#f0b23e" stroke="#0c1811" stroke-width="6"/>
<text x="375" y="810" text-anchor="middle" font-family="DejaVu Sans Condensed" font-weight="bold" font-size="72" letter-spacing="8" fill="#e8a96a">KORTSLUTNING</text>
<text x="375" y="860" text-anchor="middle" font-family="DejaVu Sans Mono" font-size="26" letter-spacing="6" fill="#87a693">// THE TECHNICIAN</text>
<rect x="70" y="1004" width="22" height="30" rx="2" fill="url(#guldgrad)" stroke="#4a3810" stroke-width="1"/><rect x="70" y="16" width="22" height="30" rx="2" fill="url(#guldgrad)" stroke="#4a3810" stroke-width="1"/><rect x="104" y="1004" width="22" height="30" rx="2" fill="url(#guldgrad)" stroke="#4a3810" stroke-width="1"/><rect x="104" y="16" width="22" height="30" rx="2" fill="url(#guldgrad)" stroke="#4a3810" stroke-width="1"/><rect x="138" y="1004" width="22" height="30" rx="2" fill="url(#guldgrad)" stroke="#4a3810" stroke-width="1"/><rect x="138" y="16" width="22" height="30" rx="2" fill="url(#guldgrad)" stroke="#4a3810" stroke-width="1"/><rect x="172" y="1004" width="22" height="30" rx="2" fill="url(#guldgrad)" stroke="#4a3810" stroke-width="1"/><rect x="172" y="16" width="22" height="30" rx="2" fill="url(#guldgrad)" stroke="#4a3810" stroke-width="1"/><rect x="206" y="1004" width="22" height="30" rx="2" fill="url(#guldgrad)" stroke="#4a3810" stroke-width="1"/><rect x="206" y="16" width="22" height="30" rx="2" fill="url(#guldgrad)" stroke="#4a3810" stroke-width="1"/><rect x="240" y="1004" width="22" height="30" rx="2" fill="url(#guldgrad)" stroke="#4a3810" stroke-width="1"/><rect x="240" y="16" width="22" height="30" rx="2" fill="url(#guldgrad)" stroke="#4a3810" stroke-width="1"/><rect x="274" y="1004" width="22" height="30" rx="2" fill="url(#guldgrad)" stroke="#4a3810" stroke-width="1"/><rect x="274" y="16" width="22" height="30" rx="2" fill="url(#guldgrad)" stroke="#4a3810" stroke-width="1"/><rect x="308" y="1004" width="22" height="30" rx="2" fill="url(#guldgrad)" stroke="#4a3810" stroke-width="1"/><rect x="308" y="16" width="22" height="30" rx="2" fill="url(#guldgrad)" stroke="#4a3810" stroke-width="1"/><rect x="342" y="1004" width="22" height="30" rx="2" fill="url(#guldgrad)" stroke="#4a3810" stroke-width="1"/><rect x="342" y="16" width="22" height="30" rx="2" fill="url(#guldgrad)" stroke="#4a3810" stroke-width="1"/><rect x="376" y="1004" width="22" height="30" rx="2" fill="url(#guldgrad)" stroke="#4a3810" stroke-width="1"/><rect x="376" y="16" width="22" height="30" rx="2" fill="url(#guldgrad)" stroke="#4a3810" stroke-width="1"/><rect x="410" y="1004" width="22" height="30" rx="2" fill="url(#guldgrad)" stroke="#4a3810" stroke-width="1"/><rect x="410" y="16" width="22" height="30" rx="2" fill="url(#guldgrad)" stroke="#4a3810" stroke-width="1"/><rect x="444" y="1004" width="22" height="30" rx="2" fill="url(#guldgrad)" stroke="#4a3810" stroke-width="1"/><rect x="444" y="16" width="22" height="30" rx="2" fill="url(#guldgrad)" stroke="#4a3810" stroke-width="1"/><rect x="478" y="1004" width="22" height="30" rx="2" fill="url(#guldgrad)" stroke="#4a3810" stroke-width="1"/><rect x="478" y="16" width="22" height="30" rx="2" fill="url(#guldgrad)" stroke="#4a3810" stroke-width="1"/><rect x="512" y="1004" width="22" height="30" rx="2" fill="url(#guldgrad)" stroke="#4a3810" stroke-width="1"/><rect x="512" y="16" width="22" height="30" rx="2" fill="url(#guldgrad)" stroke="#4a3810" stroke-width="1"/><rect x="546" y="1004" width="22" height="30" rx="2" fill="url(#guldgrad)" stroke="#4a3810" stroke-width="1"/><rect x="546" y="16" width="22" height="30" rx="2" fill="url(#guldgrad)" stroke="#4a3810" stroke-width="1"/><rect x="580" y="1004" width="22" height="30" rx="2" fill="url(#guldgrad)" stroke="#4a3810" stroke-width="1"/><rect x="580" y="16" width="22" height="30" rx="2" fill="url(#guldgrad)" stroke="#4a3810" stroke-width="1"/><rect x="614" y="1004" width="22" height="30" rx="2" fill="url(#guldgrad)" stroke="#4a3810" stroke-width="1"/><rect x="614" y="16" width="22" height="30" rx="2" fill="url(#guldgrad)" stroke="#4a3810" stroke-width="1"/><rect x="648" y="1004" width="22" height="30" rx="2" fill="url(#guldgrad)" stroke="#4a3810" stroke-width="1"/><rect x="648" y="16" width="22" height="30" rx="2" fill="url(#guldgrad)" stroke="#4a3810" stroke-width="1"/>
<rect x="6" y="6" width="738" height="1038" rx="36" fill="url(#gloss)" opacity="0.7"/>
</g></g>
</svg>