<svg xmlns="http://www.w3.org/2000/svg" width="750" height="1050" viewBox="0 0 750 1050">
<defs>
  <linearGradient id="bggrad" x1="0" y1="0" x2="0" y2="1">
    <stop offset="0" stop-color="#3d1170"/><stop offset="0.5" stop-color="#260a45"/><stop offset="1" stop-color="#0f0420"/>
  </linearGradient>
  <radialGradient id="artgrad" cx="0.5" cy="0.42" r="0.75">
    <stop offset="0" stop-color="#361854"/><stop offset="1" stop-color="#1f0838"/>
  </radialGradient>
  <linearGradient id="guldgrad" x1="0" y1="0" x2="0" y2="1">
    <stop offset="0" stop-color="#ffd166"/><stop offset="1" stop-color="#9a7422"/>
  </linearGradient>
  <clipPath id="artclip"><rect x="52" y="150" width="646" height="410" rx="14"/></clipPath>
</defs>
<rect x="6" y="6" width="738" height="1038" rx="36" fill="url(#bggrad)" stroke="#c07bff" stroke-width="6"/>
<rect x="22" y="22" width="706" height="1006" rx="26" fill="none" stroke="#c07bff" stroke-width="2" opacity="0.7"/>
<circle cx="125" cy="725" r="7" fill="none" stroke="#c9814a" stroke-width="4" opacity="0.1"/><path d="M 125 725 L 125 875" fill="none" stroke="#c9814a" stroke-width="4" stroke-linecap="round" stroke-linejoin="round" opacity="0.1"/><circle cx="125" cy="875" r="9" fill="#122419" stroke="#c9814a" stroke-width="4" opacity="0.1"/><circle cx="625" cy="950" r="7" fill="none" stroke="#c9814a" stroke-width="4" opacity="0.1"/><path d="M 625 950 L 575 950 L 500 980" fill="none" stroke="#c9814a" stroke-width="4" stroke-linecap="round" stroke-linejoin="round" opacity="0.1"/><circle cx="500" cy="980" r="9" fill="#122419" stroke="#c9814a" stroke-width="4" opacity="0.1"/><circle cx="175" cy="725" r="7" fill="none" stroke="#c9814a" stroke-width="4" opacity="0.1"/><path d="M 175 725 L 100 650" fill="none" stroke="#c9814a" stroke-width="4" stroke-linecap="round" stroke-linejoin="round" opacity="0.1"/><rect x="92" y="642" width="16" height="16" fill="#c9814a" opacity="0.1"/><circle cx="75" cy="925" r="7" fill="none" stroke="#c9814a" stroke-width="4" opacity="0.1"/><path d="M 75 925 L 40 925 L 40 980 L 115 980" fill="none" stroke="#c9814a" stroke-width="4" stroke-linecap="round" stroke-linejoin="round" opacity="0.1"/><rect x="107" y="972" width="16" height="16" fill="#c9814a" opacity="0.1"/><circle cx="475" cy="950" r="7" fill="none" stroke="#c9814a" stroke-width="4" opacity="0.1"/><path d="M 475 950 L 425 980 L 425 980 L 325 980" fill="none" stroke="#c9814a" stroke-width="4" stroke-linecap="round" stroke-linejoin="round" opacity="0.1"/><circle cx="325" cy="980" r="9" fill="#122419" stroke="#c9814a" stroke-width="4" opacity="0.1"/><rect x="575" y="700" width="14" height="20" fill="#c9814a" opacity="0.09000000000000001"/><rect x="597" y="700" width="14" height="20" fill="#c9814a" opacity="0.09000000000000001"/><rect x="619" y="700" width="14" height="20" fill="#c9814a" opacity="0.09000000000000001"/><rect x="641" y="700" width="14" height="20" fill="#c9814a" opacity="0.09000000000000001"/>
<g clip-path="url(#artclip)">
  <rect x="52" y="150" width="646" height="410" fill="url(#artgrad)"/>
  <circle cx="250" cy="550" r="7" fill="none" stroke="#c9814a" stroke-width="4" opacity="0.3"/><path d="M 250 550 L 350 550" fill="none" stroke="#c9814a" stroke-width="4" stroke-linecap="round" stroke-linejoin="round" opacity="0.3"/><circle cx="350" cy="550" r="9" fill="#122419" stroke="#c9814a" stroke-width="4" opacity="0.3"/><circle cx="175" cy="175" r="7" fill="none" stroke="#c9814a" stroke-width="4" opacity="0.3"/><path d="M 175 175 L 300 160" fill="none" stroke="#c9814a" stroke-width="4" stroke-linecap="round" stroke-linejoin="round" opacity="0.3"/><circle cx="300" cy="160" r="9" fill="#122419" stroke="#c9814a" stroke-width="4" opacity="0.3"/><circle cx="275" cy="325" r="7" fill="none" stroke="#c9814a" stroke-width="4" opacity="0.3"/><path d="M 275 325 L 175 225 L 175 160" fill="none" stroke="#c9814a" stroke-width="4" stroke-linecap="round" stroke-linejoin="round" opacity="0.3"/><circle cx="175" cy="160" r="9" fill="#122419" stroke="#c9814a" stroke-width="4" opacity="0.3"/><circle cx="475" cy="225" r="7" fill="none" stroke="#c9814a" stroke-width="4" opacity="0.3"/><path d="M 475 225 L 475 300" fill="none" stroke="#c9814a" stroke-width="4" stroke-linecap="round" stroke-linejoin="round" opacity="0.3"/><circle cx="475" cy="300" r="9" fill="#122419" stroke="#c9814a" stroke-width="4" opacity="0.3"/><circle cx="350" cy="525" r="7" fill="none" stroke="#c9814a" stroke-width="4" opacity="0.3"/><path d="M 350 525 L 350 550 L 500 550" fill="none" stroke="#c9814a" stroke-width="4" stroke-linecap="round" stroke-linejoin="round" opacity="0.3"/><circle cx="500" cy="550" r="9" fill="#122419" stroke="#c9814a" stroke-width="4" opacity="0.3"/><circle cx="650" cy="400" r="7" fill="none" stroke="#c9814a" stroke-width="4" opacity="0.3"/><path d="M 650 400 L 650 275 L 690 275" fill="none" stroke="#c9814a" stroke-width="4" stroke-linecap="round" stroke-linejoin="round" opacity="0.3"/><circle cx="690" cy="275" r="9" fill="#122419" stroke="#c9814a" stroke-width="4" opacity="0.3"/><circle cx="525" cy="550" r="7" fill="none" stroke="#c9814a" stroke-width="4" opacity="0.3"/><path d="M 525 550 L 525 450 L 425 450 L 325 350" fill="none" stroke="#c9814a" stroke-width="4" stroke-linecap="round" stroke-linejoin="round" opacity="0.3"/><circle cx="325" cy="350" r="9" fill="#122419" stroke="#c9814a" stroke-width="4" opacity="0.3"/><circle cx="250" cy="400" r="7" fill="none" stroke="#c9814a" stroke-width="4" opacity="0.3"/><path d="M 250 400 L 150 300 L 150 425" fill="none" stroke="#c9814a" stroke-width="4" stroke-linecap="round" stroke-linejoin="round" opacity="0.3"/><circle cx="150" cy="425" r="9" fill="#122419" stroke="#c9814a" stroke-width="4" opacity="0.3"/><circle cx="275" cy="400" r="7" fill="none" stroke="#c9814a" stroke-width="4" opacity="0.3"/><path d="M 275 400 L 425 250 L 275 400 L 275 350" fill="none" stroke="#c9814a" stroke-width="4" stroke-linecap="round" stroke-linejoin="round" opacity="0.3"/><circle cx="275" cy="350" r="9" fill="#122419" stroke="#c9814a" stroke-width="4" opacity="0.3"/><rect x="450" y="375" width="14" height="20" fill="#c9814a" opacity="0.27"/><rect x="472" y="375" width="14" height="20" fill="#c9814a" opacity="0.27"/><rect x="494" y="375" width="14" height="20" fill="#c9814a" opacity="0.27"/><rect x="516" y="375" width="14" height="20" fill="#c9814a" opacity="0.27"/>
  <circle cx="475" cy="450" r="7" fill="none" stroke="#c76bd9" stroke-width="4" opacity="0.22"/><path d="M 475 450 L 475 550 L 425 550 L 275 550" fill="none" stroke="#c76bd9" stroke-width="4" stroke-linecap="round" stroke-linejoin="round" opacity="0.22"/><rect x="267" y="542" width="16" height="16" fill="#c76bd9" opacity="0.22"/><circle cx="425" cy="250" r="7" fill="none" stroke="#c76bd9" stroke-width="4" opacity="0.22"/><path d="M 425 250 L 300 375 L 400 375" fill="none" stroke="#c76bd9" stroke-width="4" stroke-linecap="round" stroke-linejoin="round" opacity="0.22"/><rect x="392" y="367" width="16" height="16" fill="#c76bd9" opacity="0.22"/><circle cx="350" cy="300" r="7" fill="none" stroke="#c76bd9" stroke-width="4" opacity="0.22"/><path d="M 350 300 L 350 250 L 200 160" fill="none" stroke="#c76bd9" stroke-width="4" stroke-linecap="round" stroke-linejoin="round" opacity="0.22"/><circle cx="200" cy="160" r="9" fill="#122419" stroke="#c76bd9" stroke-width="4" opacity="0.22"/><rect x="75" y="325" width="14" height="20" fill="#c76bd9" opacity="0.198"/><rect x="97" y="325" width="14" height="20" fill="#c76bd9" opacity="0.198"/><rect x="119" y="325" width="14" height="20" fill="#c76bd9" opacity="0.198"/><rect x="141" y="325" width="14" height="20" fill="#c76bd9" opacity="0.198"/>
  <g transform="translate(375 345) scale(1.067) translate(-375 -345)"><line x1="463.7" y1="381.7" x2="515.4" y2="403.2" stroke="#c76bd9" stroke-width="13" stroke-linecap="round"/>
           <circle cx="515.4" cy="403.2" r="15" fill="#c76bd9"/><line x1="411.7" y1="433.7" x2="433.2" y2="485.4" stroke="#c76bd9" stroke-width="13" stroke-linecap="round"/>
           <circle cx="433.2" cy="485.4" r="15" fill="#c76bd9"/><line x1="338.3" y1="433.7" x2="316.8" y2="485.4" stroke="#c76bd9" stroke-width="13" stroke-linecap="round"/>
           <circle cx="316.8" cy="485.4" r="15" fill="#c76bd9"/><line x1="286.3" y1="381.7" x2="234.6" y2="403.2" stroke="#c76bd9" stroke-width="13" stroke-linecap="round"/>
           <circle cx="234.6" cy="403.2" r="15" fill="#c76bd9"/><line x1="286.3" y1="308.3" x2="234.6" y2="286.8" stroke="#c76bd9" stroke-width="13" stroke-linecap="round"/>
           <circle cx="234.6" cy="286.8" r="15" fill="#c76bd9"/><line x1="338.3" y1="256.3" x2="316.8" y2="204.6" stroke="#c76bd9" stroke-width="13" stroke-linecap="round"/>
           <circle cx="316.8" cy="204.6" r="15" fill="#c76bd9"/><line x1="411.7" y1="256.3" x2="433.2" y2="204.6" stroke="#c76bd9" stroke-width="13" stroke-linecap="round"/>
           <circle cx="433.2" cy="204.6" r="15" fill="#c76bd9"/><line x1="463.7" y1="308.3" x2="515.4" y2="286.8" stroke="#c76bd9" stroke-width="13" stroke-linecap="round"/>
           <circle cx="515.4" cy="286.8" r="15" fill="#c76bd9"/><circle cx="375" cy="345" r="96" fill="#173021" stroke="#c76bd9" stroke-width="10"/>
      <circle cx="345" cy="322" r="14" fill="#c76bd9" opacity="0.85"/>
      <circle cx="404" cy="352" r="19" fill="#c76bd9" opacity="0.6"/>
      <circle cx="358" cy="386" r="10" fill="#c76bd9" opacity="0.75"/></g>
</g>
<rect x="52" y="150" width="646" height="410" rx="14" fill="none" stroke="#274a35" stroke-width="3"/>
<text x="200" y="102" font-family="DejaVu Sans Condensed" font-weight="bold" font-size="46"
  letter-spacing="2" fill="#dbe7de">CRYPTOJACKER</text>
<polygon points="95,28 152,61 152,127 95,160 38,127 38,61" fill="#f0b23e" stroke="#1c1405" stroke-width="4"/>
<text x="95" y="118" text-anchor="middle" font-family="DejaVu Sans" font-weight="bold" font-size="74" fill="#1c1405">3</text>
<text x="375" y="608" text-anchor="middle" font-family="DejaVu Sans Mono" font-size="26" letter-spacing="3"
  fill="#c76bd9">THE HACKER · UNIT · VIRUS</text>
<line x1="80" y1="626" x2="670" y2="626" stroke="#c07bff" stroke-width="2" opacity="0.5"/>
<rect x="46" y="640" width="658" height="236" rx="16" fill="#340f5e" opacity="0.55"/>
<text x="375" y="763.3" text-anchor="middle" font-family="DejaVu Sans" font-size="30"
       fill="#dbe7de">Energy Harvest. Install: Store 1 energy.</text>

    <circle cx="95" cy="935" r="56" fill="#0c1811" stroke="#f0b23e" stroke-width="7"/>
    <text x="95" y="954" text-anchor="middle" font-family="DejaVu Sans" font-weight="bold" font-size="56" fill="#f0b23e">2</text>
    <circle cx="655" cy="935" r="56" fill="#0c1811" stroke="#5fe0a0" stroke-width="7"/>
    <text x="655" y="954" text-anchor="middle" font-family="DejaVu Sans" font-weight="bold" font-size="56" fill="#5fe0a0">3</text>
<rect x="70" y="1004" width="22" height="30" fill="url(#guldgrad)"/><rect x="104" y="1004" width="22" height="30" fill="url(#guldgrad)"/><rect x="138" y="1004" width="22" height="30" fill="url(#guldgrad)"/><rect x="172" y="1004" width="22" height="30" fill="url(#guldgrad)"/><rect x="206" y="1004" width="22" height="30" fill="url(#guldgrad)"/><rect x="240" y="1004" width="22" height="30" fill="url(#guldgrad)"/><rect x="274" y="1004" width="22" height="30" fill="url(#guldgrad)"/><rect x="308" y="1004" width="22" height="30" fill="url(#guldgrad)"/><rect x="342" y="1004" width="22" height="30" fill="url(#guldgrad)"/><rect x="376" y="1004" width="22" height="30" fill="url(#guldgrad)"/><rect x="410" y="1004" width="22" height="30" fill="url(#guldgrad)"/><rect x="444" y="1004" width="22" height="30" fill="url(#guldgrad)"/><rect x="478" y="1004" width="22" height="30" fill="url(#guldgrad)"/><rect x="512" y="1004" width="22" height="30" fill="url(#guldgrad)"/><rect x="546" y="1004" width="22" height="30" fill="url(#guldgrad)"/><rect x="580" y="1004" width="22" height="30" fill="url(#guldgrad)"/><rect x="614" y="1004" width="22" height="30" fill="url(#guldgrad)"/><rect x="648" y="1004" width="22" height="30" fill="url(#guldgrad)"/>
<rect x="60" y="1000" width="630" height="4" fill="#c9814a" opacity="0.5"/>
</svg>