<svg xmlns="http://www.w3.org/2000/svg" width="750" height="1050" viewBox="0 0 750 1050">
<defs>
  <linearGradient id="bggrad" x1="0" y1="0" x2="0" y2="1">
    <stop offset="0" stop-color="#3d1170"/><stop offset="0.5" stop-color="#260a45"/><stop offset="1" stop-color="#0f0420"/>
  </linearGradient>
  <radialGradient id="artgrad" cx="0.5" cy="0.42" r="0.75">
    <stop offset="0" stop-color="#361854"/><stop offset="1" stop-color="#1f0838"/>
  </radialGradient>
  <linearGradient id="guldgrad" x1="0" y1="0" x2="0" y2="1">
    <stop offset="0" stop-color="#ffd166"/><stop offset="1" stop-color="#9a7422"/>
  </linearGradient>
  <clipPath id="artclip"><rect x="52" y="150" width="646" height="410" rx="14"/></clipPath>
</defs>
<rect x="6" y="6" width="738" height="1038" rx="36" fill="url(#bggrad)" stroke="#ffd166" stroke-width="9"/>
<rect x="22" y="22" width="706" height="1006" rx="26" fill="none" stroke="#c07bff" stroke-width="3" opacity="0.7"/>
<circle cx="500" cy="950" r="7" fill="none" stroke="#c9814a" stroke-width="4" opacity="0.1"/><path d="M 500 950 L 375 980 L 375 980 L 525 980" fill="none" stroke="#c9814a" stroke-width="4" stroke-linecap="round" stroke-linejoin="round" opacity="0.1"/><rect x="517" y="972" width="16" height="16" fill="#c9814a" opacity="0.1"/><circle cx="650" cy="675" r="7" fill="none" stroke="#c9814a" stroke-width="4" opacity="0.1"/><path d="M 650 675 L 650 620 L 700 620" fill="none" stroke="#c9814a" stroke-width="4" stroke-linecap="round" stroke-linejoin="round" opacity="0.1"/><rect x="692" y="612" width="16" height="16" fill="#c9814a" opacity="0.1"/><circle cx="625" cy="875" r="7" fill="none" stroke="#c9814a" stroke-width="4" opacity="0.1"/><path d="M 625 875 L 475 980 L 550 905 L 500 855" fill="none" stroke="#c9814a" stroke-width="4" stroke-linecap="round" stroke-linejoin="round" opacity="0.1"/><rect x="492" y="847" width="16" height="16" fill="#c9814a" opacity="0.1"/><circle cx="675" cy="950" r="7" fill="none" stroke="#c9814a" stroke-width="4" opacity="0.1"/><path d="M 675 950 L 710 950" fill="none" stroke="#c9814a" stroke-width="4" stroke-linecap="round" stroke-linejoin="round" opacity="0.1"/><rect x="702" y="942" width="16" height="16" fill="#c9814a" opacity="0.1"/><circle cx="525" cy="650" r="7" fill="none" stroke="#c9814a" stroke-width="4" opacity="0.1"/><path d="M 525 650 L 525 620 L 675 620 L 675 620" fill="none" stroke="#c9814a" stroke-width="4" stroke-linecap="round" stroke-linejoin="round" opacity="0.1"/><circle cx="675" cy="620" r="9" fill="#122419" stroke="#c9814a" stroke-width="4" opacity="0.1"/><rect x="300" y="925" width="14" height="20" fill="#c9814a" opacity="0.09000000000000001"/><rect x="322" y="925" width="14" height="20" fill="#c9814a" opacity="0.09000000000000001"/><rect x="344" y="925" width="14" height="20" fill="#c9814a" opacity="0.09000000000000001"/><rect x="366" y="925" width="14" height="20" fill="#c9814a" opacity="0.09000000000000001"/>
<g clip-path="url(#artclip)">
  <rect x="52" y="150" width="646" height="410" fill="url(#artgrad)"/>
  <circle cx="400" cy="500" r="7" fill="none" stroke="#c9814a" stroke-width="4" opacity="0.3"/><path d="M 400 500 L 400 550 L 450 550 L 450 550" fill="none" stroke="#c9814a" stroke-width="4" stroke-linecap="round" stroke-linejoin="round" opacity="0.3"/><rect x="442" y="542" width="16" height="16" fill="#c9814a" opacity="0.3"/><circle cx="225" cy="425" r="7" fill="none" stroke="#c9814a" stroke-width="4" opacity="0.3"/><path d="M 225 425 L 300 350 L 300 450" fill="none" stroke="#c9814a" stroke-width="4" stroke-linecap="round" stroke-linejoin="round" opacity="0.3"/><circle cx="300" cy="450" r="9" fill="#122419" stroke="#c9814a" stroke-width="4" opacity="0.3"/><circle cx="450" cy="350" r="7" fill="none" stroke="#c9814a" stroke-width="4" opacity="0.3"/><path d="M 450 350 L 500 400 L 650 250" fill="none" stroke="#c9814a" stroke-width="4" stroke-linecap="round" stroke-linejoin="round" opacity="0.3"/><circle cx="650" cy="250" r="9" fill="#122419" stroke="#c9814a" stroke-width="4" opacity="0.3"/><circle cx="450" cy="275" r="7" fill="none" stroke="#c9814a" stroke-width="4" opacity="0.3"/><path d="M 450 275 L 450 425" fill="none" stroke="#c9814a" stroke-width="4" stroke-linecap="round" stroke-linejoin="round" opacity="0.3"/><circle cx="450" cy="425" r="9" fill="#122419" stroke="#c9814a" stroke-width="4" opacity="0.3"/><circle cx="650" cy="325" r="7" fill="none" stroke="#c9814a" stroke-width="4" opacity="0.3"/><path d="M 650 325 L 690 200" fill="none" stroke="#c9814a" stroke-width="4" stroke-linecap="round" stroke-linejoin="round" opacity="0.3"/><circle cx="690" cy="200" r="9" fill="#122419" stroke="#c9814a" stroke-width="4" opacity="0.3"/><circle cx="425" cy="325" r="7" fill="none" stroke="#c9814a" stroke-width="4" opacity="0.3"/><path d="M 425 325 L 425 250" fill="none" stroke="#c9814a" stroke-width="4" stroke-linecap="round" stroke-linejoin="round" opacity="0.3"/><rect x="417" y="242" width="16" height="16" fill="#c9814a" opacity="0.3"/><circle cx="700" cy="425" r="7" fill="none" stroke="#c9814a" stroke-width="4" opacity="0.3"/><path d="M 700 425 L 700 550 L 690 550" fill="none" stroke="#c9814a" stroke-width="4" stroke-linecap="round" stroke-linejoin="round" opacity="0.3"/><rect x="682" y="542" width="16" height="16" fill="#c9814a" opacity="0.3"/><circle cx="175" cy="375" r="7" fill="none" stroke="#c9814a" stroke-width="4" opacity="0.3"/><path d="M 175 375 L 60 250 L 135 250" fill="none" stroke="#c9814a" stroke-width="4" stroke-linecap="round" stroke-linejoin="round" opacity="0.3"/><circle cx="135" cy="250" r="9" fill="#122419" stroke="#c9814a" stroke-width="4" opacity="0.3"/><circle cx="300" cy="175" r="7" fill="none" stroke="#c9814a" stroke-width="4" opacity="0.3"/><path d="M 300 175 L 300 160 L 175 160" fill="none" stroke="#c9814a" stroke-width="4" stroke-linecap="round" stroke-linejoin="round" opacity="0.3"/><rect x="167" y="152" width="16" height="16" fill="#c9814a" opacity="0.3"/><rect x="175" y="175" width="14" height="20" fill="#c9814a" opacity="0.27"/><rect x="197" y="175" width="14" height="20" fill="#c9814a" opacity="0.27"/><rect x="219" y="175" width="14" height="20" fill="#c9814a" opacity="0.27"/><rect x="241" y="175" width="14" height="20" fill="#c9814a" opacity="0.27"/>
  <circle cx="125" cy="525" r="7" fill="none" stroke="#c76bd9" stroke-width="4" opacity="0.22"/><path d="M 125 525 L 60 525" fill="none" stroke="#c76bd9" stroke-width="4" stroke-linecap="round" stroke-linejoin="round" opacity="0.22"/><rect x="52" y="517" width="16" height="16" fill="#c76bd9" opacity="0.22"/><circle cx="300" cy="375" r="7" fill="none" stroke="#c76bd9" stroke-width="4" opacity="0.22"/><path d="M 300 375 L 225 375 L 225 275" fill="none" stroke="#c76bd9" stroke-width="4" stroke-linecap="round" stroke-linejoin="round" opacity="0.22"/><circle cx="225" cy="275" r="9" fill="#122419" stroke="#c76bd9" stroke-width="4" opacity="0.22"/><circle cx="525" cy="300" r="7" fill="none" stroke="#c76bd9" stroke-width="4" opacity="0.22"/><path d="M 525 300 L 575 300 L 575 400 L 425 400" fill="none" stroke="#c76bd9" stroke-width="4" stroke-linecap="round" stroke-linejoin="round" opacity="0.22"/><circle cx="425" cy="400" r="9" fill="#122419" stroke="#c76bd9" stroke-width="4" opacity="0.22"/><rect x="300" y="175" width="14" height="20" fill="#c76bd9" opacity="0.198"/><rect x="322" y="175" width="14" height="20" fill="#c76bd9" opacity="0.198"/><rect x="344" y="175" width="14" height="20" fill="#c76bd9" opacity="0.198"/><rect x="366" y="175" width="14" height="20" fill="#c76bd9" opacity="0.198"/>
  <g transform="translate(375 345) scale(0.948) translate(-375 -345)"><line x1="466.30142556433475" y1="374.6656314599949" x2="519.5605904768634" y2="391.970583144992" stroke="#c76bd9" stroke-width="13" stroke-linecap="round"/><circle cx="519.5605904768634" cy="391.970583144992" r="15" fill="#c76bd9"/><line x1="431.42738422007744" y1="422.665631459995" x2="464.3433583484559" y2="467.970583144992" stroke="#c76bd9" stroke-width="13" stroke-linecap="round"/><circle cx="464.3433583484559" cy="467.970583144992" r="15" fill="#c76bd9"/><line x1="375" y1="441" x2="375" y2="497" stroke="#c76bd9" stroke-width="13" stroke-linecap="round"/><circle cx="375" cy="497" r="15" fill="#c76bd9"/><line x1="318.57261577992256" y1="422.665631459995" x2="285.6566416515441" y2="467.970583144992" stroke="#c76bd9" stroke-width="13" stroke-linecap="round"/><circle cx="285.6566416515441" cy="467.970583144992" r="15" fill="#c76bd9"/><line x1="283.69857443566525" y1="374.665631459995" x2="230.43940952313667" y2="391.970583144992" stroke="#c76bd9" stroke-width="13" stroke-linecap="round"/><circle cx="230.43940952313667" cy="391.970583144992" r="15" fill="#c76bd9"/><line x1="283.69857443566525" y1="315.3343685400051" x2="230.43940952313665" y2="298.02941685500804" stroke="#c76bd9" stroke-width="13" stroke-linecap="round"/><circle cx="230.43940952313665" cy="298.02941685500804" r="15" fill="#c76bd9"/><line x1="318.57261577992256" y1="267.3343685400051" x2="285.6566416515441" y2="222.029416855008" stroke="#c76bd9" stroke-width="13" stroke-linecap="round"/><circle cx="285.6566416515441" cy="222.029416855008" r="15" fill="#c76bd9"/><line x1="375" y1="249" x2="375" y2="193" stroke="#c76bd9" stroke-width="13" stroke-linecap="round"/><circle cx="375" cy="193" r="15" fill="#c76bd9"/><line x1="431.4273842200774" y1="267.334368540005" x2="464.34335834845587" y2="222.02941685500798" stroke="#c76bd9" stroke-width="13" stroke-linecap="round"/><circle cx="464.34335834845587" cy="222.02941685500798" r="15" fill="#c76bd9"/><line x1="466.30142556433475" y1="315.334368540005" x2="519.5605904768634" y2="298.029416855008" stroke="#c76bd9" stroke-width="13" stroke-linecap="round"/><circle cx="519.5605904768634" cy="298.029416855008" r="15" fill="#c76bd9"/><circle cx="375" cy="345" r="96" fill="#173021" stroke="#c76bd9" stroke-width="10"/><circle cx="345" cy="322" r="14" fill="#c76bd9"/><circle cx="404" cy="352" r="19" fill="#c76bd9"/><circle cx="358" cy="386" r="10" fill="#c76bd9"/></g>
</g>
<rect x="52" y="150" width="646" height="410" rx="14" fill="none" stroke="#ffd166" stroke-width="3"/>
<text x="200" y="102" font-family="DejaVu Sans Condensed" font-weight="bold" font-size="46"
  letter-spacing="2" fill="#ffd166">M1RR0R</text>
<polygon points="95,28 152,61 152,127 95,160 38,127 38,61" fill="#f0b23e" stroke="#1c1405" stroke-width="4"/>
<text x="95" y="118" text-anchor="middle" font-family="DejaVu Sans" font-weight="bold" font-size="74" fill="#1c1405">7</text>
<text x="375" y="608" text-anchor="middle" font-family="DejaVu Sans Mono" font-size="26" letter-spacing="3"
  fill="#c76bd9">★ LEGENDARY · THE HACKER · UNIT · VIRUS</text>
<line x1="80" y1="626" x2="670" y2="626" stroke="#c07bff" stroke-width="2" opacity="0.5"/>
<rect x="46" y="640" width="658" height="236" rx="16" fill="#340f5e" opacity="0.55"/>
<text x="375" y="742.6" text-anchor="middle" font-family="DejaVu Sans" font-size="30"
       fill="#dbe7de">Install: Summon a base copy of an enemy</text>
<text x="375" y="784.0" text-anchor="middle" font-family="DejaVu Sans" font-size="30"
       fill="#dbe7de">unit.</text>

    <circle cx="95" cy="935" r="56" fill="#0c1811" stroke="#f0b23e" stroke-width="7"/>
    <text x="95" y="954" text-anchor="middle" font-family="DejaVu Sans" font-weight="bold" font-size="56" fill="#f0b23e">5</text>
    <circle cx="655" cy="935" r="56" fill="#0c1811" stroke="#5fe0a0" stroke-width="7"/>
    <text x="655" y="954" text-anchor="middle" font-family="DejaVu Sans" font-weight="bold" font-size="56" fill="#5fe0a0">5</text>
<rect x="70" y="1004" width="22" height="30" fill="url(#guldgrad)"/><rect x="104" y="1004" width="22" height="30" fill="url(#guldgrad)"/><rect x="138" y="1004" width="22" height="30" fill="url(#guldgrad)"/><rect x="172" y="1004" width="22" height="30" fill="url(#guldgrad)"/><rect x="206" y="1004" width="22" height="30" fill="url(#guldgrad)"/><rect x="240" y="1004" width="22" height="30" fill="url(#guldgrad)"/><rect x="274" y="1004" width="22" height="30" fill="url(#guldgrad)"/><rect x="308" y="1004" width="22" height="30" fill="url(#guldgrad)"/><rect x="342" y="1004" width="22" height="30" fill="url(#guldgrad)"/><rect x="376" y="1004" width="22" height="30" fill="url(#guldgrad)"/><rect x="410" y="1004" width="22" height="30" fill="url(#guldgrad)"/><rect x="444" y="1004" width="22" height="30" fill="url(#guldgrad)"/><rect x="478" y="1004" width="22" height="30" fill="url(#guldgrad)"/><rect x="512" y="1004" width="22" height="30" fill="url(#guldgrad)"/><rect x="546" y="1004" width="22" height="30" fill="url(#guldgrad)"/><rect x="580" y="1004" width="22" height="30" fill="url(#guldgrad)"/><rect x="614" y="1004" width="22" height="30" fill="url(#guldgrad)"/><rect x="648" y="1004" width="22" height="30" fill="url(#guldgrad)"/>
<rect x="60" y="1000" width="630" height="4" fill="#c9814a" opacity="0.5"/>
</svg>