<svg xmlns="http://www.w3.org/2000/svg" width="750" height="1050" viewBox="0 0 750 1050">
<defs>
  <linearGradient id="bggrad" x1="0" y1="0" x2="0" y2="1">
    <stop offset="0" stop-color="#3d1170"/><stop offset="0.5" stop-color="#260a45"/><stop offset="1" stop-color="#0f0420"/>
  </linearGradient>
  <radialGradient id="artgrad" cx="0.5" cy="0.42" r="0.75">
    <stop offset="0" stop-color="#361854"/><stop offset="1" stop-color="#1f0838"/>
  </radialGradient>
  <linearGradient id="guldgrad" x1="0" y1="0" x2="0" y2="1">
    <stop offset="0" stop-color="#ffd166"/><stop offset="1" stop-color="#9a7422"/>
  </linearGradient>
  <clipPath id="artclip"><rect x="52" y="150" width="646" height="410" rx="14"/></clipPath>
</defs>
<rect x="6" y="6" width="738" height="1038" rx="36" fill="url(#bggrad)" stroke="#c07bff" stroke-width="6"/>
<rect x="22" y="22" width="706" height="1006" rx="26" fill="none" stroke="#c07bff" stroke-width="2" opacity="0.7"/>
<circle cx="700" cy="875" r="7" fill="none" stroke="#c9814a" stroke-width="4" opacity="0.1"/><path d="M 700 875 L 710 875 L 710 750" fill="none" stroke="#c9814a" stroke-width="4" stroke-linecap="round" stroke-linejoin="round" opacity="0.1"/><circle cx="710" cy="750" r="9" fill="#122419" stroke="#c9814a" stroke-width="4" opacity="0.1"/><circle cx="275" cy="950" r="7" fill="none" stroke="#c9814a" stroke-width="4" opacity="0.1"/><path d="M 275 950 L 275 980 L 200 905" fill="none" stroke="#c9814a" stroke-width="4" stroke-linecap="round" stroke-linejoin="round" opacity="0.1"/><circle cx="200" cy="905" r="9" fill="#122419" stroke="#c9814a" stroke-width="4" opacity="0.1"/><circle cx="75" cy="800" r="7" fill="none" stroke="#c9814a" stroke-width="4" opacity="0.1"/><path d="M 75 800 L 75 675" fill="none" stroke="#c9814a" stroke-width="4" stroke-linecap="round" stroke-linejoin="round" opacity="0.1"/><circle cx="75" cy="675" r="9" fill="#122419" stroke="#c9814a" stroke-width="4" opacity="0.1"/><circle cx="175" cy="925" r="7" fill="none" stroke="#c9814a" stroke-width="4" opacity="0.1"/><path d="M 175 925 L 275 925 L 150 800 L 150 700" fill="none" stroke="#c9814a" stroke-width="4" stroke-linecap="round" stroke-linejoin="round" opacity="0.1"/><rect x="142" y="692" width="16" height="16" fill="#c9814a" opacity="0.1"/><circle cx="175" cy="625" r="7" fill="none" stroke="#c9814a" stroke-width="4" opacity="0.1"/><path d="M 175 625 L 175 775 L 75 875" fill="none" stroke="#c9814a" stroke-width="4" stroke-linecap="round" stroke-linejoin="round" opacity="0.1"/><circle cx="75" cy="875" r="9" fill="#122419" stroke="#c9814a" stroke-width="4" opacity="0.1"/><rect x="425" y="800" width="14" height="20" fill="#c9814a" opacity="0.09000000000000001"/><rect x="447" y="800" width="14" height="20" fill="#c9814a" opacity="0.09000000000000001"/><rect x="469" y="800" width="14" height="20" fill="#c9814a" opacity="0.09000000000000001"/><rect x="491" y="800" width="14" height="20" fill="#c9814a" opacity="0.09000000000000001"/>
<g clip-path="url(#artclip)">
  <rect x="52" y="150" width="646" height="410" fill="url(#artgrad)"/>
  <circle cx="550" cy="500" r="7" fill="none" stroke="#c9814a" stroke-width="4" opacity="0.3"/><path d="M 550 500 L 475 550" fill="none" stroke="#c9814a" stroke-width="4" stroke-linecap="round" stroke-linejoin="round" opacity="0.3"/><circle cx="475" cy="550" r="9" fill="#122419" stroke="#c9814a" stroke-width="4" opacity="0.3"/><circle cx="275" cy="525" r="7" fill="none" stroke="#c9814a" stroke-width="4" opacity="0.3"/><path d="M 275 525 L 225 525" fill="none" stroke="#c9814a" stroke-width="4" stroke-linecap="round" stroke-linejoin="round" opacity="0.3"/><circle cx="225" cy="525" r="9" fill="#122419" stroke="#c9814a" stroke-width="4" opacity="0.3"/><circle cx="600" cy="225" r="7" fill="none" stroke="#c9814a" stroke-width="4" opacity="0.3"/><path d="M 600 225 L 475 160" fill="none" stroke="#c9814a" stroke-width="4" stroke-linecap="round" stroke-linejoin="round" opacity="0.3"/><circle cx="475" cy="160" r="9" fill="#122419" stroke="#c9814a" stroke-width="4" opacity="0.3"/><circle cx="650" cy="425" r="7" fill="none" stroke="#c9814a" stroke-width="4" opacity="0.3"/><path d="M 650 425 L 550 425 L 400 550" fill="none" stroke="#c9814a" stroke-width="4" stroke-linecap="round" stroke-linejoin="round" opacity="0.3"/><circle cx="400" cy="550" r="9" fill="#122419" stroke="#c9814a" stroke-width="4" opacity="0.3"/><circle cx="150" cy="150" r="7" fill="none" stroke="#c9814a" stroke-width="4" opacity="0.3"/><path d="M 150 150 L 300 150 L 300 160" fill="none" stroke="#c9814a" stroke-width="4" stroke-linecap="round" stroke-linejoin="round" opacity="0.3"/><circle cx="300" cy="160" r="9" fill="#122419" stroke="#c9814a" stroke-width="4" opacity="0.3"/><circle cx="350" cy="275" r="7" fill="none" stroke="#c9814a" stroke-width="4" opacity="0.3"/><path d="M 350 275 L 425 275" fill="none" stroke="#c9814a" stroke-width="4" stroke-linecap="round" stroke-linejoin="round" opacity="0.3"/><rect x="417" y="267" width="16" height="16" fill="#c9814a" opacity="0.3"/><circle cx="500" cy="375" r="7" fill="none" stroke="#c9814a" stroke-width="4" opacity="0.3"/><path d="M 500 375 L 625 250 L 575 200 L 690 200" fill="none" stroke="#c9814a" stroke-width="4" stroke-linecap="round" stroke-linejoin="round" opacity="0.3"/><circle cx="690" cy="200" r="9" fill="#122419" stroke="#c9814a" stroke-width="4" opacity="0.3"/><circle cx="275" cy="175" r="7" fill="none" stroke="#c9814a" stroke-width="4" opacity="0.3"/><path d="M 275 175 L 225 175" fill="none" stroke="#c9814a" stroke-width="4" stroke-linecap="round" stroke-linejoin="round" opacity="0.3"/><rect x="217" y="167" width="16" height="16" fill="#c9814a" opacity="0.3"/><circle cx="225" cy="325" r="7" fill="none" stroke="#c9814a" stroke-width="4" opacity="0.3"/><path d="M 225 325 L 375 175 L 375 325 L 425 325" fill="none" stroke="#c9814a" stroke-width="4" stroke-linecap="round" stroke-linejoin="round" opacity="0.3"/><rect x="417" y="317" width="16" height="16" fill="#c9814a" opacity="0.3"/><rect x="300" y="225" width="14" height="20" fill="#c9814a" opacity="0.27"/><rect x="322" y="225" width="14" height="20" fill="#c9814a" opacity="0.27"/><rect x="344" y="225" width="14" height="20" fill="#c9814a" opacity="0.27"/><rect x="366" y="225" width="14" height="20" fill="#c9814a" opacity="0.27"/>
  <circle cx="650" cy="500" r="7" fill="none" stroke="#c76bd9" stroke-width="4" opacity="0.22"/><path d="M 650 500 L 575 500 L 675 550" fill="none" stroke="#c76bd9" stroke-width="4" stroke-linecap="round" stroke-linejoin="round" opacity="0.22"/><rect x="667" y="542" width="16" height="16" fill="#c76bd9" opacity="0.22"/><circle cx="675" cy="525" r="7" fill="none" stroke="#c76bd9" stroke-width="4" opacity="0.22"/><path d="M 675 525 L 675 400 L 625 400 L 625 525" fill="none" stroke="#c76bd9" stroke-width="4" stroke-linecap="round" stroke-linejoin="round" opacity="0.22"/><circle cx="625" cy="525" r="9" fill="#122419" stroke="#c76bd9" stroke-width="4" opacity="0.22"/><circle cx="250" cy="375" r="7" fill="none" stroke="#c76bd9" stroke-width="4" opacity="0.22"/><path d="M 250 375 L 100 375 L 100 250 L 60 250" fill="none" stroke="#c76bd9" stroke-width="4" stroke-linecap="round" stroke-linejoin="round" opacity="0.22"/><circle cx="60" cy="250" r="9" fill="#122419" stroke="#c76bd9" stroke-width="4" opacity="0.22"/><rect x="150" y="250" width="14" height="20" fill="#c76bd9" opacity="0.198"/><rect x="172" y="250" width="14" height="20" fill="#c76bd9" opacity="0.198"/><rect x="194" y="250" width="14" height="20" fill="#c76bd9" opacity="0.198"/><rect x="216" y="250" width="14" height="20" fill="#c76bd9" opacity="0.198"/>
  <g transform="translate(375 345) scale(1.005) translate(-375 -345)"><line x1="463.6924351210835" y1="381.7376095070486" x2="515.4296889417155" y2="403.16788171949366" stroke="#c76bd9" stroke-width="13" stroke-linecap="round"/><circle cx="515.4296889417155" cy="403.16788171949366" r="15" fill="#c76bd9"/><line x1="411.7376095070486" y1="433.6924351210835" x2="433.16788171949366" y2="485.4296889417156" stroke="#c76bd9" stroke-width="13" stroke-linecap="round"/><circle cx="433.16788171949366" cy="485.4296889417156" r="15" fill="#c76bd9"/><line x1="338.2623904929514" y1="433.6924351210835" x2="316.8321182805064" y2="485.4296889417156" stroke="#c76bd9" stroke-width="13" stroke-linecap="round"/><circle cx="316.8321182805064" cy="485.4296889417156" r="15" fill="#c76bd9"/><line x1="286.3075648789165" y1="381.73760950704866" x2="234.5703110582844" y2="403.16788171949366" stroke="#c76bd9" stroke-width="13" stroke-linecap="round"/><circle cx="234.5703110582844" cy="403.16788171949366" r="15" fill="#c76bd9"/><line x1="286.3075648789165" y1="308.2623904929514" x2="234.5703110582844" y2="286.8321182805064" stroke="#c76bd9" stroke-width="13" stroke-linecap="round"/><circle cx="234.5703110582844" cy="286.8321182805064" r="15" fill="#c76bd9"/><line x1="338.26239049295134" y1="256.3075648789165" x2="316.8321182805063" y2="204.57031105828446" stroke="#c76bd9" stroke-width="13" stroke-linecap="round"/><circle cx="316.8321182805063" cy="204.57031105828446" r="15" fill="#c76bd9"/><line x1="411.73760950704866" y1="256.3075648789165" x2="433.16788171949366" y2="204.57031105828443" stroke="#c76bd9" stroke-width="13" stroke-linecap="round"/><circle cx="433.16788171949366" cy="204.57031105828443" r="15" fill="#c76bd9"/><line x1="463.6924351210835" y1="308.26239049295134" x2="515.4296889417155" y2="286.8321182805063" stroke="#c76bd9" stroke-width="13" stroke-linecap="round"/><circle cx="515.4296889417155" cy="286.8321182805063" r="15" fill="#c76bd9"/><circle cx="375" cy="345" r="96" fill="#173021" stroke="#c76bd9" stroke-width="10"/><circle cx="345" cy="322" r="14" fill="#c76bd9"/><circle cx="404" cy="352" r="19" fill="#c76bd9"/><circle cx="358" cy="386" r="10" fill="#c76bd9"/></g>
</g>
<rect x="52" y="150" width="646" height="410" rx="14" fill="none" stroke="#274a35" stroke-width="3"/>
<text x="200" y="102" font-family="DejaVu Sans Condensed" font-weight="bold" font-size="38"
  letter-spacing="2" fill="#dbe7de">MAN IN THE MIDDLE</text>
<polygon points="95,28 152,61 152,127 95,160 38,127 38,61" fill="#f0b23e" stroke="#1c1405" stroke-width="4"/>
<text x="95" y="118" text-anchor="middle" font-family="DejaVu Sans" font-weight="bold" font-size="74" fill="#1c1405">4</text>
<text x="375" y="608" text-anchor="middle" font-family="DejaVu Sans Mono" font-size="26" letter-spacing="3"
  fill="#c76bd9">THE HACKER · UNIT · VIRUS</text>
<line x1="80" y1="626" x2="670" y2="626" stroke="#c07bff" stroke-width="2" opacity="0.5"/>
<rect x="46" y="640" width="658" height="236" rx="16" fill="#340f5e" opacity="0.55"/>
<text x="375" y="742.6" text-anchor="middle" font-family="DejaVu Sans" font-size="30"
       fill="#dbe7de">Install: Return an enemy unit to its</text>
<text x="375" y="784.0" text-anchor="middle" font-family="DejaVu Sans" font-size="30"
       fill="#dbe7de">owner’s hand.</text>

    <circle cx="95" cy="935" r="56" fill="#0c1811" stroke="#f0b23e" stroke-width="7"/>
    <text x="95" y="954" text-anchor="middle" font-family="DejaVu Sans" font-weight="bold" font-size="56" fill="#f0b23e">3</text>
    <circle cx="655" cy="935" r="56" fill="#0c1811" stroke="#5fe0a0" stroke-width="7"/>
    <text x="655" y="954" text-anchor="middle" font-family="DejaVu Sans" font-weight="bold" font-size="56" fill="#5fe0a0">4</text>
<rect x="70" y="1004" width="22" height="30" fill="url(#guldgrad)"/><rect x="104" y="1004" width="22" height="30" fill="url(#guldgrad)"/><rect x="138" y="1004" width="22" height="30" fill="url(#guldgrad)"/><rect x="172" y="1004" width="22" height="30" fill="url(#guldgrad)"/><rect x="206" y="1004" width="22" height="30" fill="url(#guldgrad)"/><rect x="240" y="1004" width="22" height="30" fill="url(#guldgrad)"/><rect x="274" y="1004" width="22" height="30" fill="url(#guldgrad)"/><rect x="308" y="1004" width="22" height="30" fill="url(#guldgrad)"/><rect x="342" y="1004" width="22" height="30" fill="url(#guldgrad)"/><rect x="376" y="1004" width="22" height="30" fill="url(#guldgrad)"/><rect x="410" y="1004" width="22" height="30" fill="url(#guldgrad)"/><rect x="444" y="1004" width="22" height="30" fill="url(#guldgrad)"/><rect x="478" y="1004" width="22" height="30" fill="url(#guldgrad)"/><rect x="512" y="1004" width="22" height="30" fill="url(#guldgrad)"/><rect x="546" y="1004" width="22" height="30" fill="url(#guldgrad)"/><rect x="580" y="1004" width="22" height="30" fill="url(#guldgrad)"/><rect x="614" y="1004" width="22" height="30" fill="url(#guldgrad)"/><rect x="648" y="1004" width="22" height="30" fill="url(#guldgrad)"/>
<rect x="60" y="1000" width="630" height="4" fill="#c9814a" opacity="0.5"/>
</svg>