<svg xmlns="http://www.w3.org/2000/svg" width="750" height="1050" viewBox="0 0 750 1050">
<defs>
  <linearGradient id="bggrad" x1="0" y1="0" x2="0" y2="1">
    <stop offset="0" stop-color="#173021"/><stop offset="0.5" stop-color="#122419"/><stop offset="1" stop-color="#0c1811"/>
  </linearGradient>
  <linearGradient id="guldgrad" x1="0" y1="0" x2="0" y2="1">
    <stop offset="0" stop-color="#ffd166"/><stop offset="1" stop-color="#9a7422"/>
  </linearGradient>
  <clipPath id="artclip"><rect x="52" y="150" width="646" height="410" rx="14"/></clipPath>
</defs>
<rect x="6" y="6" width="738" height="1038" rx="36" fill="url(#bggrad)" stroke="#274a35" stroke-width="6"/>
<rect x="22" y="22" width="706" height="1006" rx="26" fill="none" stroke="#c76bd9" stroke-width="3" opacity="0.8"/>
<circle cx="500" cy="825" r="7" fill="none" stroke="#c9814a" stroke-width="4" opacity="0.1"/><path d="M 500 825 L 500 725 L 575 725 L 575 825" fill="none" stroke="#c9814a" stroke-width="4" stroke-linecap="round" stroke-linejoin="round" opacity="0.1"/><circle cx="575" cy="825" r="9" fill="#122419" stroke="#c9814a" stroke-width="4" opacity="0.1"/><circle cx="100" cy="950" r="7" fill="none" stroke="#c9814a" stroke-width="4" opacity="0.1"/><path d="M 100 950 L 100 980 L 200 980 L 325 980" fill="none" stroke="#c9814a" stroke-width="4" stroke-linecap="round" stroke-linejoin="round" opacity="0.1"/><circle cx="325" cy="980" r="9" fill="#122419" stroke="#c9814a" stroke-width="4" opacity="0.1"/><circle cx="175" cy="975" r="7" fill="none" stroke="#c9814a" stroke-width="4" opacity="0.1"/><path d="M 175 975 L 125 925" fill="none" stroke="#c9814a" stroke-width="4" stroke-linecap="round" stroke-linejoin="round" opacity="0.1"/><circle cx="125" cy="925" r="9" fill="#122419" stroke="#c9814a" stroke-width="4" opacity="0.1"/><circle cx="375" cy="800" r="7" fill="none" stroke="#c9814a" stroke-width="4" opacity="0.1"/><path d="M 375 800 L 525 800 L 525 700 L 450 775" fill="none" stroke="#c9814a" stroke-width="4" stroke-linecap="round" stroke-linejoin="round" opacity="0.1"/><circle cx="450" cy="775" r="9" fill="#122419" stroke="#c9814a" stroke-width="4" opacity="0.1"/><circle cx="425" cy="750" r="7" fill="none" stroke="#c9814a" stroke-width="4" opacity="0.1"/><path d="M 425 750 L 475 800" fill="none" stroke="#c9814a" stroke-width="4" stroke-linecap="round" stroke-linejoin="round" opacity="0.1"/><rect x="467" y="792" width="16" height="16" fill="#c9814a" opacity="0.1"/><rect x="125" y="775" width="14" height="20" fill="#c9814a" opacity="0.09000000000000001"/><rect x="147" y="775" width="14" height="20" fill="#c9814a" opacity="0.09000000000000001"/><rect x="169" y="775" width="14" height="20" fill="#c9814a" opacity="0.09000000000000001"/><rect x="191" y="775" width="14" height="20" fill="#c9814a" opacity="0.09000000000000001"/>
<g clip-path="url(#artclip)">
  <rect x="52" y="150" width="646" height="410" fill="#0c1811"/>
  <circle cx="175" cy="250" r="7" fill="none" stroke="#c9814a" stroke-width="4" opacity="0.3"/><path d="M 175 250 L 275 350 L 425 200 L 375 250" fill="none" stroke="#c9814a" stroke-width="4" stroke-linecap="round" stroke-linejoin="round" opacity="0.3"/><circle cx="375" cy="250" r="9" fill="#122419" stroke="#c9814a" stroke-width="4" opacity="0.3"/><circle cx="325" cy="475" r="7" fill="none" stroke="#c9814a" stroke-width="4" opacity="0.3"/><path d="M 325 475 L 250 400" fill="none" stroke="#c9814a" stroke-width="4" stroke-linecap="round" stroke-linejoin="round" opacity="0.3"/><circle cx="250" cy="400" r="9" fill="#122419" stroke="#c9814a" stroke-width="4" opacity="0.3"/><circle cx="375" cy="225" r="7" fill="none" stroke="#c9814a" stroke-width="4" opacity="0.3"/><path d="M 375 225 L 300 160 L 350 160" fill="none" stroke="#c9814a" stroke-width="4" stroke-linecap="round" stroke-linejoin="round" opacity="0.3"/><circle cx="350" cy="160" r="9" fill="#122419" stroke="#c9814a" stroke-width="4" opacity="0.3"/><circle cx="500" cy="250" r="7" fill="none" stroke="#c9814a" stroke-width="4" opacity="0.3"/><path d="M 500 250 L 500 300 L 350 300 L 350 250" fill="none" stroke="#c9814a" stroke-width="4" stroke-linecap="round" stroke-linejoin="round" opacity="0.3"/><circle cx="350" cy="250" r="9" fill="#122419" stroke="#c9814a" stroke-width="4" opacity="0.3"/><circle cx="225" cy="375" r="7" fill="none" stroke="#c9814a" stroke-width="4" opacity="0.3"/><path d="M 225 375 L 175 425 L 100 350 L 60 350" fill="none" stroke="#c9814a" stroke-width="4" stroke-linecap="round" stroke-linejoin="round" opacity="0.3"/><circle cx="60" cy="350" r="9" fill="#122419" stroke="#c9814a" stroke-width="4" opacity="0.3"/><circle cx="650" cy="400" r="7" fill="none" stroke="#c9814a" stroke-width="4" opacity="0.3"/><path d="M 650 400 L 650 450" fill="none" stroke="#c9814a" stroke-width="4" stroke-linecap="round" stroke-linejoin="round" opacity="0.3"/><rect x="642" y="442" width="16" height="16" fill="#c9814a" opacity="0.3"/><circle cx="350" cy="275" r="7" fill="none" stroke="#c9814a" stroke-width="4" opacity="0.3"/><path d="M 350 275 L 400 325" fill="none" stroke="#c9814a" stroke-width="4" stroke-linecap="round" stroke-linejoin="round" opacity="0.3"/><circle cx="400" cy="325" r="9" fill="#122419" stroke="#c9814a" stroke-width="4" opacity="0.3"/><circle cx="175" cy="475" r="7" fill="none" stroke="#c9814a" stroke-width="4" opacity="0.3"/><path d="M 175 475 L 250 475 L 125 350 L 60 425" fill="none" stroke="#c9814a" stroke-width="4" stroke-linecap="round" stroke-linejoin="round" opacity="0.3"/><rect x="52" y="417" width="16" height="16" fill="#c9814a" opacity="0.3"/><circle cx="475" cy="425" r="7" fill="none" stroke="#c9814a" stroke-width="4" opacity="0.3"/><path d="M 475 425 L 475 325 L 525 375" fill="none" stroke="#c9814a" stroke-width="4" stroke-linecap="round" stroke-linejoin="round" opacity="0.3"/><circle cx="525" cy="375" r="9" fill="#122419" stroke="#c9814a" stroke-width="4" opacity="0.3"/><rect x="375" y="475" width="14" height="20" fill="#c9814a" opacity="0.27"/><rect x="397" y="475" width="14" height="20" fill="#c9814a" opacity="0.27"/><rect x="419" y="475" width="14" height="20" fill="#c9814a" opacity="0.27"/><rect x="441" y="475" width="14" height="20" fill="#c9814a" opacity="0.27"/>
  <circle cx="75" cy="325" r="7" fill="none" stroke="#c76bd9" stroke-width="4" opacity="0.22"/><path d="M 75 325 L 60 400 L 60 300" fill="none" stroke="#c76bd9" stroke-width="4" stroke-linecap="round" stroke-linejoin="round" opacity="0.22"/><rect x="52" y="292" width="16" height="16" fill="#c76bd9" opacity="0.22"/><circle cx="125" cy="525" r="7" fill="none" stroke="#c76bd9" stroke-width="4" opacity="0.22"/><path d="M 125 525 L 250 550 L 350 450 L 475 450" fill="none" stroke="#c76bd9" stroke-width="4" stroke-linecap="round" stroke-linejoin="round" opacity="0.22"/><circle cx="475" cy="450" r="9" fill="#122419" stroke="#c76bd9" stroke-width="4" opacity="0.22"/><circle cx="400" cy="325" r="7" fill="none" stroke="#c76bd9" stroke-width="4" opacity="0.22"/><path d="M 400 325 L 550 475 L 450 550 L 450 550" fill="none" stroke="#c76bd9" stroke-width="4" stroke-linecap="round" stroke-linejoin="round" opacity="0.22"/><rect x="442" y="542" width="16" height="16" fill="#c76bd9" opacity="0.22"/><rect x="150" y="375" width="14" height="20" fill="#c76bd9" opacity="0.198"/><rect x="172" y="375" width="14" height="20" fill="#c76bd9" opacity="0.198"/><rect x="194" y="375" width="14" height="20" fill="#c76bd9" opacity="0.198"/><rect x="216" y="375" width="14" height="20" fill="#c76bd9" opacity="0.198"/>
  <g transform="translate(375 345) scale(1.068) translate(-375 -345)"><line x1="463.7" y1="381.7" x2="515.4" y2="403.2" stroke="#c76bd9" stroke-width="13" stroke-linecap="round"/>
           <circle cx="515.4" cy="403.2" r="15" fill="#c76bd9"/><line x1="411.7" y1="433.7" x2="433.2" y2="485.4" stroke="#c76bd9" stroke-width="13" stroke-linecap="round"/>
           <circle cx="433.2" cy="485.4" r="15" fill="#c76bd9"/><line x1="338.3" y1="433.7" x2="316.8" y2="485.4" stroke="#c76bd9" stroke-width="13" stroke-linecap="round"/>
           <circle cx="316.8" cy="485.4" r="15" fill="#c76bd9"/><line x1="286.3" y1="381.7" x2="234.6" y2="403.2" stroke="#c76bd9" stroke-width="13" stroke-linecap="round"/>
           <circle cx="234.6" cy="403.2" r="15" fill="#c76bd9"/><line x1="286.3" y1="308.3" x2="234.6" y2="286.8" stroke="#c76bd9" stroke-width="13" stroke-linecap="round"/>
           <circle cx="234.6" cy="286.8" r="15" fill="#c76bd9"/><line x1="338.3" y1="256.3" x2="316.8" y2="204.6" stroke="#c76bd9" stroke-width="13" stroke-linecap="round"/>
           <circle cx="316.8" cy="204.6" r="15" fill="#c76bd9"/><line x1="411.7" y1="256.3" x2="433.2" y2="204.6" stroke="#c76bd9" stroke-width="13" stroke-linecap="round"/>
           <circle cx="433.2" cy="204.6" r="15" fill="#c76bd9"/><line x1="463.7" y1="308.3" x2="515.4" y2="286.8" stroke="#c76bd9" stroke-width="13" stroke-linecap="round"/>
           <circle cx="515.4" cy="286.8" r="15" fill="#c76bd9"/><circle cx="375" cy="345" r="96" fill="#173021" stroke="#c76bd9" stroke-width="10"/>
      <circle cx="345" cy="322" r="14" fill="#c76bd9" opacity="0.85"/>
      <circle cx="404" cy="352" r="19" fill="#c76bd9" opacity="0.6"/>
      <circle cx="358" cy="386" r="10" fill="#c76bd9" opacity="0.75"/></g>
</g>
<rect x="52" y="150" width="646" height="410" rx="14" fill="none" stroke="#274a35" stroke-width="3"/>
<text x="200" y="102" font-family="DejaVu Sans Condensed" font-weight="bold" font-size="46"
  letter-spacing="2" fill="#dbe7de">PAYLOAD</text>
<polygon points="95,28 152,61 152,127 95,160 38,127 38,61" fill="#f0b23e" stroke="#1c1405" stroke-width="4"/>
<text x="95" y="118" text-anchor="middle" font-family="DejaVu Sans" font-weight="bold" font-size="74" fill="#1c1405">5</text>
<text x="375" y="608" text-anchor="middle" font-family="DejaVu Sans Mono" font-size="26" letter-spacing="3"
  fill="#c76bd9">THE HACKER · UNIT · VIRUS</text>
<line x1="80" y1="626" x2="670" y2="626" stroke="#274a35" stroke-width="2"/>
<text x="375" y="742.6" text-anchor="middle" font-family="DejaVu Sans" font-size="30"
       fill="#dbe7de">Breakdown: Deal 3 damage to the enemy</text>
<text x="375" y="784.0" text-anchor="middle" font-family="DejaVu Sans" font-size="30"
       fill="#dbe7de">hero.</text>

    <circle cx="95" cy="935" r="56" fill="#0c1811" stroke="#f0b23e" stroke-width="7"/>
    <text x="95" y="954" text-anchor="middle" font-family="DejaVu Sans" font-weight="bold" font-size="56" fill="#f0b23e">4</text>
    <circle cx="655" cy="935" r="56" fill="#0c1811" stroke="#5fe0a0" stroke-width="7"/>
    <text x="655" y="954" text-anchor="middle" font-family="DejaVu Sans" font-weight="bold" font-size="56" fill="#5fe0a0">4</text>
<rect x="70" y="1004" width="22" height="30" fill="url(#guldgrad)"/><rect x="104" y="1004" width="22" height="30" fill="url(#guldgrad)"/><rect x="138" y="1004" width="22" height="30" fill="url(#guldgrad)"/><rect x="172" y="1004" width="22" height="30" fill="url(#guldgrad)"/><rect x="206" y="1004" width="22" height="30" fill="url(#guldgrad)"/><rect x="240" y="1004" width="22" height="30" fill="url(#guldgrad)"/><rect x="274" y="1004" width="22" height="30" fill="url(#guldgrad)"/><rect x="308" y="1004" width="22" height="30" fill="url(#guldgrad)"/><rect x="342" y="1004" width="22" height="30" fill="url(#guldgrad)"/><rect x="376" y="1004" width="22" height="30" fill="url(#guldgrad)"/><rect x="410" y="1004" width="22" height="30" fill="url(#guldgrad)"/><rect x="444" y="1004" width="22" height="30" fill="url(#guldgrad)"/><rect x="478" y="1004" width="22" height="30" fill="url(#guldgrad)"/><rect x="512" y="1004" width="22" height="30" fill="url(#guldgrad)"/><rect x="546" y="1004" width="22" height="30" fill="url(#guldgrad)"/><rect x="580" y="1004" width="22" height="30" fill="url(#guldgrad)"/><rect x="614" y="1004" width="22" height="30" fill="url(#guldgrad)"/><rect x="648" y="1004" width="22" height="30" fill="url(#guldgrad)"/>
<rect x="60" y="1000" width="630" height="4" fill="#c9814a" opacity="0.5"/>
</svg>