<svg xmlns="http://www.w3.org/2000/svg" width="750" height="1050" viewBox="0 0 750 1050">
<defs>
  <linearGradient id="bggrad" x1="0" y1="0" x2="0" y2="1">
    <stop offset="0" stop-color="#2a2114"/><stop offset="0.5" stop-color="#1c1710"/><stop offset="1" stop-color="#0f0c08"/>
  </linearGradient>
  <radialGradient id="artgrad" cx="0.5" cy="0.42" r="0.75">
    <stop offset="0" stop-color="#332517"/><stop offset="1" stop-color="#161009"/>
  </radialGradient>
  <linearGradient id="guldgrad" x1="0" y1="0" x2="0" y2="1">
    <stop offset="0" stop-color="#ffd166"/><stop offset="1" stop-color="#9a7422"/>
  </linearGradient>
  <clipPath id="artclip"><rect x="52" y="150" width="646" height="410" rx="14"/></clipPath>
</defs>
<rect x="6" y="6" width="738" height="1038" rx="36" fill="url(#bggrad)" stroke="#ffd166" stroke-width="9"/>
<rect x="22" y="22" width="706" height="1006" rx="26" fill="none" stroke="#e8a96a" stroke-width="3" opacity="0.7"/>
<circle cx="125" cy="725" r="7" fill="none" stroke="#c9814a" stroke-width="4" opacity="0.1"/><path d="M 125 725 L 50 725 L 50 775 L 40 875" fill="none" stroke="#c9814a" stroke-width="4" stroke-linecap="round" stroke-linejoin="round" opacity="0.1"/><circle cx="40" cy="875" r="9" fill="#122419" stroke="#c9814a" stroke-width="4" opacity="0.1"/><circle cx="575" cy="825" r="7" fill="none" stroke="#c9814a" stroke-width="4" opacity="0.1"/><path d="M 575 825 L 525 775" fill="none" stroke="#c9814a" stroke-width="4" stroke-linecap="round" stroke-linejoin="round" opacity="0.1"/><circle cx="525" cy="775" r="9" fill="#122419" stroke="#c9814a" stroke-width="4" opacity="0.1"/><circle cx="275" cy="625" r="7" fill="none" stroke="#c9814a" stroke-width="4" opacity="0.1"/><path d="M 275 625 L 150 625 L 75 700" fill="none" stroke="#c9814a" stroke-width="4" stroke-linecap="round" stroke-linejoin="round" opacity="0.1"/><circle cx="75" cy="700" r="9" fill="#122419" stroke="#c9814a" stroke-width="4" opacity="0.1"/><circle cx="75" cy="725" r="7" fill="none" stroke="#c9814a" stroke-width="4" opacity="0.1"/><path d="M 75 725 L 40 775 L 40 700" fill="none" stroke="#c9814a" stroke-width="4" stroke-linecap="round" stroke-linejoin="round" opacity="0.1"/><circle cx="40" cy="700" r="9" fill="#122419" stroke="#c9814a" stroke-width="4" opacity="0.1"/><circle cx="100" cy="850" r="7" fill="none" stroke="#c9814a" stroke-width="4" opacity="0.1"/><path d="M 100 850 L 100 700 L 40 700" fill="none" stroke="#c9814a" stroke-width="4" stroke-linecap="round" stroke-linejoin="round" opacity="0.1"/><circle cx="40" cy="700" r="9" fill="#122419" stroke="#c9814a" stroke-width="4" opacity="0.1"/><rect x="425" y="900" width="14" height="20" fill="#c9814a" opacity="0.09000000000000001"/><rect x="447" y="900" width="14" height="20" fill="#c9814a" opacity="0.09000000000000001"/><rect x="469" y="900" width="14" height="20" fill="#c9814a" opacity="0.09000000000000001"/><rect x="491" y="900" width="14" height="20" fill="#c9814a" opacity="0.09000000000000001"/>
<g clip-path="url(#artclip)">
  <rect x="52" y="150" width="646" height="410" fill="url(#artgrad)"/>
  <circle cx="100" cy="525" r="7" fill="none" stroke="#c9814a" stroke-width="4" opacity="0.3"/><path d="M 100 525 L 250 375 L 350 475 L 425 400" fill="none" stroke="#c9814a" stroke-width="4" stroke-linecap="round" stroke-linejoin="round" opacity="0.3"/><circle cx="425" cy="400" r="9" fill="#122419" stroke="#c9814a" stroke-width="4" opacity="0.3"/><circle cx="425" cy="225" r="7" fill="none" stroke="#c9814a" stroke-width="4" opacity="0.3"/><path d="M 425 225 L 300 225" fill="none" stroke="#c9814a" stroke-width="4" stroke-linecap="round" stroke-linejoin="round" opacity="0.3"/><rect x="292" y="217" width="16" height="16" fill="#c9814a" opacity="0.3"/><circle cx="200" cy="525" r="7" fill="none" stroke="#c9814a" stroke-width="4" opacity="0.3"/><path d="M 200 525 L 100 425 L 175 500" fill="none" stroke="#c9814a" stroke-width="4" stroke-linecap="round" stroke-linejoin="round" opacity="0.3"/><circle cx="175" cy="500" r="9" fill="#122419" stroke="#c9814a" stroke-width="4" opacity="0.3"/><circle cx="425" cy="200" r="7" fill="none" stroke="#c9814a" stroke-width="4" opacity="0.3"/><path d="M 425 200 L 500 200 L 500 160" fill="none" stroke="#c9814a" stroke-width="4" stroke-linecap="round" stroke-linejoin="round" opacity="0.3"/><circle cx="500" cy="160" r="9" fill="#122419" stroke="#c9814a" stroke-width="4" opacity="0.3"/><circle cx="400" cy="225" r="7" fill="none" stroke="#c9814a" stroke-width="4" opacity="0.3"/><path d="M 400 225 L 400 375 L 475 375 L 475 300" fill="none" stroke="#c9814a" stroke-width="4" stroke-linecap="round" stroke-linejoin="round" opacity="0.3"/><rect x="467" y="292" width="16" height="16" fill="#c9814a" opacity="0.3"/><circle cx="450" cy="200" r="7" fill="none" stroke="#c9814a" stroke-width="4" opacity="0.3"/><path d="M 450 200 L 575 200 L 575 275" fill="none" stroke="#c9814a" stroke-width="4" stroke-linecap="round" stroke-linejoin="round" opacity="0.3"/><circle cx="575" cy="275" r="9" fill="#122419" stroke="#c9814a" stroke-width="4" opacity="0.3"/><circle cx="675" cy="425" r="7" fill="none" stroke="#c9814a" stroke-width="4" opacity="0.3"/><path d="M 675 425 L 690 425 L 690 550 L 690 425" fill="none" stroke="#c9814a" stroke-width="4" stroke-linecap="round" stroke-linejoin="round" opacity="0.3"/><circle cx="690" cy="425" r="9" fill="#122419" stroke="#c9814a" stroke-width="4" opacity="0.3"/><circle cx="325" cy="475" r="7" fill="none" stroke="#c9814a" stroke-width="4" opacity="0.3"/><path d="M 325 475 L 450 475" fill="none" stroke="#c9814a" stroke-width="4" stroke-linecap="round" stroke-linejoin="round" opacity="0.3"/><rect x="442" y="467" width="16" height="16" fill="#c9814a" opacity="0.3"/><circle cx="100" cy="475" r="7" fill="none" stroke="#c9814a" stroke-width="4" opacity="0.3"/><path d="M 100 475 L 225 550 L 375 550 L 375 550" fill="none" stroke="#c9814a" stroke-width="4" stroke-linecap="round" stroke-linejoin="round" opacity="0.3"/><circle cx="375" cy="550" r="9" fill="#122419" stroke="#c9814a" stroke-width="4" opacity="0.3"/><rect x="275" y="300" width="14" height="20" fill="#c9814a" opacity="0.27"/><rect x="297" y="300" width="14" height="20" fill="#c9814a" opacity="0.27"/><rect x="319" y="300" width="14" height="20" fill="#c9814a" opacity="0.27"/><rect x="341" y="300" width="14" height="20" fill="#c9814a" opacity="0.27"/>
  <circle cx="275" cy="375" r="7" fill="none" stroke="#ffd166" stroke-width="4" opacity="0.22"/><path d="M 275 375 L 150 250 L 150 175" fill="none" stroke="#ffd166" stroke-width="4" stroke-linecap="round" stroke-linejoin="round" opacity="0.22"/><circle cx="150" cy="175" r="9" fill="#122419" stroke="#ffd166" stroke-width="4" opacity="0.22"/><circle cx="425" cy="425" r="7" fill="none" stroke="#ffd166" stroke-width="4" opacity="0.22"/><path d="M 425 425 L 500 500 L 550 450" fill="none" stroke="#ffd166" stroke-width="4" stroke-linecap="round" stroke-linejoin="round" opacity="0.22"/><circle cx="550" cy="450" r="9" fill="#122419" stroke="#ffd166" stroke-width="4" opacity="0.22"/><circle cx="475" cy="200" r="7" fill="none" stroke="#ffd166" stroke-width="4" opacity="0.22"/><path d="M 475 200 L 475 160" fill="none" stroke="#ffd166" stroke-width="4" stroke-linecap="round" stroke-linejoin="round" opacity="0.22"/><circle cx="475" cy="160" r="9" fill="#122419" stroke="#ffd166" stroke-width="4" opacity="0.22"/><rect x="375" y="275" width="14" height="20" fill="#ffd166" opacity="0.198"/><rect x="397" y="275" width="14" height="20" fill="#ffd166" opacity="0.198"/><rect x="419" y="275" width="14" height="20" fill="#ffd166" opacity="0.198"/><rect x="441" y="275" width="14" height="20" fill="#ffd166" opacity="0.198"/>
  <g transform="translate(375 345) scale(1.002) translate(-375 -345)"><circle cx="375" cy="345" r="120" fill="none" stroke="#ffd166" stroke-width="8" opacity="0.9"/>
    <circle cx="375" cy="345" r="150" fill="none" stroke="#ffd166" stroke-width="3" opacity="0.4"/>
    <path d="M 375 205 L 405 315 L 515 345 L 405 375 L 375 485 L 345 375 L 235 345 L 345 315 Z"
      fill="#ffd166" stroke="#0c1811" stroke-width="5" stroke-linejoin="round"/></g>
</g>
<rect x="52" y="150" width="646" height="410" rx="14" fill="none" stroke="#ffd166" stroke-width="3"/>
<text x="200" y="102" font-family="DejaVu Sans Condensed" font-weight="bold" font-size="38"
  letter-spacing="2" fill="#ffd166">THE OVERTECHNICIAN</text>
<polygon points="95,28 152,61 152,127 95,160 38,127 38,61" fill="#f0b23e" stroke="#1c1405" stroke-width="4"/>
<text x="95" y="118" text-anchor="middle" font-family="DejaVu Sans" font-weight="bold" font-size="74" fill="#1c1405">9</text>
<text x="375" y="608" text-anchor="middle" font-family="DejaVu Sans Mono" font-size="26" letter-spacing="3"
  fill="#e8a96a">★ LEGENDARY · THE TECHNICIAN · UNIT</text>
<line x1="80" y1="626" x2="670" y2="626" stroke="#e8a96a" stroke-width="2" opacity="0.5"/>
<rect x="46" y="640" width="658" height="236" rx="16" fill="#241c11" opacity="0.55"/>
<text x="375" y="742.6" text-anchor="middle" font-family="DejaVu Sans" font-size="30"
       fill="#dbe7de">Install: Give all your other units</text>
<text x="375" y="784.0" text-anchor="middle" font-family="DejaVu Sans" font-size="30"
       fill="#dbe7de">+2/+2.</text>

    <circle cx="95" cy="935" r="56" fill="#0c1811" stroke="#f0b23e" stroke-width="7"/>
    <text x="95" y="954" text-anchor="middle" font-family="DejaVu Sans" font-weight="bold" font-size="56" fill="#f0b23e">6</text>
    <circle cx="655" cy="935" r="56" fill="#0c1811" stroke="#5fe0a0" stroke-width="7"/>
    <text x="655" y="954" text-anchor="middle" font-family="DejaVu Sans" font-weight="bold" font-size="56" fill="#5fe0a0">6</text>
<rect x="70" y="1004" width="22" height="30" fill="url(#guldgrad)"/><rect x="104" y="1004" width="22" height="30" fill="url(#guldgrad)"/><rect x="138" y="1004" width="22" height="30" fill="url(#guldgrad)"/><rect x="172" y="1004" width="22" height="30" fill="url(#guldgrad)"/><rect x="206" y="1004" width="22" height="30" fill="url(#guldgrad)"/><rect x="240" y="1004" width="22" height="30" fill="url(#guldgrad)"/><rect x="274" y="1004" width="22" height="30" fill="url(#guldgrad)"/><rect x="308" y="1004" width="22" height="30" fill="url(#guldgrad)"/><rect x="342" y="1004" width="22" height="30" fill="url(#guldgrad)"/><rect x="376" y="1004" width="22" height="30" fill="url(#guldgrad)"/><rect x="410" y="1004" width="22" height="30" fill="url(#guldgrad)"/><rect x="444" y="1004" width="22" height="30" fill="url(#guldgrad)"/><rect x="478" y="1004" width="22" height="30" fill="url(#guldgrad)"/><rect x="512" y="1004" width="22" height="30" fill="url(#guldgrad)"/><rect x="546" y="1004" width="22" height="30" fill="url(#guldgrad)"/><rect x="580" y="1004" width="22" height="30" fill="url(#guldgrad)"/><rect x="614" y="1004" width="22" height="30" fill="url(#guldgrad)"/><rect x="648" y="1004" width="22" height="30" fill="url(#guldgrad)"/>
<rect x="60" y="1000" width="630" height="4" fill="#c9814a" opacity="0.5"/>
</svg>