<svg xmlns="http://www.w3.org/2000/svg" width="750" height="1050" viewBox="0 0 750 1050">
<defs>
  <linearGradient id="bggrad" x1="0" y1="0" x2="0" y2="1">
    <stop offset="0" stop-color="#20301f"/><stop offset="0.5" stop-color="#152015"/><stop offset="1" stop-color="#0a120a"/>
  </linearGradient>
  <radialGradient id="artgrad" cx="0.5" cy="0.42" r="0.75">
    <stop offset="0" stop-color="#22311f"/><stop offset="1" stop-color="#101a10"/>
  </radialGradient>
  <linearGradient id="guldgrad" x1="0" y1="0" x2="0" y2="1">
    <stop offset="0" stop-color="#ffd166"/><stop offset="1" stop-color="#9a7422"/>
  </linearGradient>
  <clipPath id="artclip"><rect x="52" y="150" width="646" height="410" rx="14"/></clipPath>
</defs>
<rect x="6" y="6" width="738" height="1038" rx="36" fill="url(#bggrad)" stroke="#8fbf7a" stroke-width="6"/>
<rect x="22" y="22" width="706" height="1006" rx="26" fill="none" stroke="#8fbf7a" stroke-width="2" opacity="0.7"/>
<circle cx="525" cy="875" r="7" fill="none" stroke="#c9814a" stroke-width="4" opacity="0.1"/><path d="M 525 875 L 525 925" fill="none" stroke="#c9814a" stroke-width="4" stroke-linecap="round" stroke-linejoin="round" opacity="0.1"/><rect x="517" y="917" width="16" height="16" fill="#c9814a" opacity="0.1"/><circle cx="250" cy="925" r="7" fill="none" stroke="#c9814a" stroke-width="4" opacity="0.1"/><path d="M 250 925 L 250 980" fill="none" stroke="#c9814a" stroke-width="4" stroke-linecap="round" stroke-linejoin="round" opacity="0.1"/><rect x="242" y="972" width="16" height="16" fill="#c9814a" opacity="0.1"/><circle cx="275" cy="725" r="7" fill="none" stroke="#c9814a" stroke-width="4" opacity="0.1"/><path d="M 275 725 L 275 875 L 375 875 L 375 980" fill="none" stroke="#c9814a" stroke-width="4" stroke-linecap="round" stroke-linejoin="round" opacity="0.1"/><rect x="367" y="972" width="16" height="16" fill="#c9814a" opacity="0.1"/><circle cx="600" cy="825" r="7" fill="none" stroke="#c9814a" stroke-width="4" opacity="0.1"/><path d="M 600 825 L 600 675 L 710 675 L 710 620" fill="none" stroke="#c9814a" stroke-width="4" stroke-linecap="round" stroke-linejoin="round" opacity="0.1"/><rect x="702" y="612" width="16" height="16" fill="#c9814a" opacity="0.1"/><circle cx="475" cy="675" r="7" fill="none" stroke="#c9814a" stroke-width="4" opacity="0.1"/><path d="M 475 675 L 325 675 L 325 620 L 275 620" fill="none" stroke="#c9814a" stroke-width="4" stroke-linecap="round" stroke-linejoin="round" opacity="0.1"/><circle cx="275" cy="620" r="9" fill="#122419" stroke="#c9814a" stroke-width="4" opacity="0.1"/><rect x="150" y="975" width="14" height="20" fill="#c9814a" opacity="0.09000000000000001"/><rect x="172" y="975" width="14" height="20" fill="#c9814a" opacity="0.09000000000000001"/><rect x="194" y="975" width="14" height="20" fill="#c9814a" opacity="0.09000000000000001"/><rect x="216" y="975" width="14" height="20" fill="#c9814a" opacity="0.09000000000000001"/>
<g clip-path="url(#artclip)">
  <rect x="52" y="150" width="646" height="410" fill="url(#artgrad)"/>
  <circle cx="675" cy="375" r="7" fill="none" stroke="#c9814a" stroke-width="4" opacity="0.3"/><path d="M 675 375 L 575 275" fill="none" stroke="#c9814a" stroke-width="4" stroke-linecap="round" stroke-linejoin="round" opacity="0.3"/><circle cx="575" cy="275" r="9" fill="#122419" stroke="#c9814a" stroke-width="4" opacity="0.3"/><circle cx="100" cy="525" r="7" fill="none" stroke="#c9814a" stroke-width="4" opacity="0.3"/><path d="M 100 525 L 100 550 L 60 550 L 135 550" fill="none" stroke="#c9814a" stroke-width="4" stroke-linecap="round" stroke-linejoin="round" opacity="0.3"/><circle cx="135" cy="550" r="9" fill="#122419" stroke="#c9814a" stroke-width="4" opacity="0.3"/><circle cx="500" cy="400" r="7" fill="none" stroke="#c9814a" stroke-width="4" opacity="0.3"/><path d="M 500 400 L 400 400" fill="none" stroke="#c9814a" stroke-width="4" stroke-linecap="round" stroke-linejoin="round" opacity="0.3"/><circle cx="400" cy="400" r="9" fill="#122419" stroke="#c9814a" stroke-width="4" opacity="0.3"/><circle cx="250" cy="325" r="7" fill="none" stroke="#c9814a" stroke-width="4" opacity="0.3"/><path d="M 250 325 L 325 400" fill="none" stroke="#c9814a" stroke-width="4" stroke-linecap="round" stroke-linejoin="round" opacity="0.3"/><circle cx="325" cy="400" r="9" fill="#122419" stroke="#c9814a" stroke-width="4" opacity="0.3"/><circle cx="425" cy="475" r="7" fill="none" stroke="#c9814a" stroke-width="4" opacity="0.3"/><path d="M 425 475 L 275 550 L 350 550 L 350 500" fill="none" stroke="#c9814a" stroke-width="4" stroke-linecap="round" stroke-linejoin="round" opacity="0.3"/><rect x="342" y="492" width="16" height="16" fill="#c9814a" opacity="0.3"/><circle cx="275" cy="400" r="7" fill="none" stroke="#c9814a" stroke-width="4" opacity="0.3"/><path d="M 275 400 L 375 500 L 300 500" fill="none" stroke="#c9814a" stroke-width="4" stroke-linecap="round" stroke-linejoin="round" opacity="0.3"/><rect x="292" y="492" width="16" height="16" fill="#c9814a" opacity="0.3"/><circle cx="650" cy="500" r="7" fill="none" stroke="#c9814a" stroke-width="4" opacity="0.3"/><path d="M 650 500 L 650 400 L 575 475 L 650 550" fill="none" stroke="#c9814a" stroke-width="4" stroke-linecap="round" stroke-linejoin="round" opacity="0.3"/><rect x="642" y="542" width="16" height="16" fill="#c9814a" opacity="0.3"/><circle cx="50" cy="225" r="7" fill="none" stroke="#c9814a" stroke-width="4" opacity="0.3"/><path d="M 50 225 L 60 160 L 160 160 L 160 160" fill="none" stroke="#c9814a" stroke-width="4" stroke-linecap="round" stroke-linejoin="round" opacity="0.3"/><circle cx="160" cy="160" r="9" fill="#122419" stroke="#c9814a" stroke-width="4" opacity="0.3"/><circle cx="600" cy="225" r="7" fill="none" stroke="#c9814a" stroke-width="4" opacity="0.3"/><path d="M 600 225 L 475 225" fill="none" stroke="#c9814a" stroke-width="4" stroke-linecap="round" stroke-linejoin="round" opacity="0.3"/><rect x="467" y="217" width="16" height="16" fill="#c9814a" opacity="0.3"/><rect x="175" y="225" width="14" height="20" fill="#c9814a" opacity="0.27"/><rect x="197" y="225" width="14" height="20" fill="#c9814a" opacity="0.27"/><rect x="219" y="225" width="14" height="20" fill="#c9814a" opacity="0.27"/><rect x="241" y="225" width="14" height="20" fill="#c9814a" opacity="0.27"/>
  <circle cx="675" cy="525" r="7" fill="none" stroke="#ffd166" stroke-width="4" opacity="0.22"/><path d="M 675 525 L 575 525" fill="none" stroke="#ffd166" stroke-width="4" stroke-linecap="round" stroke-linejoin="round" opacity="0.22"/><rect x="567" y="517" width="16" height="16" fill="#ffd166" opacity="0.22"/><circle cx="550" cy="350" r="7" fill="none" stroke="#ffd166" stroke-width="4" opacity="0.22"/><path d="M 550 350 L 690 350 L 690 300" fill="none" stroke="#ffd166" stroke-width="4" stroke-linecap="round" stroke-linejoin="round" opacity="0.22"/><rect x="682" y="292" width="16" height="16" fill="#ffd166" opacity="0.22"/><circle cx="525" cy="525" r="7" fill="none" stroke="#ffd166" stroke-width="4" opacity="0.22"/><path d="M 525 525 L 675 550 L 550 425 L 425 425" fill="none" stroke="#ffd166" stroke-width="4" stroke-linecap="round" stroke-linejoin="round" opacity="0.22"/><circle cx="425" cy="425" r="9" fill="#122419" stroke="#ffd166" stroke-width="4" opacity="0.22"/><rect x="275" y="275" width="14" height="20" fill="#ffd166" opacity="0.198"/><rect x="297" y="275" width="14" height="20" fill="#ffd166" opacity="0.198"/><rect x="319" y="275" width="14" height="20" fill="#ffd166" opacity="0.198"/><rect x="341" y="275" width="14" height="20" fill="#ffd166" opacity="0.198"/>
  <g transform="translate(375 345) scale(1.041) translate(-375 -345)"><circle cx="375" cy="345" r="120" fill="none" stroke="#ffd166" stroke-width="8" opacity="0.9"/>
    <circle cx="375" cy="345" r="150" fill="none" stroke="#ffd166" stroke-width="3" opacity="0.4"/>
    <path d="M 375 205 L 405 315 L 515 345 L 405 375 L 375 485 L 345 375 L 235 345 L 345 315 Z"
      fill="#ffd166" stroke="#0c1811" stroke-width="5" stroke-linejoin="round"/></g>
</g>
<rect x="52" y="150" width="646" height="410" rx="14" fill="none" stroke="#274a35" stroke-width="3"/>
<text x="200" y="102" font-family="DejaVu Sans Condensed" font-weight="bold" font-size="46"
  letter-spacing="2" fill="#dbe7de">DATA CENTER</text>
<polygon points="95,28 152,61 152,127 95,160 38,127 38,61" fill="#f0b23e" stroke="#1c1405" stroke-width="4"/>
<text x="95" y="118" text-anchor="middle" font-family="DejaVu Sans" font-weight="bold" font-size="74" fill="#1c1405">5</text>
<text x="375" y="608" text-anchor="middle" font-family="DejaVu Sans Mono" font-size="26" letter-spacing="3"
  fill="#87a693">UNIT</text>
<line x1="80" y1="626" x2="670" y2="626" stroke="#8fbf7a" stroke-width="2" opacity="0.5"/>
<rect x="46" y="640" width="658" height="236" rx="16" fill="#1a2a1a" opacity="0.55"/>
<text x="375" y="763.3" text-anchor="middle" font-family="DejaVu Sans" font-size="30"
       fill="#dbe7de">Grounded. Breakdown: Store 2 energy.</text>

    <circle cx="95" cy="935" r="56" fill="#0c1811" stroke="#f0b23e" stroke-width="7"/>
    <text x="95" y="954" text-anchor="middle" font-family="DejaVu Sans" font-weight="bold" font-size="56" fill="#f0b23e">3</text>
    <circle cx="655" cy="935" r="56" fill="#0c1811" stroke="#5fe0a0" stroke-width="7"/>
    <text x="655" y="954" text-anchor="middle" font-family="DejaVu Sans" font-weight="bold" font-size="56" fill="#5fe0a0">7</text>
<rect x="70" y="1004" width="22" height="30" fill="url(#guldgrad)"/><rect x="104" y="1004" width="22" height="30" fill="url(#guldgrad)"/><rect x="138" y="1004" width="22" height="30" fill="url(#guldgrad)"/><rect x="172" y="1004" width="22" height="30" fill="url(#guldgrad)"/><rect x="206" y="1004" width="22" height="30" fill="url(#guldgrad)"/><rect x="240" y="1004" width="22" height="30" fill="url(#guldgrad)"/><rect x="274" y="1004" width="22" height="30" fill="url(#guldgrad)"/><rect x="308" y="1004" width="22" height="30" fill="url(#guldgrad)"/><rect x="342" y="1004" width="22" height="30" fill="url(#guldgrad)"/><rect x="376" y="1004" width="22" height="30" fill="url(#guldgrad)"/><rect x="410" y="1004" width="22" height="30" fill="url(#guldgrad)"/><rect x="444" y="1004" width="22" height="30" fill="url(#guldgrad)"/><rect x="478" y="1004" width="22" height="30" fill="url(#guldgrad)"/><rect x="512" y="1004" width="22" height="30" fill="url(#guldgrad)"/><rect x="546" y="1004" width="22" height="30" fill="url(#guldgrad)"/><rect x="580" y="1004" width="22" height="30" fill="url(#guldgrad)"/><rect x="614" y="1004" width="22" height="30" fill="url(#guldgrad)"/><rect x="648" y="1004" width="22" height="30" fill="url(#guldgrad)"/>
<rect x="60" y="1000" width="630" height="4" fill="#c9814a" opacity="0.5"/>
</svg>