<svg xmlns="http://www.w3.org/2000/svg" width="750" height="1050" viewBox="0 0 750 1050">
<defs>
  <linearGradient id="bggrad" x1="0" y1="0" x2="0" y2="1">
    <stop offset="0" stop-color="#2b2114"/><stop offset="0.5" stop-color="#1b1610"/><stop offset="1" stop-color="#0d0b07"/>
  </linearGradient>
  <radialGradient id="artgrad" cx="0.5" cy="0.42" r="0.75">
    <stop offset="0" stop-color="#332617"/><stop offset="1" stop-color="#15110a"/>
  </radialGradient>
  <linearGradient id="guldgrad" x1="0" y1="0" x2="0" y2="1">
    <stop offset="0" stop-color="#ffd166"/><stop offset="1" stop-color="#9a7422"/>
  </linearGradient>
  <clipPath id="artclip"><rect x="52" y="150" width="646" height="410" rx="14"/></clipPath>
</defs>
<rect x="6" y="6" width="738" height="1038" rx="36" fill="url(#bggrad)" stroke="#e8a96a" stroke-width="6"/>
<rect x="22" y="22" width="706" height="1006" rx="26" fill="none" stroke="#e8a96a" stroke-width="2" opacity="0.7"/>
<circle cx="650" cy="825" r="7" fill="none" stroke="#c9814a" stroke-width="4" opacity="0.1"/><path d="M 650 825 L 550 925 L 600 925 L 600 980" fill="none" stroke="#c9814a" stroke-width="4" stroke-linecap="round" stroke-linejoin="round" opacity="0.1"/><rect x="592" y="972" width="16" height="16" fill="#c9814a" opacity="0.1"/><circle cx="500" cy="875" r="7" fill="none" stroke="#c9814a" stroke-width="4" opacity="0.1"/><path d="M 500 875 L 500 980 L 425 905 L 325 905" fill="none" stroke="#c9814a" stroke-width="4" stroke-linecap="round" stroke-linejoin="round" opacity="0.1"/><rect x="317" y="897" width="16" height="16" fill="#c9814a" opacity="0.1"/><circle cx="400" cy="625" r="7" fill="none" stroke="#c9814a" stroke-width="4" opacity="0.1"/><path d="M 400 625 L 500 625" fill="none" stroke="#c9814a" stroke-width="4" stroke-linecap="round" stroke-linejoin="round" opacity="0.1"/><circle cx="500" cy="625" r="9" fill="#122419" stroke="#c9814a" stroke-width="4" opacity="0.1"/><circle cx="550" cy="875" r="7" fill="none" stroke="#c9814a" stroke-width="4" opacity="0.1"/><path d="M 550 875 L 425 980" fill="none" stroke="#c9814a" stroke-width="4" stroke-linecap="round" stroke-linejoin="round" opacity="0.1"/><circle cx="425" cy="980" r="9" fill="#122419" stroke="#c9814a" stroke-width="4" opacity="0.1"/><circle cx="400" cy="850" r="7" fill="none" stroke="#c9814a" stroke-width="4" opacity="0.1"/><path d="M 400 850 L 275 850 L 275 775 L 225 725" fill="none" stroke="#c9814a" stroke-width="4" stroke-linecap="round" stroke-linejoin="round" opacity="0.1"/><rect x="217" y="717" width="16" height="16" fill="#c9814a" opacity="0.1"/><rect x="575" y="775" width="14" height="20" fill="#c9814a" opacity="0.09000000000000001"/><rect x="597" y="775" width="14" height="20" fill="#c9814a" opacity="0.09000000000000001"/><rect x="619" y="775" width="14" height="20" fill="#c9814a" opacity="0.09000000000000001"/><rect x="641" y="775" width="14" height="20" fill="#c9814a" opacity="0.09000000000000001"/>
<g clip-path="url(#artclip)">
  <rect x="52" y="150" width="646" height="410" fill="url(#artgrad)"/>
  <circle cx="150" cy="250" r="7" fill="none" stroke="#c9814a" stroke-width="4" opacity="0.3"/><path d="M 150 250 L 60 160" fill="none" stroke="#c9814a" stroke-width="4" stroke-linecap="round" stroke-linejoin="round" opacity="0.3"/><circle cx="60" cy="160" r="9" fill="#122419" stroke="#c9814a" stroke-width="4" opacity="0.3"/><circle cx="250" cy="375" r="7" fill="none" stroke="#c9814a" stroke-width="4" opacity="0.3"/><path d="M 250 375 L 375 375" fill="none" stroke="#c9814a" stroke-width="4" stroke-linecap="round" stroke-linejoin="round" opacity="0.3"/><rect x="367" y="367" width="16" height="16" fill="#c9814a" opacity="0.3"/><circle cx="250" cy="175" r="7" fill="none" stroke="#c9814a" stroke-width="4" opacity="0.3"/><path d="M 250 175 L 350 275 L 450 275 L 450 225" fill="none" stroke="#c9814a" stroke-width="4" stroke-linecap="round" stroke-linejoin="round" opacity="0.3"/><circle cx="450" cy="225" r="9" fill="#122419" stroke="#c9814a" stroke-width="4" opacity="0.3"/><circle cx="375" cy="500" r="7" fill="none" stroke="#c9814a" stroke-width="4" opacity="0.3"/><path d="M 375 500 L 500 500 L 400 550 L 325 550" fill="none" stroke="#c9814a" stroke-width="4" stroke-linecap="round" stroke-linejoin="round" opacity="0.3"/><circle cx="325" cy="550" r="9" fill="#122419" stroke="#c9814a" stroke-width="4" opacity="0.3"/><circle cx="475" cy="200" r="7" fill="none" stroke="#c9814a" stroke-width="4" opacity="0.3"/><path d="M 475 200 L 375 160 L 450 160 L 450 235" fill="none" stroke="#c9814a" stroke-width="4" stroke-linecap="round" stroke-linejoin="round" opacity="0.3"/><circle cx="450" cy="235" r="9" fill="#122419" stroke="#c9814a" stroke-width="4" opacity="0.3"/><circle cx="625" cy="400" r="7" fill="none" stroke="#c9814a" stroke-width="4" opacity="0.3"/><path d="M 625 400 L 675 350 L 690 500" fill="none" stroke="#c9814a" stroke-width="4" stroke-linecap="round" stroke-linejoin="round" opacity="0.3"/><rect x="682" y="492" width="16" height="16" fill="#c9814a" opacity="0.3"/><circle cx="200" cy="425" r="7" fill="none" stroke="#c9814a" stroke-width="4" opacity="0.3"/><path d="M 200 425 L 200 325" fill="none" stroke="#c9814a" stroke-width="4" stroke-linecap="round" stroke-linejoin="round" opacity="0.3"/><circle cx="200" cy="325" r="9" fill="#122419" stroke="#c9814a" stroke-width="4" opacity="0.3"/><circle cx="525" cy="250" r="7" fill="none" stroke="#c9814a" stroke-width="4" opacity="0.3"/><path d="M 525 250 L 400 250 L 400 160 L 450 210" fill="none" stroke="#c9814a" stroke-width="4" stroke-linecap="round" stroke-linejoin="round" opacity="0.3"/><circle cx="450" cy="210" r="9" fill="#122419" stroke="#c9814a" stroke-width="4" opacity="0.3"/><circle cx="475" cy="500" r="7" fill="none" stroke="#c9814a" stroke-width="4" opacity="0.3"/><path d="M 475 500 L 425 500" fill="none" stroke="#c9814a" stroke-width="4" stroke-linecap="round" stroke-linejoin="round" opacity="0.3"/><circle cx="425" cy="500" r="9" fill="#122419" stroke="#c9814a" stroke-width="4" opacity="0.3"/><rect x="425" y="475" width="14" height="20" fill="#c9814a" opacity="0.27"/><rect x="447" y="475" width="14" height="20" fill="#c9814a" opacity="0.27"/><rect x="469" y="475" width="14" height="20" fill="#c9814a" opacity="0.27"/><rect x="491" y="475" width="14" height="20" fill="#c9814a" opacity="0.27"/>
  <circle cx="400" cy="350" r="7" fill="none" stroke="#e8a96a" stroke-width="4" opacity="0.22"/><path d="M 400 350 L 475 275 L 325 425 L 275 475" fill="none" stroke="#e8a96a" stroke-width="4" stroke-linecap="round" stroke-linejoin="round" opacity="0.22"/><circle cx="275" cy="475" r="9" fill="#122419" stroke="#e8a96a" stroke-width="4" opacity="0.22"/><circle cx="175" cy="300" r="7" fill="none" stroke="#e8a96a" stroke-width="4" opacity="0.22"/><path d="M 175 300 L 175 350 L 250 275 L 125 400" fill="none" stroke="#e8a96a" stroke-width="4" stroke-linecap="round" stroke-linejoin="round" opacity="0.22"/><circle cx="125" cy="400" r="9" fill="#122419" stroke="#e8a96a" stroke-width="4" opacity="0.22"/><circle cx="225" cy="450" r="7" fill="none" stroke="#e8a96a" stroke-width="4" opacity="0.22"/><path d="M 225 450 L 225 350" fill="none" stroke="#e8a96a" stroke-width="4" stroke-linecap="round" stroke-linejoin="round" opacity="0.22"/><circle cx="225" cy="350" r="9" fill="#122419" stroke="#e8a96a" stroke-width="4" opacity="0.22"/><rect x="375" y="400" width="14" height="20" fill="#e8a96a" opacity="0.198"/><rect x="397" y="400" width="14" height="20" fill="#e8a96a" opacity="0.198"/><rect x="419" y="400" width="14" height="20" fill="#e8a96a" opacity="0.198"/><rect x="441" y="400" width="14" height="20" fill="#e8a96a" opacity="0.198"/>
  <g transform="translate(375 345) scale(1.050) translate(-375 -345)"><rect x="228" y="268" width="30" height="14" rx="4" fill="#e8a96a"/>
            <rect x="492" y="268" width="30" height="14" rx="4" fill="#e8a96a"/><rect x="228" y="300" width="30" height="14" rx="4" fill="#e8a96a"/>
            <rect x="492" y="300" width="30" height="14" rx="4" fill="#e8a96a"/><rect x="228" y="332" width="30" height="14" rx="4" fill="#e8a96a"/>
            <rect x="492" y="332" width="30" height="14" rx="4" fill="#e8a96a"/><rect x="228" y="364" width="30" height="14" rx="4" fill="#e8a96a"/>
            <rect x="492" y="364" width="30" height="14" rx="4" fill="#e8a96a"/><rect x="228" y="396" width="30" height="14" rx="4" fill="#e8a96a"/>
            <rect x="492" y="396" width="30" height="14" rx="4" fill="#e8a96a"/><rect x="228" y="428" width="30" height="14" rx="4" fill="#e8a96a"/>
            <rect x="492" y="428" width="30" height="14" rx="4" fill="#e8a96a"/><rect x="258" y="245" width="234" height="200" rx="16" fill="#173021" stroke="#e8a96a" stroke-width="10"/>
      <circle cx="298" cy="285" r="11" fill="#e8a96a"/>
      <rect x="288" y="330" width="174" height="8" rx="4" fill="#e8a96a" opacity="0.55"/>
      <rect x="288" y="356" width="130" height="8" rx="4" fill="#e8a96a" opacity="0.35"/></g>
</g>
<rect x="52" y="150" width="646" height="410" rx="14" fill="none" stroke="#274a35" stroke-width="3"/>
<text x="200" y="102" font-family="DejaVu Sans Condensed" font-weight="bold" font-size="46"
  letter-spacing="2" fill="#dbe7de">MULTIMETER</text>
<polygon points="95,28 152,61 152,127 95,160 38,127 38,61" fill="#f0b23e" stroke="#1c1405" stroke-width="4"/>
<text x="95" y="118" text-anchor="middle" font-family="DejaVu Sans" font-weight="bold" font-size="74" fill="#1c1405">1</text>
<text x="375" y="608" text-anchor="middle" font-family="DejaVu Sans Mono" font-size="26" letter-spacing="3"
  fill="#87a693">UNIT · COMPONENT</text>
<line x1="80" y1="626" x2="670" y2="626" stroke="#e8a96a" stroke-width="2" opacity="0.5"/>
<rect x="46" y="640" width="658" height="236" rx="16" fill="#241c12" opacity="0.55"/>
<text x="375" y="763.3" text-anchor="middle" font-family="DejaVu Sans" font-size="30"
       fill="#dbe7de">Install: Draw a card. Overheat (1).</text>

    <circle cx="95" cy="935" r="56" fill="#0c1811" stroke="#f0b23e" stroke-width="7"/>
    <text x="95" y="954" text-anchor="middle" font-family="DejaVu Sans" font-weight="bold" font-size="56" fill="#f0b23e">1</text>
    <circle cx="655" cy="935" r="56" fill="#0c1811" stroke="#5fe0a0" stroke-width="7"/>
    <text x="655" y="954" text-anchor="middle" font-family="DejaVu Sans" font-weight="bold" font-size="56" fill="#5fe0a0">2</text>
<rect x="70" y="1004" width="22" height="30" fill="url(#guldgrad)"/><rect x="104" y="1004" width="22" height="30" fill="url(#guldgrad)"/><rect x="138" y="1004" width="22" height="30" fill="url(#guldgrad)"/><rect x="172" y="1004" width="22" height="30" fill="url(#guldgrad)"/><rect x="206" y="1004" width="22" height="30" fill="url(#guldgrad)"/><rect x="240" y="1004" width="22" height="30" fill="url(#guldgrad)"/><rect x="274" y="1004" width="22" height="30" fill="url(#guldgrad)"/><rect x="308" y="1004" width="22" height="30" fill="url(#guldgrad)"/><rect x="342" y="1004" width="22" height="30" fill="url(#guldgrad)"/><rect x="376" y="1004" width="22" height="30" fill="url(#guldgrad)"/><rect x="410" y="1004" width="22" height="30" fill="url(#guldgrad)"/><rect x="444" y="1004" width="22" height="30" fill="url(#guldgrad)"/><rect x="478" y="1004" width="22" height="30" fill="url(#guldgrad)"/><rect x="512" y="1004" width="22" height="30" fill="url(#guldgrad)"/><rect x="546" y="1004" width="22" height="30" fill="url(#guldgrad)"/><rect x="580" y="1004" width="22" height="30" fill="url(#guldgrad)"/><rect x="614" y="1004" width="22" height="30" fill="url(#guldgrad)"/><rect x="648" y="1004" width="22" height="30" fill="url(#guldgrad)"/>
<rect x="60" y="1000" width="630" height="4" fill="#c9814a" opacity="0.5"/>
</svg>