<svg xmlns="http://www.w3.org/2000/svg" width="750" height="1050" viewBox="0 0 750 1050">
<defs>
  <linearGradient id="bggrad" x1="0" y1="0" x2="0" y2="1">
    <stop offset="0" stop-color="#5a3806"/><stop offset="0.5" stop-color="#341f04"/><stop offset="1" stop-color="#130b02"/>
  </linearGradient>
  <radialGradient id="artgrad" cx="0.5" cy="0.42" r="0.75">
    <stop offset="0" stop-color="#432a08"/><stop offset="1" stop-color="#241603"/>
  </radialGradient>
  <linearGradient id="guldgrad" x1="0" y1="0" x2="0" y2="1">
    <stop offset="0" stop-color="#ffd166"/><stop offset="1" stop-color="#9a7422"/>
  </linearGradient>
  <clipPath id="artclip"><rect x="52" y="150" width="646" height="410" rx="14"/></clipPath>
</defs>
<rect x="6" y="6" width="738" height="1038" rx="36" fill="url(#bggrad)" stroke="#ffa726" stroke-width="6"/>
<rect x="22" y="22" width="706" height="1006" rx="26" fill="none" stroke="#ffa726" stroke-width="2" opacity="0.7"/>
<circle cx="150" cy="675" r="7" fill="none" stroke="#c9814a" stroke-width="4" opacity="0.1"/><path d="M 150 675 L 300 620 L 225 695" fill="none" stroke="#c9814a" stroke-width="4" stroke-linecap="round" stroke-linejoin="round" opacity="0.1"/><circle cx="225" cy="695" r="9" fill="#122419" stroke="#c9814a" stroke-width="4" opacity="0.1"/><circle cx="75" cy="875" r="7" fill="none" stroke="#c9814a" stroke-width="4" opacity="0.1"/><path d="M 75 875 L 75 975" fill="none" stroke="#c9814a" stroke-width="4" stroke-linecap="round" stroke-linejoin="round" opacity="0.1"/><rect x="67" y="967" width="16" height="16" fill="#c9814a" opacity="0.1"/><circle cx="175" cy="750" r="7" fill="none" stroke="#c9814a" stroke-width="4" opacity="0.1"/><path d="M 175 750 L 300 625" fill="none" stroke="#c9814a" stroke-width="4" stroke-linecap="round" stroke-linejoin="round" opacity="0.1"/><rect x="292" y="617" width="16" height="16" fill="#c9814a" opacity="0.1"/><circle cx="625" cy="725" r="7" fill="none" stroke="#c9814a" stroke-width="4" opacity="0.1"/><path d="M 625 725 L 710 850" fill="none" stroke="#c9814a" stroke-width="4" stroke-linecap="round" stroke-linejoin="round" opacity="0.1"/><rect x="702" y="842" width="16" height="16" fill="#c9814a" opacity="0.1"/><circle cx="200" cy="725" r="7" fill="none" stroke="#c9814a" stroke-width="4" opacity="0.1"/><path d="M 200 725 L 200 850 L 325 850" fill="none" stroke="#c9814a" stroke-width="4" stroke-linecap="round" stroke-linejoin="round" opacity="0.1"/><rect x="317" y="842" width="16" height="16" fill="#c9814a" opacity="0.1"/><rect x="450" y="775" width="14" height="20" fill="#c9814a" opacity="0.09000000000000001"/><rect x="472" y="775" width="14" height="20" fill="#c9814a" opacity="0.09000000000000001"/><rect x="494" y="775" width="14" height="20" fill="#c9814a" opacity="0.09000000000000001"/><rect x="516" y="775" width="14" height="20" fill="#c9814a" opacity="0.09000000000000001"/>
<g clip-path="url(#artclip)">
  <rect x="52" y="150" width="646" height="410" fill="url(#artgrad)"/>
  <circle cx="425" cy="525" r="7" fill="none" stroke="#c9814a" stroke-width="4" opacity="0.3"/><path d="M 425 525 L 425 550 L 275 550 L 350 550" fill="none" stroke="#c9814a" stroke-width="4" stroke-linecap="round" stroke-linejoin="round" opacity="0.3"/><rect x="342" y="542" width="16" height="16" fill="#c9814a" opacity="0.3"/><circle cx="200" cy="225" r="7" fill="none" stroke="#c9814a" stroke-width="4" opacity="0.3"/><path d="M 200 225 L 325 225 L 325 160" fill="none" stroke="#c9814a" stroke-width="4" stroke-linecap="round" stroke-linejoin="round" opacity="0.3"/><rect x="317" y="152" width="16" height="16" fill="#c9814a" opacity="0.3"/><circle cx="500" cy="200" r="7" fill="none" stroke="#c9814a" stroke-width="4" opacity="0.3"/><path d="M 500 200 L 375 200 L 375 275 L 275 175" fill="none" stroke="#c9814a" stroke-width="4" stroke-linecap="round" stroke-linejoin="round" opacity="0.3"/><circle cx="275" cy="175" r="9" fill="#122419" stroke="#c9814a" stroke-width="4" opacity="0.3"/><circle cx="350" cy="225" r="7" fill="none" stroke="#c9814a" stroke-width="4" opacity="0.3"/><path d="M 350 225 L 500 225 L 500 160" fill="none" stroke="#c9814a" stroke-width="4" stroke-linecap="round" stroke-linejoin="round" opacity="0.3"/><circle cx="500" cy="160" r="9" fill="#122419" stroke="#c9814a" stroke-width="4" opacity="0.3"/><circle cx="425" cy="525" r="7" fill="none" stroke="#c9814a" stroke-width="4" opacity="0.3"/><path d="M 425 525 L 575 550 L 575 550 L 675 450" fill="none" stroke="#c9814a" stroke-width="4" stroke-linecap="round" stroke-linejoin="round" opacity="0.3"/><circle cx="675" cy="450" r="9" fill="#122419" stroke="#c9814a" stroke-width="4" opacity="0.3"/><circle cx="625" cy="175" r="7" fill="none" stroke="#c9814a" stroke-width="4" opacity="0.3"/><path d="M 625 175 L 690 160" fill="none" stroke="#c9814a" stroke-width="4" stroke-linecap="round" stroke-linejoin="round" opacity="0.3"/><rect x="682" y="152" width="16" height="16" fill="#c9814a" opacity="0.3"/><circle cx="475" cy="350" r="7" fill="none" stroke="#c9814a" stroke-width="4" opacity="0.3"/><path d="M 475 350 L 525 400" fill="none" stroke="#c9814a" stroke-width="4" stroke-linecap="round" stroke-linejoin="round" opacity="0.3"/><circle cx="525" cy="400" r="9" fill="#122419" stroke="#c9814a" stroke-width="4" opacity="0.3"/><circle cx="375" cy="175" r="7" fill="none" stroke="#c9814a" stroke-width="4" opacity="0.3"/><path d="M 375 175 L 475 160 L 475 160" fill="none" stroke="#c9814a" stroke-width="4" stroke-linecap="round" stroke-linejoin="round" opacity="0.3"/><circle cx="475" cy="160" r="9" fill="#122419" stroke="#c9814a" stroke-width="4" opacity="0.3"/><circle cx="350" cy="450" r="7" fill="none" stroke="#c9814a" stroke-width="4" opacity="0.3"/><path d="M 350 450 L 300 450 L 350 400" fill="none" stroke="#c9814a" stroke-width="4" stroke-linecap="round" stroke-linejoin="round" opacity="0.3"/><circle cx="350" cy="400" r="9" fill="#122419" stroke="#c9814a" stroke-width="4" opacity="0.3"/><rect x="125" y="450" width="14" height="20" fill="#c9814a" opacity="0.27"/><rect x="147" y="450" width="14" height="20" fill="#c9814a" opacity="0.27"/><rect x="169" y="450" width="14" height="20" fill="#c9814a" opacity="0.27"/><rect x="191" y="450" width="14" height="20" fill="#c9814a" opacity="0.27"/>
  <circle cx="75" cy="475" r="7" fill="none" stroke="#e8a96a" stroke-width="4" opacity="0.22"/><path d="M 75 475 L 75 375 L 125 325 L 60 200" fill="none" stroke="#e8a96a" stroke-width="4" stroke-linecap="round" stroke-linejoin="round" opacity="0.22"/><circle cx="60" cy="200" r="9" fill="#122419" stroke="#e8a96a" stroke-width="4" opacity="0.22"/><circle cx="150" cy="450" r="7" fill="none" stroke="#e8a96a" stroke-width="4" opacity="0.22"/><path d="M 150 450 L 150 300 L 250 200" fill="none" stroke="#e8a96a" stroke-width="4" stroke-linecap="round" stroke-linejoin="round" opacity="0.22"/><circle cx="250" cy="200" r="9" fill="#122419" stroke="#e8a96a" stroke-width="4" opacity="0.22"/><circle cx="450" cy="275" r="7" fill="none" stroke="#e8a96a" stroke-width="4" opacity="0.22"/><path d="M 450 275 L 450 160 L 550 260" fill="none" stroke="#e8a96a" stroke-width="4" stroke-linecap="round" stroke-linejoin="round" opacity="0.22"/><circle cx="550" cy="260" r="9" fill="#122419" stroke="#e8a96a" stroke-width="4" opacity="0.22"/><rect x="450" y="300" width="14" height="20" fill="#e8a96a" opacity="0.198"/><rect x="472" y="300" width="14" height="20" fill="#e8a96a" opacity="0.198"/><rect x="494" y="300" width="14" height="20" fill="#e8a96a" opacity="0.198"/><rect x="516" y="300" width="14" height="20" fill="#e8a96a" opacity="0.198"/>
  <g transform="translate(375 345) scale(1.028) translate(-375 -345)"><rect x="228" y="268" width="30" height="14" rx="4" fill="#e8a96a"/>
            <rect x="492" y="268" width="30" height="14" rx="4" fill="#e8a96a"/><rect x="228" y="300" width="30" height="14" rx="4" fill="#e8a96a"/>
            <rect x="492" y="300" width="30" height="14" rx="4" fill="#e8a96a"/><rect x="228" y="332" width="30" height="14" rx="4" fill="#e8a96a"/>
            <rect x="492" y="332" width="30" height="14" rx="4" fill="#e8a96a"/><rect x="228" y="364" width="30" height="14" rx="4" fill="#e8a96a"/>
            <rect x="492" y="364" width="30" height="14" rx="4" fill="#e8a96a"/><rect x="228" y="396" width="30" height="14" rx="4" fill="#e8a96a"/>
            <rect x="492" y="396" width="30" height="14" rx="4" fill="#e8a96a"/><rect x="228" y="428" width="30" height="14" rx="4" fill="#e8a96a"/>
            <rect x="492" y="428" width="30" height="14" rx="4" fill="#e8a96a"/><rect x="258" y="245" width="234" height="200" rx="16" fill="#173021" stroke="#e8a96a" stroke-width="10"/>
      <circle cx="298" cy="285" r="11" fill="#e8a96a"/>
      <rect x="288" y="330" width="174" height="8" rx="4" fill="#e8a96a" opacity="0.55"/>
      <rect x="288" y="356" width="130" height="8" rx="4" fill="#e8a96a" opacity="0.35"/></g>
</g>
<rect x="52" y="150" width="646" height="410" rx="14" fill="none" stroke="#274a35" stroke-width="3"/>
<text x="200" y="102" font-family="DejaVu Sans Condensed" font-weight="bold" font-size="38"
  letter-spacing="2" fill="#dbe7de">SURGE PROTECTOR</text>
<polygon points="95,28 152,61 152,127 95,160 38,127 38,61" fill="#f0b23e" stroke="#1c1405" stroke-width="4"/>
<text x="95" y="118" text-anchor="middle" font-family="DejaVu Sans" font-weight="bold" font-size="74" fill="#1c1405">3</text>
<text x="375" y="608" text-anchor="middle" font-family="DejaVu Sans Mono" font-size="26" letter-spacing="3"
  fill="#87a693">UNIT · COMPONENT</text>
<line x1="80" y1="626" x2="670" y2="626" stroke="#ffa726" stroke-width="2" opacity="0.5"/>
<rect x="46" y="640" width="658" height="236" rx="16" fill="#452c05" opacity="0.55"/>
<text x="375" y="763.3" text-anchor="middle" font-family="DejaVu Sans" font-size="30"
       fill="#dbe7de">Grounded. Insulated.</text>

    <circle cx="95" cy="935" r="56" fill="#0c1811" stroke="#f0b23e" stroke-width="7"/>
    <text x="95" y="954" text-anchor="middle" font-family="DejaVu Sans" font-weight="bold" font-size="56" fill="#f0b23e">2</text>
    <circle cx="655" cy="935" r="56" fill="#0c1811" stroke="#5fe0a0" stroke-width="7"/>
    <text x="655" y="954" text-anchor="middle" font-family="DejaVu Sans" font-weight="bold" font-size="56" fill="#5fe0a0">5</text>
<rect x="70" y="1004" width="22" height="30" fill="url(#guldgrad)"/><rect x="104" y="1004" width="22" height="30" fill="url(#guldgrad)"/><rect x="138" y="1004" width="22" height="30" fill="url(#guldgrad)"/><rect x="172" y="1004" width="22" height="30" fill="url(#guldgrad)"/><rect x="206" y="1004" width="22" height="30" fill="url(#guldgrad)"/><rect x="240" y="1004" width="22" height="30" fill="url(#guldgrad)"/><rect x="274" y="1004" width="22" height="30" fill="url(#guldgrad)"/><rect x="308" y="1004" width="22" height="30" fill="url(#guldgrad)"/><rect x="342" y="1004" width="22" height="30" fill="url(#guldgrad)"/><rect x="376" y="1004" width="22" height="30" fill="url(#guldgrad)"/><rect x="410" y="1004" width="22" height="30" fill="url(#guldgrad)"/><rect x="444" y="1004" width="22" height="30" fill="url(#guldgrad)"/><rect x="478" y="1004" width="22" height="30" fill="url(#guldgrad)"/><rect x="512" y="1004" width="22" height="30" fill="url(#guldgrad)"/><rect x="546" y="1004" width="22" height="30" fill="url(#guldgrad)"/><rect x="580" y="1004" width="22" height="30" fill="url(#guldgrad)"/><rect x="614" y="1004" width="22" height="30" fill="url(#guldgrad)"/><rect x="648" y="1004" width="22" height="30" fill="url(#guldgrad)"/>
<rect x="60" y="1000" width="630" height="4" fill="#c9814a" opacity="0.5"/>
</svg>