<svg xmlns="http://www.w3.org/2000/svg" width="750" height="1050" viewBox="0 0 750 1050">
<defs>
  <linearGradient id="bggrad" x1="0" y1="0" x2="0" y2="1">
    <stop offset="0" stop-color="#2c2a12"/><stop offset="0.5" stop-color="#1c1b0e"/><stop offset="1" stop-color="#0e0d06"/>
  </linearGradient>
  <radialGradient id="artgrad" cx="0.5" cy="0.42" r="0.75">
    <stop offset="0" stop-color="#333115"/><stop offset="1" stop-color="#161509"/>
  </radialGradient>
  <linearGradient id="guldgrad" x1="0" y1="0" x2="0" y2="1">
    <stop offset="0" stop-color="#ffd166"/><stop offset="1" stop-color="#9a7422"/>
  </linearGradient>
  <clipPath id="artclip"><rect x="52" y="150" width="646" height="410" rx="14"/></clipPath>
</defs>
<rect x="6" y="6" width="738" height="1038" rx="36" fill="url(#bggrad)" stroke="#e8e05f" stroke-width="6"/>
<rect x="22" y="22" width="706" height="1006" rx="26" fill="none" stroke="#e8e05f" stroke-width="2" opacity="0.7"/>
<circle cx="325" cy="900" r="7" fill="none" stroke="#c9814a" stroke-width="4" opacity="0.1"/><path d="M 325 900 L 275 950 L 350 980" fill="none" stroke="#c9814a" stroke-width="4" stroke-linecap="round" stroke-linejoin="round" opacity="0.1"/><rect x="342" y="972" width="16" height="16" fill="#c9814a" opacity="0.1"/><circle cx="325" cy="750" r="7" fill="none" stroke="#c9814a" stroke-width="4" opacity="0.1"/><path d="M 325 750 L 325 800 L 200 800 L 50 950" fill="none" stroke="#c9814a" stroke-width="4" stroke-linecap="round" stroke-linejoin="round" opacity="0.1"/><circle cx="50" cy="950" r="9" fill="#122419" stroke="#c9814a" stroke-width="4" opacity="0.1"/><circle cx="150" cy="725" r="7" fill="none" stroke="#c9814a" stroke-width="4" opacity="0.1"/><path d="M 150 725 L 100 725 L 50 775" fill="none" stroke="#c9814a" stroke-width="4" stroke-linecap="round" stroke-linejoin="round" opacity="0.1"/><rect x="42" y="767" width="16" height="16" fill="#c9814a" opacity="0.1"/><circle cx="325" cy="900" r="7" fill="none" stroke="#c9814a" stroke-width="4" opacity="0.1"/><path d="M 325 900 L 250 825 L 250 775" fill="none" stroke="#c9814a" stroke-width="4" stroke-linecap="round" stroke-linejoin="round" opacity="0.1"/><circle cx="250" cy="775" r="9" fill="#122419" stroke="#c9814a" stroke-width="4" opacity="0.1"/><circle cx="350" cy="675" r="7" fill="none" stroke="#c9814a" stroke-width="4" opacity="0.1"/><path d="M 350 675 L 225 675" fill="none" stroke="#c9814a" stroke-width="4" stroke-linecap="round" stroke-linejoin="round" opacity="0.1"/><rect x="217" y="667" width="16" height="16" fill="#c9814a" opacity="0.1"/><rect x="375" y="825" width="14" height="20" fill="#c9814a" opacity="0.09000000000000001"/><rect x="397" y="825" width="14" height="20" fill="#c9814a" opacity="0.09000000000000001"/><rect x="419" y="825" width="14" height="20" fill="#c9814a" opacity="0.09000000000000001"/><rect x="441" y="825" width="14" height="20" fill="#c9814a" opacity="0.09000000000000001"/>
<g clip-path="url(#artclip)">
  <rect x="52" y="150" width="646" height="410" fill="url(#artgrad)"/>
  <circle cx="425" cy="375" r="7" fill="none" stroke="#c9814a" stroke-width="4" opacity="0.3"/><path d="M 425 375 L 425 250" fill="none" stroke="#c9814a" stroke-width="4" stroke-linecap="round" stroke-linejoin="round" opacity="0.3"/><circle cx="425" cy="250" r="9" fill="#122419" stroke="#c9814a" stroke-width="4" opacity="0.3"/><circle cx="600" cy="325" r="7" fill="none" stroke="#c9814a" stroke-width="4" opacity="0.3"/><path d="M 600 325 L 600 375 L 550 375 L 550 225" fill="none" stroke="#c9814a" stroke-width="4" stroke-linecap="round" stroke-linejoin="round" opacity="0.3"/><circle cx="550" cy="225" r="9" fill="#122419" stroke="#c9814a" stroke-width="4" opacity="0.3"/><circle cx="400" cy="175" r="7" fill="none" stroke="#c9814a" stroke-width="4" opacity="0.3"/><path d="M 400 175 L 475 250 L 425 200 L 525 300" fill="none" stroke="#c9814a" stroke-width="4" stroke-linecap="round" stroke-linejoin="round" opacity="0.3"/><rect x="517" y="292" width="16" height="16" fill="#c9814a" opacity="0.3"/><circle cx="575" cy="400" r="7" fill="none" stroke="#c9814a" stroke-width="4" opacity="0.3"/><path d="M 575 400 L 675 400" fill="none" stroke="#c9814a" stroke-width="4" stroke-linecap="round" stroke-linejoin="round" opacity="0.3"/><circle cx="675" cy="400" r="9" fill="#122419" stroke="#c9814a" stroke-width="4" opacity="0.3"/><circle cx="200" cy="475" r="7" fill="none" stroke="#c9814a" stroke-width="4" opacity="0.3"/><path d="M 200 475 L 75 475 L 200 350 L 200 300" fill="none" stroke="#c9814a" stroke-width="4" stroke-linecap="round" stroke-linejoin="round" opacity="0.3"/><rect x="192" y="292" width="16" height="16" fill="#c9814a" opacity="0.3"/><circle cx="575" cy="425" r="7" fill="none" stroke="#c9814a" stroke-width="4" opacity="0.3"/><path d="M 575 425 L 575 550" fill="none" stroke="#c9814a" stroke-width="4" stroke-linecap="round" stroke-linejoin="round" opacity="0.3"/><circle cx="575" cy="550" r="9" fill="#122419" stroke="#c9814a" stroke-width="4" opacity="0.3"/><circle cx="650" cy="200" r="7" fill="none" stroke="#c9814a" stroke-width="4" opacity="0.3"/><path d="M 650 200 L 525 200 L 525 325 L 375 175" fill="none" stroke="#c9814a" stroke-width="4" stroke-linecap="round" stroke-linejoin="round" opacity="0.3"/><rect x="367" y="167" width="16" height="16" fill="#c9814a" opacity="0.3"/><circle cx="450" cy="525" r="7" fill="none" stroke="#c9814a" stroke-width="4" opacity="0.3"/><path d="M 450 525 L 350 425" fill="none" stroke="#c9814a" stroke-width="4" stroke-linecap="round" stroke-linejoin="round" opacity="0.3"/><circle cx="350" cy="425" r="9" fill="#122419" stroke="#c9814a" stroke-width="4" opacity="0.3"/><circle cx="175" cy="275" r="7" fill="none" stroke="#c9814a" stroke-width="4" opacity="0.3"/><path d="M 175 275 L 175 200" fill="none" stroke="#c9814a" stroke-width="4" stroke-linecap="round" stroke-linejoin="round" opacity="0.3"/><rect x="167" y="192" width="16" height="16" fill="#c9814a" opacity="0.3"/><rect x="475" y="525" width="14" height="20" fill="#c9814a" opacity="0.27"/><rect x="497" y="525" width="14" height="20" fill="#c9814a" opacity="0.27"/><rect x="519" y="525" width="14" height="20" fill="#c9814a" opacity="0.27"/><rect x="541" y="525" width="14" height="20" fill="#c9814a" opacity="0.27"/>
  <circle cx="650" cy="500" r="7" fill="none" stroke="undefined" stroke-width="4" opacity="0.22"/><path d="M 650 500 L 650 450" fill="none" stroke="undefined" stroke-width="4" stroke-linecap="round" stroke-linejoin="round" opacity="0.22"/><rect x="642" y="442" width="16" height="16" fill="undefined" opacity="0.22"/><circle cx="100" cy="450" r="7" fill="none" stroke="undefined" stroke-width="4" opacity="0.22"/><path d="M 100 450 L 60 450" fill="none" stroke="undefined" stroke-width="4" stroke-linecap="round" stroke-linejoin="round" opacity="0.22"/><circle cx="60" cy="450" r="9" fill="#122419" stroke="undefined" stroke-width="4" opacity="0.22"/><circle cx="500" cy="275" r="7" fill="none" stroke="undefined" stroke-width="4" opacity="0.22"/><path d="M 500 275 L 650 275 L 650 350 L 500 500" fill="none" stroke="undefined" stroke-width="4" stroke-linecap="round" stroke-linejoin="round" opacity="0.22"/><circle cx="500" cy="500" r="9" fill="#122419" stroke="undefined" stroke-width="4" opacity="0.22"/><rect x="400" y="275" width="14" height="20" fill="undefined" opacity="0.198"/><rect x="422" y="275" width="14" height="20" fill="undefined" opacity="0.198"/><rect x="444" y="275" width="14" height="20" fill="undefined" opacity="0.198"/><rect x="466" y="275" width="14" height="20" fill="undefined" opacity="0.198"/>
  <g transform="translate(375 345) scale(0.945) translate(-375 -345)"><polygon points="511.83201379794133,266 511.83201379794133,424 375,503 238.16798620205867,424 238.16798620205867,266.00000000000006 374.99999999999983,187" fill="none" stroke="undefined" stroke-width="10" stroke-linejoin="round"/>
      <polygon points="511.83201379794133,266 511.83201379794133,424 375,503 238.16798620205867,424 238.16798620205867,266.00000000000006 374.99999999999983,187" fill="undefined" opacity="0.07"/>
      <path d="M 402 232 L 322 372 L 372 372 L 344 462 L 434 318 L 380 318 Z" fill="undefined" stroke="#0c1811" stroke-width="5" stroke-linejoin="round"/></g>
</g>
<rect x="52" y="150" width="646" height="410" rx="14" fill="none" stroke="#274a35" stroke-width="3"/>
<text x="200" y="102" font-family="DejaVu Sans Condensed" font-weight="bold" font-size="46"
  letter-spacing="2" fill="#dbe7de">DIAGNOSTICS</text>
<polygon points="95,28 152,61 152,127 95,160 38,127 38,61" fill="#f0b23e" stroke="#1c1405" stroke-width="4"/>
<text x="95" y="118" text-anchor="middle" font-family="DejaVu Sans" font-weight="bold" font-size="74" fill="#1c1405">2</text>
<text x="375" y="608" text-anchor="middle" font-family="DejaVu Sans Mono" font-size="26" letter-spacing="3"
  fill="#87a693">SPELL</text>
<line x1="80" y1="626" x2="670" y2="626" stroke="#e8e05f" stroke-width="2" opacity="0.5"/>
<rect x="46" y="640" width="658" height="346" rx="16" fill="#26240f" opacity="0.55"/>
<text x="375" y="818.3" text-anchor="middle" font-family="DejaVu Sans" font-size="30"
       fill="#dbe7de">Draw 2 cards.</text>

<rect x="70" y="1004" width="22" height="30" fill="url(#guldgrad)"/><rect x="104" y="1004" width="22" height="30" fill="url(#guldgrad)"/><rect x="138" y="1004" width="22" height="30" fill="url(#guldgrad)"/><rect x="172" y="1004" width="22" height="30" fill="url(#guldgrad)"/><rect x="206" y="1004" width="22" height="30" fill="url(#guldgrad)"/><rect x="240" y="1004" width="22" height="30" fill="url(#guldgrad)"/><rect x="274" y="1004" width="22" height="30" fill="url(#guldgrad)"/><rect x="308" y="1004" width="22" height="30" fill="url(#guldgrad)"/><rect x="342" y="1004" width="22" height="30" fill="url(#guldgrad)"/><rect x="376" y="1004" width="22" height="30" fill="url(#guldgrad)"/><rect x="410" y="1004" width="22" height="30" fill="url(#guldgrad)"/><rect x="444" y="1004" width="22" height="30" fill="url(#guldgrad)"/><rect x="478" y="1004" width="22" height="30" fill="url(#guldgrad)"/><rect x="512" y="1004" width="22" height="30" fill="url(#guldgrad)"/><rect x="546" y="1004" width="22" height="30" fill="url(#guldgrad)"/><rect x="580" y="1004" width="22" height="30" fill="url(#guldgrad)"/><rect x="614" y="1004" width="22" height="30" fill="url(#guldgrad)"/><rect x="648" y="1004" width="22" height="30" fill="url(#guldgrad)"/>
<rect x="60" y="1000" width="630" height="4" fill="#c9814a" opacity="0.5"/>
</svg>