<svg xmlns="http://www.w3.org/2000/svg" width="750" height="1050" viewBox="0 0 750 1050">
<defs>
  <linearGradient id="bggrad" x1="0" y1="0" x2="0" y2="1">
    <stop offset="0" stop-color="#4a4708"/><stop offset="0.5" stop-color="#2b2905"/><stop offset="1" stop-color="#131202"/>
  </linearGradient>
  <radialGradient id="artgrad" cx="0.5" cy="0.42" r="0.75">
    <stop offset="0" stop-color="#403d0b"/><stop offset="1" stop-color="#232103"/>
  </radialGradient>
  <linearGradient id="guldgrad" x1="0" y1="0" x2="0" y2="1">
    <stop offset="0" stop-color="#ffd166"/><stop offset="1" stop-color="#9a7422"/>
  </linearGradient>
  <clipPath id="artclip"><rect x="52" y="150" width="646" height="410" rx="14"/></clipPath>
</defs>
<rect x="6" y="6" width="738" height="1038" rx="36" fill="url(#bggrad)" stroke="#f5ea3a" stroke-width="6"/>
<rect x="22" y="22" width="706" height="1006" rx="26" fill="none" stroke="#f5ea3a" stroke-width="2" opacity="0.7"/>
<circle cx="325" cy="925" r="7" fill="none" stroke="#c9814a" stroke-width="4" opacity="0.1"/><path d="M 325 925 L 425 925 L 425 800 L 375 850" fill="none" stroke="#c9814a" stroke-width="4" stroke-linecap="round" stroke-linejoin="round" opacity="0.1"/><circle cx="375" cy="850" r="9" fill="#122419" stroke="#c9814a" stroke-width="4" opacity="0.1"/><circle cx="675" cy="700" r="7" fill="none" stroke="#c9814a" stroke-width="4" opacity="0.1"/><path d="M 675 700 L 575 800" fill="none" stroke="#c9814a" stroke-width="4" stroke-linecap="round" stroke-linejoin="round" opacity="0.1"/><rect x="567" y="792" width="16" height="16" fill="#c9814a" opacity="0.1"/><circle cx="275" cy="875" r="7" fill="none" stroke="#c9814a" stroke-width="4" opacity="0.1"/><path d="M 275 875 L 350 875" fill="none" stroke="#c9814a" stroke-width="4" stroke-linecap="round" stroke-linejoin="round" opacity="0.1"/><rect x="342" y="867" width="16" height="16" fill="#c9814a" opacity="0.1"/><circle cx="250" cy="700" r="7" fill="none" stroke="#c9814a" stroke-width="4" opacity="0.1"/><path d="M 250 700 L 200 700" fill="none" stroke="#c9814a" stroke-width="4" stroke-linecap="round" stroke-linejoin="round" opacity="0.1"/><rect x="192" y="692" width="16" height="16" fill="#c9814a" opacity="0.1"/><circle cx="650" cy="925" r="7" fill="none" stroke="#c9814a" stroke-width="4" opacity="0.1"/><path d="M 650 925 L 600 925" fill="none" stroke="#c9814a" stroke-width="4" stroke-linecap="round" stroke-linejoin="round" opacity="0.1"/><circle cx="600" cy="925" r="9" fill="#122419" stroke="#c9814a" stroke-width="4" opacity="0.1"/><rect x="475" y="950" width="14" height="20" fill="#c9814a" opacity="0.09000000000000001"/><rect x="497" y="950" width="14" height="20" fill="#c9814a" opacity="0.09000000000000001"/><rect x="519" y="950" width="14" height="20" fill="#c9814a" opacity="0.09000000000000001"/><rect x="541" y="950" width="14" height="20" fill="#c9814a" opacity="0.09000000000000001"/>
<g clip-path="url(#artclip)">
  <rect x="52" y="150" width="646" height="410" fill="url(#artgrad)"/>
  <circle cx="400" cy="425" r="7" fill="none" stroke="#c9814a" stroke-width="4" opacity="0.3"/><path d="M 400 425 L 400 525 L 250 375" fill="none" stroke="#c9814a" stroke-width="4" stroke-linecap="round" stroke-linejoin="round" opacity="0.3"/><circle cx="250" cy="375" r="9" fill="#122419" stroke="#c9814a" stroke-width="4" opacity="0.3"/><circle cx="500" cy="475" r="7" fill="none" stroke="#c9814a" stroke-width="4" opacity="0.3"/><path d="M 500 475 L 375 350 L 475 250 L 625 250" fill="none" stroke="#c9814a" stroke-width="4" stroke-linecap="round" stroke-linejoin="round" opacity="0.3"/><circle cx="625" cy="250" r="9" fill="#122419" stroke="#c9814a" stroke-width="4" opacity="0.3"/><circle cx="250" cy="200" r="7" fill="none" stroke="#c9814a" stroke-width="4" opacity="0.3"/><path d="M 250 200 L 325 160" fill="none" stroke="#c9814a" stroke-width="4" stroke-linecap="round" stroke-linejoin="round" opacity="0.3"/><rect x="317" y="152" width="16" height="16" fill="#c9814a" opacity="0.3"/><circle cx="500" cy="175" r="7" fill="none" stroke="#c9814a" stroke-width="4" opacity="0.3"/><path d="M 500 175 L 500 160 L 400 160" fill="none" stroke="#c9814a" stroke-width="4" stroke-linecap="round" stroke-linejoin="round" opacity="0.3"/><rect x="392" y="152" width="16" height="16" fill="#c9814a" opacity="0.3"/><circle cx="175" cy="375" r="7" fill="none" stroke="#c9814a" stroke-width="4" opacity="0.3"/><path d="M 175 375 L 125 375 L 125 450 L 60 525" fill="none" stroke="#c9814a" stroke-width="4" stroke-linecap="round" stroke-linejoin="round" opacity="0.3"/><circle cx="60" cy="525" r="9" fill="#122419" stroke="#c9814a" stroke-width="4" opacity="0.3"/><circle cx="275" cy="250" r="7" fill="none" stroke="#c9814a" stroke-width="4" opacity="0.3"/><path d="M 275 250 L 325 250" fill="none" stroke="#c9814a" stroke-width="4" stroke-linecap="round" stroke-linejoin="round" opacity="0.3"/><circle cx="325" cy="250" r="9" fill="#122419" stroke="#c9814a" stroke-width="4" opacity="0.3"/><circle cx="525" cy="350" r="7" fill="none" stroke="#c9814a" stroke-width="4" opacity="0.3"/><path d="M 525 350 L 450 425" fill="none" stroke="#c9814a" stroke-width="4" stroke-linecap="round" stroke-linejoin="round" opacity="0.3"/><circle cx="450" cy="425" r="9" fill="#122419" stroke="#c9814a" stroke-width="4" opacity="0.3"/><circle cx="650" cy="350" r="7" fill="none" stroke="#c9814a" stroke-width="4" opacity="0.3"/><path d="M 650 350 L 690 275" fill="none" stroke="#c9814a" stroke-width="4" stroke-linecap="round" stroke-linejoin="round" opacity="0.3"/><circle cx="690" cy="275" r="9" fill="#122419" stroke="#c9814a" stroke-width="4" opacity="0.3"/><circle cx="400" cy="525" r="7" fill="none" stroke="#c9814a" stroke-width="4" opacity="0.3"/><path d="M 400 525 L 350 525" fill="none" stroke="#c9814a" stroke-width="4" stroke-linecap="round" stroke-linejoin="round" opacity="0.3"/><rect x="342" y="517" width="16" height="16" fill="#c9814a" opacity="0.3"/><rect x="350" y="225" width="14" height="20" fill="#c9814a" opacity="0.27"/><rect x="372" y="225" width="14" height="20" fill="#c9814a" opacity="0.27"/><rect x="394" y="225" width="14" height="20" fill="#c9814a" opacity="0.27"/><rect x="416" y="225" width="14" height="20" fill="#c9814a" opacity="0.27"/>
  <circle cx="500" cy="200" r="7" fill="none" stroke="undefined" stroke-width="4" opacity="0.22"/><path d="M 500 200 L 450 200 L 450 160 L 575 160" fill="none" stroke="undefined" stroke-width="4" stroke-linecap="round" stroke-linejoin="round" opacity="0.22"/><circle cx="575" cy="160" r="9" fill="#122419" stroke="undefined" stroke-width="4" opacity="0.22"/><circle cx="300" cy="225" r="7" fill="none" stroke="undefined" stroke-width="4" opacity="0.22"/><path d="M 300 225 L 150 225" fill="none" stroke="undefined" stroke-width="4" stroke-linecap="round" stroke-linejoin="round" opacity="0.22"/><rect x="142" y="217" width="16" height="16" fill="undefined" opacity="0.22"/><circle cx="300" cy="500" r="7" fill="none" stroke="undefined" stroke-width="4" opacity="0.22"/><path d="M 300 500 L 425 550 L 300 550 L 300 450" fill="none" stroke="undefined" stroke-width="4" stroke-linecap="round" stroke-linejoin="round" opacity="0.22"/><circle cx="300" cy="450" r="9" fill="#122419" stroke="undefined" stroke-width="4" opacity="0.22"/><rect x="450" y="375" width="14" height="20" fill="undefined" opacity="0.198"/><rect x="472" y="375" width="14" height="20" fill="undefined" opacity="0.198"/><rect x="494" y="375" width="14" height="20" fill="undefined" opacity="0.198"/><rect x="516" y="375" width="14" height="20" fill="undefined" opacity="0.198"/>
  <g transform="translate(375 345) scale(1.035) translate(-375 -345)"><polygon points="511.8,266.0 511.8,424.0 375.0,503.0 238.2,424.0 238.2,266.0 375.0,187.0" fill="none" stroke="undefined" stroke-width="10" stroke-linejoin="round"/><polygon points="511.8,266.0 511.8,424.0 375.0,503.0 238.2,424.0 238.2,266.0 375.0,187.0" fill="undefined" opacity="0.07"/><path d="M 402 232 L 322 372 L 372 372 L 344 462 L 434 318 L 380 318 Z" fill="undefined" stroke="#0c1811" stroke-width="5" stroke-linejoin="round"/></g>
</g>
<rect x="52" y="150" width="646" height="410" rx="14" fill="none" stroke="#274a35" stroke-width="3"/>
<text x="200" y="102" font-family="DejaVu Sans Condensed" font-weight="bold" font-size="38"
  letter-spacing="2" fill="#dbe7de">CHAIN LIGHTNING</text>
<polygon points="95,28 152,61 152,127 95,160 38,127 38,61" fill="#f0b23e" stroke="#1c1405" stroke-width="4"/>
<text x="95" y="118" text-anchor="middle" font-family="DejaVu Sans" font-weight="bold" font-size="74" fill="#1c1405">4</text>
<text x="375" y="608" text-anchor="middle" font-family="DejaVu Sans Mono" font-size="26" letter-spacing="3"
  fill="#87a693">SPELL</text>
<line x1="80" y1="626" x2="670" y2="626" stroke="#f5ea3a" stroke-width="2" opacity="0.5"/>
<rect x="46" y="640" width="658" height="346" rx="16" fill="#3a3806" opacity="0.55"/>
<text x="375" y="797.6" text-anchor="middle" font-family="DejaVu Sans" font-size="30"
       fill="#dbe7de">Deal 3 damage to an enemy unit and 2 to</text>
<text x="375" y="839.0" text-anchor="middle" font-family="DejaVu Sans" font-size="30"
       fill="#dbe7de">its neighbors.</text>

<rect x="70" y="1004" width="22" height="30" fill="url(#guldgrad)"/><rect x="104" y="1004" width="22" height="30" fill="url(#guldgrad)"/><rect x="138" y="1004" width="22" height="30" fill="url(#guldgrad)"/><rect x="172" y="1004" width="22" height="30" fill="url(#guldgrad)"/><rect x="206" y="1004" width="22" height="30" fill="url(#guldgrad)"/><rect x="240" y="1004" width="22" height="30" fill="url(#guldgrad)"/><rect x="274" y="1004" width="22" height="30" fill="url(#guldgrad)"/><rect x="308" y="1004" width="22" height="30" fill="url(#guldgrad)"/><rect x="342" y="1004" width="22" height="30" fill="url(#guldgrad)"/><rect x="376" y="1004" width="22" height="30" fill="url(#guldgrad)"/><rect x="410" y="1004" width="22" height="30" fill="url(#guldgrad)"/><rect x="444" y="1004" width="22" height="30" fill="url(#guldgrad)"/><rect x="478" y="1004" width="22" height="30" fill="url(#guldgrad)"/><rect x="512" y="1004" width="22" height="30" fill="url(#guldgrad)"/><rect x="546" y="1004" width="22" height="30" fill="url(#guldgrad)"/><rect x="580" y="1004" width="22" height="30" fill="url(#guldgrad)"/><rect x="614" y="1004" width="22" height="30" fill="url(#guldgrad)"/><rect x="648" y="1004" width="22" height="30" fill="url(#guldgrad)"/>
<rect x="60" y="1000" width="630" height="4" fill="#c9814a" opacity="0.5"/>
</svg>