<svg xmlns="http://www.w3.org/2000/svg" width="750" height="1050" viewBox="0 0 750 1050">
<defs>
  <linearGradient id="bggrad" x1="0" y1="0" x2="0" y2="1">
    <stop offset="0" stop-color="#173021"/><stop offset="0.5" stop-color="#122419"/><stop offset="1" stop-color="#0c1811"/>
  </linearGradient>
  <linearGradient id="guldgrad" x1="0" y1="0" x2="0" y2="1">
    <stop offset="0" stop-color="#ffd166"/><stop offset="1" stop-color="#9a7422"/>
  </linearGradient>
  <clipPath id="artclip"><rect x="52" y="150" width="646" height="410" rx="14"/></clipPath>
</defs>
<rect x="6" y="6" width="738" height="1038" rx="36" fill="url(#bggrad)" stroke="#274a35" stroke-width="6"/>
<rect x="22" y="22" width="706" height="1006" rx="26" fill="none" stroke="#c9814a" stroke-width="2" opacity="0.55"/>
<circle cx="225" cy="875" r="7" fill="none" stroke="#c9814a" stroke-width="4" opacity="0.1"/><path d="M 225 875 L 225 800" fill="none" stroke="#c9814a" stroke-width="4" stroke-linecap="round" stroke-linejoin="round" opacity="0.1"/><circle cx="225" cy="800" r="9" fill="#122419" stroke="#c9814a" stroke-width="4" opacity="0.1"/><circle cx="225" cy="950" r="7" fill="none" stroke="#c9814a" stroke-width="4" opacity="0.1"/><path d="M 225 950 L 150 950 L 200 900 L 50 750" fill="none" stroke="#c9814a" stroke-width="4" stroke-linecap="round" stroke-linejoin="round" opacity="0.1"/><rect x="42" y="742" width="16" height="16" fill="#c9814a" opacity="0.1"/><circle cx="450" cy="725" r="7" fill="none" stroke="#c9814a" stroke-width="4" opacity="0.1"/><path d="M 450 725 L 350 725 L 350 625 L 475 625" fill="none" stroke="#c9814a" stroke-width="4" stroke-linecap="round" stroke-linejoin="round" opacity="0.1"/><rect x="467" y="617" width="16" height="16" fill="#c9814a" opacity="0.1"/><circle cx="125" cy="975" r="7" fill="none" stroke="#c9814a" stroke-width="4" opacity="0.1"/><path d="M 125 975 L 175 980 L 325 830 L 325 705" fill="none" stroke="#c9814a" stroke-width="4" stroke-linecap="round" stroke-linejoin="round" opacity="0.1"/><rect x="317" y="697" width="16" height="16" fill="#c9814a" opacity="0.1"/><circle cx="300" cy="875" r="7" fill="none" stroke="#c9814a" stroke-width="4" opacity="0.1"/><path d="M 300 875 L 250 925 L 250 850" fill="none" stroke="#c9814a" stroke-width="4" stroke-linecap="round" stroke-linejoin="round" opacity="0.1"/><rect x="242" y="842" width="16" height="16" fill="#c9814a" opacity="0.1"/><rect x="325" y="900" width="14" height="20" fill="#c9814a" opacity="0.09000000000000001"/><rect x="347" y="900" width="14" height="20" fill="#c9814a" opacity="0.09000000000000001"/><rect x="369" y="900" width="14" height="20" fill="#c9814a" opacity="0.09000000000000001"/><rect x="391" y="900" width="14" height="20" fill="#c9814a" opacity="0.09000000000000001"/>
<g clip-path="url(#artclip)">
  <rect x="52" y="150" width="646" height="410" fill="#0c1811"/>
  <circle cx="675" cy="425" r="7" fill="none" stroke="#c9814a" stroke-width="4" opacity="0.3"/><path d="M 675 425 L 690 425" fill="none" stroke="#c9814a" stroke-width="4" stroke-linecap="round" stroke-linejoin="round" opacity="0.3"/><circle cx="690" cy="425" r="9" fill="#122419" stroke="#c9814a" stroke-width="4" opacity="0.3"/><circle cx="525" cy="300" r="7" fill="none" stroke="#c9814a" stroke-width="4" opacity="0.3"/><path d="M 525 300 L 400 425 L 450 375 L 350 475" fill="none" stroke="#c9814a" stroke-width="4" stroke-linecap="round" stroke-linejoin="round" opacity="0.3"/><circle cx="350" cy="475" r="9" fill="#122419" stroke="#c9814a" stroke-width="4" opacity="0.3"/><circle cx="650" cy="475" r="7" fill="none" stroke="#c9814a" stroke-width="4" opacity="0.3"/><path d="M 650 475 L 650 525" fill="none" stroke="#c9814a" stroke-width="4" stroke-linecap="round" stroke-linejoin="round" opacity="0.3"/><circle cx="650" cy="525" r="9" fill="#122419" stroke="#c9814a" stroke-width="4" opacity="0.3"/><circle cx="450" cy="475" r="7" fill="none" stroke="#c9814a" stroke-width="4" opacity="0.3"/><path d="M 450 475 L 350 475" fill="none" stroke="#c9814a" stroke-width="4" stroke-linecap="round" stroke-linejoin="round" opacity="0.3"/><circle cx="350" cy="475" r="9" fill="#122419" stroke="#c9814a" stroke-width="4" opacity="0.3"/><circle cx="600" cy="325" r="7" fill="none" stroke="#c9814a" stroke-width="4" opacity="0.3"/><path d="M 600 325 L 600 475 L 650 475 L 600 425" fill="none" stroke="#c9814a" stroke-width="4" stroke-linecap="round" stroke-linejoin="round" opacity="0.3"/><rect x="592" y="417" width="16" height="16" fill="#c9814a" opacity="0.3"/><circle cx="250" cy="450" r="7" fill="none" stroke="#c9814a" stroke-width="4" opacity="0.3"/><path d="M 250 450 L 100 450 L 100 550" fill="none" stroke="#c9814a" stroke-width="4" stroke-linecap="round" stroke-linejoin="round" opacity="0.3"/><circle cx="100" cy="550" r="9" fill="#122419" stroke="#c9814a" stroke-width="4" opacity="0.3"/><circle cx="175" cy="175" r="7" fill="none" stroke="#c9814a" stroke-width="4" opacity="0.3"/><path d="M 175 175 L 100 250 L 200 250" fill="none" stroke="#c9814a" stroke-width="4" stroke-linecap="round" stroke-linejoin="round" opacity="0.3"/><circle cx="200" cy="250" r="9" fill="#122419" stroke="#c9814a" stroke-width="4" opacity="0.3"/><circle cx="550" cy="200" r="7" fill="none" stroke="#c9814a" stroke-width="4" opacity="0.3"/><path d="M 550 200 L 475 200" fill="none" stroke="#c9814a" stroke-width="4" stroke-linecap="round" stroke-linejoin="round" opacity="0.3"/><circle cx="475" cy="200" r="9" fill="#122419" stroke="#c9814a" stroke-width="4" opacity="0.3"/><circle cx="400" cy="300" r="7" fill="none" stroke="#c9814a" stroke-width="4" opacity="0.3"/><path d="M 400 300 L 325 225 L 325 350 L 400 350" fill="none" stroke="#c9814a" stroke-width="4" stroke-linecap="round" stroke-linejoin="round" opacity="0.3"/><rect x="392" y="342" width="16" height="16" fill="#c9814a" opacity="0.3"/><rect x="350" y="325" width="14" height="20" fill="#c9814a" opacity="0.27"/><rect x="372" y="325" width="14" height="20" fill="#c9814a" opacity="0.27"/><rect x="394" y="325" width="14" height="20" fill="#c9814a" opacity="0.27"/><rect x="416" y="325" width="14" height="20" fill="#c9814a" opacity="0.27"/>
  <circle cx="375" cy="200" r="7" fill="none" stroke="#e8e05f" stroke-width="4" opacity="0.22"/><path d="M 375 200 L 525 200 L 600 275" fill="none" stroke="#e8e05f" stroke-width="4" stroke-linecap="round" stroke-linejoin="round" opacity="0.22"/><circle cx="600" cy="275" r="9" fill="#122419" stroke="#e8e05f" stroke-width="4" opacity="0.22"/><circle cx="150" cy="300" r="7" fill="none" stroke="#e8e05f" stroke-width="4" opacity="0.22"/><path d="M 150 300 L 60 400 L 60 350 L 60 275" fill="none" stroke="#e8e05f" stroke-width="4" stroke-linecap="round" stroke-linejoin="round" opacity="0.22"/><rect x="52" y="267" width="16" height="16" fill="#e8e05f" opacity="0.22"/><circle cx="225" cy="500" r="7" fill="none" stroke="#e8e05f" stroke-width="4" opacity="0.22"/><path d="M 225 500 L 225 450 L 75 300" fill="none" stroke="#e8e05f" stroke-width="4" stroke-linecap="round" stroke-linejoin="round" opacity="0.22"/><rect x="67" y="292" width="16" height="16" fill="#e8e05f" opacity="0.22"/><rect x="75" y="350" width="14" height="20" fill="#e8e05f" opacity="0.198"/><rect x="97" y="350" width="14" height="20" fill="#e8e05f" opacity="0.198"/><rect x="119" y="350" width="14" height="20" fill="#e8e05f" opacity="0.198"/><rect x="141" y="350" width="14" height="20" fill="#e8e05f" opacity="0.198"/>
  <g transform="translate(375 345) scale(0.965) translate(-375 -345)"><polygon points="511.83201379794133,266 511.83201379794133,424 375,503 238.16798620205867,424 238.16798620205867,266.00000000000006 374.99999999999983,187" fill="none" stroke="#e8e05f" stroke-width="10" stroke-linejoin="round"/>
      <polygon points="511.83201379794133,266 511.83201379794133,424 375,503 238.16798620205867,424 238.16798620205867,266.00000000000006 374.99999999999983,187" fill="#e8e05f" opacity="0.07"/>
      <path d="M 402 232 L 322 372 L 372 372 L 344 462 L 434 318 L 380 318 Z" fill="#e8e05f" stroke="#0c1811" stroke-width="5" stroke-linejoin="round"/></g>
</g>
<rect x="52" y="150" width="646" height="410" rx="14" fill="none" stroke="#274a35" stroke-width="3"/>
<text x="200" y="102" font-family="DejaVu Sans Condensed" font-weight="bold" font-size="46"
  letter-spacing="2" fill="#dbe7de">KABELSALAT</text>
<polygon points="95,28 152,61 152,127 95,160 38,127 38,61" fill="#f0b23e" stroke="#1c1405" stroke-width="4"/>
<text x="95" y="118" text-anchor="middle" font-family="DejaVu Sans" font-weight="bold" font-size="74" fill="#1c1405">2</text>
<text x="375" y="608" text-anchor="middle" font-family="DejaVu Sans Mono" font-size="26" letter-spacing="3"
  fill="#87a693">PROGRAM</text>
<line x1="80" y1="626" x2="670" y2="626" stroke="#274a35" stroke-width="2"/>
<text x="375" y="818.3" text-anchor="middle" font-family="DejaVu Sans" font-size="30"
       fill="#dbe7de">Byt en enheds angreb og liv.</text>

<rect x="70" y="1004" width="22" height="30" fill="url(#guldgrad)"/><rect x="104" y="1004" width="22" height="30" fill="url(#guldgrad)"/><rect x="138" y="1004" width="22" height="30" fill="url(#guldgrad)"/><rect x="172" y="1004" width="22" height="30" fill="url(#guldgrad)"/><rect x="206" y="1004" width="22" height="30" fill="url(#guldgrad)"/><rect x="240" y="1004" width="22" height="30" fill="url(#guldgrad)"/><rect x="274" y="1004" width="22" height="30" fill="url(#guldgrad)"/><rect x="308" y="1004" width="22" height="30" fill="url(#guldgrad)"/><rect x="342" y="1004" width="22" height="30" fill="url(#guldgrad)"/><rect x="376" y="1004" width="22" height="30" fill="url(#guldgrad)"/><rect x="410" y="1004" width="22" height="30" fill="url(#guldgrad)"/><rect x="444" y="1004" width="22" height="30" fill="url(#guldgrad)"/><rect x="478" y="1004" width="22" height="30" fill="url(#guldgrad)"/><rect x="512" y="1004" width="22" height="30" fill="url(#guldgrad)"/><rect x="546" y="1004" width="22" height="30" fill="url(#guldgrad)"/><rect x="580" y="1004" width="22" height="30" fill="url(#guldgrad)"/><rect x="614" y="1004" width="22" height="30" fill="url(#guldgrad)"/><rect x="648" y="1004" width="22" height="30" fill="url(#guldgrad)"/>
<rect x="60" y="1000" width="630" height="4" fill="#c9814a" opacity="0.5"/>
</svg>