<svg xmlns="http://www.w3.org/2000/svg" width="750" height="1050" viewBox="0 0 750 1050">
<defs>
  <linearGradient id="bggrad" x1="0" y1="0" x2="0" y2="1">
    <stop offset="0" stop-color="#173021"/><stop offset="0.5" stop-color="#122419"/><stop offset="1" stop-color="#0c1811"/>
  </linearGradient>
  <linearGradient id="guldgrad" x1="0" y1="0" x2="0" y2="1">
    <stop offset="0" stop-color="#ffd166"/><stop offset="1" stop-color="#9a7422"/>
  </linearGradient>
  <clipPath id="artclip"><rect x="52" y="150" width="646" height="410" rx="14"/></clipPath>
</defs>
<rect x="6" y="6" width="738" height="1038" rx="36" fill="url(#bggrad)" stroke="#274a35" stroke-width="6"/>
<rect x="22" y="22" width="706" height="1006" rx="26" fill="none" stroke="#c9814a" stroke-width="2" opacity="0.55"/>
<circle cx="375" cy="825" r="7" fill="none" stroke="#c9814a" stroke-width="4" opacity="0.1"/><path d="M 375 825 L 275 825 L 150 950" fill="none" stroke="#c9814a" stroke-width="4" stroke-linecap="round" stroke-linejoin="round" opacity="0.1"/><circle cx="150" cy="950" r="9" fill="#122419" stroke="#c9814a" stroke-width="4" opacity="0.1"/><circle cx="400" cy="950" r="7" fill="none" stroke="#c9814a" stroke-width="4" opacity="0.1"/><path d="M 400 950 L 250 950 L 250 900 L 350 980" fill="none" stroke="#c9814a" stroke-width="4" stroke-linecap="round" stroke-linejoin="round" opacity="0.1"/><circle cx="350" cy="980" r="9" fill="#122419" stroke="#c9814a" stroke-width="4" opacity="0.1"/><circle cx="675" cy="775" r="7" fill="none" stroke="#c9814a" stroke-width="4" opacity="0.1"/><path d="M 675 775 L 625 725 L 710 850" fill="none" stroke="#c9814a" stroke-width="4" stroke-linecap="round" stroke-linejoin="round" opacity="0.1"/><circle cx="710" cy="850" r="9" fill="#122419" stroke="#c9814a" stroke-width="4" opacity="0.1"/><circle cx="175" cy="950" r="7" fill="none" stroke="#c9814a" stroke-width="4" opacity="0.1"/><path d="M 175 950 L 225 980 L 325 980 L 325 980" fill="none" stroke="#c9814a" stroke-width="4" stroke-linecap="round" stroke-linejoin="round" opacity="0.1"/><circle cx="325" cy="980" r="9" fill="#122419" stroke="#c9814a" stroke-width="4" opacity="0.1"/><circle cx="700" cy="650" r="7" fill="none" stroke="#c9814a" stroke-width="4" opacity="0.1"/><path d="M 700 650 L 600 650 L 600 620 L 710 770" fill="none" stroke="#c9814a" stroke-width="4" stroke-linecap="round" stroke-linejoin="round" opacity="0.1"/><circle cx="710" cy="770" r="9" fill="#122419" stroke="#c9814a" stroke-width="4" opacity="0.1"/><rect x="150" y="675" width="14" height="20" fill="#c9814a" opacity="0.09000000000000001"/><rect x="172" y="675" width="14" height="20" fill="#c9814a" opacity="0.09000000000000001"/><rect x="194" y="675" width="14" height="20" fill="#c9814a" opacity="0.09000000000000001"/><rect x="216" y="675" width="14" height="20" fill="#c9814a" opacity="0.09000000000000001"/>
<g clip-path="url(#artclip)">
  <rect x="52" y="150" width="646" height="410" fill="#0c1811"/>
  <circle cx="650" cy="325" r="7" fill="none" stroke="#c9814a" stroke-width="4" opacity="0.3"/><path d="M 650 325 L 650 175 L 500 175 L 575 160" fill="none" stroke="#c9814a" stroke-width="4" stroke-linecap="round" stroke-linejoin="round" opacity="0.3"/><rect x="567" y="152" width="16" height="16" fill="#c9814a" opacity="0.3"/><circle cx="575" cy="450" r="7" fill="none" stroke="#c9814a" stroke-width="4" opacity="0.3"/><path d="M 575 450 L 575 550 L 690 425" fill="none" stroke="#c9814a" stroke-width="4" stroke-linecap="round" stroke-linejoin="round" opacity="0.3"/><circle cx="690" cy="425" r="9" fill="#122419" stroke="#c9814a" stroke-width="4" opacity="0.3"/><circle cx="575" cy="300" r="7" fill="none" stroke="#c9814a" stroke-width="4" opacity="0.3"/><path d="M 575 300 L 500 300 L 450 250" fill="none" stroke="#c9814a" stroke-width="4" stroke-linecap="round" stroke-linejoin="round" opacity="0.3"/><rect x="442" y="242" width="16" height="16" fill="#c9814a" opacity="0.3"/><circle cx="150" cy="475" r="7" fill="none" stroke="#c9814a" stroke-width="4" opacity="0.3"/><path d="M 150 475 L 60 550 L 60 550" fill="none" stroke="#c9814a" stroke-width="4" stroke-linecap="round" stroke-linejoin="round" opacity="0.3"/><rect x="52" y="542" width="16" height="16" fill="#c9814a" opacity="0.3"/><circle cx="600" cy="250" r="7" fill="none" stroke="#c9814a" stroke-width="4" opacity="0.3"/><path d="M 600 250 L 690 350 L 540 350 L 640 450" fill="none" stroke="#c9814a" stroke-width="4" stroke-linecap="round" stroke-linejoin="round" opacity="0.3"/><circle cx="640" cy="450" r="9" fill="#122419" stroke="#c9814a" stroke-width="4" opacity="0.3"/><circle cx="300" cy="375" r="7" fill="none" stroke="#c9814a" stroke-width="4" opacity="0.3"/><path d="M 300 375 L 425 250" fill="none" stroke="#c9814a" stroke-width="4" stroke-linecap="round" stroke-linejoin="round" opacity="0.3"/><circle cx="425" cy="250" r="9" fill="#122419" stroke="#c9814a" stroke-width="4" opacity="0.3"/><circle cx="525" cy="375" r="7" fill="none" stroke="#c9814a" stroke-width="4" opacity="0.3"/><path d="M 525 375 L 375 225 L 425 175 L 500 175" fill="none" stroke="#c9814a" stroke-width="4" stroke-linecap="round" stroke-linejoin="round" opacity="0.3"/><circle cx="500" cy="175" r="9" fill="#122419" stroke="#c9814a" stroke-width="4" opacity="0.3"/><circle cx="575" cy="400" r="7" fill="none" stroke="#c9814a" stroke-width="4" opacity="0.3"/><path d="M 575 400 L 475 400 L 425 450" fill="none" stroke="#c9814a" stroke-width="4" stroke-linecap="round" stroke-linejoin="round" opacity="0.3"/><circle cx="425" cy="450" r="9" fill="#122419" stroke="#c9814a" stroke-width="4" opacity="0.3"/><circle cx="400" cy="200" r="7" fill="none" stroke="#c9814a" stroke-width="4" opacity="0.3"/><path d="M 400 200 L 250 350" fill="none" stroke="#c9814a" stroke-width="4" stroke-linecap="round" stroke-linejoin="round" opacity="0.3"/><rect x="242" y="342" width="16" height="16" fill="#c9814a" opacity="0.3"/><rect x="125" y="475" width="14" height="20" fill="#c9814a" opacity="0.27"/><rect x="147" y="475" width="14" height="20" fill="#c9814a" opacity="0.27"/><rect x="169" y="475" width="14" height="20" fill="#c9814a" opacity="0.27"/><rect x="191" y="475" width="14" height="20" fill="#c9814a" opacity="0.27"/>
  <circle cx="100" cy="425" r="7" fill="none" stroke="#e8e05f" stroke-width="4" opacity="0.22"/><path d="M 100 425 L 60 550" fill="none" stroke="#e8e05f" stroke-width="4" stroke-linecap="round" stroke-linejoin="round" opacity="0.22"/><circle cx="60" cy="550" r="9" fill="#122419" stroke="#e8e05f" stroke-width="4" opacity="0.22"/><circle cx="200" cy="425" r="7" fill="none" stroke="#e8e05f" stroke-width="4" opacity="0.22"/><path d="M 200 425 L 200 500 L 300 550 L 150 550" fill="none" stroke="#e8e05f" stroke-width="4" stroke-linecap="round" stroke-linejoin="round" opacity="0.22"/><circle cx="150" cy="550" r="9" fill="#122419" stroke="#e8e05f" stroke-width="4" opacity="0.22"/><circle cx="150" cy="175" r="7" fill="none" stroke="#e8e05f" stroke-width="4" opacity="0.22"/><path d="M 150 175 L 60 175 L 60 160" fill="none" stroke="#e8e05f" stroke-width="4" stroke-linecap="round" stroke-linejoin="round" opacity="0.22"/><circle cx="60" cy="160" r="9" fill="#122419" stroke="#e8e05f" stroke-width="4" opacity="0.22"/><rect x="375" y="450" width="14" height="20" fill="#e8e05f" opacity="0.198"/><rect x="397" y="450" width="14" height="20" fill="#e8e05f" opacity="0.198"/><rect x="419" y="450" width="14" height="20" fill="#e8e05f" opacity="0.198"/><rect x="441" y="450" width="14" height="20" fill="#e8e05f" opacity="0.198"/>
  <g transform="translate(375 345) scale(0.988) translate(-375 -345)"><polygon points="511.83201379794133,266 511.83201379794133,424 375,503 238.16798620205867,424 238.16798620205867,266.00000000000006 374.99999999999983,187" fill="none" stroke="#e8e05f" stroke-width="10" stroke-linejoin="round"/>
      <polygon points="511.83201379794133,266 511.83201379794133,424 375,503 238.16798620205867,424 238.16798620205867,266.00000000000006 374.99999999999983,187" fill="#e8e05f" opacity="0.07"/>
      <path d="M 402 232 L 322 372 L 372 372 L 344 462 L 434 318 L 380 318 Z" fill="#e8e05f" stroke="#0c1811" stroke-width="5" stroke-linejoin="round"/></g>
</g>
<rect x="52" y="150" width="646" height="410" rx="14" fill="none" stroke="#274a35" stroke-width="3"/>
<text x="200" y="102" font-family="DejaVu Sans Condensed" font-weight="bold" font-size="46"
  letter-spacing="2" fill="#dbe7de">OVERLOAD</text>
<polygon points="95,28 152,61 152,127 95,160 38,127 38,61" fill="#f0b23e" stroke="#1c1405" stroke-width="4"/>
<text x="95" y="118" text-anchor="middle" font-family="DejaVu Sans" font-weight="bold" font-size="74" fill="#1c1405">4</text>
<text x="375" y="608" text-anchor="middle" font-family="DejaVu Sans Mono" font-size="26" letter-spacing="3"
  fill="#87a693">SPELL</text>
<line x1="80" y1="626" x2="670" y2="626" stroke="#274a35" stroke-width="2"/>
<text x="375" y="818.3" text-anchor="middle" font-family="DejaVu Sans" font-size="30"
       fill="#dbe7de">Deal 5 damage. Overheat (2).</text>

<rect x="70" y="1004" width="22" height="30" fill="url(#guldgrad)"/><rect x="104" y="1004" width="22" height="30" fill="url(#guldgrad)"/><rect x="138" y="1004" width="22" height="30" fill="url(#guldgrad)"/><rect x="172" y="1004" width="22" height="30" fill="url(#guldgrad)"/><rect x="206" y="1004" width="22" height="30" fill="url(#guldgrad)"/><rect x="240" y="1004" width="22" height="30" fill="url(#guldgrad)"/><rect x="274" y="1004" width="22" height="30" fill="url(#guldgrad)"/><rect x="308" y="1004" width="22" height="30" fill="url(#guldgrad)"/><rect x="342" y="1004" width="22" height="30" fill="url(#guldgrad)"/><rect x="376" y="1004" width="22" height="30" fill="url(#guldgrad)"/><rect x="410" y="1004" width="22" height="30" fill="url(#guldgrad)"/><rect x="444" y="1004" width="22" height="30" fill="url(#guldgrad)"/><rect x="478" y="1004" width="22" height="30" fill="url(#guldgrad)"/><rect x="512" y="1004" width="22" height="30" fill="url(#guldgrad)"/><rect x="546" y="1004" width="22" height="30" fill="url(#guldgrad)"/><rect x="580" y="1004" width="22" height="30" fill="url(#guldgrad)"/><rect x="614" y="1004" width="22" height="30" fill="url(#guldgrad)"/><rect x="648" y="1004" width="22" height="30" fill="url(#guldgrad)"/>
<rect x="60" y="1000" width="630" height="4" fill="#c9814a" opacity="0.5"/>
</svg>