<svg xmlns="http://www.w3.org/2000/svg" width="750" height="1050" viewBox="0 0 750 1050">
<defs>
  <linearGradient id="bggrad" x1="0" y1="0" x2="0" y2="1">
    <stop offset="0" stop-color="#173021"/><stop offset="0.5" stop-color="#122419"/><stop offset="1" stop-color="#0c1811"/>
  </linearGradient>
  <linearGradient id="guldgrad" x1="0" y1="0" x2="0" y2="1">
    <stop offset="0" stop-color="#ffd166"/><stop offset="1" stop-color="#9a7422"/>
  </linearGradient>
  <clipPath id="artclip"><rect x="52" y="150" width="646" height="410" rx="14"/></clipPath>
</defs>
<rect x="6" y="6" width="738" height="1038" rx="36" fill="url(#bggrad)" stroke="#274a35" stroke-width="6"/>
<rect x="22" y="22" width="706" height="1006" rx="26" fill="none" stroke="#e8a96a" stroke-width="3" opacity="0.8"/>
<circle cx="650" cy="900" r="7" fill="none" stroke="#c9814a" stroke-width="4" opacity="0.1"/><path d="M 650 900 L 710 900" fill="none" stroke="#c9814a" stroke-width="4" stroke-linecap="round" stroke-linejoin="round" opacity="0.1"/><circle cx="710" cy="900" r="9" fill="#122419" stroke="#c9814a" stroke-width="4" opacity="0.1"/><circle cx="475" cy="875" r="7" fill="none" stroke="#c9814a" stroke-width="4" opacity="0.1"/><path d="M 475 875 L 625 725" fill="none" stroke="#c9814a" stroke-width="4" stroke-linecap="round" stroke-linejoin="round" opacity="0.1"/><circle cx="625" cy="725" r="9" fill="#122419" stroke="#c9814a" stroke-width="4" opacity="0.1"/><circle cx="650" cy="875" r="7" fill="none" stroke="#c9814a" stroke-width="4" opacity="0.1"/><path d="M 650 875 L 650 950 L 710 950" fill="none" stroke="#c9814a" stroke-width="4" stroke-linecap="round" stroke-linejoin="round" opacity="0.1"/><rect x="702" y="942" width="16" height="16" fill="#c9814a" opacity="0.1"/><circle cx="225" cy="875" r="7" fill="none" stroke="#c9814a" stroke-width="4" opacity="0.1"/><path d="M 225 875 L 275 875" fill="none" stroke="#c9814a" stroke-width="4" stroke-linecap="round" stroke-linejoin="round" opacity="0.1"/><circle cx="275" cy="875" r="9" fill="#122419" stroke="#c9814a" stroke-width="4" opacity="0.1"/><circle cx="450" cy="800" r="7" fill="none" stroke="#c9814a" stroke-width="4" opacity="0.1"/><path d="M 450 800 L 450 725 L 500 775 L 350 775" fill="none" stroke="#c9814a" stroke-width="4" stroke-linecap="round" stroke-linejoin="round" opacity="0.1"/><circle cx="350" cy="775" r="9" fill="#122419" stroke="#c9814a" stroke-width="4" opacity="0.1"/><rect x="200" y="775" width="14" height="20" fill="#c9814a" opacity="0.09000000000000001"/><rect x="222" y="775" width="14" height="20" fill="#c9814a" opacity="0.09000000000000001"/><rect x="244" y="775" width="14" height="20" fill="#c9814a" opacity="0.09000000000000001"/><rect x="266" y="775" width="14" height="20" fill="#c9814a" opacity="0.09000000000000001"/>
<g clip-path="url(#artclip)">
  <rect x="52" y="150" width="646" height="410" fill="#0c1811"/>
  <circle cx="675" cy="300" r="7" fill="none" stroke="#c9814a" stroke-width="4" opacity="0.3"/><path d="M 675 300 L 600 300" fill="none" stroke="#c9814a" stroke-width="4" stroke-linecap="round" stroke-linejoin="round" opacity="0.3"/><rect x="592" y="292" width="16" height="16" fill="#c9814a" opacity="0.3"/><circle cx="75" cy="200" r="7" fill="none" stroke="#c9814a" stroke-width="4" opacity="0.3"/><path d="M 75 200 L 75 160 L 125 160 L 125 160" fill="none" stroke="#c9814a" stroke-width="4" stroke-linecap="round" stroke-linejoin="round" opacity="0.3"/><rect x="117" y="152" width="16" height="16" fill="#c9814a" opacity="0.3"/><circle cx="375" cy="400" r="7" fill="none" stroke="#c9814a" stroke-width="4" opacity="0.3"/><path d="M 375 400 L 500 400 L 500 475 L 425 475" fill="none" stroke="#c9814a" stroke-width="4" stroke-linecap="round" stroke-linejoin="round" opacity="0.3"/><rect x="417" y="467" width="16" height="16" fill="#c9814a" opacity="0.3"/><circle cx="425" cy="525" r="7" fill="none" stroke="#c9814a" stroke-width="4" opacity="0.3"/><path d="M 425 525 L 300 400" fill="none" stroke="#c9814a" stroke-width="4" stroke-linecap="round" stroke-linejoin="round" opacity="0.3"/><circle cx="300" cy="400" r="9" fill="#122419" stroke="#c9814a" stroke-width="4" opacity="0.3"/><circle cx="425" cy="450" r="7" fill="none" stroke="#c9814a" stroke-width="4" opacity="0.3"/><path d="M 425 450 L 425 350 L 275 350" fill="none" stroke="#c9814a" stroke-width="4" stroke-linecap="round" stroke-linejoin="round" opacity="0.3"/><circle cx="275" cy="350" r="9" fill="#122419" stroke="#c9814a" stroke-width="4" opacity="0.3"/><circle cx="100" cy="250" r="7" fill="none" stroke="#c9814a" stroke-width="4" opacity="0.3"/><path d="M 100 250 L 60 250 L 60 160" fill="none" stroke="#c9814a" stroke-width="4" stroke-linecap="round" stroke-linejoin="round" opacity="0.3"/><circle cx="60" cy="160" r="9" fill="#122419" stroke="#c9814a" stroke-width="4" opacity="0.3"/><circle cx="600" cy="325" r="7" fill="none" stroke="#c9814a" stroke-width="4" opacity="0.3"/><path d="M 600 325 L 475 450 L 525 400 L 425 300" fill="none" stroke="#c9814a" stroke-width="4" stroke-linecap="round" stroke-linejoin="round" opacity="0.3"/><rect x="417" y="292" width="16" height="16" fill="#c9814a" opacity="0.3"/><circle cx="450" cy="200" r="7" fill="none" stroke="#c9814a" stroke-width="4" opacity="0.3"/><path d="M 450 200 L 575 200" fill="none" stroke="#c9814a" stroke-width="4" stroke-linecap="round" stroke-linejoin="round" opacity="0.3"/><rect x="567" y="192" width="16" height="16" fill="#c9814a" opacity="0.3"/><circle cx="550" cy="425" r="7" fill="none" stroke="#c9814a" stroke-width="4" opacity="0.3"/><path d="M 550 425 L 400 425 L 350 375 L 350 500" fill="none" stroke="#c9814a" stroke-width="4" stroke-linecap="round" stroke-linejoin="round" opacity="0.3"/><rect x="342" y="492" width="16" height="16" fill="#c9814a" opacity="0.3"/><rect x="75" y="300" width="14" height="20" fill="#c9814a" opacity="0.27"/><rect x="97" y="300" width="14" height="20" fill="#c9814a" opacity="0.27"/><rect x="119" y="300" width="14" height="20" fill="#c9814a" opacity="0.27"/><rect x="141" y="300" width="14" height="20" fill="#c9814a" opacity="0.27"/>
  <circle cx="375" cy="175" r="7" fill="none" stroke="#e8a96a" stroke-width="4" opacity="0.22"/><path d="M 375 175 L 250 160" fill="none" stroke="#e8a96a" stroke-width="4" stroke-linecap="round" stroke-linejoin="round" opacity="0.22"/><circle cx="250" cy="160" r="9" fill="#122419" stroke="#e8a96a" stroke-width="4" opacity="0.22"/><circle cx="600" cy="500" r="7" fill="none" stroke="#e8a96a" stroke-width="4" opacity="0.22"/><path d="M 600 500 L 550 550 L 690 550" fill="none" stroke="#e8a96a" stroke-width="4" stroke-linecap="round" stroke-linejoin="round" opacity="0.22"/><circle cx="690" cy="550" r="9" fill="#122419" stroke="#e8a96a" stroke-width="4" opacity="0.22"/><circle cx="500" cy="300" r="7" fill="none" stroke="#e8a96a" stroke-width="4" opacity="0.22"/><path d="M 500 300 L 500 350 L 600 350 L 600 225" fill="none" stroke="#e8a96a" stroke-width="4" stroke-linecap="round" stroke-linejoin="round" opacity="0.22"/><circle cx="600" cy="225" r="9" fill="#122419" stroke="#e8a96a" stroke-width="4" opacity="0.22"/><rect x="225" y="350" width="14" height="20" fill="#e8a96a" opacity="0.198"/><rect x="247" y="350" width="14" height="20" fill="#e8a96a" opacity="0.198"/><rect x="269" y="350" width="14" height="20" fill="#e8a96a" opacity="0.198"/><rect x="291" y="350" width="14" height="20" fill="#e8a96a" opacity="0.198"/>
  <g transform="translate(375 345) scale(0.976) translate(-375 -345)"><polygon points="511.83201379794133,266 511.83201379794133,424 375,503 238.16798620205867,424 238.16798620205867,266.00000000000006 374.99999999999983,187" fill="none" stroke="#e8a96a" stroke-width="10" stroke-linejoin="round"/>
      <polygon points="511.83201379794133,266 511.83201379794133,424 375,503 238.16798620205867,424 238.16798620205867,266.00000000000006 374.99999999999983,187" fill="#e8a96a" opacity="0.07"/>
      <path d="M 402 232 L 322 372 L 372 372 L 344 462 L 434 318 L 380 318 Z" fill="#e8a96a" stroke="#0c1811" stroke-width="5" stroke-linejoin="round"/></g>
</g>
<rect x="52" y="150" width="646" height="410" rx="14" fill="none" stroke="#274a35" stroke-width="3"/>
<text x="200" y="102" font-family="DejaVu Sans Condensed" font-weight="bold" font-size="46"
  letter-spacing="2" fill="#dbe7de">3D PRINTER</text>
<polygon points="95,28 152,61 152,127 95,160 38,127 38,61" fill="#f0b23e" stroke="#1c1405" stroke-width="4"/>
<text x="95" y="118" text-anchor="middle" font-family="DejaVu Sans" font-weight="bold" font-size="74" fill="#1c1405">5</text>
<text x="375" y="608" text-anchor="middle" font-family="DejaVu Sans Mono" font-size="26" letter-spacing="3"
  fill="#e8a96a">THE TECHNICIAN · SPELL</text>
<line x1="80" y1="626" x2="670" y2="626" stroke="#274a35" stroke-width="2"/>
<text x="375" y="797.6" text-anchor="middle" font-family="DejaVu Sans" font-size="30"
       fill="#dbe7de">Summon a copy of a friendly unit (base</text>
<text x="375" y="839.0" text-anchor="middle" font-family="DejaVu Sans" font-size="30"
       fill="#dbe7de">version).</text>

<rect x="70" y="1004" width="22" height="30" fill="url(#guldgrad)"/><rect x="104" y="1004" width="22" height="30" fill="url(#guldgrad)"/><rect x="138" y="1004" width="22" height="30" fill="url(#guldgrad)"/><rect x="172" y="1004" width="22" height="30" fill="url(#guldgrad)"/><rect x="206" y="1004" width="22" height="30" fill="url(#guldgrad)"/><rect x="240" y="1004" width="22" height="30" fill="url(#guldgrad)"/><rect x="274" y="1004" width="22" height="30" fill="url(#guldgrad)"/><rect x="308" y="1004" width="22" height="30" fill="url(#guldgrad)"/><rect x="342" y="1004" width="22" height="30" fill="url(#guldgrad)"/><rect x="376" y="1004" width="22" height="30" fill="url(#guldgrad)"/><rect x="410" y="1004" width="22" height="30" fill="url(#guldgrad)"/><rect x="444" y="1004" width="22" height="30" fill="url(#guldgrad)"/><rect x="478" y="1004" width="22" height="30" fill="url(#guldgrad)"/><rect x="512" y="1004" width="22" height="30" fill="url(#guldgrad)"/><rect x="546" y="1004" width="22" height="30" fill="url(#guldgrad)"/><rect x="580" y="1004" width="22" height="30" fill="url(#guldgrad)"/><rect x="614" y="1004" width="22" height="30" fill="url(#guldgrad)"/><rect x="648" y="1004" width="22" height="30" fill="url(#guldgrad)"/>
<rect x="60" y="1000" width="630" height="4" fill="#c9814a" opacity="0.5"/>
</svg>