<svg xmlns="http://www.w3.org/2000/svg" width="750" height="1050" viewBox="0 0 750 1050">
<defs>
  <linearGradient id="bggrad" x1="0" y1="0" x2="0" y2="1">
    <stop offset="0" stop-color="#4a0f52"/><stop offset="0.5" stop-color="#2d0932"/><stop offset="1" stop-color="#120414"/>
  </linearGradient>
  <radialGradient id="artgrad" cx="0.5" cy="0.42" r="0.75">
    <stop offset="0" stop-color="#3f1341"/><stop offset="1" stop-color="#230827"/>
  </radialGradient>
  <linearGradient id="guldgrad" x1="0" y1="0" x2="0" y2="1">
    <stop offset="0" stop-color="#ffd166"/><stop offset="1" stop-color="#9a7422"/>
  </linearGradient>
  <clipPath id="artclip"><rect x="52" y="150" width="646" height="410" rx="14"/></clipPath>
</defs>
<rect x="6" y="6" width="738" height="1038" rx="36" fill="url(#bggrad)" stroke="#e85adf" stroke-width="6"/>
<rect x="22" y="22" width="706" height="1006" rx="26" fill="none" stroke="#e85adf" stroke-width="2" opacity="0.7"/>
<circle cx="200" cy="725" r="7" fill="none" stroke="#c9814a" stroke-width="4" opacity="0.1"/><path d="M 200 725 L 325 850 L 325 775 L 225 775" fill="none" stroke="#c9814a" stroke-width="4" stroke-linecap="round" stroke-linejoin="round" opacity="0.1"/><circle cx="225" cy="775" r="9" fill="#122419" stroke="#c9814a" stroke-width="4" opacity="0.1"/><circle cx="400" cy="925" r="7" fill="none" stroke="#c9814a" stroke-width="4" opacity="0.1"/><path d="M 400 925 L 475 925 L 475 980" fill="none" stroke="#c9814a" stroke-width="4" stroke-linecap="round" stroke-linejoin="round" opacity="0.1"/><rect x="467" y="972" width="16" height="16" fill="#c9814a" opacity="0.1"/><circle cx="575" cy="925" r="7" fill="none" stroke="#c9814a" stroke-width="4" opacity="0.1"/><path d="M 575 925 L 425 775 L 425 850 L 300 975" fill="none" stroke="#c9814a" stroke-width="4" stroke-linecap="round" stroke-linejoin="round" opacity="0.1"/><rect x="292" y="967" width="16" height="16" fill="#c9814a" opacity="0.1"/><circle cx="250" cy="775" r="7" fill="none" stroke="#c9814a" stroke-width="4" opacity="0.1"/><path d="M 250 775 L 175 700" fill="none" stroke="#c9814a" stroke-width="4" stroke-linecap="round" stroke-linejoin="round" opacity="0.1"/><rect x="167" y="692" width="16" height="16" fill="#c9814a" opacity="0.1"/><circle cx="375" cy="850" r="7" fill="none" stroke="#c9814a" stroke-width="4" opacity="0.1"/><path d="M 375 850 L 225 850 L 350 975 L 350 980" fill="none" stroke="#c9814a" stroke-width="4" stroke-linecap="round" stroke-linejoin="round" opacity="0.1"/><circle cx="350" cy="980" r="9" fill="#122419" stroke="#c9814a" stroke-width="4" opacity="0.1"/><rect x="100" y="850" width="14" height="20" fill="#c9814a" opacity="0.09000000000000001"/><rect x="122" y="850" width="14" height="20" fill="#c9814a" opacity="0.09000000000000001"/><rect x="144" y="850" width="14" height="20" fill="#c9814a" opacity="0.09000000000000001"/><rect x="166" y="850" width="14" height="20" fill="#c9814a" opacity="0.09000000000000001"/>
<g clip-path="url(#artclip)">
  <rect x="52" y="150" width="646" height="410" fill="url(#artgrad)"/>
  <circle cx="425" cy="300" r="7" fill="none" stroke="#c9814a" stroke-width="4" opacity="0.3"/><path d="M 425 300 L 575 300" fill="none" stroke="#c9814a" stroke-width="4" stroke-linecap="round" stroke-linejoin="round" opacity="0.3"/><rect x="567" y="292" width="16" height="16" fill="#c9814a" opacity="0.3"/><circle cx="575" cy="175" r="7" fill="none" stroke="#c9814a" stroke-width="4" opacity="0.3"/><path d="M 575 175 L 690 175" fill="none" stroke="#c9814a" stroke-width="4" stroke-linecap="round" stroke-linejoin="round" opacity="0.3"/><rect x="682" y="167" width="16" height="16" fill="#c9814a" opacity="0.3"/><circle cx="550" cy="400" r="7" fill="none" stroke="#c9814a" stroke-width="4" opacity="0.3"/><path d="M 550 400 L 650 400 L 650 250 L 525 250" fill="none" stroke="#c9814a" stroke-width="4" stroke-linecap="round" stroke-linejoin="round" opacity="0.3"/><rect x="517" y="242" width="16" height="16" fill="#c9814a" opacity="0.3"/><circle cx="150" cy="550" r="7" fill="none" stroke="#c9814a" stroke-width="4" opacity="0.3"/><path d="M 150 550 L 300 550" fill="none" stroke="#c9814a" stroke-width="4" stroke-linecap="round" stroke-linejoin="round" opacity="0.3"/><circle cx="300" cy="550" r="9" fill="#122419" stroke="#c9814a" stroke-width="4" opacity="0.3"/><circle cx="275" cy="400" r="7" fill="none" stroke="#c9814a" stroke-width="4" opacity="0.3"/><path d="M 275 400 L 275 300" fill="none" stroke="#c9814a" stroke-width="4" stroke-linecap="round" stroke-linejoin="round" opacity="0.3"/><circle cx="275" cy="300" r="9" fill="#122419" stroke="#c9814a" stroke-width="4" opacity="0.3"/><circle cx="450" cy="500" r="7" fill="none" stroke="#c9814a" stroke-width="4" opacity="0.3"/><path d="M 450 500 L 550 400" fill="none" stroke="#c9814a" stroke-width="4" stroke-linecap="round" stroke-linejoin="round" opacity="0.3"/><circle cx="550" cy="400" r="9" fill="#122419" stroke="#c9814a" stroke-width="4" opacity="0.3"/><circle cx="350" cy="200" r="7" fill="none" stroke="#c9814a" stroke-width="4" opacity="0.3"/><path d="M 350 200 L 350 160 L 450 260 L 375 185" fill="none" stroke="#c9814a" stroke-width="4" stroke-linecap="round" stroke-linejoin="round" opacity="0.3"/><rect x="367" y="177" width="16" height="16" fill="#c9814a" opacity="0.3"/><circle cx="100" cy="275" r="7" fill="none" stroke="#c9814a" stroke-width="4" opacity="0.3"/><path d="M 100 275 L 100 225 L 200 225 L 200 160" fill="none" stroke="#c9814a" stroke-width="4" stroke-linecap="round" stroke-linejoin="round" opacity="0.3"/><rect x="192" y="152" width="16" height="16" fill="#c9814a" opacity="0.3"/><circle cx="125" cy="225" r="7" fill="none" stroke="#c9814a" stroke-width="4" opacity="0.3"/><path d="M 125 225 L 60 325 L 60 425" fill="none" stroke="#c9814a" stroke-width="4" stroke-linecap="round" stroke-linejoin="round" opacity="0.3"/><rect x="52" y="417" width="16" height="16" fill="#c9814a" opacity="0.3"/><rect x="475" y="450" width="14" height="20" fill="#c9814a" opacity="0.27"/><rect x="497" y="450" width="14" height="20" fill="#c9814a" opacity="0.27"/><rect x="519" y="450" width="14" height="20" fill="#c9814a" opacity="0.27"/><rect x="541" y="450" width="14" height="20" fill="#c9814a" opacity="0.27"/>
  <circle cx="500" cy="450" r="7" fill="none" stroke="#c76bd9" stroke-width="4" opacity="0.22"/><path d="M 500 450 L 375 450 L 375 375" fill="none" stroke="#c76bd9" stroke-width="4" stroke-linecap="round" stroke-linejoin="round" opacity="0.22"/><circle cx="375" cy="375" r="9" fill="#122419" stroke="#c76bd9" stroke-width="4" opacity="0.22"/><circle cx="75" cy="300" r="7" fill="none" stroke="#c76bd9" stroke-width="4" opacity="0.22"/><path d="M 75 300 L 75 250 L 60 300 L 185 300" fill="none" stroke="#c76bd9" stroke-width="4" stroke-linecap="round" stroke-linejoin="round" opacity="0.22"/><circle cx="185" cy="300" r="9" fill="#122419" stroke="#c76bd9" stroke-width="4" opacity="0.22"/><circle cx="125" cy="200" r="7" fill="none" stroke="#c76bd9" stroke-width="4" opacity="0.22"/><path d="M 125 200 L 125 250 L 75 250" fill="none" stroke="#c76bd9" stroke-width="4" stroke-linecap="round" stroke-linejoin="round" opacity="0.22"/><rect x="67" y="242" width="16" height="16" fill="#c76bd9" opacity="0.22"/><rect x="425" y="250" width="14" height="20" fill="#c76bd9" opacity="0.198"/><rect x="447" y="250" width="14" height="20" fill="#c76bd9" opacity="0.198"/><rect x="469" y="250" width="14" height="20" fill="#c76bd9" opacity="0.198"/><rect x="491" y="250" width="14" height="20" fill="#c76bd9" opacity="0.198"/>
  <g transform="translate(375 345) scale(0.983) translate(-375 -345)"><line x1="463.6924351210835" y1="381.7376095070486" x2="515.4296889417155" y2="403.16788171949366" stroke="#c76bd9" stroke-width="13" stroke-linecap="round"/><circle cx="515.4296889417155" cy="403.16788171949366" r="15" fill="#c76bd9"/><line x1="411.7376095070486" y1="433.6924351210835" x2="433.16788171949366" y2="485.4296889417156" stroke="#c76bd9" stroke-width="13" stroke-linecap="round"/><circle cx="433.16788171949366" cy="485.4296889417156" r="15" fill="#c76bd9"/><line x1="338.2623904929514" y1="433.6924351210835" x2="316.8321182805064" y2="485.4296889417156" stroke="#c76bd9" stroke-width="13" stroke-linecap="round"/><circle cx="316.8321182805064" cy="485.4296889417156" r="15" fill="#c76bd9"/><line x1="286.3075648789165" y1="381.73760950704866" x2="234.5703110582844" y2="403.16788171949366" stroke="#c76bd9" stroke-width="13" stroke-linecap="round"/><circle cx="234.5703110582844" cy="403.16788171949366" r="15" fill="#c76bd9"/><line x1="286.3075648789165" y1="308.2623904929514" x2="234.5703110582844" y2="286.8321182805064" stroke="#c76bd9" stroke-width="13" stroke-linecap="round"/><circle cx="234.5703110582844" cy="286.8321182805064" r="15" fill="#c76bd9"/><line x1="338.26239049295134" y1="256.3075648789165" x2="316.8321182805063" y2="204.57031105828446" stroke="#c76bd9" stroke-width="13" stroke-linecap="round"/><circle cx="316.8321182805063" cy="204.57031105828446" r="15" fill="#c76bd9"/><line x1="411.73760950704866" y1="256.3075648789165" x2="433.16788171949366" y2="204.57031105828443" stroke="#c76bd9" stroke-width="13" stroke-linecap="round"/><circle cx="433.16788171949366" cy="204.57031105828443" r="15" fill="#c76bd9"/><line x1="463.6924351210835" y1="308.26239049295134" x2="515.4296889417155" y2="286.8321182805063" stroke="#c76bd9" stroke-width="13" stroke-linecap="round"/><circle cx="515.4296889417155" cy="286.8321182805063" r="15" fill="#c76bd9"/><circle cx="375" cy="345" r="96" fill="#173021" stroke="#c76bd9" stroke-width="10"/><circle cx="345" cy="322" r="14" fill="#c76bd9"/><circle cx="404" cy="352" r="19" fill="#c76bd9"/><circle cx="358" cy="386" r="10" fill="#c76bd9"/></g>
</g>
<rect x="52" y="150" width="646" height="410" rx="14" fill="none" stroke="#274a35" stroke-width="3"/>
<text x="200" y="102" font-family="DejaVu Sans Condensed" font-weight="bold" font-size="46"
  letter-spacing="2" fill="#dbe7de">BUG</text>
<polygon points="95,28 152,61 152,127 95,160 38,127 38,61" fill="#f0b23e" stroke="#1c1405" stroke-width="4"/>
<text x="95" y="118" text-anchor="middle" font-family="DejaVu Sans" font-weight="bold" font-size="74" fill="#1c1405">1</text>
<text x="375" y="608" text-anchor="middle" font-family="DejaVu Sans Mono" font-size="26" letter-spacing="3"
  fill="#87a693">UNIT · VIRUS · TOKEN</text>
<line x1="80" y1="626" x2="670" y2="626" stroke="#e85adf" stroke-width="2" opacity="0.5"/>
<rect x="46" y="640" width="658" height="236" rx="16" fill="#3d0d44" opacity="0.55"/>


    <circle cx="95" cy="935" r="56" fill="#0c1811" stroke="#f0b23e" stroke-width="7"/>
    <text x="95" y="954" text-anchor="middle" font-family="DejaVu Sans" font-weight="bold" font-size="56" fill="#f0b23e">1</text>
    <circle cx="655" cy="935" r="56" fill="#0c1811" stroke="#5fe0a0" stroke-width="7"/>
    <text x="655" y="954" text-anchor="middle" font-family="DejaVu Sans" font-weight="bold" font-size="56" fill="#5fe0a0">1</text>
<rect x="70" y="1004" width="22" height="30" fill="url(#guldgrad)"/><rect x="104" y="1004" width="22" height="30" fill="url(#guldgrad)"/><rect x="138" y="1004" width="22" height="30" fill="url(#guldgrad)"/><rect x="172" y="1004" width="22" height="30" fill="url(#guldgrad)"/><rect x="206" y="1004" width="22" height="30" fill="url(#guldgrad)"/><rect x="240" y="1004" width="22" height="30" fill="url(#guldgrad)"/><rect x="274" y="1004" width="22" height="30" fill="url(#guldgrad)"/><rect x="308" y="1004" width="22" height="30" fill="url(#guldgrad)"/><rect x="342" y="1004" width="22" height="30" fill="url(#guldgrad)"/><rect x="376" y="1004" width="22" height="30" fill="url(#guldgrad)"/><rect x="410" y="1004" width="22" height="30" fill="url(#guldgrad)"/><rect x="444" y="1004" width="22" height="30" fill="url(#guldgrad)"/><rect x="478" y="1004" width="22" height="30" fill="url(#guldgrad)"/><rect x="512" y="1004" width="22" height="30" fill="url(#guldgrad)"/><rect x="546" y="1004" width="22" height="30" fill="url(#guldgrad)"/><rect x="580" y="1004" width="22" height="30" fill="url(#guldgrad)"/><rect x="614" y="1004" width="22" height="30" fill="url(#guldgrad)"/><rect x="648" y="1004" width="22" height="30" fill="url(#guldgrad)"/>
<rect x="60" y="1000" width="630" height="4" fill="#c9814a" opacity="0.5"/>
</svg>