<svg xmlns="http://www.w3.org/2000/svg" width="750" height="1050" viewBox="0 0 750 1050">
<defs>
  <linearGradient id="bggrad" x1="0" y1="0" x2="0" y2="1">
    <stop offset="0" stop-color="#173021"/><stop offset="0.5" stop-color="#122419"/><stop offset="1" stop-color="#0c1811"/>
  </linearGradient>
  <linearGradient id="guldgrad" x1="0" y1="0" x2="0" y2="1">
    <stop offset="0" stop-color="#ffd166"/><stop offset="1" stop-color="#9a7422"/>
  </linearGradient>
  <clipPath id="artclip"><rect x="52" y="150" width="646" height="410" rx="14"/></clipPath>
</defs>
<rect x="6" y="6" width="738" height="1038" rx="36" fill="url(#bggrad)" stroke="#274a35" stroke-width="6"/>
<rect x="22" y="22" width="706" height="1006" rx="26" fill="none" stroke="#c9814a" stroke-width="2" opacity="0.55"/>
<circle cx="550" cy="750" r="7" fill="none" stroke="#c9814a" stroke-width="4" opacity="0.1"/><path d="M 550 750 L 675 625 L 710 675 L 710 675" fill="none" stroke="#c9814a" stroke-width="4" stroke-linecap="round" stroke-linejoin="round" opacity="0.1"/><rect x="702" y="667" width="16" height="16" fill="#c9814a" opacity="0.1"/><circle cx="325" cy="750" r="7" fill="none" stroke="#c9814a" stroke-width="4" opacity="0.1"/><path d="M 325 750 L 325 675 L 375 675" fill="none" stroke="#c9814a" stroke-width="4" stroke-linecap="round" stroke-linejoin="round" opacity="0.1"/><circle cx="375" cy="675" r="9" fill="#122419" stroke="#c9814a" stroke-width="4" opacity="0.1"/><circle cx="675" cy="850" r="7" fill="none" stroke="#c9814a" stroke-width="4" opacity="0.1"/><path d="M 675 850 L 675 980 L 575 980 L 450 980" fill="none" stroke="#c9814a" stroke-width="4" stroke-linecap="round" stroke-linejoin="round" opacity="0.1"/><circle cx="450" cy="980" r="9" fill="#122419" stroke="#c9814a" stroke-width="4" opacity="0.1"/><circle cx="450" cy="925" r="7" fill="none" stroke="#c9814a" stroke-width="4" opacity="0.1"/><path d="M 450 925 L 450 875" fill="none" stroke="#c9814a" stroke-width="4" stroke-linecap="round" stroke-linejoin="round" opacity="0.1"/><circle cx="450" cy="875" r="9" fill="#122419" stroke="#c9814a" stroke-width="4" opacity="0.1"/><circle cx="650" cy="925" r="7" fill="none" stroke="#c9814a" stroke-width="4" opacity="0.1"/><path d="M 650 925 L 710 850 L 710 980 L 710 980" fill="none" stroke="#c9814a" stroke-width="4" stroke-linecap="round" stroke-linejoin="round" opacity="0.1"/><rect x="702" y="972" width="16" height="16" fill="#c9814a" opacity="0.1"/><rect x="75" y="775" width="14" height="20" fill="#c9814a" opacity="0.09000000000000001"/><rect x="97" y="775" width="14" height="20" fill="#c9814a" opacity="0.09000000000000001"/><rect x="119" y="775" width="14" height="20" fill="#c9814a" opacity="0.09000000000000001"/><rect x="141" y="775" width="14" height="20" fill="#c9814a" opacity="0.09000000000000001"/>
<g clip-path="url(#artclip)">
  <rect x="52" y="150" width="646" height="410" fill="#0c1811"/>
  <circle cx="150" cy="175" r="7" fill="none" stroke="#c9814a" stroke-width="4" opacity="0.3"/><path d="M 150 175 L 150 160" fill="none" stroke="#c9814a" stroke-width="4" stroke-linecap="round" stroke-linejoin="round" opacity="0.3"/><circle cx="150" cy="160" r="9" fill="#122419" stroke="#c9814a" stroke-width="4" opacity="0.3"/><circle cx="325" cy="325" r="7" fill="none" stroke="#c9814a" stroke-width="4" opacity="0.3"/><path d="M 325 325 L 225 225" fill="none" stroke="#c9814a" stroke-width="4" stroke-linecap="round" stroke-linejoin="round" opacity="0.3"/><circle cx="225" cy="225" r="9" fill="#122419" stroke="#c9814a" stroke-width="4" opacity="0.3"/><circle cx="525" cy="225" r="7" fill="none" stroke="#c9814a" stroke-width="4" opacity="0.3"/><path d="M 525 225 L 575 225" fill="none" stroke="#c9814a" stroke-width="4" stroke-linecap="round" stroke-linejoin="round" opacity="0.3"/><rect x="567" y="217" width="16" height="16" fill="#c9814a" opacity="0.3"/><circle cx="375" cy="350" r="7" fill="none" stroke="#c9814a" stroke-width="4" opacity="0.3"/><path d="M 375 350 L 250 225 L 250 160 L 375 160" fill="none" stroke="#c9814a" stroke-width="4" stroke-linecap="round" stroke-linejoin="round" opacity="0.3"/><circle cx="375" cy="160" r="9" fill="#122419" stroke="#c9814a" stroke-width="4" opacity="0.3"/><circle cx="575" cy="350" r="7" fill="none" stroke="#c9814a" stroke-width="4" opacity="0.3"/><path d="M 575 350 L 625 350" fill="none" stroke="#c9814a" stroke-width="4" stroke-linecap="round" stroke-linejoin="round" opacity="0.3"/><circle cx="625" cy="350" r="9" fill="#122419" stroke="#c9814a" stroke-width="4" opacity="0.3"/><circle cx="200" cy="525" r="7" fill="none" stroke="#c9814a" stroke-width="4" opacity="0.3"/><path d="M 200 525 L 200 550" fill="none" stroke="#c9814a" stroke-width="4" stroke-linecap="round" stroke-linejoin="round" opacity="0.3"/><circle cx="200" cy="550" r="9" fill="#122419" stroke="#c9814a" stroke-width="4" opacity="0.3"/><circle cx="450" cy="550" r="7" fill="none" stroke="#c9814a" stroke-width="4" opacity="0.3"/><path d="M 450 550 L 375 550 L 375 425" fill="none" stroke="#c9814a" stroke-width="4" stroke-linecap="round" stroke-linejoin="round" opacity="0.3"/><rect x="367" y="417" width="16" height="16" fill="#c9814a" opacity="0.3"/><circle cx="575" cy="175" r="7" fill="none" stroke="#c9814a" stroke-width="4" opacity="0.3"/><path d="M 575 175 L 575 160 L 650 160 L 690 210" fill="none" stroke="#c9814a" stroke-width="4" stroke-linecap="round" stroke-linejoin="round" opacity="0.3"/><rect x="682" y="202" width="16" height="16" fill="#c9814a" opacity="0.3"/><circle cx="450" cy="175" r="7" fill="none" stroke="#c9814a" stroke-width="4" opacity="0.3"/><path d="M 450 175 L 550 175 L 550 160 L 500 160" fill="none" stroke="#c9814a" stroke-width="4" stroke-linecap="round" stroke-linejoin="round" opacity="0.3"/><circle cx="500" cy="160" r="9" fill="#122419" stroke="#c9814a" stroke-width="4" opacity="0.3"/><rect x="400" y="425" width="14" height="20" fill="#c9814a" opacity="0.27"/><rect x="422" y="425" width="14" height="20" fill="#c9814a" opacity="0.27"/><rect x="444" y="425" width="14" height="20" fill="#c9814a" opacity="0.27"/><rect x="466" y="425" width="14" height="20" fill="#c9814a" opacity="0.27"/>
  <circle cx="375" cy="300" r="7" fill="none" stroke="#e8a96a" stroke-width="4" opacity="0.22"/><path d="M 375 300 L 500 300" fill="none" stroke="#e8a96a" stroke-width="4" stroke-linecap="round" stroke-linejoin="round" opacity="0.22"/><circle cx="500" cy="300" r="9" fill="#122419" stroke="#e8a96a" stroke-width="4" opacity="0.22"/><circle cx="200" cy="525" r="7" fill="none" stroke="#e8a96a" stroke-width="4" opacity="0.22"/><path d="M 200 525 L 200 550" fill="none" stroke="#e8a96a" stroke-width="4" stroke-linecap="round" stroke-linejoin="round" opacity="0.22"/><circle cx="200" cy="550" r="9" fill="#122419" stroke="#e8a96a" stroke-width="4" opacity="0.22"/><circle cx="125" cy="500" r="7" fill="none" stroke="#e8a96a" stroke-width="4" opacity="0.22"/><path d="M 125 500 L 125 550 L 60 550 L 60 550" fill="none" stroke="#e8a96a" stroke-width="4" stroke-linecap="round" stroke-linejoin="round" opacity="0.22"/><circle cx="60" cy="550" r="9" fill="#122419" stroke="#e8a96a" stroke-width="4" opacity="0.22"/><rect x="200" y="225" width="14" height="20" fill="#e8a96a" opacity="0.198"/><rect x="222" y="225" width="14" height="20" fill="#e8a96a" opacity="0.198"/><rect x="244" y="225" width="14" height="20" fill="#e8a96a" opacity="0.198"/><rect x="266" y="225" width="14" height="20" fill="#e8a96a" opacity="0.198"/>
  <g transform="translate(375 345) scale(0.927) translate(-375 -345)"><rect x="228" y="268" width="30" height="14" rx="4" fill="#e8a96a"/>
            <rect x="492" y="268" width="30" height="14" rx="4" fill="#e8a96a"/><rect x="228" y="300" width="30" height="14" rx="4" fill="#e8a96a"/>
            <rect x="492" y="300" width="30" height="14" rx="4" fill="#e8a96a"/><rect x="228" y="332" width="30" height="14" rx="4" fill="#e8a96a"/>
            <rect x="492" y="332" width="30" height="14" rx="4" fill="#e8a96a"/><rect x="228" y="364" width="30" height="14" rx="4" fill="#e8a96a"/>
            <rect x="492" y="364" width="30" height="14" rx="4" fill="#e8a96a"/><rect x="228" y="396" width="30" height="14" rx="4" fill="#e8a96a"/>
            <rect x="492" y="396" width="30" height="14" rx="4" fill="#e8a96a"/><rect x="228" y="428" width="30" height="14" rx="4" fill="#e8a96a"/>
            <rect x="492" y="428" width="30" height="14" rx="4" fill="#e8a96a"/><rect x="258" y="245" width="234" height="200" rx="16" fill="#173021" stroke="#e8a96a" stroke-width="10"/>
      <circle cx="298" cy="285" r="11" fill="#e8a96a"/>
      <rect x="288" y="330" width="174" height="8" rx="4" fill="#e8a96a" opacity="0.55"/>
      <rect x="288" y="356" width="130" height="8" rx="4" fill="#e8a96a" opacity="0.35"/></g>
</g>
<rect x="52" y="150" width="646" height="410" rx="14" fill="none" stroke="#274a35" stroke-width="3"/>
<text x="200" y="102" font-family="DejaVu Sans Condensed" font-weight="bold" font-size="46"
  letter-spacing="2" fill="#dbe7de">SERVER</text>
<polygon points="95,28 152,61 152,127 95,160 38,127 38,61" fill="#f0b23e" stroke="#1c1405" stroke-width="4"/>
<text x="95" y="118" text-anchor="middle" font-family="DejaVu Sans" font-weight="bold" font-size="74" fill="#1c1405">3</text>
<text x="375" y="608" text-anchor="middle" font-family="DejaVu Sans Mono" font-size="26" letter-spacing="3"
  fill="#87a693">ENHED · KOMPONENT · TOKEN</text>
<line x1="80" y1="626" x2="670" y2="626" stroke="#274a35" stroke-width="2"/>
<text x="375" y="763.3" text-anchor="middle" font-family="DejaVu Sans" font-size="30"
       fill="#dbe7de">Jordet.</text>

    <circle cx="95" cy="935" r="56" fill="#0c1811" stroke="#f0b23e" stroke-width="7"/>
    <text x="95" y="954" text-anchor="middle" font-family="DejaVu Sans" font-weight="bold" font-size="56" fill="#f0b23e">3</text>
    <circle cx="655" cy="935" r="56" fill="#0c1811" stroke="#5fe0a0" stroke-width="7"/>
    <text x="655" y="954" text-anchor="middle" font-family="DejaVu Sans" font-weight="bold" font-size="56" fill="#5fe0a0">3</text>
<rect x="70" y="1004" width="22" height="30" fill="url(#guldgrad)"/><rect x="104" y="1004" width="22" height="30" fill="url(#guldgrad)"/><rect x="138" y="1004" width="22" height="30" fill="url(#guldgrad)"/><rect x="172" y="1004" width="22" height="30" fill="url(#guldgrad)"/><rect x="206" y="1004" width="22" height="30" fill="url(#guldgrad)"/><rect x="240" y="1004" width="22" height="30" fill="url(#guldgrad)"/><rect x="274" y="1004" width="22" height="30" fill="url(#guldgrad)"/><rect x="308" y="1004" width="22" height="30" fill="url(#guldgrad)"/><rect x="342" y="1004" width="22" height="30" fill="url(#guldgrad)"/><rect x="376" y="1004" width="22" height="30" fill="url(#guldgrad)"/><rect x="410" y="1004" width="22" height="30" fill="url(#guldgrad)"/><rect x="444" y="1004" width="22" height="30" fill="url(#guldgrad)"/><rect x="478" y="1004" width="22" height="30" fill="url(#guldgrad)"/><rect x="512" y="1004" width="22" height="30" fill="url(#guldgrad)"/><rect x="546" y="1004" width="22" height="30" fill="url(#guldgrad)"/><rect x="580" y="1004" width="22" height="30" fill="url(#guldgrad)"/><rect x="614" y="1004" width="22" height="30" fill="url(#guldgrad)"/><rect x="648" y="1004" width="22" height="30" fill="url(#guldgrad)"/>
<rect x="60" y="1000" width="630" height="4" fill="#c9814a" opacity="0.5"/>
</svg>