<svg xmlns="http://www.w3.org/2000/svg" width="750" height="1050" viewBox="0 0 750 1050">
<defs>
  <linearGradient id="bggrad" x1="0" y1="0" x2="0" y2="1">
    <stop offset="0" stop-color="#2a1636"/><stop offset="0.5" stop-color="#1b0f24"/><stop offset="1" stop-color="#0e0816"/>
  </linearGradient>
  <radialGradient id="artgrad" cx="0.5" cy="0.42" r="0.75">
    <stop offset="0" stop-color="#2f183b"/><stop offset="1" stop-color="#160b21"/>
  </radialGradient>
  <linearGradient id="guldgrad" x1="0" y1="0" x2="0" y2="1">
    <stop offset="0" stop-color="#ffd166"/><stop offset="1" stop-color="#9a7422"/>
  </linearGradient>
  <clipPath id="artclip"><rect x="52" y="150" width="646" height="410" rx="14"/></clipPath>
</defs>
<rect x="6" y="6" width="738" height="1038" rx="36" fill="url(#bggrad)" stroke="#c76bd9" stroke-width="6"/>
<rect x="22" y="22" width="706" height="1006" rx="26" fill="none" stroke="#c76bd9" stroke-width="2" opacity="0.7"/>
<circle cx="700" cy="700" r="7" fill="none" stroke="#c9814a" stroke-width="4" opacity="0.1"/><path d="M 700 700 L 710 700" fill="none" stroke="#c9814a" stroke-width="4" stroke-linecap="round" stroke-linejoin="round" opacity="0.1"/><circle cx="710" cy="700" r="9" fill="#122419" stroke="#c9814a" stroke-width="4" opacity="0.1"/><circle cx="75" cy="925" r="7" fill="none" stroke="#c9814a" stroke-width="4" opacity="0.1"/><path d="M 75 925 L 125 925 L 125 825" fill="none" stroke="#c9814a" stroke-width="4" stroke-linecap="round" stroke-linejoin="round" opacity="0.1"/><circle cx="125" cy="825" r="9" fill="#122419" stroke="#c9814a" stroke-width="4" opacity="0.1"/><circle cx="100" cy="900" r="7" fill="none" stroke="#c9814a" stroke-width="4" opacity="0.1"/><path d="M 100 900 L 40 900 L 40 825 L 40 675" fill="none" stroke="#c9814a" stroke-width="4" stroke-linecap="round" stroke-linejoin="round" opacity="0.1"/><circle cx="40" cy="675" r="9" fill="#122419" stroke="#c9814a" stroke-width="4" opacity="0.1"/><circle cx="225" cy="725" r="7" fill="none" stroke="#c9814a" stroke-width="4" opacity="0.1"/><path d="M 225 725 L 100 850 L 40 850" fill="none" stroke="#c9814a" stroke-width="4" stroke-linecap="round" stroke-linejoin="round" opacity="0.1"/><circle cx="40" cy="850" r="9" fill="#122419" stroke="#c9814a" stroke-width="4" opacity="0.1"/><circle cx="500" cy="625" r="7" fill="none" stroke="#c9814a" stroke-width="4" opacity="0.1"/><path d="M 500 625 L 500 675 L 375 620" fill="none" stroke="#c9814a" stroke-width="4" stroke-linecap="round" stroke-linejoin="round" opacity="0.1"/><circle cx="375" cy="620" r="9" fill="#122419" stroke="#c9814a" stroke-width="4" opacity="0.1"/><rect x="125" y="950" width="14" height="20" fill="#c9814a" opacity="0.09000000000000001"/><rect x="147" y="950" width="14" height="20" fill="#c9814a" opacity="0.09000000000000001"/><rect x="169" y="950" width="14" height="20" fill="#c9814a" opacity="0.09000000000000001"/><rect x="191" y="950" width="14" height="20" fill="#c9814a" opacity="0.09000000000000001"/>
<g clip-path="url(#artclip)">
  <rect x="52" y="150" width="646" height="410" fill="url(#artgrad)"/>
  <circle cx="500" cy="425" r="7" fill="none" stroke="#c9814a" stroke-width="4" opacity="0.3"/><path d="M 500 425 L 500 525 L 575 550" fill="none" stroke="#c9814a" stroke-width="4" stroke-linecap="round" stroke-linejoin="round" opacity="0.3"/><rect x="567" y="542" width="16" height="16" fill="#c9814a" opacity="0.3"/><circle cx="250" cy="250" r="7" fill="none" stroke="#c9814a" stroke-width="4" opacity="0.3"/><path d="M 250 250 L 400 160 L 400 160 L 550 160" fill="none" stroke="#c9814a" stroke-width="4" stroke-linecap="round" stroke-linejoin="round" opacity="0.3"/><rect x="542" y="152" width="16" height="16" fill="#c9814a" opacity="0.3"/><circle cx="250" cy="550" r="7" fill="none" stroke="#c9814a" stroke-width="4" opacity="0.3"/><path d="M 250 550 L 250 500" fill="none" stroke="#c9814a" stroke-width="4" stroke-linecap="round" stroke-linejoin="round" opacity="0.3"/><circle cx="250" cy="500" r="9" fill="#122419" stroke="#c9814a" stroke-width="4" opacity="0.3"/><circle cx="150" cy="325" r="7" fill="none" stroke="#c9814a" stroke-width="4" opacity="0.3"/><path d="M 150 325 L 100 275" fill="none" stroke="#c9814a" stroke-width="4" stroke-linecap="round" stroke-linejoin="round" opacity="0.3"/><rect x="92" y="267" width="16" height="16" fill="#c9814a" opacity="0.3"/><circle cx="175" cy="425" r="7" fill="none" stroke="#c9814a" stroke-width="4" opacity="0.3"/><path d="M 175 425 L 275 525" fill="none" stroke="#c9814a" stroke-width="4" stroke-linecap="round" stroke-linejoin="round" opacity="0.3"/><circle cx="275" cy="525" r="9" fill="#122419" stroke="#c9814a" stroke-width="4" opacity="0.3"/><circle cx="600" cy="450" r="7" fill="none" stroke="#c9814a" stroke-width="4" opacity="0.3"/><path d="M 600 450 L 600 350 L 475 350 L 475 275" fill="none" stroke="#c9814a" stroke-width="4" stroke-linecap="round" stroke-linejoin="round" opacity="0.3"/><rect x="467" y="267" width="16" height="16" fill="#c9814a" opacity="0.3"/><circle cx="325" cy="175" r="7" fill="none" stroke="#c9814a" stroke-width="4" opacity="0.3"/><path d="M 325 175 L 250 175 L 250 250 L 300 250" fill="none" stroke="#c9814a" stroke-width="4" stroke-linecap="round" stroke-linejoin="round" opacity="0.3"/><circle cx="300" cy="250" r="9" fill="#122419" stroke="#c9814a" stroke-width="4" opacity="0.3"/><circle cx="575" cy="450" r="7" fill="none" stroke="#c9814a" stroke-width="4" opacity="0.3"/><path d="M 575 450 L 450 550 L 450 550" fill="none" stroke="#c9814a" stroke-width="4" stroke-linecap="round" stroke-linejoin="round" opacity="0.3"/><circle cx="450" cy="550" r="9" fill="#122419" stroke="#c9814a" stroke-width="4" opacity="0.3"/><circle cx="375" cy="400" r="7" fill="none" stroke="#c9814a" stroke-width="4" opacity="0.3"/><path d="M 375 400 L 300 475 L 200 550" fill="none" stroke="#c9814a" stroke-width="4" stroke-linecap="round" stroke-linejoin="round" opacity="0.3"/><rect x="192" y="542" width="16" height="16" fill="#c9814a" opacity="0.3"/><rect x="525" y="225" width="14" height="20" fill="#c9814a" opacity="0.27"/><rect x="547" y="225" width="14" height="20" fill="#c9814a" opacity="0.27"/><rect x="569" y="225" width="14" height="20" fill="#c9814a" opacity="0.27"/><rect x="591" y="225" width="14" height="20" fill="#c9814a" opacity="0.27"/>
  <circle cx="550" cy="225" r="7" fill="none" stroke="#c76bd9" stroke-width="4" opacity="0.22"/><path d="M 550 225 L 690 225 L 540 375" fill="none" stroke="#c76bd9" stroke-width="4" stroke-linecap="round" stroke-linejoin="round" opacity="0.22"/><circle cx="540" cy="375" r="9" fill="#122419" stroke="#c76bd9" stroke-width="4" opacity="0.22"/><circle cx="550" cy="500" r="7" fill="none" stroke="#c76bd9" stroke-width="4" opacity="0.22"/><path d="M 550 500 L 500 450 L 650 300" fill="none" stroke="#c76bd9" stroke-width="4" stroke-linecap="round" stroke-linejoin="round" opacity="0.22"/><circle cx="650" cy="300" r="9" fill="#122419" stroke="#c76bd9" stroke-width="4" opacity="0.22"/><circle cx="275" cy="500" r="7" fill="none" stroke="#c76bd9" stroke-width="4" opacity="0.22"/><path d="M 275 500 L 150 550 L 60 550" fill="none" stroke="#c76bd9" stroke-width="4" stroke-linecap="round" stroke-linejoin="round" opacity="0.22"/><circle cx="60" cy="550" r="9" fill="#122419" stroke="#c76bd9" stroke-width="4" opacity="0.22"/><rect x="350" y="175" width="14" height="20" fill="#c76bd9" opacity="0.198"/><rect x="372" y="175" width="14" height="20" fill="#c76bd9" opacity="0.198"/><rect x="394" y="175" width="14" height="20" fill="#c76bd9" opacity="0.198"/><rect x="416" y="175" width="14" height="20" fill="#c76bd9" opacity="0.198"/>
  <g transform="translate(375 345) scale(0.974) translate(-375 -345)"><line x1="463.7" y1="381.7" x2="515.4" y2="403.2" stroke="#c76bd9" stroke-width="13" stroke-linecap="round"/>
           <circle cx="515.4" cy="403.2" r="15" fill="#c76bd9"/><line x1="411.7" y1="433.7" x2="433.2" y2="485.4" stroke="#c76bd9" stroke-width="13" stroke-linecap="round"/>
           <circle cx="433.2" cy="485.4" r="15" fill="#c76bd9"/><line x1="338.3" y1="433.7" x2="316.8" y2="485.4" stroke="#c76bd9" stroke-width="13" stroke-linecap="round"/>
           <circle cx="316.8" cy="485.4" r="15" fill="#c76bd9"/><line x1="286.3" y1="381.7" x2="234.6" y2="403.2" stroke="#c76bd9" stroke-width="13" stroke-linecap="round"/>
           <circle cx="234.6" cy="403.2" r="15" fill="#c76bd9"/><line x1="286.3" y1="308.3" x2="234.6" y2="286.8" stroke="#c76bd9" stroke-width="13" stroke-linecap="round"/>
           <circle cx="234.6" cy="286.8" r="15" fill="#c76bd9"/><line x1="338.3" y1="256.3" x2="316.8" y2="204.6" stroke="#c76bd9" stroke-width="13" stroke-linecap="round"/>
           <circle cx="316.8" cy="204.6" r="15" fill="#c76bd9"/><line x1="411.7" y1="256.3" x2="433.2" y2="204.6" stroke="#c76bd9" stroke-width="13" stroke-linecap="round"/>
           <circle cx="433.2" cy="204.6" r="15" fill="#c76bd9"/><line x1="463.7" y1="308.3" x2="515.4" y2="286.8" stroke="#c76bd9" stroke-width="13" stroke-linecap="round"/>
           <circle cx="515.4" cy="286.8" r="15" fill="#c76bd9"/><circle cx="375" cy="345" r="96" fill="#173021" stroke="#c76bd9" stroke-width="10"/>
      <circle cx="345" cy="322" r="14" fill="#c76bd9" opacity="0.85"/>
      <circle cx="404" cy="352" r="19" fill="#c76bd9" opacity="0.6"/>
      <circle cx="358" cy="386" r="10" fill="#c76bd9" opacity="0.75"/></g>
</g>
<rect x="52" y="150" width="646" height="410" rx="14" fill="none" stroke="#274a35" stroke-width="3"/>
<text x="200" y="102" font-family="DejaVu Sans Condensed" font-weight="bold" font-size="46"
  letter-spacing="2" fill="#dbe7de">ADWARE</text>
<polygon points="95,28 152,61 152,127 95,160 38,127 38,61" fill="#f0b23e" stroke="#1c1405" stroke-width="4"/>
<text x="95" y="118" text-anchor="middle" font-family="DejaVu Sans" font-weight="bold" font-size="74" fill="#1c1405">2</text>
<text x="375" y="608" text-anchor="middle" font-family="DejaVu Sans Mono" font-size="26" letter-spacing="3"
  fill="#87a693">UNIT · VIRUS</text>
<line x1="80" y1="626" x2="670" y2="626" stroke="#c76bd9" stroke-width="2" opacity="0.5"/>
<rect x="46" y="640" width="658" height="236" rx="16" fill="#231338" opacity="0.55"/>
<text x="375" y="763.3" text-anchor="middle" font-family="DejaVu Sans" font-size="30"
       fill="#dbe7de">Breakdown: Your opponent draws a card.</text>

    <circle cx="95" cy="935" r="56" fill="#0c1811" stroke="#f0b23e" stroke-width="7"/>
    <text x="95" y="954" text-anchor="middle" font-family="DejaVu Sans" font-weight="bold" font-size="56" fill="#f0b23e">3</text>
    <circle cx="655" cy="935" r="56" fill="#0c1811" stroke="#5fe0a0" stroke-width="7"/>
    <text x="655" y="954" text-anchor="middle" font-family="DejaVu Sans" font-weight="bold" font-size="56" fill="#5fe0a0">2</text>
<rect x="70" y="1004" width="22" height="30" fill="url(#guldgrad)"/><rect x="104" y="1004" width="22" height="30" fill="url(#guldgrad)"/><rect x="138" y="1004" width="22" height="30" fill="url(#guldgrad)"/><rect x="172" y="1004" width="22" height="30" fill="url(#guldgrad)"/><rect x="206" y="1004" width="22" height="30" fill="url(#guldgrad)"/><rect x="240" y="1004" width="22" height="30" fill="url(#guldgrad)"/><rect x="274" y="1004" width="22" height="30" fill="url(#guldgrad)"/><rect x="308" y="1004" width="22" height="30" fill="url(#guldgrad)"/><rect x="342" y="1004" width="22" height="30" fill="url(#guldgrad)"/><rect x="376" y="1004" width="22" height="30" fill="url(#guldgrad)"/><rect x="410" y="1004" width="22" height="30" fill="url(#guldgrad)"/><rect x="444" y="1004" width="22" height="30" fill="url(#guldgrad)"/><rect x="478" y="1004" width="22" height="30" fill="url(#guldgrad)"/><rect x="512" y="1004" width="22" height="30" fill="url(#guldgrad)"/><rect x="546" y="1004" width="22" height="30" fill="url(#guldgrad)"/><rect x="580" y="1004" width="22" height="30" fill="url(#guldgrad)"/><rect x="614" y="1004" width="22" height="30" fill="url(#guldgrad)"/><rect x="648" y="1004" width="22" height="30" fill="url(#guldgrad)"/>
<rect x="60" y="1000" width="630" height="4" fill="#c9814a" opacity="0.5"/>
</svg>