<svg xmlns="http://www.w3.org/2000/svg" width="750" height="1050" viewBox="0 0 750 1050">
<defs>
  <linearGradient id="bggrad" x1="0" y1="0" x2="0" y2="1">
    <stop offset="0" stop-color="#173021"/><stop offset="0.5" stop-color="#122419"/><stop offset="1" stop-color="#0c1811"/>
  </linearGradient>
  <linearGradient id="guldgrad" x1="0" y1="0" x2="0" y2="1">
    <stop offset="0" stop-color="#ffd166"/><stop offset="1" stop-color="#9a7422"/>
  </linearGradient>
  <clipPath id="artclip"><rect x="52" y="150" width="646" height="410" rx="14"/></clipPath>
</defs>
<rect x="6" y="6" width="738" height="1038" rx="36" fill="url(#bggrad)" stroke="#274a35" stroke-width="6"/>
<rect x="22" y="22" width="706" height="1006" rx="26" fill="none" stroke="#c9814a" stroke-width="2" opacity="0.55"/>
<circle cx="475" cy="900" r="7" fill="none" stroke="#c9814a" stroke-width="4" opacity="0.1"/><path d="M 475 900 L 475 980" fill="none" stroke="#c9814a" stroke-width="4" stroke-linecap="round" stroke-linejoin="round" opacity="0.1"/><circle cx="475" cy="980" r="9" fill="#122419" stroke="#c9814a" stroke-width="4" opacity="0.1"/><circle cx="75" cy="800" r="7" fill="none" stroke="#c9814a" stroke-width="4" opacity="0.1"/><path d="M 75 800 L 200 675" fill="none" stroke="#c9814a" stroke-width="4" stroke-linecap="round" stroke-linejoin="round" opacity="0.1"/><rect x="192" y="667" width="16" height="16" fill="#c9814a" opacity="0.1"/><circle cx="650" cy="775" r="7" fill="none" stroke="#c9814a" stroke-width="4" opacity="0.1"/><path d="M 650 775 L 700 775" fill="none" stroke="#c9814a" stroke-width="4" stroke-linecap="round" stroke-linejoin="round" opacity="0.1"/><circle cx="700" cy="775" r="9" fill="#122419" stroke="#c9814a" stroke-width="4" opacity="0.1"/><circle cx="650" cy="700" r="7" fill="none" stroke="#c9814a" stroke-width="4" opacity="0.1"/><path d="M 650 700 L 650 620" fill="none" stroke="#c9814a" stroke-width="4" stroke-linecap="round" stroke-linejoin="round" opacity="0.1"/><rect x="642" y="612" width="16" height="16" fill="#c9814a" opacity="0.1"/><circle cx="75" cy="900" r="7" fill="none" stroke="#c9814a" stroke-width="4" opacity="0.1"/><path d="M 75 900 L 75 850" fill="none" stroke="#c9814a" stroke-width="4" stroke-linecap="round" stroke-linejoin="round" opacity="0.1"/><rect x="67" y="842" width="16" height="16" fill="#c9814a" opacity="0.1"/><rect x="400" y="700" width="14" height="20" fill="#c9814a" opacity="0.09000000000000001"/><rect x="422" y="700" width="14" height="20" fill="#c9814a" opacity="0.09000000000000001"/><rect x="444" y="700" width="14" height="20" fill="#c9814a" opacity="0.09000000000000001"/><rect x="466" y="700" width="14" height="20" fill="#c9814a" opacity="0.09000000000000001"/>
<g clip-path="url(#artclip)">
  <rect x="52" y="150" width="646" height="410" fill="#0c1811"/>
  <circle cx="275" cy="450" r="7" fill="none" stroke="#c9814a" stroke-width="4" opacity="0.3"/><path d="M 275 450 L 225 400 L 300 475 L 450 550" fill="none" stroke="#c9814a" stroke-width="4" stroke-linecap="round" stroke-linejoin="round" opacity="0.3"/><circle cx="450" cy="550" r="9" fill="#122419" stroke="#c9814a" stroke-width="4" opacity="0.3"/><circle cx="425" cy="325" r="7" fill="none" stroke="#c9814a" stroke-width="4" opacity="0.3"/><path d="M 425 325 L 525 425 L 400 300" fill="none" stroke="#c9814a" stroke-width="4" stroke-linecap="round" stroke-linejoin="round" opacity="0.3"/><rect x="392" y="292" width="16" height="16" fill="#c9814a" opacity="0.3"/><circle cx="525" cy="275" r="7" fill="none" stroke="#c9814a" stroke-width="4" opacity="0.3"/><path d="M 525 275 L 625 175 L 525 275 L 575 325" fill="none" stroke="#c9814a" stroke-width="4" stroke-linecap="round" stroke-linejoin="round" opacity="0.3"/><circle cx="575" cy="325" r="9" fill="#122419" stroke="#c9814a" stroke-width="4" opacity="0.3"/><circle cx="275" cy="450" r="7" fill="none" stroke="#c9814a" stroke-width="4" opacity="0.3"/><path d="M 275 450 L 275 300" fill="none" stroke="#c9814a" stroke-width="4" stroke-linecap="round" stroke-linejoin="round" opacity="0.3"/><rect x="267" y="292" width="16" height="16" fill="#c9814a" opacity="0.3"/><circle cx="500" cy="200" r="7" fill="none" stroke="#c9814a" stroke-width="4" opacity="0.3"/><path d="M 500 200 L 550 200 L 675 325" fill="none" stroke="#c9814a" stroke-width="4" stroke-linecap="round" stroke-linejoin="round" opacity="0.3"/><circle cx="675" cy="325" r="9" fill="#122419" stroke="#c9814a" stroke-width="4" opacity="0.3"/><circle cx="625" cy="325" r="7" fill="none" stroke="#c9814a" stroke-width="4" opacity="0.3"/><path d="M 625 325 L 500 450" fill="none" stroke="#c9814a" stroke-width="4" stroke-linecap="round" stroke-linejoin="round" opacity="0.3"/><rect x="492" y="442" width="16" height="16" fill="#c9814a" opacity="0.3"/><circle cx="200" cy="450" r="7" fill="none" stroke="#c9814a" stroke-width="4" opacity="0.3"/><path d="M 200 450 L 100 350 L 60 350" fill="none" stroke="#c9814a" stroke-width="4" stroke-linecap="round" stroke-linejoin="round" opacity="0.3"/><rect x="52" y="342" width="16" height="16" fill="#c9814a" opacity="0.3"/><circle cx="325" cy="500" r="7" fill="none" stroke="#c9814a" stroke-width="4" opacity="0.3"/><path d="M 325 500 L 400 500" fill="none" stroke="#c9814a" stroke-width="4" stroke-linecap="round" stroke-linejoin="round" opacity="0.3"/><rect x="392" y="492" width="16" height="16" fill="#c9814a" opacity="0.3"/><circle cx="625" cy="275" r="7" fill="none" stroke="#c9814a" stroke-width="4" opacity="0.3"/><path d="M 625 275 L 675 275 L 675 425" fill="none" stroke="#c9814a" stroke-width="4" stroke-linecap="round" stroke-linejoin="round" opacity="0.3"/><rect x="667" y="417" width="16" height="16" fill="#c9814a" opacity="0.3"/><rect x="375" y="225" width="14" height="20" fill="#c9814a" opacity="0.27"/><rect x="397" y="225" width="14" height="20" fill="#c9814a" opacity="0.27"/><rect x="419" y="225" width="14" height="20" fill="#c9814a" opacity="0.27"/><rect x="441" y="225" width="14" height="20" fill="#c9814a" opacity="0.27"/>
  <circle cx="325" cy="250" r="7" fill="none" stroke="#9fc0e8" stroke-width="4" opacity="0.22"/><path d="M 325 250 L 400 250 L 450 200" fill="none" stroke="#9fc0e8" stroke-width="4" stroke-linecap="round" stroke-linejoin="round" opacity="0.22"/><circle cx="450" cy="200" r="9" fill="#122419" stroke="#9fc0e8" stroke-width="4" opacity="0.22"/><circle cx="550" cy="200" r="7" fill="none" stroke="#9fc0e8" stroke-width="4" opacity="0.22"/><path d="M 550 200 L 400 350" fill="none" stroke="#9fc0e8" stroke-width="4" stroke-linecap="round" stroke-linejoin="round" opacity="0.22"/><circle cx="400" cy="350" r="9" fill="#122419" stroke="#9fc0e8" stroke-width="4" opacity="0.22"/><circle cx="475" cy="350" r="7" fill="none" stroke="#9fc0e8" stroke-width="4" opacity="0.22"/><path d="M 475 350 L 425 300" fill="none" stroke="#9fc0e8" stroke-width="4" stroke-linecap="round" stroke-linejoin="round" opacity="0.22"/><rect x="417" y="292" width="16" height="16" fill="#9fc0e8" opacity="0.22"/><rect x="550" y="300" width="14" height="20" fill="#9fc0e8" opacity="0.198"/><rect x="572" y="300" width="14" height="20" fill="#9fc0e8" opacity="0.198"/><rect x="594" y="300" width="14" height="20" fill="#9fc0e8" opacity="0.198"/><rect x="616" y="300" width="14" height="20" fill="#9fc0e8" opacity="0.198"/>
  <g transform="translate(375 345) scale(0.944) translate(-375 -345)"><line x1="375" y1="252" x2="375" y2="208" stroke="#9fc0e8" stroke-width="10"/>
      <circle cx="375" cy="196" r="13" fill="#9fc0e8"/>
      <rect x="262" y="252" width="226" height="188" rx="28" fill="#173021" stroke="#9fc0e8" stroke-width="10"/>
      <rect x="236" y="310" width="26" height="64" rx="8" fill="#9fc0e8" opacity="0.7"/>
      <rect x="488" y="310" width="26" height="64" rx="8" fill="#9fc0e8" opacity="0.7"/>
      <rect x="300" y="308" width="52" height="30" rx="8" fill="#9fc0e8"/>
      <rect x="398" y="308" width="52" height="30" rx="8" fill="#9fc0e8"/>
      <rect x="318" y="384" width="114" height="12" rx="6" fill="#9fc0e8" opacity="0.6"/></g>
</g>
<rect x="52" y="150" width="646" height="410" rx="14" fill="none" stroke="#274a35" stroke-width="3"/>
<text x="200" y="102" font-family="DejaVu Sans Condensed" font-weight="bold" font-size="46"
  letter-spacing="2" fill="#dbe7de">BOXERBOT</text>
<polygon points="95,28 152,61 152,127 95,160 38,127 38,61" fill="#f0b23e" stroke="#1c1405" stroke-width="4"/>
<text x="95" y="118" text-anchor="middle" font-family="DejaVu Sans" font-weight="bold" font-size="74" fill="#1c1405">5</text>
<text x="375" y="608" text-anchor="middle" font-family="DejaVu Sans Mono" font-size="26" letter-spacing="3"
  fill="#87a693">UNIT · ROBOT</text>
<line x1="80" y1="626" x2="670" y2="626" stroke="#274a35" stroke-width="2"/>
<text x="375" y="763.3" text-anchor="middle" font-family="DejaVu Sans" font-size="30"
       fill="#dbe7de">Dual Core.</text>

    <circle cx="95" cy="935" r="56" fill="#0c1811" stroke="#f0b23e" stroke-width="7"/>
    <text x="95" y="954" text-anchor="middle" font-family="DejaVu Sans" font-weight="bold" font-size="56" fill="#f0b23e">3</text>
    <circle cx="655" cy="935" r="56" fill="#0c1811" stroke="#5fe0a0" stroke-width="7"/>
    <text x="655" y="954" text-anchor="middle" font-family="DejaVu Sans" font-weight="bold" font-size="56" fill="#5fe0a0">5</text>
<rect x="70" y="1004" width="22" height="30" fill="url(#guldgrad)"/><rect x="104" y="1004" width="22" height="30" fill="url(#guldgrad)"/><rect x="138" y="1004" width="22" height="30" fill="url(#guldgrad)"/><rect x="172" y="1004" width="22" height="30" fill="url(#guldgrad)"/><rect x="206" y="1004" width="22" height="30" fill="url(#guldgrad)"/><rect x="240" y="1004" width="22" height="30" fill="url(#guldgrad)"/><rect x="274" y="1004" width="22" height="30" fill="url(#guldgrad)"/><rect x="308" y="1004" width="22" height="30" fill="url(#guldgrad)"/><rect x="342" y="1004" width="22" height="30" fill="url(#guldgrad)"/><rect x="376" y="1004" width="22" height="30" fill="url(#guldgrad)"/><rect x="410" y="1004" width="22" height="30" fill="url(#guldgrad)"/><rect x="444" y="1004" width="22" height="30" fill="url(#guldgrad)"/><rect x="478" y="1004" width="22" height="30" fill="url(#guldgrad)"/><rect x="512" y="1004" width="22" height="30" fill="url(#guldgrad)"/><rect x="546" y="1004" width="22" height="30" fill="url(#guldgrad)"/><rect x="580" y="1004" width="22" height="30" fill="url(#guldgrad)"/><rect x="614" y="1004" width="22" height="30" fill="url(#guldgrad)"/><rect x="648" y="1004" width="22" height="30" fill="url(#guldgrad)"/>
<rect x="60" y="1000" width="630" height="4" fill="#c9814a" opacity="0.5"/>
</svg>