<svg xmlns="http://www.w3.org/2000/svg" width="750" height="1050" viewBox="0 0 750 1050">
<defs>
  <linearGradient id="bggrad" x1="0" y1="0" x2="0" y2="1">
    <stop offset="0" stop-color="#4a0f52"/><stop offset="0.5" stop-color="#2d0932"/><stop offset="1" stop-color="#120414"/>
  </linearGradient>
  <radialGradient id="artgrad" cx="0.5" cy="0.42" r="0.75">
    <stop offset="0" stop-color="#3f1341"/><stop offset="1" stop-color="#230827"/>
  </radialGradient>
  <linearGradient id="guldgrad" x1="0" y1="0" x2="0" y2="1">
    <stop offset="0" stop-color="#ffd166"/><stop offset="1" stop-color="#9a7422"/>
  </linearGradient>
  <clipPath id="artclip"><rect x="52" y="150" width="646" height="410" rx="14"/></clipPath>
</defs>
<rect x="6" y="6" width="738" height="1038" rx="36" fill="url(#bggrad)" stroke="#e85adf" stroke-width="6"/>
<rect x="22" y="22" width="706" height="1006" rx="26" fill="none" stroke="#e85adf" stroke-width="2" opacity="0.7"/>
<circle cx="100" cy="850" r="7" fill="none" stroke="#c9814a" stroke-width="4" opacity="0.1"/><path d="M 100 850 L 100 725 L 50 725" fill="none" stroke="#c9814a" stroke-width="4" stroke-linecap="round" stroke-linejoin="round" opacity="0.1"/><rect x="42" y="717" width="16" height="16" fill="#c9814a" opacity="0.1"/><circle cx="375" cy="775" r="7" fill="none" stroke="#c9814a" stroke-width="4" opacity="0.1"/><path d="M 375 775 L 325 775 L 325 900" fill="none" stroke="#c9814a" stroke-width="4" stroke-linecap="round" stroke-linejoin="round" opacity="0.1"/><rect x="317" y="892" width="16" height="16" fill="#c9814a" opacity="0.1"/><circle cx="175" cy="650" r="7" fill="none" stroke="#c9814a" stroke-width="4" opacity="0.1"/><path d="M 175 650 L 175 750 L 225 800 L 100 800" fill="none" stroke="#c9814a" stroke-width="4" stroke-linecap="round" stroke-linejoin="round" opacity="0.1"/><rect x="92" y="792" width="16" height="16" fill="#c9814a" opacity="0.1"/><circle cx="400" cy="625" r="7" fill="none" stroke="#c9814a" stroke-width="4" opacity="0.1"/><path d="M 400 625 L 325 700 L 225 620" fill="none" stroke="#c9814a" stroke-width="4" stroke-linecap="round" stroke-linejoin="round" opacity="0.1"/><rect x="217" y="612" width="16" height="16" fill="#c9814a" opacity="0.1"/><circle cx="650" cy="725" r="7" fill="none" stroke="#c9814a" stroke-width="4" opacity="0.1"/><path d="M 650 725 L 710 620 L 710 620" fill="none" stroke="#c9814a" stroke-width="4" stroke-linecap="round" stroke-linejoin="round" opacity="0.1"/><circle cx="710" cy="620" r="9" fill="#122419" stroke="#c9814a" stroke-width="4" opacity="0.1"/><rect x="350" y="675" width="14" height="20" fill="#c9814a" opacity="0.09000000000000001"/><rect x="372" y="675" width="14" height="20" fill="#c9814a" opacity="0.09000000000000001"/><rect x="394" y="675" width="14" height="20" fill="#c9814a" opacity="0.09000000000000001"/><rect x="416" y="675" width="14" height="20" fill="#c9814a" opacity="0.09000000000000001"/>
<g clip-path="url(#artclip)">
  <rect x="52" y="150" width="646" height="410" fill="url(#artgrad)"/>
  <circle cx="400" cy="175" r="7" fill="none" stroke="#c9814a" stroke-width="4" opacity="0.3"/><path d="M 400 175 L 400 160" fill="none" stroke="#c9814a" stroke-width="4" stroke-linecap="round" stroke-linejoin="round" opacity="0.3"/><rect x="392" y="152" width="16" height="16" fill="#c9814a" opacity="0.3"/><circle cx="525" cy="400" r="7" fill="none" stroke="#c9814a" stroke-width="4" opacity="0.3"/><path d="M 525 400 L 625 400 L 625 300 L 690 300" fill="none" stroke="#c9814a" stroke-width="4" stroke-linecap="round" stroke-linejoin="round" opacity="0.3"/><rect x="682" y="292" width="16" height="16" fill="#c9814a" opacity="0.3"/><circle cx="75" cy="250" r="7" fill="none" stroke="#c9814a" stroke-width="4" opacity="0.3"/><path d="M 75 250 L 75 160 L 150 160" fill="none" stroke="#c9814a" stroke-width="4" stroke-linecap="round" stroke-linejoin="round" opacity="0.3"/><circle cx="150" cy="160" r="9" fill="#122419" stroke="#c9814a" stroke-width="4" opacity="0.3"/><circle cx="450" cy="525" r="7" fill="none" stroke="#c9814a" stroke-width="4" opacity="0.3"/><path d="M 450 525 L 450 475 L 300 475 L 450 550" fill="none" stroke="#c9814a" stroke-width="4" stroke-linecap="round" stroke-linejoin="round" opacity="0.3"/><circle cx="450" cy="550" r="9" fill="#122419" stroke="#c9814a" stroke-width="4" opacity="0.3"/><circle cx="550" cy="350" r="7" fill="none" stroke="#c9814a" stroke-width="4" opacity="0.3"/><path d="M 550 350 L 450 250 L 525 250" fill="none" stroke="#c9814a" stroke-width="4" stroke-linecap="round" stroke-linejoin="round" opacity="0.3"/><circle cx="525" cy="250" r="9" fill="#122419" stroke="#c9814a" stroke-width="4" opacity="0.3"/><circle cx="625" cy="425" r="7" fill="none" stroke="#c9814a" stroke-width="4" opacity="0.3"/><path d="M 625 425 L 525 425" fill="none" stroke="#c9814a" stroke-width="4" stroke-linecap="round" stroke-linejoin="round" opacity="0.3"/><rect x="517" y="417" width="16" height="16" fill="#c9814a" opacity="0.3"/><circle cx="200" cy="375" r="7" fill="none" stroke="#c9814a" stroke-width="4" opacity="0.3"/><path d="M 200 375 L 350 225" fill="none" stroke="#c9814a" stroke-width="4" stroke-linecap="round" stroke-linejoin="round" opacity="0.3"/><circle cx="350" cy="225" r="9" fill="#122419" stroke="#c9814a" stroke-width="4" opacity="0.3"/><circle cx="125" cy="450" r="7" fill="none" stroke="#c9814a" stroke-width="4" opacity="0.3"/><path d="M 125 450 L 200 375 L 275 375" fill="none" stroke="#c9814a" stroke-width="4" stroke-linecap="round" stroke-linejoin="round" opacity="0.3"/><circle cx="275" cy="375" r="9" fill="#122419" stroke="#c9814a" stroke-width="4" opacity="0.3"/><circle cx="550" cy="200" r="7" fill="none" stroke="#c9814a" stroke-width="4" opacity="0.3"/><path d="M 550 200 L 550 325 L 675 450" fill="none" stroke="#c9814a" stroke-width="4" stroke-linecap="round" stroke-linejoin="round" opacity="0.3"/><circle cx="675" cy="450" r="9" fill="#122419" stroke="#c9814a" stroke-width="4" opacity="0.3"/><rect x="400" y="375" width="14" height="20" fill="#c9814a" opacity="0.27"/><rect x="422" y="375" width="14" height="20" fill="#c9814a" opacity="0.27"/><rect x="444" y="375" width="14" height="20" fill="#c9814a" opacity="0.27"/><rect x="466" y="375" width="14" height="20" fill="#c9814a" opacity="0.27"/>
  <circle cx="350" cy="225" r="7" fill="none" stroke="#c76bd9" stroke-width="4" opacity="0.22"/><path d="M 350 225 L 350 300 L 500 450 L 375 450" fill="none" stroke="#c76bd9" stroke-width="4" stroke-linecap="round" stroke-linejoin="round" opacity="0.22"/><circle cx="375" cy="450" r="9" fill="#122419" stroke="#c76bd9" stroke-width="4" opacity="0.22"/><circle cx="500" cy="425" r="7" fill="none" stroke="#c76bd9" stroke-width="4" opacity="0.22"/><path d="M 500 425 L 500 550 L 625 550" fill="none" stroke="#c76bd9" stroke-width="4" stroke-linecap="round" stroke-linejoin="round" opacity="0.22"/><circle cx="625" cy="550" r="9" fill="#122419" stroke="#c76bd9" stroke-width="4" opacity="0.22"/><circle cx="125" cy="450" r="7" fill="none" stroke="#c76bd9" stroke-width="4" opacity="0.22"/><path d="M 125 450 L 60 450 L 60 550 L 60 550" fill="none" stroke="#c76bd9" stroke-width="4" stroke-linecap="round" stroke-linejoin="round" opacity="0.22"/><rect x="52" y="542" width="16" height="16" fill="#c76bd9" opacity="0.22"/><rect x="75" y="300" width="14" height="20" fill="#c76bd9" opacity="0.198"/><rect x="97" y="300" width="14" height="20" fill="#c76bd9" opacity="0.198"/><rect x="119" y="300" width="14" height="20" fill="#c76bd9" opacity="0.198"/><rect x="141" y="300" width="14" height="20" fill="#c76bd9" opacity="0.198"/>
  <g transform="translate(375 345) scale(1.046) translate(-375 -345)"><line x1="466.30142556433475" y1="374.6656314599949" x2="519.5605904768634" y2="391.970583144992" stroke="#c76bd9" stroke-width="13" stroke-linecap="round"/><circle cx="519.5605904768634" cy="391.970583144992" r="15" fill="#c76bd9"/><line x1="431.42738422007744" y1="422.665631459995" x2="464.3433583484559" y2="467.970583144992" stroke="#c76bd9" stroke-width="13" stroke-linecap="round"/><circle cx="464.3433583484559" cy="467.970583144992" r="15" fill="#c76bd9"/><line x1="375" y1="441" x2="375" y2="497" stroke="#c76bd9" stroke-width="13" stroke-linecap="round"/><circle cx="375" cy="497" r="15" fill="#c76bd9"/><line x1="318.57261577992256" y1="422.665631459995" x2="285.6566416515441" y2="467.970583144992" stroke="#c76bd9" stroke-width="13" stroke-linecap="round"/><circle cx="285.6566416515441" cy="467.970583144992" r="15" fill="#c76bd9"/><line x1="283.69857443566525" y1="374.665631459995" x2="230.43940952313667" y2="391.970583144992" stroke="#c76bd9" stroke-width="13" stroke-linecap="round"/><circle cx="230.43940952313667" cy="391.970583144992" r="15" fill="#c76bd9"/><line x1="283.69857443566525" y1="315.3343685400051" x2="230.43940952313665" y2="298.02941685500804" stroke="#c76bd9" stroke-width="13" stroke-linecap="round"/><circle cx="230.43940952313665" cy="298.02941685500804" r="15" fill="#c76bd9"/><line x1="318.57261577992256" y1="267.3343685400051" x2="285.6566416515441" y2="222.029416855008" stroke="#c76bd9" stroke-width="13" stroke-linecap="round"/><circle cx="285.6566416515441" cy="222.029416855008" r="15" fill="#c76bd9"/><line x1="375" y1="249" x2="375" y2="193" stroke="#c76bd9" stroke-width="13" stroke-linecap="round"/><circle cx="375" cy="193" r="15" fill="#c76bd9"/><line x1="431.4273842200774" y1="267.334368540005" x2="464.34335834845587" y2="222.02941685500798" stroke="#c76bd9" stroke-width="13" stroke-linecap="round"/><circle cx="464.34335834845587" cy="222.02941685500798" r="15" fill="#c76bd9"/><line x1="466.30142556433475" y1="315.334368540005" x2="519.5605904768634" y2="298.029416855008" stroke="#c76bd9" stroke-width="13" stroke-linecap="round"/><circle cx="519.5605904768634" cy="298.029416855008" r="15" fill="#c76bd9"/><circle cx="375" cy="345" r="96" fill="#173021" stroke="#c76bd9" stroke-width="10"/><circle cx="345" cy="322" r="14" fill="#c76bd9"/><circle cx="404" cy="352" r="19" fill="#c76bd9"/><circle cx="358" cy="386" r="10" fill="#c76bd9"/></g>
</g>
<rect x="52" y="150" width="646" height="410" rx="14" fill="none" stroke="#274a35" stroke-width="3"/>
<text x="200" y="102" font-family="DejaVu Sans Condensed" font-weight="bold" font-size="46"
  letter-spacing="2" fill="#dbe7de">BOTNET BRAIN</text>
<polygon points="95,28 152,61 152,127 95,160 38,127 38,61" fill="#f0b23e" stroke="#1c1405" stroke-width="4"/>
<text x="95" y="118" text-anchor="middle" font-family="DejaVu Sans" font-weight="bold" font-size="74" fill="#1c1405">6</text>
<text x="375" y="608" text-anchor="middle" font-family="DejaVu Sans Mono" font-size="26" letter-spacing="3"
  fill="#87a693">UNIT · VIRUS</text>
<line x1="80" y1="626" x2="670" y2="626" stroke="#e85adf" stroke-width="2" opacity="0.5"/>
<rect x="46" y="640" width="658" height="236" rx="16" fill="#3d0d44" opacity="0.55"/>
<text x="375" y="742.6" text-anchor="middle" font-family="DejaVu Sans" font-size="30"
       fill="#dbe7de">At the end of your turn: Summon a 1/1</text>
<text x="375" y="784.0" text-anchor="middle" font-family="DejaVu Sans" font-size="30"
       fill="#dbe7de">Bug.</text>

    <circle cx="95" cy="935" r="56" fill="#0c1811" stroke="#f0b23e" stroke-width="7"/>
    <text x="95" y="954" text-anchor="middle" font-family="DejaVu Sans" font-weight="bold" font-size="56" fill="#f0b23e">4</text>
    <circle cx="655" cy="935" r="56" fill="#0c1811" stroke="#5fe0a0" stroke-width="7"/>
    <text x="655" y="954" text-anchor="middle" font-family="DejaVu Sans" font-weight="bold" font-size="56" fill="#5fe0a0">6</text>
<rect x="70" y="1004" width="22" height="30" fill="url(#guldgrad)"/><rect x="104" y="1004" width="22" height="30" fill="url(#guldgrad)"/><rect x="138" y="1004" width="22" height="30" fill="url(#guldgrad)"/><rect x="172" y="1004" width="22" height="30" fill="url(#guldgrad)"/><rect x="206" y="1004" width="22" height="30" fill="url(#guldgrad)"/><rect x="240" y="1004" width="22" height="30" fill="url(#guldgrad)"/><rect x="274" y="1004" width="22" height="30" fill="url(#guldgrad)"/><rect x="308" y="1004" width="22" height="30" fill="url(#guldgrad)"/><rect x="342" y="1004" width="22" height="30" fill="url(#guldgrad)"/><rect x="376" y="1004" width="22" height="30" fill="url(#guldgrad)"/><rect x="410" y="1004" width="22" height="30" fill="url(#guldgrad)"/><rect x="444" y="1004" width="22" height="30" fill="url(#guldgrad)"/><rect x="478" y="1004" width="22" height="30" fill="url(#guldgrad)"/><rect x="512" y="1004" width="22" height="30" fill="url(#guldgrad)"/><rect x="546" y="1004" width="22" height="30" fill="url(#guldgrad)"/><rect x="580" y="1004" width="22" height="30" fill="url(#guldgrad)"/><rect x="614" y="1004" width="22" height="30" fill="url(#guldgrad)"/><rect x="648" y="1004" width="22" height="30" fill="url(#guldgrad)"/>
<rect x="60" y="1000" width="630" height="4" fill="#c9814a" opacity="0.5"/>
</svg>