<svg xmlns="http://www.w3.org/2000/svg" width="750" height="1050" viewBox="0 0 750 1050">
<defs>
  <filter id="cardDrop" x="-6%" y="-3%" width="112%" height="110%" color-interpolation-filters="sRGB">
    <feDropShadow dx="0" dy="10" stdDeviation="14" flood-color="#000" flood-opacity="0.5"/>
    <feDropShadow dx="0" dy="3" stdDeviation="4" flood-color="#000" flood-opacity="0.35"/>
  </filter>
  <filter id="paperGrain" x="0" y="0" width="100%" height="100%">
    <feTurbulence type="fractalNoise" baseFrequency="0.72" numOctaves="4" seed="17" result="n"/>
    <feColorMatrix in="n" type="matrix" values="0 0 0 0 0.48  0 0 0 0 0.42  0 0 0 0 0.36  0 0 0 0.07 0" result="g"/>
    <feBlend in="SourceGraphic" in2="g" mode="multiply"/>
  </filter>
  <filter id="artDepth" x="-8%" y="-8%" width="116%" height="116%">
    <feGaussianBlur in="SourceAlpha" stdDeviation="6" result="blur"/>
    <feOffset dy="4" result="off"/><feFlood flood-color="#000" flood-opacity="0.45"/>
    <feComposite in2="off" operator="in" result="sh"/>
    <feMerge><feMergeNode in="sh"/><feMergeNode in="SourceGraphic"/></feMerge>
  </filter>
  <linearGradient id="bggrad" x1="0" y1="0" x2="0" y2="1">
    <stop offset="0" stop-color="#1c416f"/>
    <stop offset="0.45" stop-color="#08213f"/>
    <stop offset="1" stop-color="#020a14"/>
  </linearGradient>
  <linearGradient id="bevelHi" x1="0" y1="0" x2="1" y2="1">
    <stop offset="0" stop-color="#fff" stop-opacity="0.22"/>
    <stop offset="0.35" stop-color="#fff" stop-opacity="0"/>
    <stop offset="1" stop-color="#000" stop-opacity="0.28"/>
  </linearGradient>
  <radialGradient id="artgrad" cx="0.5" cy="0.38" r="0.82">
    <stop offset="0" stop-color="#163c60"/>
    <stop offset="0.7" stop-color="#061a33"/>
    <stop offset="1" stop-color="#0411NaN"/>
  </radialGradient>
  <linearGradient id="artInset" x1="0" y1="0" x2="0" y2="1">
    <stop offset="0" stop-color="#000" stop-opacity="0.38"/>
    <stop offset="0.12" stop-color="#000" stop-opacity="0"/>
    <stop offset="0.88" stop-color="#000" stop-opacity="0"/>
    <stop offset="1" stop-color="#000" stop-opacity="0.42"/>
  </linearGradient>
  <linearGradient id="guldgrad" x1="0" y1="0" x2="0" y2="1">
    <stop offset="0" stop-color="#ffe9a0"/>
    <stop offset="0.45" stop-color="#ffd166"/>
    <stop offset="1" stop-color="#6a5018"/>
  </linearGradient>
  <linearGradient id="guldShine" x1="0" y1="0" x2="1" y2="0">
    <stop offset="0" stop-color="#fff" stop-opacity="0"/>
    <stop offset="0.5" stop-color="#fff" stop-opacity="0.45"/>
    <stop offset="1" stop-color="#fff" stop-opacity="0"/>
  </linearGradient>
  <linearGradient id="gloss" x1="0" y1="0" x2="1" y2="1">
    <stop offset="0.28" stop-color="#fff" stop-opacity="0"/>
    <stop offset="0.46" stop-color="#fff" stop-opacity="0.16"/>
    <stop offset="0.54" stop-color="#fff" stop-opacity="0.06"/>
    <stop offset="0.72" stop-color="#fff" stop-opacity="0"/>
  </linearGradient>
  <pattern id="fiber" width="6" height="6" patternUnits="userSpaceOnUse" patternTransform="rotate(12)">
    <line x1="0" y1="0" x2="0" y2="6" stroke="#fff" stroke-width="0.6" opacity="0.04"/>
    <line x1="3" y1="0" x2="3" y2="6" stroke="#000" stroke-width="0.5" opacity="0.06"/>
  </pattern>
  <clipPath id="artclip"><rect x="52" y="150" width="646" height="410" rx="14"/></clipPath>
  <clipPath id="cardclip"><rect x="6" y="6" width="738" height="1038" rx="36"/></clipPath>
  </defs>

  <rect x="10" y="1042" width="730" height="7" rx="3" fill="#080604" opacity="0.85"/>
  <rect x="10" y="1042" width="730" height="3" rx="2" fill="#2351NaN" opacity="0.5"/>
<g filter="url(#cardDrop)">
<g filter="url(#paperGrain)" clip-path="url(#cardclip)">
<rect x="6" y="6" width="738" height="1038" rx="36" fill="url(#bggrad)" stroke="#4db4ff" stroke-width="6"/>
<rect x="6" y="6" width="738" height="1038" rx="36" fill="url(#fiber)"/>
<rect x="22" y="22" width="706" height="1006" rx="26" fill="none" stroke="#4db4ff" stroke-width="2" opacity="0.75"/>
<rect x="14" y="14" width="722" height="1022" rx="32" fill="none" stroke="url(#bevelHi)" stroke-width="3" opacity="0.55"/>
<circle cx="525" cy="800" r="7" fill="none" stroke="#c9814a" stroke-width="4" opacity="0.1"/><path d="M 525 800 L 525 875" fill="none" stroke="#c9814a" stroke-width="4" stroke-linecap="round" stroke-linejoin="round" opacity="0.1"/><circle cx="525" cy="875" r="9" fill="#122419" stroke="#c9814a" stroke-width="4" opacity="0.1"/><circle cx="250" cy="750" r="7" fill="none" stroke="#c9814a" stroke-width="4" opacity="0.1"/><path d="M 250 750 L 300 800" fill="none" stroke="#c9814a" stroke-width="4" stroke-linecap="round" stroke-linejoin="round" opacity="0.1"/><rect x="292" y="792" width="16" height="16" fill="#c9814a" opacity="0.1"/><circle cx="225" cy="700" r="7" fill="none" stroke="#c9814a" stroke-width="4" opacity="0.1"/><path d="M 225 700 L 175 750" fill="none" stroke="#c9814a" stroke-width="4" stroke-linecap="round" stroke-linejoin="round" opacity="0.1"/><rect x="167" y="742" width="16" height="16" fill="#c9814a" opacity="0.1"/><circle cx="675" cy="750" r="7" fill="none" stroke="#c9814a" stroke-width="4" opacity="0.1"/><path d="M 675 750 L 575 650 L 575 620 L 475 620" fill="none" stroke="#c9814a" stroke-width="4" stroke-linecap="round" stroke-linejoin="round" opacity="0.1"/><rect x="467" y="612" width="16" height="16" fill="#c9814a" opacity="0.1"/><circle cx="550" cy="675" r="7" fill="none" stroke="#c9814a" stroke-width="4" opacity="0.1"/><path d="M 550 675 L 625 675 L 625 620 L 710 620" fill="none" stroke="#c9814a" stroke-width="4" stroke-linecap="round" stroke-linejoin="round" opacity="0.1"/><circle cx="710" cy="620" r="9" fill="#122419" stroke="#c9814a" stroke-width="4" opacity="0.1"/><rect x="575" y="775" width="14" height="20" fill="#c9814a" opacity="0.09000000000000001"/><rect x="597" y="775" width="14" height="20" fill="#c9814a" opacity="0.09000000000000001"/><rect x="619" y="775" width="14" height="20" fill="#c9814a" opacity="0.09000000000000001"/><rect x="641" y="775" width="14" height="20" fill="#c9814a" opacity="0.09000000000000001"/>
<g clip-path="url(#artclip)" filter="url(#artDepth)">
  <rect x="52" y="150" width="646" height="410" fill="url(#artgrad)"/>
  <circle cx="600" cy="175" r="7" fill="none" stroke="#c9814a" stroke-width="4" opacity="0.3"/><path d="M 600 175 L 475 300 L 400 225 L 300 160" fill="none" stroke="#c9814a" stroke-width="4" stroke-linecap="round" stroke-linejoin="round" opacity="0.3"/><circle cx="300" cy="160" r="9" fill="#122419" stroke="#c9814a" stroke-width="4" opacity="0.3"/><circle cx="350" cy="500" r="7" fill="none" stroke="#c9814a" stroke-width="4" opacity="0.3"/><path d="M 350 500 L 400 500" fill="none" stroke="#c9814a" stroke-width="4" stroke-linecap="round" stroke-linejoin="round" opacity="0.3"/><rect x="392" y="492" width="16" height="16" fill="#c9814a" opacity="0.3"/><circle cx="375" cy="350" r="7" fill="none" stroke="#c9814a" stroke-width="4" opacity="0.3"/><path d="M 375 350 L 250 350" fill="none" stroke="#c9814a" stroke-width="4" stroke-linecap="round" stroke-linejoin="round" opacity="0.3"/><rect x="242" y="342" width="16" height="16" fill="#c9814a" opacity="0.3"/><circle cx="600" cy="200" r="7" fill="none" stroke="#c9814a" stroke-width="4" opacity="0.3"/><path d="M 600 200 L 475 200 L 475 350 L 600 350" fill="none" stroke="#c9814a" stroke-width="4" stroke-linecap="round" stroke-linejoin="round" opacity="0.3"/><circle cx="600" cy="350" r="9" fill="#122419" stroke="#c9814a" stroke-width="4" opacity="0.3"/><circle cx="450" cy="325" r="7" fill="none" stroke="#c9814a" stroke-width="4" opacity="0.3"/><path d="M 450 325 L 450 275 L 500 275" fill="none" stroke="#c9814a" stroke-width="4" stroke-linecap="round" stroke-linejoin="round" opacity="0.3"/><rect x="492" y="267" width="16" height="16" fill="#c9814a" opacity="0.3"/><circle cx="675" cy="200" r="7" fill="none" stroke="#c9814a" stroke-width="4" opacity="0.3"/><path d="M 675 200 L 675 160 L 690 160" fill="none" stroke="#c9814a" stroke-width="4" stroke-linecap="round" stroke-linejoin="round" opacity="0.3"/><circle cx="690" cy="160" r="9" fill="#122419" stroke="#c9814a" stroke-width="4" opacity="0.3"/><circle cx="100" cy="350" r="7" fill="none" stroke="#c9814a" stroke-width="4" opacity="0.3"/><path d="M 100 350 L 60 400 L 60 475" fill="none" stroke="#c9814a" stroke-width="4" stroke-linecap="round" stroke-linejoin="round" opacity="0.3"/><circle cx="60" cy="475" r="9" fill="#122419" stroke="#c9814a" stroke-width="4" opacity="0.3"/><circle cx="450" cy="475" r="7" fill="none" stroke="#c9814a" stroke-width="4" opacity="0.3"/><path d="M 450 475 L 550 475" fill="none" stroke="#c9814a" stroke-width="4" stroke-linecap="round" stroke-linejoin="round" opacity="0.3"/><circle cx="550" cy="475" r="9" fill="#122419" stroke="#c9814a" stroke-width="4" opacity="0.3"/><circle cx="250" cy="500" r="7" fill="none" stroke="#c9814a" stroke-width="4" opacity="0.3"/><path d="M 250 500 L 250 550" fill="none" stroke="#c9814a" stroke-width="4" stroke-linecap="round" stroke-linejoin="round" opacity="0.3"/><rect x="242" y="542" width="16" height="16" fill="#c9814a" opacity="0.3"/><rect x="450" y="350" width="14" height="20" fill="#c9814a" opacity="0.27"/><rect x="472" y="350" width="14" height="20" fill="#c9814a" opacity="0.27"/><rect x="494" y="350" width="14" height="20" fill="#c9814a" opacity="0.27"/><rect x="516" y="350" width="14" height="20" fill="#c9814a" opacity="0.27"/>
  <circle cx="175" cy="175" r="7" fill="none" stroke="#9fc0e8" stroke-width="4" opacity="0.22"/><path d="M 175 175 L 100 250" fill="none" stroke="#9fc0e8" stroke-width="4" stroke-linecap="round" stroke-linejoin="round" opacity="0.22"/><circle cx="100" cy="250" r="9" fill="#122419" stroke="#9fc0e8" stroke-width="4" opacity="0.22"/><circle cx="575" cy="350" r="7" fill="none" stroke="#9fc0e8" stroke-width="4" opacity="0.22"/><path d="M 575 350 L 575 275 L 625 275" fill="none" stroke="#9fc0e8" stroke-width="4" stroke-linecap="round" stroke-linejoin="round" opacity="0.22"/><rect x="617" y="267" width="16" height="16" fill="#9fc0e8" opacity="0.22"/><circle cx="500" cy="300" r="7" fill="none" stroke="#9fc0e8" stroke-width="4" opacity="0.22"/><path d="M 500 300 L 500 225" fill="none" stroke="#9fc0e8" stroke-width="4" stroke-linecap="round" stroke-linejoin="round" opacity="0.22"/><rect x="492" y="217" width="16" height="16" fill="#9fc0e8" opacity="0.22"/><rect x="500" y="500" width="14" height="20" fill="#9fc0e8" opacity="0.198"/><rect x="522" y="500" width="14" height="20" fill="#9fc0e8" opacity="0.198"/><rect x="544" y="500" width="14" height="20" fill="#9fc0e8" opacity="0.198"/><rect x="566" y="500" width="14" height="20" fill="#9fc0e8" opacity="0.198"/>
  <g transform="translate(375 345) scale(0.963) translate(-375 -345)"><line x1="375" y1="252" x2="375" y2="208" stroke="#9fc0e8" stroke-width="10" stroke-linecap="round"/><circle cx="375" cy="196" r="13" fill="#9fc0e8"/><rect x="262" y="252" width="226" height="188" rx="28" fill="#173021" stroke="#9fc0e8" stroke-width="10"/><rect x="236" y="310" width="26" height="64" rx="8" fill="#9fc0e8" opacity="0.7"/><rect x="488" y="310" width="26" height="64" rx="8" fill="#9fc0e8" opacity="0.7"/><rect x="300" y="308" width="52" height="30" rx="8" fill="#9fc0e8"/><rect x="398" y="308" width="52" height="30" rx="8" fill="#9fc0e8"/><rect x="318" y="384" width="114" height="12" rx="6" fill="#9fc0e8" opacity="0.6"/></g>
  <rect x="52" y="150" width="646" height="410" fill="url(#artInset)"/>
</g>
<rect x="52" y="150" width="646" height="410" rx="14" fill="none" stroke="#3a87NaN" stroke-width="4"/>
<rect x="56" y="154" width="638" height="402" rx="12" fill="none" stroke="#fff" stroke-width="1.5" opacity="0.08"/>
<text x="200" y="102" font-family="DejaVu Sans Condensed" font-weight="bold" font-size="46"
  letter-spacing="2" fill="#dbe7de">ROBOT FACTORY</text>
<polygon points="95,28 152,61 152,127 95,160 38,127 38,61" fill="#f0b23e" stroke="#1c1405" stroke-width="4"/>
<polygon points="95,32 146,61 146,123 95,152 44,123 44,61" fill="none" stroke="#fff" stroke-width="2" opacity="0.2"/>
<text x="95" y="118" text-anchor="middle" font-family="DejaVu Sans" font-weight="bold" font-size="74" fill="#1c1405">5</text>
<text x="375" y="608" text-anchor="middle" font-family="DejaVu Sans Mono" font-size="26" letter-spacing="3"
  fill="#87a693">UNIT · ROBOT</text>
<line x1="80" y1="626" x2="670" y2="626" stroke="#4db4ff" stroke-width="2" opacity="0.5"/>
<rect x="46" y="640" width="658" height="236" rx="16" fill="#0b2c55" opacity="0.62"/>
<rect x="50" y="644" width="650" height="214" rx="14" fill="url(#fiber)" opacity="0.35"/>
<text x="375" y="742.6" text-anchor="middle" font-family="DejaVu Sans" font-size="30"
       fill="#dbe7de">At the end of your turn: Summon a 1/1</text>
<text x="375" y="784.0" text-anchor="middle" font-family="DejaVu Sans" font-size="30"
       fill="#dbe7de">Microbot.</text>

    <g filter="url(#cardDrop)">
      <circle cx="95" cy="935" r="56" fill="#0c1e25" stroke="#f0b23e" stroke-width="7"/>
      <circle cx="95" cy="932" r="48" fill="none" stroke="#fff" stroke-width="2" opacity="0.12"/>
      <text x="95" y="954" text-anchor="middle" font-family="DejaVu Sans" font-weight="bold" font-size="56" fill="#f0b23e">0</text>
      <circle cx="655" cy="935" r="56" fill="#0c1e25" stroke="#5fe0a0" stroke-width="7"/>
      <circle cx="655" cy="932" r="48" fill="none" stroke="#fff" stroke-width="2" opacity="0.12"/>
      <text x="655" y="954" text-anchor="middle" font-family="DejaVu Sans" font-weight="bold" font-size="56" fill="#5fe0a0">6</text>
    </g>
<rect x="70" y="1004" width="22" height="30" rx="2" fill="url(#guldgrad)" stroke="#4a3810" stroke-width="1"/>
      <rect x="72" y="1006" width="18" height="8" rx="1" fill="url(#guldShine)" opacity="0.55"/><rect x="104" y="1004" width="22" height="30" rx="2" fill="url(#guldgrad)" stroke="#4a3810" stroke-width="1"/>
      <rect x="106" y="1006" width="18" height="8" rx="1" fill="url(#guldShine)" opacity="0.55"/><rect x="138" y="1004" width="22" height="30" rx="2" fill="url(#guldgrad)" stroke="#4a3810" stroke-width="1"/>
      <rect x="140" y="1006" width="18" height="8" rx="1" fill="url(#guldShine)" opacity="0.55"/><rect x="172" y="1004" width="22" height="30" rx="2" fill="url(#guldgrad)" stroke="#4a3810" stroke-width="1"/>
      <rect x="174" y="1006" width="18" height="8" rx="1" fill="url(#guldShine)" opacity="0.55"/><rect x="206" y="1004" width="22" height="30" rx="2" fill="url(#guldgrad)" stroke="#4a3810" stroke-width="1"/>
      <rect x="208" y="1006" width="18" height="8" rx="1" fill="url(#guldShine)" opacity="0.55"/><rect x="240" y="1004" width="22" height="30" rx="2" fill="url(#guldgrad)" stroke="#4a3810" stroke-width="1"/>
      <rect x="242" y="1006" width="18" height="8" rx="1" fill="url(#guldShine)" opacity="0.55"/><rect x="274" y="1004" width="22" height="30" rx="2" fill="url(#guldgrad)" stroke="#4a3810" stroke-width="1"/>
      <rect x="276" y="1006" width="18" height="8" rx="1" fill="url(#guldShine)" opacity="0.55"/><rect x="308" y="1004" width="22" height="30" rx="2" fill="url(#guldgrad)" stroke="#4a3810" stroke-width="1"/>
      <rect x="310" y="1006" width="18" height="8" rx="1" fill="url(#guldShine)" opacity="0.55"/><rect x="342" y="1004" width="22" height="30" rx="2" fill="url(#guldgrad)" stroke="#4a3810" stroke-width="1"/>
      <rect x="344" y="1006" width="18" height="8" rx="1" fill="url(#guldShine)" opacity="0.55"/><rect x="376" y="1004" width="22" height="30" rx="2" fill="url(#guldgrad)" stroke="#4a3810" stroke-width="1"/>
      <rect x="378" y="1006" width="18" height="8" rx="1" fill="url(#guldShine)" opacity="0.55"/><rect x="410" y="1004" width="22" height="30" rx="2" fill="url(#guldgrad)" stroke="#4a3810" stroke-width="1"/>
      <rect x="412" y="1006" width="18" height="8" rx="1" fill="url(#guldShine)" opacity="0.55"/><rect x="444" y="1004" width="22" height="30" rx="2" fill="url(#guldgrad)" stroke="#4a3810" stroke-width="1"/>
      <rect x="446" y="1006" width="18" height="8" rx="1" fill="url(#guldShine)" opacity="0.55"/><rect x="478" y="1004" width="22" height="30" rx="2" fill="url(#guldgrad)" stroke="#4a3810" stroke-width="1"/>
      <rect x="480" y="1006" width="18" height="8" rx="1" fill="url(#guldShine)" opacity="0.55"/><rect x="512" y="1004" width="22" height="30" rx="2" fill="url(#guldgrad)" stroke="#4a3810" stroke-width="1"/>
      <rect x="514" y="1006" width="18" height="8" rx="1" fill="url(#guldShine)" opacity="0.55"/><rect x="546" y="1004" width="22" height="30" rx="2" fill="url(#guldgrad)" stroke="#4a3810" stroke-width="1"/>
      <rect x="548" y="1006" width="18" height="8" rx="1" fill="url(#guldShine)" opacity="0.55"/><rect x="580" y="1004" width="22" height="30" rx="2" fill="url(#guldgrad)" stroke="#4a3810" stroke-width="1"/>
      <rect x="582" y="1006" width="18" height="8" rx="1" fill="url(#guldShine)" opacity="0.55"/><rect x="614" y="1004" width="22" height="30" rx="2" fill="url(#guldgrad)" stroke="#4a3810" stroke-width="1"/>
      <rect x="616" y="1006" width="18" height="8" rx="1" fill="url(#guldShine)" opacity="0.55"/><rect x="648" y="1004" width="22" height="30" rx="2" fill="url(#guldgrad)" stroke="#4a3810" stroke-width="1"/>
      <rect x="650" y="1006" width="18" height="8" rx="1" fill="url(#guldShine)" opacity="0.55"/>
<rect x="60" y="1000" width="630" height="4" fill="#c9814a" opacity="0.55"/>
<rect x="6" y="6" width="738" height="1038" rx="36" fill="url(#gloss)" opacity="0.85"/>

</g></g>
</svg>