<svg xmlns="http://www.w3.org/2000/svg" width="750" height="1050" viewBox="0 0 750 1050">
<defs>
  <linearGradient id="bggrad" x1="0" y1="0" x2="0" y2="1">
    <stop offset="0" stop-color="#173021"/><stop offset="0.5" stop-color="#122419"/><stop offset="1" stop-color="#0c1811"/>
  </linearGradient>
  <linearGradient id="guldgrad" x1="0" y1="0" x2="0" y2="1">
    <stop offset="0" stop-color="#ffd166"/><stop offset="1" stop-color="#9a7422"/>
  </linearGradient>
  <clipPath id="artclip"><rect x="52" y="150" width="646" height="410" rx="14"/></clipPath>
</defs>
<rect x="6" y="6" width="738" height="1038" rx="36" fill="url(#bggrad)" stroke="#274a35" stroke-width="6"/>
<rect x="22" y="22" width="706" height="1006" rx="26" fill="none" stroke="#c9814a" stroke-width="2" opacity="0.55"/>
<circle cx="600" cy="800" r="7" fill="none" stroke="#c9814a" stroke-width="4" opacity="0.1"/><path d="M 600 800 L 550 800 L 400 950 L 400 850" fill="none" stroke="#c9814a" stroke-width="4" stroke-linecap="round" stroke-linejoin="round" opacity="0.1"/><rect x="392" y="842" width="16" height="16" fill="#c9814a" opacity="0.1"/><circle cx="200" cy="925" r="7" fill="none" stroke="#c9814a" stroke-width="4" opacity="0.1"/><path d="M 200 925 L 250 975 L 325 975 L 325 980" fill="none" stroke="#c9814a" stroke-width="4" stroke-linecap="round" stroke-linejoin="round" opacity="0.1"/><circle cx="325" cy="980" r="9" fill="#122419" stroke="#c9814a" stroke-width="4" opacity="0.1"/><circle cx="425" cy="950" r="7" fill="none" stroke="#c9814a" stroke-width="4" opacity="0.1"/><path d="M 425 950 L 300 825 L 150 825 L 150 675" fill="none" stroke="#c9814a" stroke-width="4" stroke-linecap="round" stroke-linejoin="round" opacity="0.1"/><circle cx="150" cy="675" r="9" fill="#122419" stroke="#c9814a" stroke-width="4" opacity="0.1"/><circle cx="300" cy="625" r="7" fill="none" stroke="#c9814a" stroke-width="4" opacity="0.1"/><path d="M 300 625 L 300 750 L 225 750 L 225 625" fill="none" stroke="#c9814a" stroke-width="4" stroke-linecap="round" stroke-linejoin="round" opacity="0.1"/><circle cx="225" cy="625" r="9" fill="#122419" stroke="#c9814a" stroke-width="4" opacity="0.1"/><circle cx="500" cy="875" r="7" fill="none" stroke="#c9814a" stroke-width="4" opacity="0.1"/><path d="M 500 875 L 650 875 L 650 750" fill="none" stroke="#c9814a" stroke-width="4" stroke-linecap="round" stroke-linejoin="round" opacity="0.1"/><circle cx="650" cy="750" r="9" fill="#122419" stroke="#c9814a" stroke-width="4" opacity="0.1"/><rect x="175" y="675" width="14" height="20" fill="#c9814a" opacity="0.09000000000000001"/><rect x="197" y="675" width="14" height="20" fill="#c9814a" opacity="0.09000000000000001"/><rect x="219" y="675" width="14" height="20" fill="#c9814a" opacity="0.09000000000000001"/><rect x="241" y="675" width="14" height="20" fill="#c9814a" opacity="0.09000000000000001"/>
<g clip-path="url(#artclip)">
  <rect x="52" y="150" width="646" height="410" fill="#0c1811"/>
  <circle cx="325" cy="350" r="7" fill="none" stroke="#c9814a" stroke-width="4" opacity="0.3"/><path d="M 325 350 L 450 475" fill="none" stroke="#c9814a" stroke-width="4" stroke-linecap="round" stroke-linejoin="round" opacity="0.3"/><circle cx="450" cy="475" r="9" fill="#122419" stroke="#c9814a" stroke-width="4" opacity="0.3"/><circle cx="225" cy="300" r="7" fill="none" stroke="#c9814a" stroke-width="4" opacity="0.3"/><path d="M 225 300 L 225 425" fill="none" stroke="#c9814a" stroke-width="4" stroke-linecap="round" stroke-linejoin="round" opacity="0.3"/><circle cx="225" cy="425" r="9" fill="#122419" stroke="#c9814a" stroke-width="4" opacity="0.3"/><circle cx="250" cy="250" r="7" fill="none" stroke="#c9814a" stroke-width="4" opacity="0.3"/><path d="M 250 250 L 250 350 L 125 350" fill="none" stroke="#c9814a" stroke-width="4" stroke-linecap="round" stroke-linejoin="round" opacity="0.3"/><circle cx="125" cy="350" r="9" fill="#122419" stroke="#c9814a" stroke-width="4" opacity="0.3"/><circle cx="525" cy="500" r="7" fill="none" stroke="#c9814a" stroke-width="4" opacity="0.3"/><path d="M 525 500 L 375 500" fill="none" stroke="#c9814a" stroke-width="4" stroke-linecap="round" stroke-linejoin="round" opacity="0.3"/><rect x="367" y="492" width="16" height="16" fill="#c9814a" opacity="0.3"/><circle cx="675" cy="300" r="7" fill="none" stroke="#c9814a" stroke-width="4" opacity="0.3"/><path d="M 675 300 L 525 300" fill="none" stroke="#c9814a" stroke-width="4" stroke-linecap="round" stroke-linejoin="round" opacity="0.3"/><rect x="517" y="292" width="16" height="16" fill="#c9814a" opacity="0.3"/><circle cx="300" cy="500" r="7" fill="none" stroke="#c9814a" stroke-width="4" opacity="0.3"/><path d="M 300 500 L 450 350" fill="none" stroke="#c9814a" stroke-width="4" stroke-linecap="round" stroke-linejoin="round" opacity="0.3"/><circle cx="450" cy="350" r="9" fill="#122419" stroke="#c9814a" stroke-width="4" opacity="0.3"/><circle cx="275" cy="300" r="7" fill="none" stroke="#c9814a" stroke-width="4" opacity="0.3"/><path d="M 275 300 L 275 450 L 400 325" fill="none" stroke="#c9814a" stroke-width="4" stroke-linecap="round" stroke-linejoin="round" opacity="0.3"/><circle cx="400" cy="325" r="9" fill="#122419" stroke="#c9814a" stroke-width="4" opacity="0.3"/><circle cx="675" cy="200" r="7" fill="none" stroke="#c9814a" stroke-width="4" opacity="0.3"/><path d="M 675 200 L 675 300 L 690 300 L 690 250" fill="none" stroke="#c9814a" stroke-width="4" stroke-linecap="round" stroke-linejoin="round" opacity="0.3"/><rect x="682" y="242" width="16" height="16" fill="#c9814a" opacity="0.3"/><circle cx="225" cy="525" r="7" fill="none" stroke="#c9814a" stroke-width="4" opacity="0.3"/><path d="M 225 525 L 225 375 L 275 375 L 275 525" fill="none" stroke="#c9814a" stroke-width="4" stroke-linecap="round" stroke-linejoin="round" opacity="0.3"/><rect x="267" y="517" width="16" height="16" fill="#c9814a" opacity="0.3"/><rect x="75" y="525" width="14" height="20" fill="#c9814a" opacity="0.27"/><rect x="97" y="525" width="14" height="20" fill="#c9814a" opacity="0.27"/><rect x="119" y="525" width="14" height="20" fill="#c9814a" opacity="0.27"/><rect x="141" y="525" width="14" height="20" fill="#c9814a" opacity="0.27"/>
  <circle cx="525" cy="475" r="7" fill="none" stroke="#5fe0a0" stroke-width="4" opacity="0.22"/><path d="M 525 475 L 375 475 L 275 550" fill="none" stroke="#5fe0a0" stroke-width="4" stroke-linecap="round" stroke-linejoin="round" opacity="0.22"/><circle cx="275" cy="550" r="9" fill="#122419" stroke="#5fe0a0" stroke-width="4" opacity="0.22"/><circle cx="325" cy="275" r="7" fill="none" stroke="#5fe0a0" stroke-width="4" opacity="0.22"/><path d="M 325 275 L 325 200 L 475 350 L 350 350" fill="none" stroke="#5fe0a0" stroke-width="4" stroke-linecap="round" stroke-linejoin="round" opacity="0.22"/><rect x="342" y="342" width="16" height="16" fill="#5fe0a0" opacity="0.22"/><circle cx="100" cy="375" r="7" fill="none" stroke="#5fe0a0" stroke-width="4" opacity="0.22"/><path d="M 100 375 L 60 525 L 60 550" fill="none" stroke="#5fe0a0" stroke-width="4" stroke-linecap="round" stroke-linejoin="round" opacity="0.22"/><circle cx="60" cy="550" r="9" fill="#122419" stroke="#5fe0a0" stroke-width="4" opacity="0.22"/><rect x="125" y="475" width="14" height="20" fill="#5fe0a0" opacity="0.198"/><rect x="147" y="475" width="14" height="20" fill="#5fe0a0" opacity="0.198"/><rect x="169" y="475" width="14" height="20" fill="#5fe0a0" opacity="0.198"/><rect x="191" y="475" width="14" height="20" fill="#5fe0a0" opacity="0.198"/>
  <g transform="translate(375 345) scale(0.951) translate(-375 -345)"><line x1="375" y1="345" x2="263" y2="233" stroke="#5fe0a0" stroke-width="12" stroke-linecap="round"/><line x1="375" y1="345" x2="487" y2="233" stroke="#5fe0a0" stroke-width="12" stroke-linecap="round"/><line x1="375" y1="345" x2="263" y2="457" stroke="#5fe0a0" stroke-width="12" stroke-linecap="round"/><line x1="375" y1="345" x2="487" y2="457" stroke="#5fe0a0" stroke-width="12" stroke-linecap="round"/>
      <circle cx="263" cy="233" r="52" fill="none" stroke="#5fe0a0" stroke-width="8" opacity="0.85"/>
      <circle cx="263" cy="233" r="10" fill="#5fe0a0"/><circle cx="487" cy="233" r="52" fill="none" stroke="#5fe0a0" stroke-width="8" opacity="0.85"/>
      <circle cx="487" cy="233" r="10" fill="#5fe0a0"/><circle cx="263" cy="457" r="52" fill="none" stroke="#5fe0a0" stroke-width="8" opacity="0.85"/>
      <circle cx="263" cy="457" r="10" fill="#5fe0a0"/><circle cx="487" cy="457" r="52" fill="none" stroke="#5fe0a0" stroke-width="8" opacity="0.85"/>
      <circle cx="487" cy="457" r="10" fill="#5fe0a0"/>
      <rect x="327" y="311" width="96" height="68" rx="16" fill="#173021" stroke="#5fe0a0" stroke-width="10"/>
      <circle cx="375" cy="345" r="13" fill="#5fe0a0"/></g>
</g>
<rect x="52" y="150" width="646" height="410" rx="14" fill="none" stroke="#274a35" stroke-width="3"/>
<text x="200" y="102" font-family="DejaVu Sans Condensed" font-weight="bold" font-size="46"
  letter-spacing="2" fill="#dbe7de">FRAGTDRONE</text>
<polygon points="95,28 152,61 152,127 95,160 38,127 38,61" fill="#f0b23e" stroke="#1c1405" stroke-width="4"/>
<text x="95" y="118" text-anchor="middle" font-family="DejaVu Sans" font-weight="bold" font-size="74" fill="#1c1405">5</text>
<text x="375" y="608" text-anchor="middle" font-family="DejaVu Sans Mono" font-size="26" letter-spacing="3"
  fill="#87a693">ENHED · DRONE</text>
<line x1="80" y1="626" x2="670" y2="626" stroke="#274a35" stroke-width="2"/>
<text x="375" y="742.6" text-anchor="middle" font-family="DejaVu Sans" font-size="30"
       fill="#dbe7de">Installation: Tilkald to 1/1 Nanodroner</text>
<text x="375" y="784.0" text-anchor="middle" font-family="DejaVu Sans" font-size="30"
       fill="#dbe7de">med Turbo.</text>

    <circle cx="95" cy="935" r="56" fill="#0c1811" stroke="#f0b23e" stroke-width="7"/>
    <text x="95" y="954" text-anchor="middle" font-family="DejaVu Sans" font-weight="bold" font-size="56" fill="#f0b23e">3</text>
    <circle cx="655" cy="935" r="56" fill="#0c1811" stroke="#5fe0a0" stroke-width="7"/>
    <text x="655" y="954" text-anchor="middle" font-family="DejaVu Sans" font-weight="bold" font-size="56" fill="#5fe0a0">4</text>
<rect x="70" y="1004" width="22" height="30" fill="url(#guldgrad)"/><rect x="104" y="1004" width="22" height="30" fill="url(#guldgrad)"/><rect x="138" y="1004" width="22" height="30" fill="url(#guldgrad)"/><rect x="172" y="1004" width="22" height="30" fill="url(#guldgrad)"/><rect x="206" y="1004" width="22" height="30" fill="url(#guldgrad)"/><rect x="240" y="1004" width="22" height="30" fill="url(#guldgrad)"/><rect x="274" y="1004" width="22" height="30" fill="url(#guldgrad)"/><rect x="308" y="1004" width="22" height="30" fill="url(#guldgrad)"/><rect x="342" y="1004" width="22" height="30" fill="url(#guldgrad)"/><rect x="376" y="1004" width="22" height="30" fill="url(#guldgrad)"/><rect x="410" y="1004" width="22" height="30" fill="url(#guldgrad)"/><rect x="444" y="1004" width="22" height="30" fill="url(#guldgrad)"/><rect x="478" y="1004" width="22" height="30" fill="url(#guldgrad)"/><rect x="512" y="1004" width="22" height="30" fill="url(#guldgrad)"/><rect x="546" y="1004" width="22" height="30" fill="url(#guldgrad)"/><rect x="580" y="1004" width="22" height="30" fill="url(#guldgrad)"/><rect x="614" y="1004" width="22" height="30" fill="url(#guldgrad)"/><rect x="648" y="1004" width="22" height="30" fill="url(#guldgrad)"/>
<rect x="60" y="1000" width="630" height="4" fill="#c9814a" opacity="0.5"/>
</svg>