<svg xmlns="http://www.w3.org/2000/svg" width="750" height="1050" viewBox="0 0 750 1050">
<defs>
  <linearGradient id="bggrad" x1="0" y1="0" x2="0" y2="1">
    <stop offset="0" stop-color="#0a4a2c"/><stop offset="0.5" stop-color="#062e1b"/><stop offset="1" stop-color="#02120a"/>
  </linearGradient>
  <radialGradient id="artgrad" cx="0.5" cy="0.42" r="0.75">
    <stop offset="0" stop-color="#0b3e20"/><stop offset="1" stop-color="#04220f"/>
  </radialGradient>
  <linearGradient id="guldgrad" x1="0" y1="0" x2="0" y2="1">
    <stop offset="0" stop-color="#ffd166"/><stop offset="1" stop-color="#9a7422"/>
  </linearGradient>
  <clipPath id="artclip"><rect x="52" y="150" width="646" height="410" rx="14"/></clipPath>
</defs>
<rect x="6" y="6" width="738" height="1038" rx="36" fill="url(#bggrad)" stroke="#33e88a" stroke-width="6"/>
<rect x="22" y="22" width="706" height="1006" rx="26" fill="none" stroke="#33e88a" stroke-width="2" opacity="0.7"/>
<circle cx="600" cy="700" r="7" fill="none" stroke="#c9814a" stroke-width="4" opacity="0.1"/><path d="M 600 700 L 650 700" fill="none" stroke="#c9814a" stroke-width="4" stroke-linecap="round" stroke-linejoin="round" opacity="0.1"/><circle cx="650" cy="700" r="9" fill="#122419" stroke="#c9814a" stroke-width="4" opacity="0.1"/><circle cx="275" cy="775" r="7" fill="none" stroke="#c9814a" stroke-width="4" opacity="0.1"/><path d="M 275 775 L 375 775" fill="none" stroke="#c9814a" stroke-width="4" stroke-linecap="round" stroke-linejoin="round" opacity="0.1"/><circle cx="375" cy="775" r="9" fill="#122419" stroke="#c9814a" stroke-width="4" opacity="0.1"/><circle cx="650" cy="975" r="7" fill="none" stroke="#c9814a" stroke-width="4" opacity="0.1"/><path d="M 650 975 L 650 980 L 710 980 L 710 930" fill="none" stroke="#c9814a" stroke-width="4" stroke-linecap="round" stroke-linejoin="round" opacity="0.1"/><circle cx="710" cy="930" r="9" fill="#122419" stroke="#c9814a" stroke-width="4" opacity="0.1"/><circle cx="575" cy="775" r="7" fill="none" stroke="#c9814a" stroke-width="4" opacity="0.1"/><path d="M 575 775 L 425 925 L 275 925 L 275 850" fill="none" stroke="#c9814a" stroke-width="4" stroke-linecap="round" stroke-linejoin="round" opacity="0.1"/><circle cx="275" cy="850" r="9" fill="#122419" stroke="#c9814a" stroke-width="4" opacity="0.1"/><circle cx="375" cy="650" r="7" fill="none" stroke="#c9814a" stroke-width="4" opacity="0.1"/><path d="M 375 650 L 375 800 L 325 800 L 325 875" fill="none" stroke="#c9814a" stroke-width="4" stroke-linecap="round" stroke-linejoin="round" opacity="0.1"/><circle cx="325" cy="875" r="9" fill="#122419" stroke="#c9814a" stroke-width="4" opacity="0.1"/><rect x="500" y="675" width="14" height="20" fill="#c9814a" opacity="0.09000000000000001"/><rect x="522" y="675" width="14" height="20" fill="#c9814a" opacity="0.09000000000000001"/><rect x="544" y="675" width="14" height="20" fill="#c9814a" opacity="0.09000000000000001"/><rect x="566" y="675" width="14" height="20" fill="#c9814a" opacity="0.09000000000000001"/>
<g clip-path="url(#artclip)">
  <rect x="52" y="150" width="646" height="410" fill="url(#artgrad)"/>
  <circle cx="250" cy="275" r="7" fill="none" stroke="#c9814a" stroke-width="4" opacity="0.3"/><path d="M 250 275 L 150 275 L 225 200" fill="none" stroke="#c9814a" stroke-width="4" stroke-linecap="round" stroke-linejoin="round" opacity="0.3"/><circle cx="225" cy="200" r="9" fill="#122419" stroke="#c9814a" stroke-width="4" opacity="0.3"/><circle cx="250" cy="450" r="7" fill="none" stroke="#c9814a" stroke-width="4" opacity="0.3"/><path d="M 250 450 L 250 550 L 325 550 L 325 400" fill="none" stroke="#c9814a" stroke-width="4" stroke-linecap="round" stroke-linejoin="round" opacity="0.3"/><circle cx="325" cy="400" r="9" fill="#122419" stroke="#c9814a" stroke-width="4" opacity="0.3"/><circle cx="375" cy="225" r="7" fill="none" stroke="#c9814a" stroke-width="4" opacity="0.3"/><path d="M 375 225 L 425 225" fill="none" stroke="#c9814a" stroke-width="4" stroke-linecap="round" stroke-linejoin="round" opacity="0.3"/><circle cx="425" cy="225" r="9" fill="#122419" stroke="#c9814a" stroke-width="4" opacity="0.3"/><circle cx="300" cy="400" r="7" fill="none" stroke="#c9814a" stroke-width="4" opacity="0.3"/><path d="M 300 400 L 300 475 L 225 475 L 150 550" fill="none" stroke="#c9814a" stroke-width="4" stroke-linecap="round" stroke-linejoin="round" opacity="0.3"/><circle cx="150" cy="550" r="9" fill="#122419" stroke="#c9814a" stroke-width="4" opacity="0.3"/><circle cx="625" cy="200" r="7" fill="none" stroke="#c9814a" stroke-width="4" opacity="0.3"/><path d="M 625 200 L 690 200" fill="none" stroke="#c9814a" stroke-width="4" stroke-linecap="round" stroke-linejoin="round" opacity="0.3"/><circle cx="690" cy="200" r="9" fill="#122419" stroke="#c9814a" stroke-width="4" opacity="0.3"/><circle cx="550" cy="275" r="7" fill="none" stroke="#c9814a" stroke-width="4" opacity="0.3"/><path d="M 550 275 L 400 160" fill="none" stroke="#c9814a" stroke-width="4" stroke-linecap="round" stroke-linejoin="round" opacity="0.3"/><rect x="392" y="152" width="16" height="16" fill="#c9814a" opacity="0.3"/><circle cx="450" cy="275" r="7" fill="none" stroke="#c9814a" stroke-width="4" opacity="0.3"/><path d="M 450 275 L 450 160 L 325 160 L 325 235" fill="none" stroke="#c9814a" stroke-width="4" stroke-linecap="round" stroke-linejoin="round" opacity="0.3"/><circle cx="325" cy="235" r="9" fill="#122419" stroke="#c9814a" stroke-width="4" opacity="0.3"/><circle cx="575" cy="350" r="7" fill="none" stroke="#c9814a" stroke-width="4" opacity="0.3"/><path d="M 575 350 L 675 450 L 575 450" fill="none" stroke="#c9814a" stroke-width="4" stroke-linecap="round" stroke-linejoin="round" opacity="0.3"/><rect x="567" y="442" width="16" height="16" fill="#c9814a" opacity="0.3"/><circle cx="275" cy="325" r="7" fill="none" stroke="#c9814a" stroke-width="4" opacity="0.3"/><path d="M 275 325 L 275 275 L 425 275 L 425 225" fill="none" stroke="#c9814a" stroke-width="4" stroke-linecap="round" stroke-linejoin="round" opacity="0.3"/><circle cx="425" cy="225" r="9" fill="#122419" stroke="#c9814a" stroke-width="4" opacity="0.3"/><rect x="325" y="550" width="14" height="20" fill="#c9814a" opacity="0.27"/><rect x="347" y="550" width="14" height="20" fill="#c9814a" opacity="0.27"/><rect x="369" y="550" width="14" height="20" fill="#c9814a" opacity="0.27"/><rect x="391" y="550" width="14" height="20" fill="#c9814a" opacity="0.27"/>
  <circle cx="575" cy="475" r="7" fill="none" stroke="#5fe0a0" stroke-width="4" opacity="0.22"/><path d="M 575 475 L 690 475 L 690 350 L 690 425" fill="none" stroke="#5fe0a0" stroke-width="4" stroke-linecap="round" stroke-linejoin="round" opacity="0.22"/><rect x="682" y="417" width="16" height="16" fill="#5fe0a0" opacity="0.22"/><circle cx="200" cy="475" r="7" fill="none" stroke="#5fe0a0" stroke-width="4" opacity="0.22"/><path d="M 200 475 L 250 525" fill="none" stroke="#5fe0a0" stroke-width="4" stroke-linecap="round" stroke-linejoin="round" opacity="0.22"/><rect x="242" y="517" width="16" height="16" fill="#5fe0a0" opacity="0.22"/><circle cx="525" cy="500" r="7" fill="none" stroke="#5fe0a0" stroke-width="4" opacity="0.22"/><path d="M 525 500 L 400 550 L 525 550 L 400 550" fill="none" stroke="#5fe0a0" stroke-width="4" stroke-linecap="round" stroke-linejoin="round" opacity="0.22"/><circle cx="400" cy="550" r="9" fill="#122419" stroke="#5fe0a0" stroke-width="4" opacity="0.22"/><rect x="575" y="425" width="14" height="20" fill="#5fe0a0" opacity="0.198"/><rect x="597" y="425" width="14" height="20" fill="#5fe0a0" opacity="0.198"/><rect x="619" y="425" width="14" height="20" fill="#5fe0a0" opacity="0.198"/><rect x="641" y="425" width="14" height="20" fill="#5fe0a0" opacity="0.198"/>
  <g transform="translate(375 345) scale(1.040) translate(-375 -345)"><line x1="375" y1="345" x2="263" y2="233" stroke="#5fe0a0" stroke-width="12" stroke-linecap="round"/><line x1="375" y1="345" x2="487" y2="233" stroke="#5fe0a0" stroke-width="12" stroke-linecap="round"/><line x1="375" y1="345" x2="263" y2="457" stroke="#5fe0a0" stroke-width="12" stroke-linecap="round"/><line x1="375" y1="345" x2="487" y2="457" stroke="#5fe0a0" stroke-width="12" stroke-linecap="round"/><circle cx="263" cy="233" r="52" fill="none" stroke="#5fe0a0" stroke-width="8"/><circle cx="263" cy="233" r="10" fill="#5fe0a0"/><circle cx="487" cy="233" r="52" fill="none" stroke="#5fe0a0" stroke-width="8"/><circle cx="487" cy="233" r="10" fill="#5fe0a0"/><circle cx="263" cy="457" r="52" fill="none" stroke="#5fe0a0" stroke-width="8"/><circle cx="263" cy="457" r="10" fill="#5fe0a0"/><circle cx="487" cy="457" r="52" fill="none" stroke="#5fe0a0" stroke-width="8"/><circle cx="487" cy="457" r="10" fill="#5fe0a0"/><circle cx="375" cy="345" r="40" fill="#173021" stroke="#5fe0a0" stroke-width="10"/><circle cx="375" cy="345" r="13" fill="#5fe0a0"/></g>
</g>
<rect x="52" y="150" width="646" height="410" rx="14" fill="none" stroke="#274a35" stroke-width="3"/>
<text x="200" y="102" font-family="DejaVu Sans Condensed" font-weight="bold" font-size="46"
  letter-spacing="2" fill="#dbe7de">FIGHTER DRONE</text>
<polygon points="95,28 152,61 152,127 95,160 38,127 38,61" fill="#f0b23e" stroke="#1c1405" stroke-width="4"/>
<text x="95" y="118" text-anchor="middle" font-family="DejaVu Sans" font-weight="bold" font-size="74" fill="#1c1405">4</text>
<text x="375" y="608" text-anchor="middle" font-family="DejaVu Sans Mono" font-size="26" letter-spacing="3"
  fill="#87a693">UNIT · DRONE</text>
<line x1="80" y1="626" x2="670" y2="626" stroke="#33e88a" stroke-width="2" opacity="0.5"/>
<rect x="46" y="640" width="658" height="236" rx="16" fill="#08492a" opacity="0.55"/>
<text x="375" y="763.3" text-anchor="middle" font-family="DejaVu Sans" font-size="30"
       fill="#dbe7de">Turbo.</text>

    <circle cx="95" cy="935" r="56" fill="#0c1811" stroke="#f0b23e" stroke-width="7"/>
    <text x="95" y="954" text-anchor="middle" font-family="DejaVu Sans" font-weight="bold" font-size="56" fill="#f0b23e">4</text>
    <circle cx="655" cy="935" r="56" fill="#0c1811" stroke="#5fe0a0" stroke-width="7"/>
    <text x="655" y="954" text-anchor="middle" font-family="DejaVu Sans" font-weight="bold" font-size="56" fill="#5fe0a0">3</text>
<rect x="70" y="1004" width="22" height="30" fill="url(#guldgrad)"/><rect x="104" y="1004" width="22" height="30" fill="url(#guldgrad)"/><rect x="138" y="1004" width="22" height="30" fill="url(#guldgrad)"/><rect x="172" y="1004" width="22" height="30" fill="url(#guldgrad)"/><rect x="206" y="1004" width="22" height="30" fill="url(#guldgrad)"/><rect x="240" y="1004" width="22" height="30" fill="url(#guldgrad)"/><rect x="274" y="1004" width="22" height="30" fill="url(#guldgrad)"/><rect x="308" y="1004" width="22" height="30" fill="url(#guldgrad)"/><rect x="342" y="1004" width="22" height="30" fill="url(#guldgrad)"/><rect x="376" y="1004" width="22" height="30" fill="url(#guldgrad)"/><rect x="410" y="1004" width="22" height="30" fill="url(#guldgrad)"/><rect x="444" y="1004" width="22" height="30" fill="url(#guldgrad)"/><rect x="478" y="1004" width="22" height="30" fill="url(#guldgrad)"/><rect x="512" y="1004" width="22" height="30" fill="url(#guldgrad)"/><rect x="546" y="1004" width="22" height="30" fill="url(#guldgrad)"/><rect x="580" y="1004" width="22" height="30" fill="url(#guldgrad)"/><rect x="614" y="1004" width="22" height="30" fill="url(#guldgrad)"/><rect x="648" y="1004" width="22" height="30" fill="url(#guldgrad)"/>
<rect x="60" y="1000" width="630" height="4" fill="#c9814a" opacity="0.5"/>
</svg>