<svg xmlns="http://www.w3.org/2000/svg" width="750" height="1050" viewBox="0 0 750 1050">
<defs>
  <linearGradient id="bggrad" x1="0" y1="0" x2="0" y2="1">
    <stop offset="0" stop-color="#0a4a2c"/><stop offset="0.5" stop-color="#062e1b"/><stop offset="1" stop-color="#02120a"/>
  </linearGradient>
  <radialGradient id="artgrad" cx="0.5" cy="0.42" r="0.75">
    <stop offset="0" stop-color="#0b3e20"/><stop offset="1" stop-color="#04220f"/>
  </radialGradient>
  <linearGradient id="guldgrad" x1="0" y1="0" x2="0" y2="1">
    <stop offset="0" stop-color="#ffd166"/><stop offset="1" stop-color="#9a7422"/>
  </linearGradient>
  <clipPath id="artclip"><rect x="52" y="150" width="646" height="410" rx="14"/></clipPath>
</defs>
<rect x="6" y="6" width="738" height="1038" rx="36" fill="url(#bggrad)" stroke="#33e88a" stroke-width="6"/>
<rect x="22" y="22" width="706" height="1006" rx="26" fill="none" stroke="#33e88a" stroke-width="2" opacity="0.7"/>
<circle cx="700" cy="875" r="7" fill="none" stroke="#c9814a" stroke-width="4" opacity="0.1"/><path d="M 700 875 L 710 875 L 710 750" fill="none" stroke="#c9814a" stroke-width="4" stroke-linecap="round" stroke-linejoin="round" opacity="0.1"/><circle cx="710" cy="750" r="9" fill="#122419" stroke="#c9814a" stroke-width="4" opacity="0.1"/><circle cx="125" cy="800" r="7" fill="none" stroke="#c9814a" stroke-width="4" opacity="0.1"/><path d="M 125 800 L 275 800" fill="none" stroke="#c9814a" stroke-width="4" stroke-linecap="round" stroke-linejoin="round" opacity="0.1"/><circle cx="275" cy="800" r="9" fill="#122419" stroke="#c9814a" stroke-width="4" opacity="0.1"/><circle cx="625" cy="800" r="7" fill="none" stroke="#c9814a" stroke-width="4" opacity="0.1"/><path d="M 625 800 L 700 875" fill="none" stroke="#c9814a" stroke-width="4" stroke-linecap="round" stroke-linejoin="round" opacity="0.1"/><rect x="692" y="867" width="16" height="16" fill="#c9814a" opacity="0.1"/><circle cx="200" cy="775" r="7" fill="none" stroke="#c9814a" stroke-width="4" opacity="0.1"/><path d="M 200 775 L 350 775 L 225 650" fill="none" stroke="#c9814a" stroke-width="4" stroke-linecap="round" stroke-linejoin="round" opacity="0.1"/><circle cx="225" cy="650" r="9" fill="#122419" stroke="#c9814a" stroke-width="4" opacity="0.1"/><circle cx="225" cy="675" r="7" fill="none" stroke="#c9814a" stroke-width="4" opacity="0.1"/><path d="M 225 675 L 175 725 L 75 825" fill="none" stroke="#c9814a" stroke-width="4" stroke-linecap="round" stroke-linejoin="round" opacity="0.1"/><rect x="67" y="817" width="16" height="16" fill="#c9814a" opacity="0.1"/><rect x="450" y="825" width="14" height="20" fill="#c9814a" opacity="0.09000000000000001"/><rect x="472" y="825" width="14" height="20" fill="#c9814a" opacity="0.09000000000000001"/><rect x="494" y="825" width="14" height="20" fill="#c9814a" opacity="0.09000000000000001"/><rect x="516" y="825" width="14" height="20" fill="#c9814a" opacity="0.09000000000000001"/>
<g clip-path="url(#artclip)">
  <rect x="52" y="150" width="646" height="410" fill="url(#artgrad)"/>
  <circle cx="525" cy="325" r="7" fill="none" stroke="#c9814a" stroke-width="4" opacity="0.3"/><path d="M 525 325 L 375 325 L 375 275 L 275 275" fill="none" stroke="#c9814a" stroke-width="4" stroke-linecap="round" stroke-linejoin="round" opacity="0.3"/><circle cx="275" cy="275" r="9" fill="#122419" stroke="#c9814a" stroke-width="4" opacity="0.3"/><circle cx="300" cy="425" r="7" fill="none" stroke="#c9814a" stroke-width="4" opacity="0.3"/><path d="M 300 425 L 225 500 L 225 450" fill="none" stroke="#c9814a" stroke-width="4" stroke-linecap="round" stroke-linejoin="round" opacity="0.3"/><circle cx="225" cy="450" r="9" fill="#122419" stroke="#c9814a" stroke-width="4" opacity="0.3"/><circle cx="475" cy="500" r="7" fill="none" stroke="#c9814a" stroke-width="4" opacity="0.3"/><path d="M 475 500 L 525 500 L 525 550 L 400 550" fill="none" stroke="#c9814a" stroke-width="4" stroke-linecap="round" stroke-linejoin="round" opacity="0.3"/><rect x="392" y="542" width="16" height="16" fill="#c9814a" opacity="0.3"/><circle cx="650" cy="525" r="7" fill="none" stroke="#c9814a" stroke-width="4" opacity="0.3"/><path d="M 650 525 L 650 375 L 575 375" fill="none" stroke="#c9814a" stroke-width="4" stroke-linecap="round" stroke-linejoin="round" opacity="0.3"/><circle cx="575" cy="375" r="9" fill="#122419" stroke="#c9814a" stroke-width="4" opacity="0.3"/><circle cx="75" cy="550" r="7" fill="none" stroke="#c9814a" stroke-width="4" opacity="0.3"/><path d="M 75 550 L 60 550 L 60 475" fill="none" stroke="#c9814a" stroke-width="4" stroke-linecap="round" stroke-linejoin="round" opacity="0.3"/><circle cx="60" cy="475" r="9" fill="#122419" stroke="#c9814a" stroke-width="4" opacity="0.3"/><circle cx="400" cy="325" r="7" fill="none" stroke="#c9814a" stroke-width="4" opacity="0.3"/><path d="M 400 325 L 325 400" fill="none" stroke="#c9814a" stroke-width="4" stroke-linecap="round" stroke-linejoin="round" opacity="0.3"/><circle cx="325" cy="400" r="9" fill="#122419" stroke="#c9814a" stroke-width="4" opacity="0.3"/><circle cx="225" cy="250" r="7" fill="none" stroke="#c9814a" stroke-width="4" opacity="0.3"/><path d="M 225 250 L 225 175" fill="none" stroke="#c9814a" stroke-width="4" stroke-linecap="round" stroke-linejoin="round" opacity="0.3"/><circle cx="225" cy="175" r="9" fill="#122419" stroke="#c9814a" stroke-width="4" opacity="0.3"/><circle cx="325" cy="525" r="7" fill="none" stroke="#c9814a" stroke-width="4" opacity="0.3"/><path d="M 325 525 L 375 550 L 425 500" fill="none" stroke="#c9814a" stroke-width="4" stroke-linecap="round" stroke-linejoin="round" opacity="0.3"/><circle cx="425" cy="500" r="9" fill="#122419" stroke="#c9814a" stroke-width="4" opacity="0.3"/><circle cx="475" cy="375" r="7" fill="none" stroke="#c9814a" stroke-width="4" opacity="0.3"/><path d="M 475 375 L 350 375 L 400 425" fill="none" stroke="#c9814a" stroke-width="4" stroke-linecap="round" stroke-linejoin="round" opacity="0.3"/><circle cx="400" cy="425" r="9" fill="#122419" stroke="#c9814a" stroke-width="4" opacity="0.3"/><rect x="350" y="300" width="14" height="20" fill="#c9814a" opacity="0.27"/><rect x="372" y="300" width="14" height="20" fill="#c9814a" opacity="0.27"/><rect x="394" y="300" width="14" height="20" fill="#c9814a" opacity="0.27"/><rect x="416" y="300" width="14" height="20" fill="#c9814a" opacity="0.27"/>
  <circle cx="175" cy="425" r="7" fill="none" stroke="#5fe0a0" stroke-width="4" opacity="0.22"/><path d="M 175 425 L 175 325" fill="none" stroke="#5fe0a0" stroke-width="4" stroke-linecap="round" stroke-linejoin="round" opacity="0.22"/><rect x="167" y="317" width="16" height="16" fill="#5fe0a0" opacity="0.22"/><circle cx="550" cy="375" r="7" fill="none" stroke="#5fe0a0" stroke-width="4" opacity="0.22"/><path d="M 550 375 L 550 500 L 625 550 L 525 550" fill="none" stroke="#5fe0a0" stroke-width="4" stroke-linecap="round" stroke-linejoin="round" opacity="0.22"/><rect x="517" y="542" width="16" height="16" fill="#5fe0a0" opacity="0.22"/><circle cx="125" cy="350" r="7" fill="none" stroke="#5fe0a0" stroke-width="4" opacity="0.22"/><path d="M 125 350 L 275 200" fill="none" stroke="#5fe0a0" stroke-width="4" stroke-linecap="round" stroke-linejoin="round" opacity="0.22"/><circle cx="275" cy="200" r="9" fill="#122419" stroke="#5fe0a0" stroke-width="4" opacity="0.22"/><rect x="150" y="275" width="14" height="20" fill="#5fe0a0" opacity="0.198"/><rect x="172" y="275" width="14" height="20" fill="#5fe0a0" opacity="0.198"/><rect x="194" y="275" width="14" height="20" fill="#5fe0a0" opacity="0.198"/><rect x="216" y="275" width="14" height="20" fill="#5fe0a0" opacity="0.198"/>
  <g transform="translate(375 345) scale(0.945) translate(-375 -345)"><line x1="375" y1="345" x2="263" y2="233" stroke="#5fe0a0" stroke-width="12" stroke-linecap="round"/><line x1="375" y1="345" x2="487" y2="233" stroke="#5fe0a0" stroke-width="12" stroke-linecap="round"/><line x1="375" y1="345" x2="263" y2="457" stroke="#5fe0a0" stroke-width="12" stroke-linecap="round"/><line x1="375" y1="345" x2="487" y2="457" stroke="#5fe0a0" stroke-width="12" stroke-linecap="round"/>
      <circle cx="263" cy="233" r="52" fill="none" stroke="#5fe0a0" stroke-width="8" opacity="0.85"/>
      <circle cx="263" cy="233" r="10" fill="#5fe0a0"/><circle cx="487" cy="233" r="52" fill="none" stroke="#5fe0a0" stroke-width="8" opacity="0.85"/>
      <circle cx="487" cy="233" r="10" fill="#5fe0a0"/><circle cx="263" cy="457" r="52" fill="none" stroke="#5fe0a0" stroke-width="8" opacity="0.85"/>
      <circle cx="263" cy="457" r="10" fill="#5fe0a0"/><circle cx="487" cy="457" r="52" fill="none" stroke="#5fe0a0" stroke-width="8" opacity="0.85"/>
      <circle cx="487" cy="457" r="10" fill="#5fe0a0"/>
      <rect x="327" y="311" width="96" height="68" rx="16" fill="#173021" stroke="#5fe0a0" stroke-width="10"/>
      <circle cx="375" cy="345" r="13" fill="#5fe0a0"/></g>
</g>
<rect x="52" y="150" width="646" height="410" rx="14" fill="none" stroke="#274a35" stroke-width="3"/>
<text x="200" y="102" font-family="DejaVu Sans Condensed" font-weight="bold" font-size="38"
  letter-spacing="2" fill="#dbe7de">KAMIKAZE DRONE</text>
<polygon points="95,28 152,61 152,127 95,160 38,127 38,61" fill="#f0b23e" stroke="#1c1405" stroke-width="4"/>
<text x="95" y="118" text-anchor="middle" font-family="DejaVu Sans" font-weight="bold" font-size="74" fill="#1c1405">2</text>
<text x="375" y="608" text-anchor="middle" font-family="DejaVu Sans Mono" font-size="26" letter-spacing="3"
  fill="#87a693">UNIT · DRONE</text>
<line x1="80" y1="626" x2="670" y2="626" stroke="#33e88a" stroke-width="2" opacity="0.5"/>
<rect x="46" y="640" width="658" height="236" rx="16" fill="#08492a" opacity="0.55"/>
<text x="375" y="742.6" text-anchor="middle" font-family="DejaVu Sans" font-size="30"
       fill="#dbe7de">Breakdown: Deal 2 damage to a random</text>
<text x="375" y="784.0" text-anchor="middle" font-family="DejaVu Sans" font-size="30"
       fill="#dbe7de">enemy unit.</text>

    <circle cx="95" cy="935" r="56" fill="#0c1811" stroke="#f0b23e" stroke-width="7"/>
    <text x="95" y="954" text-anchor="middle" font-family="DejaVu Sans" font-weight="bold" font-size="56" fill="#f0b23e">2</text>
    <circle cx="655" cy="935" r="56" fill="#0c1811" stroke="#5fe0a0" stroke-width="7"/>
    <text x="655" y="954" text-anchor="middle" font-family="DejaVu Sans" font-weight="bold" font-size="56" fill="#5fe0a0">1</text>
<rect x="70" y="1004" width="22" height="30" fill="url(#guldgrad)"/><rect x="104" y="1004" width="22" height="30" fill="url(#guldgrad)"/><rect x="138" y="1004" width="22" height="30" fill="url(#guldgrad)"/><rect x="172" y="1004" width="22" height="30" fill="url(#guldgrad)"/><rect x="206" y="1004" width="22" height="30" fill="url(#guldgrad)"/><rect x="240" y="1004" width="22" height="30" fill="url(#guldgrad)"/><rect x="274" y="1004" width="22" height="30" fill="url(#guldgrad)"/><rect x="308" y="1004" width="22" height="30" fill="url(#guldgrad)"/><rect x="342" y="1004" width="22" height="30" fill="url(#guldgrad)"/><rect x="376" y="1004" width="22" height="30" fill="url(#guldgrad)"/><rect x="410" y="1004" width="22" height="30" fill="url(#guldgrad)"/><rect x="444" y="1004" width="22" height="30" fill="url(#guldgrad)"/><rect x="478" y="1004" width="22" height="30" fill="url(#guldgrad)"/><rect x="512" y="1004" width="22" height="30" fill="url(#guldgrad)"/><rect x="546" y="1004" width="22" height="30" fill="url(#guldgrad)"/><rect x="580" y="1004" width="22" height="30" fill="url(#guldgrad)"/><rect x="614" y="1004" width="22" height="30" fill="url(#guldgrad)"/><rect x="648" y="1004" width="22" height="30" fill="url(#guldgrad)"/>
<rect x="60" y="1000" width="630" height="4" fill="#c9814a" opacity="0.5"/>
</svg>