<svg xmlns="http://www.w3.org/2000/svg" width="750" height="1050" viewBox="0 0 750 1050">
<defs>
  <linearGradient id="bggrad" x1="0" y1="0" x2="0" y2="1">
    <stop offset="0" stop-color="#0f3327"/><stop offset="0.5" stop-color="#0a2019"/><stop offset="1" stop-color="#05110d"/>
  </linearGradient>
  <radialGradient id="artgrad" cx="0.5" cy="0.42" r="0.75">
    <stop offset="0" stop-color="#143728"/><stop offset="1" stop-color="#081c15"/>
  </radialGradient>
  <linearGradient id="guldgrad" x1="0" y1="0" x2="0" y2="1">
    <stop offset="0" stop-color="#ffd166"/><stop offset="1" stop-color="#9a7422"/>
  </linearGradient>
  <clipPath id="artclip"><rect x="52" y="150" width="646" height="410" rx="14"/></clipPath>
</defs>
<rect x="6" y="6" width="738" height="1038" rx="36" fill="url(#bggrad)" stroke="#5fe0a0" stroke-width="6"/>
<rect x="22" y="22" width="706" height="1006" rx="26" fill="none" stroke="#5fe0a0" stroke-width="2" opacity="0.7"/>
<circle cx="300" cy="850" r="7" fill="none" stroke="#c9814a" stroke-width="4" opacity="0.1"/><path d="M 300 850 L 250 800" fill="none" stroke="#c9814a" stroke-width="4" stroke-linecap="round" stroke-linejoin="round" opacity="0.1"/><circle cx="250" cy="800" r="9" fill="#122419" stroke="#c9814a" stroke-width="4" opacity="0.1"/><circle cx="575" cy="975" r="7" fill="none" stroke="#c9814a" stroke-width="4" opacity="0.1"/><path d="M 575 975 L 500 980 L 375 980 L 475 980" fill="none" stroke="#c9814a" stroke-width="4" stroke-linecap="round" stroke-linejoin="round" opacity="0.1"/><circle cx="475" cy="980" r="9" fill="#122419" stroke="#c9814a" stroke-width="4" opacity="0.1"/><circle cx="600" cy="950" r="7" fill="none" stroke="#c9814a" stroke-width="4" opacity="0.1"/><path d="M 600 950 L 600 900" fill="none" stroke="#c9814a" stroke-width="4" stroke-linecap="round" stroke-linejoin="round" opacity="0.1"/><circle cx="600" cy="900" r="9" fill="#122419" stroke="#c9814a" stroke-width="4" opacity="0.1"/><circle cx="350" cy="825" r="7" fill="none" stroke="#c9814a" stroke-width="4" opacity="0.1"/><path d="M 350 825 L 500 825 L 500 875 L 600 875" fill="none" stroke="#c9814a" stroke-width="4" stroke-linecap="round" stroke-linejoin="round" opacity="0.1"/><rect x="592" y="867" width="16" height="16" fill="#c9814a" opacity="0.1"/><circle cx="100" cy="775" r="7" fill="none" stroke="#c9814a" stroke-width="4" opacity="0.1"/><path d="M 100 775 L 40 925 L 40 980 L 40 830" fill="none" stroke="#c9814a" stroke-width="4" stroke-linecap="round" stroke-linejoin="round" opacity="0.1"/><circle cx="40" cy="830" r="9" fill="#122419" stroke="#c9814a" stroke-width="4" opacity="0.1"/><rect x="525" y="975" width="14" height="20" fill="#c9814a" opacity="0.09000000000000001"/><rect x="547" y="975" width="14" height="20" fill="#c9814a" opacity="0.09000000000000001"/><rect x="569" y="975" width="14" height="20" fill="#c9814a" opacity="0.09000000000000001"/><rect x="591" y="975" width="14" height="20" fill="#c9814a" opacity="0.09000000000000001"/>
<g clip-path="url(#artclip)">
  <rect x="52" y="150" width="646" height="410" fill="url(#artgrad)"/>
  <circle cx="100" cy="400" r="7" fill="none" stroke="#c9814a" stroke-width="4" opacity="0.3"/><path d="M 100 400 L 60 400 L 60 525 L 60 550" fill="none" stroke="#c9814a" stroke-width="4" stroke-linecap="round" stroke-linejoin="round" opacity="0.3"/><rect x="52" y="542" width="16" height="16" fill="#c9814a" opacity="0.3"/><circle cx="125" cy="175" r="7" fill="none" stroke="#c9814a" stroke-width="4" opacity="0.3"/><path d="M 125 175 L 125 160 L 200 235" fill="none" stroke="#c9814a" stroke-width="4" stroke-linecap="round" stroke-linejoin="round" opacity="0.3"/><circle cx="200" cy="235" r="9" fill="#122419" stroke="#c9814a" stroke-width="4" opacity="0.3"/><circle cx="450" cy="400" r="7" fill="none" stroke="#c9814a" stroke-width="4" opacity="0.3"/><path d="M 450 400 L 525 400 L 600 475" fill="none" stroke="#c9814a" stroke-width="4" stroke-linecap="round" stroke-linejoin="round" opacity="0.3"/><rect x="592" y="467" width="16" height="16" fill="#c9814a" opacity="0.3"/><circle cx="400" cy="225" r="7" fill="none" stroke="#c9814a" stroke-width="4" opacity="0.3"/><path d="M 400 225 L 400 160 L 500 260 L 400 260" fill="none" stroke="#c9814a" stroke-width="4" stroke-linecap="round" stroke-linejoin="round" opacity="0.3"/><circle cx="400" cy="260" r="9" fill="#122419" stroke="#c9814a" stroke-width="4" opacity="0.3"/><circle cx="450" cy="450" r="7" fill="none" stroke="#c9814a" stroke-width="4" opacity="0.3"/><path d="M 450 450 L 550 350 L 690 350" fill="none" stroke="#c9814a" stroke-width="4" stroke-linecap="round" stroke-linejoin="round" opacity="0.3"/><rect x="682" y="342" width="16" height="16" fill="#c9814a" opacity="0.3"/><circle cx="300" cy="425" r="7" fill="none" stroke="#c9814a" stroke-width="4" opacity="0.3"/><path d="M 300 425 L 200 425 L 200 300" fill="none" stroke="#c9814a" stroke-width="4" stroke-linecap="round" stroke-linejoin="round" opacity="0.3"/><circle cx="200" cy="300" r="9" fill="#122419" stroke="#c9814a" stroke-width="4" opacity="0.3"/><circle cx="600" cy="300" r="7" fill="none" stroke="#c9814a" stroke-width="4" opacity="0.3"/><path d="M 600 300 L 690 300 L 690 400" fill="none" stroke="#c9814a" stroke-width="4" stroke-linecap="round" stroke-linejoin="round" opacity="0.3"/><rect x="682" y="392" width="16" height="16" fill="#c9814a" opacity="0.3"/><circle cx="450" cy="525" r="7" fill="none" stroke="#c9814a" stroke-width="4" opacity="0.3"/><path d="M 450 525 L 600 525 L 600 425 L 690 425" fill="none" stroke="#c9814a" stroke-width="4" stroke-linecap="round" stroke-linejoin="round" opacity="0.3"/><circle cx="690" cy="425" r="9" fill="#122419" stroke="#c9814a" stroke-width="4" opacity="0.3"/><circle cx="625" cy="500" r="7" fill="none" stroke="#c9814a" stroke-width="4" opacity="0.3"/><path d="M 625 500 L 625 550" fill="none" stroke="#c9814a" stroke-width="4" stroke-linecap="round" stroke-linejoin="round" opacity="0.3"/><circle cx="625" cy="550" r="9" fill="#122419" stroke="#c9814a" stroke-width="4" opacity="0.3"/><rect x="375" y="500" width="14" height="20" fill="#c9814a" opacity="0.27"/><rect x="397" y="500" width="14" height="20" fill="#c9814a" opacity="0.27"/><rect x="419" y="500" width="14" height="20" fill="#c9814a" opacity="0.27"/><rect x="441" y="500" width="14" height="20" fill="#c9814a" opacity="0.27"/>
  <circle cx="450" cy="325" r="7" fill="none" stroke="#5fe0a0" stroke-width="4" opacity="0.22"/><path d="M 450 325 L 525 250" fill="none" stroke="#5fe0a0" stroke-width="4" stroke-linecap="round" stroke-linejoin="round" opacity="0.22"/><rect x="517" y="242" width="16" height="16" fill="#5fe0a0" opacity="0.22"/><circle cx="650" cy="200" r="7" fill="none" stroke="#5fe0a0" stroke-width="4" opacity="0.22"/><path d="M 650 200 L 690 300" fill="none" stroke="#5fe0a0" stroke-width="4" stroke-linecap="round" stroke-linejoin="round" opacity="0.22"/><rect x="682" y="292" width="16" height="16" fill="#5fe0a0" opacity="0.22"/><circle cx="525" cy="350" r="7" fill="none" stroke="#5fe0a0" stroke-width="4" opacity="0.22"/><path d="M 525 350 L 425 350 L 425 400" fill="none" stroke="#5fe0a0" stroke-width="4" stroke-linecap="round" stroke-linejoin="round" opacity="0.22"/><rect x="417" y="392" width="16" height="16" fill="#5fe0a0" opacity="0.22"/><rect x="325" y="525" width="14" height="20" fill="#5fe0a0" opacity="0.198"/><rect x="347" y="525" width="14" height="20" fill="#5fe0a0" opacity="0.198"/><rect x="369" y="525" width="14" height="20" fill="#5fe0a0" opacity="0.198"/><rect x="391" y="525" width="14" height="20" fill="#5fe0a0" opacity="0.198"/>
  <g transform="translate(375 345) scale(1.001) translate(-375 -345)"><line x1="375" y1="345" x2="263" y2="233" stroke="#5fe0a0" stroke-width="12" stroke-linecap="round"/><line x1="375" y1="345" x2="487" y2="233" stroke="#5fe0a0" stroke-width="12" stroke-linecap="round"/><line x1="375" y1="345" x2="263" y2="457" stroke="#5fe0a0" stroke-width="12" stroke-linecap="round"/><line x1="375" y1="345" x2="487" y2="457" stroke="#5fe0a0" stroke-width="12" stroke-linecap="round"/>
      <circle cx="263" cy="233" r="52" fill="none" stroke="#5fe0a0" stroke-width="8" opacity="0.85"/>
      <circle cx="263" cy="233" r="10" fill="#5fe0a0"/><circle cx="487" cy="233" r="52" fill="none" stroke="#5fe0a0" stroke-width="8" opacity="0.85"/>
      <circle cx="487" cy="233" r="10" fill="#5fe0a0"/><circle cx="263" cy="457" r="52" fill="none" stroke="#5fe0a0" stroke-width="8" opacity="0.85"/>
      <circle cx="263" cy="457" r="10" fill="#5fe0a0"/><circle cx="487" cy="457" r="52" fill="none" stroke="#5fe0a0" stroke-width="8" opacity="0.85"/>
      <circle cx="487" cy="457" r="10" fill="#5fe0a0"/>
      <rect x="327" y="311" width="96" height="68" rx="16" fill="#173021" stroke="#5fe0a0" stroke-width="10"/>
      <circle cx="375" cy="345" r="13" fill="#5fe0a0"/></g>
</g>
<rect x="52" y="150" width="646" height="410" rx="14" fill="none" stroke="#274a35" stroke-width="3"/>
<text x="200" y="102" font-family="DejaVu Sans Condensed" font-weight="bold" font-size="46"
  letter-spacing="2" fill="#dbe7de">COMBAT DRONE</text>
<polygon points="95,28 152,61 152,127 95,160 38,127 38,61" fill="#f0b23e" stroke="#1c1405" stroke-width="4"/>
<text x="95" y="118" text-anchor="middle" font-family="DejaVu Sans" font-weight="bold" font-size="74" fill="#1c1405">2</text>
<text x="375" y="608" text-anchor="middle" font-family="DejaVu Sans Mono" font-size="26" letter-spacing="3"
  fill="#87a693">UNIT · DRONE</text>
<line x1="80" y1="626" x2="670" y2="626" stroke="#5fe0a0" stroke-width="2" opacity="0.5"/>
<rect x="46" y="640" width="658" height="236" rx="16" fill="#0d2c22" opacity="0.55"/>
<text x="375" y="763.3" text-anchor="middle" font-family="DejaVu Sans" font-size="30"
       fill="#dbe7de">Turbo.</text>

    <circle cx="95" cy="935" r="56" fill="#0c1811" stroke="#f0b23e" stroke-width="7"/>
    <text x="95" y="954" text-anchor="middle" font-family="DejaVu Sans" font-weight="bold" font-size="56" fill="#f0b23e">2</text>
    <circle cx="655" cy="935" r="56" fill="#0c1811" stroke="#5fe0a0" stroke-width="7"/>
    <text x="655" y="954" text-anchor="middle" font-family="DejaVu Sans" font-weight="bold" font-size="56" fill="#5fe0a0">1</text>
<rect x="70" y="1004" width="22" height="30" fill="url(#guldgrad)"/><rect x="104" y="1004" width="22" height="30" fill="url(#guldgrad)"/><rect x="138" y="1004" width="22" height="30" fill="url(#guldgrad)"/><rect x="172" y="1004" width="22" height="30" fill="url(#guldgrad)"/><rect x="206" y="1004" width="22" height="30" fill="url(#guldgrad)"/><rect x="240" y="1004" width="22" height="30" fill="url(#guldgrad)"/><rect x="274" y="1004" width="22" height="30" fill="url(#guldgrad)"/><rect x="308" y="1004" width="22" height="30" fill="url(#guldgrad)"/><rect x="342" y="1004" width="22" height="30" fill="url(#guldgrad)"/><rect x="376" y="1004" width="22" height="30" fill="url(#guldgrad)"/><rect x="410" y="1004" width="22" height="30" fill="url(#guldgrad)"/><rect x="444" y="1004" width="22" height="30" fill="url(#guldgrad)"/><rect x="478" y="1004" width="22" height="30" fill="url(#guldgrad)"/><rect x="512" y="1004" width="22" height="30" fill="url(#guldgrad)"/><rect x="546" y="1004" width="22" height="30" fill="url(#guldgrad)"/><rect x="580" y="1004" width="22" height="30" fill="url(#guldgrad)"/><rect x="614" y="1004" width="22" height="30" fill="url(#guldgrad)"/><rect x="648" y="1004" width="22" height="30" fill="url(#guldgrad)"/>
<rect x="60" y="1000" width="630" height="4" fill="#c9814a" opacity="0.5"/>
</svg>