<svg xmlns="http://www.w3.org/2000/svg" width="750" height="1050" viewBox="0 0 750 1050">
<defs>
  <linearGradient id="bggrad" x1="0" y1="0" x2="0" y2="1">
    <stop offset="0" stop-color="#173021"/><stop offset="0.5" stop-color="#122419"/><stop offset="1" stop-color="#0c1811"/>
  </linearGradient>
  <linearGradient id="guldgrad" x1="0" y1="0" x2="0" y2="1">
    <stop offset="0" stop-color="#ffd166"/><stop offset="1" stop-color="#9a7422"/>
  </linearGradient>
  <clipPath id="artclip"><rect x="52" y="150" width="646" height="410" rx="14"/></clipPath>
</defs>
<rect x="6" y="6" width="738" height="1038" rx="36" fill="url(#bggrad)" stroke="#274a35" stroke-width="6"/>
<rect x="22" y="22" width="706" height="1006" rx="26" fill="none" stroke="#c9814a" stroke-width="2" opacity="0.55"/>
<circle cx="600" cy="650" r="7" fill="none" stroke="#c9814a" stroke-width="4" opacity="0.1"/><path d="M 600 650 L 525 620 L 425 620 L 425 670" fill="none" stroke="#c9814a" stroke-width="4" stroke-linecap="round" stroke-linejoin="round" opacity="0.1"/><rect x="417" y="662" width="16" height="16" fill="#c9814a" opacity="0.1"/><circle cx="375" cy="875" r="7" fill="none" stroke="#c9814a" stroke-width="4" opacity="0.1"/><path d="M 375 875 L 375 975 L 225 825 L 150 750" fill="none" stroke="#c9814a" stroke-width="4" stroke-linecap="round" stroke-linejoin="round" opacity="0.1"/><rect x="142" y="742" width="16" height="16" fill="#c9814a" opacity="0.1"/><circle cx="475" cy="900" r="7" fill="none" stroke="#c9814a" stroke-width="4" opacity="0.1"/><path d="M 475 900 L 600 900 L 500 800 L 500 725" fill="none" stroke="#c9814a" stroke-width="4" stroke-linecap="round" stroke-linejoin="round" opacity="0.1"/><circle cx="500" cy="725" r="9" fill="#122419" stroke="#c9814a" stroke-width="4" opacity="0.1"/><circle cx="425" cy="875" r="7" fill="none" stroke="#c9814a" stroke-width="4" opacity="0.1"/><path d="M 425 875 L 425 950 L 375 980" fill="none" stroke="#c9814a" stroke-width="4" stroke-linecap="round" stroke-linejoin="round" opacity="0.1"/><rect x="367" y="972" width="16" height="16" fill="#c9814a" opacity="0.1"/><circle cx="325" cy="900" r="7" fill="none" stroke="#c9814a" stroke-width="4" opacity="0.1"/><path d="M 325 900 L 425 900 L 500 825" fill="none" stroke="#c9814a" stroke-width="4" stroke-linecap="round" stroke-linejoin="round" opacity="0.1"/><circle cx="500" cy="825" r="9" fill="#122419" stroke="#c9814a" stroke-width="4" opacity="0.1"/><rect x="125" y="825" width="14" height="20" fill="#c9814a" opacity="0.09000000000000001"/><rect x="147" y="825" width="14" height="20" fill="#c9814a" opacity="0.09000000000000001"/><rect x="169" y="825" width="14" height="20" fill="#c9814a" opacity="0.09000000000000001"/><rect x="191" y="825" width="14" height="20" fill="#c9814a" opacity="0.09000000000000001"/>
<g clip-path="url(#artclip)">
  <rect x="52" y="150" width="646" height="410" fill="#0c1811"/>
  <circle cx="375" cy="500" r="7" fill="none" stroke="#c9814a" stroke-width="4" opacity="0.3"/><path d="M 375 500 L 425 450 L 375 450 L 450 375" fill="none" stroke="#c9814a" stroke-width="4" stroke-linecap="round" stroke-linejoin="round" opacity="0.3"/><rect x="442" y="367" width="16" height="16" fill="#c9814a" opacity="0.3"/><circle cx="550" cy="475" r="7" fill="none" stroke="#c9814a" stroke-width="4" opacity="0.3"/><path d="M 550 475 L 550 400 L 475 400 L 350 525" fill="none" stroke="#c9814a" stroke-width="4" stroke-linecap="round" stroke-linejoin="round" opacity="0.3"/><circle cx="350" cy="525" r="9" fill="#122419" stroke="#c9814a" stroke-width="4" opacity="0.3"/><circle cx="375" cy="475" r="7" fill="none" stroke="#c9814a" stroke-width="4" opacity="0.3"/><path d="M 375 475 L 500 475 L 350 325" fill="none" stroke="#c9814a" stroke-width="4" stroke-linecap="round" stroke-linejoin="round" opacity="0.3"/><circle cx="350" cy="325" r="9" fill="#122419" stroke="#c9814a" stroke-width="4" opacity="0.3"/><circle cx="525" cy="225" r="7" fill="none" stroke="#c9814a" stroke-width="4" opacity="0.3"/><path d="M 525 225 L 375 375" fill="none" stroke="#c9814a" stroke-width="4" stroke-linecap="round" stroke-linejoin="round" opacity="0.3"/><rect x="367" y="367" width="16" height="16" fill="#c9814a" opacity="0.3"/><circle cx="525" cy="225" r="7" fill="none" stroke="#c9814a" stroke-width="4" opacity="0.3"/><path d="M 525 225 L 475 225 L 475 160 L 625 310" fill="none" stroke="#c9814a" stroke-width="4" stroke-linecap="round" stroke-linejoin="round" opacity="0.3"/><circle cx="625" cy="310" r="9" fill="#122419" stroke="#c9814a" stroke-width="4" opacity="0.3"/><circle cx="75" cy="200" r="7" fill="none" stroke="#c9814a" stroke-width="4" opacity="0.3"/><path d="M 75 200 L 60 325 L 60 425 L 60 375" fill="none" stroke="#c9814a" stroke-width="4" stroke-linecap="round" stroke-linejoin="round" opacity="0.3"/><rect x="52" y="367" width="16" height="16" fill="#c9814a" opacity="0.3"/><circle cx="250" cy="300" r="7" fill="none" stroke="#c9814a" stroke-width="4" opacity="0.3"/><path d="M 250 300 L 150 400" fill="none" stroke="#c9814a" stroke-width="4" stroke-linecap="round" stroke-linejoin="round" opacity="0.3"/><circle cx="150" cy="400" r="9" fill="#122419" stroke="#c9814a" stroke-width="4" opacity="0.3"/><circle cx="425" cy="300" r="7" fill="none" stroke="#c9814a" stroke-width="4" opacity="0.3"/><path d="M 425 300 L 425 375" fill="none" stroke="#c9814a" stroke-width="4" stroke-linecap="round" stroke-linejoin="round" opacity="0.3"/><rect x="417" y="367" width="16" height="16" fill="#c9814a" opacity="0.3"/><circle cx="275" cy="375" r="7" fill="none" stroke="#c9814a" stroke-width="4" opacity="0.3"/><path d="M 275 375 L 275 425 L 200 425 L 200 300" fill="none" stroke="#c9814a" stroke-width="4" stroke-linecap="round" stroke-linejoin="round" opacity="0.3"/><circle cx="200" cy="300" r="9" fill="#122419" stroke="#c9814a" stroke-width="4" opacity="0.3"/><rect x="100" y="300" width="14" height="20" fill="#c9814a" opacity="0.27"/><rect x="122" y="300" width="14" height="20" fill="#c9814a" opacity="0.27"/><rect x="144" y="300" width="14" height="20" fill="#c9814a" opacity="0.27"/><rect x="166" y="300" width="14" height="20" fill="#c9814a" opacity="0.27"/>
  <circle cx="700" cy="450" r="7" fill="none" stroke="#5fe0a0" stroke-width="4" opacity="0.22"/><path d="M 700 450 L 700 525" fill="none" stroke="#5fe0a0" stroke-width="4" stroke-linecap="round" stroke-linejoin="round" opacity="0.22"/><circle cx="700" cy="525" r="9" fill="#122419" stroke="#5fe0a0" stroke-width="4" opacity="0.22"/><circle cx="250" cy="375" r="7" fill="none" stroke="#5fe0a0" stroke-width="4" opacity="0.22"/><path d="M 250 375 L 325 375 L 325 275 L 275 275" fill="none" stroke="#5fe0a0" stroke-width="4" stroke-linecap="round" stroke-linejoin="round" opacity="0.22"/><rect x="267" y="267" width="16" height="16" fill="#5fe0a0" opacity="0.22"/><circle cx="225" cy="475" r="7" fill="none" stroke="#5fe0a0" stroke-width="4" opacity="0.22"/><path d="M 225 475 L 225 550 L 175 550" fill="none" stroke="#5fe0a0" stroke-width="4" stroke-linecap="round" stroke-linejoin="round" opacity="0.22"/><rect x="167" y="542" width="16" height="16" fill="#5fe0a0" opacity="0.22"/><rect x="150" y="275" width="14" height="20" fill="#5fe0a0" opacity="0.198"/><rect x="172" y="275" width="14" height="20" fill="#5fe0a0" opacity="0.198"/><rect x="194" y="275" width="14" height="20" fill="#5fe0a0" opacity="0.198"/><rect x="216" y="275" width="14" height="20" fill="#5fe0a0" opacity="0.198"/>
  <g transform="translate(375 345) scale(0.950) translate(-375 -345)"><line x1="375" y1="345" x2="263" y2="233" stroke="#5fe0a0" stroke-width="12" stroke-linecap="round"/><line x1="375" y1="345" x2="487" y2="233" stroke="#5fe0a0" stroke-width="12" stroke-linecap="round"/><line x1="375" y1="345" x2="263" y2="457" stroke="#5fe0a0" stroke-width="12" stroke-linecap="round"/><line x1="375" y1="345" x2="487" y2="457" stroke="#5fe0a0" stroke-width="12" stroke-linecap="round"/>
      <circle cx="263" cy="233" r="52" fill="none" stroke="#5fe0a0" stroke-width="8" opacity="0.85"/>
      <circle cx="263" cy="233" r="10" fill="#5fe0a0"/><circle cx="487" cy="233" r="52" fill="none" stroke="#5fe0a0" stroke-width="8" opacity="0.85"/>
      <circle cx="487" cy="233" r="10" fill="#5fe0a0"/><circle cx="263" cy="457" r="52" fill="none" stroke="#5fe0a0" stroke-width="8" opacity="0.85"/>
      <circle cx="263" cy="457" r="10" fill="#5fe0a0"/><circle cx="487" cy="457" r="52" fill="none" stroke="#5fe0a0" stroke-width="8" opacity="0.85"/>
      <circle cx="487" cy="457" r="10" fill="#5fe0a0"/>
      <rect x="327" y="311" width="96" height="68" rx="16" fill="#173021" stroke="#5fe0a0" stroke-width="10"/>
      <circle cx="375" cy="345" r="13" fill="#5fe0a0"/></g>
</g>
<rect x="52" y="150" width="646" height="410" rx="14" fill="none" stroke="#274a35" stroke-width="3"/>
<text x="200" y="102" font-family="DejaVu Sans Condensed" font-weight="bold" font-size="38"
  letter-spacing="2" fill="#dbe7de">LEVERINGSDRONE</text>
<polygon points="95,28 152,61 152,127 95,160 38,127 38,61" fill="#f0b23e" stroke="#1c1405" stroke-width="4"/>
<text x="95" y="118" text-anchor="middle" font-family="DejaVu Sans" font-weight="bold" font-size="74" fill="#1c1405">3</text>
<text x="375" y="608" text-anchor="middle" font-family="DejaVu Sans Mono" font-size="26" letter-spacing="3"
  fill="#87a693">ENHED · DRONE</text>
<line x1="80" y1="626" x2="670" y2="626" stroke="#274a35" stroke-width="2"/>
<text x="375" y="763.3" text-anchor="middle" font-family="DejaVu Sans" font-size="30"
       fill="#dbe7de">Installation: Træk et kort.</text>

    <circle cx="95" cy="935" r="56" fill="#0c1811" stroke="#f0b23e" stroke-width="7"/>
    <text x="95" y="954" text-anchor="middle" font-family="DejaVu Sans" font-weight="bold" font-size="56" fill="#f0b23e">2</text>
    <circle cx="655" cy="935" r="56" fill="#0c1811" stroke="#5fe0a0" stroke-width="7"/>
    <text x="655" y="954" text-anchor="middle" font-family="DejaVu Sans" font-weight="bold" font-size="56" fill="#5fe0a0">2</text>
<rect x="70" y="1004" width="22" height="30" fill="url(#guldgrad)"/><rect x="104" y="1004" width="22" height="30" fill="url(#guldgrad)"/><rect x="138" y="1004" width="22" height="30" fill="url(#guldgrad)"/><rect x="172" y="1004" width="22" height="30" fill="url(#guldgrad)"/><rect x="206" y="1004" width="22" height="30" fill="url(#guldgrad)"/><rect x="240" y="1004" width="22" height="30" fill="url(#guldgrad)"/><rect x="274" y="1004" width="22" height="30" fill="url(#guldgrad)"/><rect x="308" y="1004" width="22" height="30" fill="url(#guldgrad)"/><rect x="342" y="1004" width="22" height="30" fill="url(#guldgrad)"/><rect x="376" y="1004" width="22" height="30" fill="url(#guldgrad)"/><rect x="410" y="1004" width="22" height="30" fill="url(#guldgrad)"/><rect x="444" y="1004" width="22" height="30" fill="url(#guldgrad)"/><rect x="478" y="1004" width="22" height="30" fill="url(#guldgrad)"/><rect x="512" y="1004" width="22" height="30" fill="url(#guldgrad)"/><rect x="546" y="1004" width="22" height="30" fill="url(#guldgrad)"/><rect x="580" y="1004" width="22" height="30" fill="url(#guldgrad)"/><rect x="614" y="1004" width="22" height="30" fill="url(#guldgrad)"/><rect x="648" y="1004" width="22" height="30" fill="url(#guldgrad)"/>
<rect x="60" y="1000" width="630" height="4" fill="#c9814a" opacity="0.5"/>
</svg>