<svg xmlns="http://www.w3.org/2000/svg" width="750" height="1050" viewBox="0 0 750 1050">
<defs>
  <linearGradient id="bggrad" x1="0" y1="0" x2="0" y2="1">
    <stop offset="0" stop-color="#5a3806"/><stop offset="0.5" stop-color="#341f04"/><stop offset="1" stop-color="#130b02"/>
  </linearGradient>
  <radialGradient id="artgrad" cx="0.5" cy="0.42" r="0.75">
    <stop offset="0" stop-color="#432a08"/><stop offset="1" stop-color="#241603"/>
  </radialGradient>
  <linearGradient id="guldgrad" x1="0" y1="0" x2="0" y2="1">
    <stop offset="0" stop-color="#ffd166"/><stop offset="1" stop-color="#9a7422"/>
  </linearGradient>
  <clipPath id="artclip"><rect x="52" y="150" width="646" height="410" rx="14"/></clipPath>
</defs>
<rect x="6" y="6" width="738" height="1038" rx="36" fill="url(#bggrad)" stroke="#ffa726" stroke-width="6"/>
<rect x="22" y="22" width="706" height="1006" rx="26" fill="none" stroke="#ffa726" stroke-width="2" opacity="0.7"/>
<circle cx="300" cy="750" r="7" fill="none" stroke="#c9814a" stroke-width="4" opacity="0.1"/><path d="M 300 750 L 350 800 L 425 875 L 375 875" fill="none" stroke="#c9814a" stroke-width="4" stroke-linecap="round" stroke-linejoin="round" opacity="0.1"/><rect x="367" y="867" width="16" height="16" fill="#c9814a" opacity="0.1"/><circle cx="700" cy="825" r="7" fill="none" stroke="#c9814a" stroke-width="4" opacity="0.1"/><path d="M 700 825 L 625 825 L 710 700 L 710 750" fill="none" stroke="#c9814a" stroke-width="4" stroke-linecap="round" stroke-linejoin="round" opacity="0.1"/><circle cx="710" cy="750" r="9" fill="#122419" stroke="#c9814a" stroke-width="4" opacity="0.1"/><circle cx="525" cy="875" r="7" fill="none" stroke="#c9814a" stroke-width="4" opacity="0.1"/><path d="M 525 875 L 625 775 L 625 625 L 550 625" fill="none" stroke="#c9814a" stroke-width="4" stroke-linecap="round" stroke-linejoin="round" opacity="0.1"/><rect x="542" y="617" width="16" height="16" fill="#c9814a" opacity="0.1"/><circle cx="650" cy="850" r="7" fill="none" stroke="#c9814a" stroke-width="4" opacity="0.1"/><path d="M 650 850 L 600 800 L 700 800" fill="none" stroke="#c9814a" stroke-width="4" stroke-linecap="round" stroke-linejoin="round" opacity="0.1"/><rect x="692" y="792" width="16" height="16" fill="#c9814a" opacity="0.1"/><circle cx="275" cy="625" r="7" fill="none" stroke="#c9814a" stroke-width="4" opacity="0.1"/><path d="M 275 625 L 325 675" fill="none" stroke="#c9814a" stroke-width="4" stroke-linecap="round" stroke-linejoin="round" opacity="0.1"/><circle cx="325" cy="675" r="9" fill="#122419" stroke="#c9814a" stroke-width="4" opacity="0.1"/><rect x="450" y="950" width="14" height="20" fill="#c9814a" opacity="0.09000000000000001"/><rect x="472" y="950" width="14" height="20" fill="#c9814a" opacity="0.09000000000000001"/><rect x="494" y="950" width="14" height="20" fill="#c9814a" opacity="0.09000000000000001"/><rect x="516" y="950" width="14" height="20" fill="#c9814a" opacity="0.09000000000000001"/>
<g clip-path="url(#artclip)">
  <rect x="52" y="150" width="646" height="410" fill="url(#artgrad)"/>
  <circle cx="250" cy="500" r="7" fill="none" stroke="#c9814a" stroke-width="4" opacity="0.3"/><path d="M 250 500 L 325 500" fill="none" stroke="#c9814a" stroke-width="4" stroke-linecap="round" stroke-linejoin="round" opacity="0.3"/><rect x="317" y="492" width="16" height="16" fill="#c9814a" opacity="0.3"/><circle cx="225" cy="425" r="7" fill="none" stroke="#c9814a" stroke-width="4" opacity="0.3"/><path d="M 225 425 L 325 325" fill="none" stroke="#c9814a" stroke-width="4" stroke-linecap="round" stroke-linejoin="round" opacity="0.3"/><circle cx="325" cy="325" r="9" fill="#122419" stroke="#c9814a" stroke-width="4" opacity="0.3"/><circle cx="375" cy="225" r="7" fill="none" stroke="#c9814a" stroke-width="4" opacity="0.3"/><path d="M 375 225 L 375 350 L 300 425 L 350 425" fill="none" stroke="#c9814a" stroke-width="4" stroke-linecap="round" stroke-linejoin="round" opacity="0.3"/><circle cx="350" cy="425" r="9" fill="#122419" stroke="#c9814a" stroke-width="4" opacity="0.3"/><circle cx="75" cy="300" r="7" fill="none" stroke="#c9814a" stroke-width="4" opacity="0.3"/><path d="M 75 300 L 60 375 L 110 375 L 60 250" fill="none" stroke="#c9814a" stroke-width="4" stroke-linecap="round" stroke-linejoin="round" opacity="0.3"/><rect x="52" y="242" width="16" height="16" fill="#c9814a" opacity="0.3"/><circle cx="225" cy="175" r="7" fill="none" stroke="#c9814a" stroke-width="4" opacity="0.3"/><path d="M 225 175 L 125 175" fill="none" stroke="#c9814a" stroke-width="4" stroke-linecap="round" stroke-linejoin="round" opacity="0.3"/><rect x="117" y="167" width="16" height="16" fill="#c9814a" opacity="0.3"/><circle cx="625" cy="250" r="7" fill="none" stroke="#c9814a" stroke-width="4" opacity="0.3"/><path d="M 625 250 L 525 350 L 525 425" fill="none" stroke="#c9814a" stroke-width="4" stroke-linecap="round" stroke-linejoin="round" opacity="0.3"/><circle cx="525" cy="425" r="9" fill="#122419" stroke="#c9814a" stroke-width="4" opacity="0.3"/><circle cx="625" cy="250" r="7" fill="none" stroke="#c9814a" stroke-width="4" opacity="0.3"/><path d="M 625 250 L 625 160 L 550 235 L 500 235" fill="none" stroke="#c9814a" stroke-width="4" stroke-linecap="round" stroke-linejoin="round" opacity="0.3"/><rect x="492" y="227" width="16" height="16" fill="#c9814a" opacity="0.3"/><circle cx="375" cy="475" r="7" fill="none" stroke="#c9814a" stroke-width="4" opacity="0.3"/><path d="M 375 475 L 325 475 L 325 550 L 275 550" fill="none" stroke="#c9814a" stroke-width="4" stroke-linecap="round" stroke-linejoin="round" opacity="0.3"/><rect x="267" y="542" width="16" height="16" fill="#c9814a" opacity="0.3"/><circle cx="625" cy="350" r="7" fill="none" stroke="#c9814a" stroke-width="4" opacity="0.3"/><path d="M 625 350 L 625 275" fill="none" stroke="#c9814a" stroke-width="4" stroke-linecap="round" stroke-linejoin="round" opacity="0.3"/><rect x="617" y="267" width="16" height="16" fill="#c9814a" opacity="0.3"/><rect x="375" y="475" width="14" height="20" fill="#c9814a" opacity="0.27"/><rect x="397" y="475" width="14" height="20" fill="#c9814a" opacity="0.27"/><rect x="419" y="475" width="14" height="20" fill="#c9814a" opacity="0.27"/><rect x="441" y="475" width="14" height="20" fill="#c9814a" opacity="0.27"/>
  <circle cx="675" cy="200" r="7" fill="none" stroke="#e8a96a" stroke-width="4" opacity="0.22"/><path d="M 675 200 L 675 275 L 550 275 L 650 175" fill="none" stroke="#e8a96a" stroke-width="4" stroke-linecap="round" stroke-linejoin="round" opacity="0.22"/><rect x="642" y="167" width="16" height="16" fill="#e8a96a" opacity="0.22"/><circle cx="300" cy="275" r="7" fill="none" stroke="#e8a96a" stroke-width="4" opacity="0.22"/><path d="M 300 275 L 200 175 L 150 175 L 150 160" fill="none" stroke="#e8a96a" stroke-width="4" stroke-linecap="round" stroke-linejoin="round" opacity="0.22"/><rect x="142" y="152" width="16" height="16" fill="#e8a96a" opacity="0.22"/><circle cx="675" cy="325" r="7" fill="none" stroke="#e8a96a" stroke-width="4" opacity="0.22"/><path d="M 675 325 L 675 475 L 625 425" fill="none" stroke="#e8a96a" stroke-width="4" stroke-linecap="round" stroke-linejoin="round" opacity="0.22"/><circle cx="625" cy="425" r="9" fill="#122419" stroke="#e8a96a" stroke-width="4" opacity="0.22"/><rect x="275" y="425" width="14" height="20" fill="#e8a96a" opacity="0.198"/><rect x="297" y="425" width="14" height="20" fill="#e8a96a" opacity="0.198"/><rect x="319" y="425" width="14" height="20" fill="#e8a96a" opacity="0.198"/><rect x="341" y="425" width="14" height="20" fill="#e8a96a" opacity="0.198"/>
  <g transform="translate(375 345) scale(1.054) translate(-375 -345)"><circle cx="375" cy="345" r="70" fill="none" stroke="#e8a96a" stroke-width="10"/><circle cx="375" cy="345" r="14" fill="#e8a96a"/><path d="M 470 300 Q 500 345 470 390" fill="none" stroke="#e8a96a" stroke-width="8" stroke-linecap="round" stroke-linejoin="round"/><path d="M 500 280 Q 540 345 500 410" fill="none" stroke="#e8a96a" stroke-width="7" stroke-linecap="round" stroke-linejoin="round"/></g>
</g>
<rect x="52" y="150" width="646" height="410" rx="14" fill="none" stroke="#274a35" stroke-width="3"/>
<text x="200" y="102" font-family="DejaVu Sans Condensed" font-weight="bold" font-size="46"
  letter-spacing="2" fill="#dbe7de">PIEZO BUZZER</text>
<polygon points="95,28 152,61 152,127 95,160 38,127 38,61" fill="#f0b23e" stroke="#1c1405" stroke-width="4"/>
<text x="95" y="118" text-anchor="middle" font-family="DejaVu Sans" font-weight="bold" font-size="74" fill="#1c1405">1</text>
<text x="375" y="608" text-anchor="middle" font-family="DejaVu Sans Mono" font-size="26" letter-spacing="3"
  fill="#87a693">UNIT · COMPONENT</text>
<line x1="80" y1="626" x2="670" y2="626" stroke="#ffa726" stroke-width="2" opacity="0.5"/>
<rect x="46" y="640" width="658" height="236" rx="16" fill="#452c05" opacity="0.55"/>
<text x="375" y="742.6" text-anchor="middle" font-family="DejaVu Sans" font-size="30"
       fill="#dbe7de">Breakdown: Deal 1 damage to a random</text>
<text x="375" y="784.0" text-anchor="middle" font-family="DejaVu Sans" font-size="30"
       fill="#dbe7de">enemy unit.</text>

    <circle cx="95" cy="935" r="56" fill="#0c1811" stroke="#f0b23e" stroke-width="7"/>
    <text x="95" y="954" text-anchor="middle" font-family="DejaVu Sans" font-weight="bold" font-size="56" fill="#f0b23e">1</text>
    <circle cx="655" cy="935" r="56" fill="#0c1811" stroke="#5fe0a0" stroke-width="7"/>
    <text x="655" y="954" text-anchor="middle" font-family="DejaVu Sans" font-weight="bold" font-size="56" fill="#5fe0a0">1</text>
<rect x="70" y="1004" width="22" height="30" fill="url(#guldgrad)"/><rect x="104" y="1004" width="22" height="30" fill="url(#guldgrad)"/><rect x="138" y="1004" width="22" height="30" fill="url(#guldgrad)"/><rect x="172" y="1004" width="22" height="30" fill="url(#guldgrad)"/><rect x="206" y="1004" width="22" height="30" fill="url(#guldgrad)"/><rect x="240" y="1004" width="22" height="30" fill="url(#guldgrad)"/><rect x="274" y="1004" width="22" height="30" fill="url(#guldgrad)"/><rect x="308" y="1004" width="22" height="30" fill="url(#guldgrad)"/><rect x="342" y="1004" width="22" height="30" fill="url(#guldgrad)"/><rect x="376" y="1004" width="22" height="30" fill="url(#guldgrad)"/><rect x="410" y="1004" width="22" height="30" fill="url(#guldgrad)"/><rect x="444" y="1004" width="22" height="30" fill="url(#guldgrad)"/><rect x="478" y="1004" width="22" height="30" fill="url(#guldgrad)"/><rect x="512" y="1004" width="22" height="30" fill="url(#guldgrad)"/><rect x="546" y="1004" width="22" height="30" fill="url(#guldgrad)"/><rect x="580" y="1004" width="22" height="30" fill="url(#guldgrad)"/><rect x="614" y="1004" width="22" height="30" fill="url(#guldgrad)"/><rect x="648" y="1004" width="22" height="30" fill="url(#guldgrad)"/>
<rect x="60" y="1000" width="630" height="4" fill="#c9814a" opacity="0.5"/>
</svg>