<svg xmlns="http://www.w3.org/2000/svg" width="750" height="1050" viewBox="0 0 750 1050">
<defs>
  <linearGradient id="bggrad" x1="0" y1="0" x2="0" y2="1">
    <stop offset="0" stop-color="#173021"/><stop offset="0.5" stop-color="#122419"/><stop offset="1" stop-color="#0c1811"/>
  </linearGradient>
  <linearGradient id="guldgrad" x1="0" y1="0" x2="0" y2="1">
    <stop offset="0" stop-color="#ffd166"/><stop offset="1" stop-color="#9a7422"/>
  </linearGradient>
  <clipPath id="artclip"><rect x="52" y="150" width="646" height="410" rx="14"/></clipPath>
</defs>
<rect x="6" y="6" width="738" height="1038" rx="36" fill="url(#bggrad)" stroke="#274a35" stroke-width="6"/>
<rect x="22" y="22" width="706" height="1006" rx="26" fill="none" stroke="#e8a96a" stroke-width="3" opacity="0.8"/>
<circle cx="675" cy="875" r="7" fill="none" stroke="#c9814a" stroke-width="4" opacity="0.1"/><path d="M 675 875 L 710 725 L 635 800 L 635 675" fill="none" stroke="#c9814a" stroke-width="4" stroke-linecap="round" stroke-linejoin="round" opacity="0.1"/><rect x="627" y="667" width="16" height="16" fill="#c9814a" opacity="0.1"/><circle cx="475" cy="675" r="7" fill="none" stroke="#c9814a" stroke-width="4" opacity="0.1"/><path d="M 475 675 L 475 775 L 550 700 L 650 800" fill="none" stroke="#c9814a" stroke-width="4" stroke-linecap="round" stroke-linejoin="round" opacity="0.1"/><circle cx="650" cy="800" r="9" fill="#122419" stroke="#c9814a" stroke-width="4" opacity="0.1"/><circle cx="375" cy="825" r="7" fill="none" stroke="#c9814a" stroke-width="4" opacity="0.1"/><path d="M 375 825 L 450 900 L 450 980 L 350 980" fill="none" stroke="#c9814a" stroke-width="4" stroke-linecap="round" stroke-linejoin="round" opacity="0.1"/><circle cx="350" cy="980" r="9" fill="#122419" stroke="#c9814a" stroke-width="4" opacity="0.1"/><circle cx="350" cy="800" r="7" fill="none" stroke="#c9814a" stroke-width="4" opacity="0.1"/><path d="M 350 800 L 275 875" fill="none" stroke="#c9814a" stroke-width="4" stroke-linecap="round" stroke-linejoin="round" opacity="0.1"/><circle cx="275" cy="875" r="9" fill="#122419" stroke="#c9814a" stroke-width="4" opacity="0.1"/><circle cx="75" cy="900" r="7" fill="none" stroke="#c9814a" stroke-width="4" opacity="0.1"/><path d="M 75 900 L 40 900 L 40 850 L 40 850" fill="none" stroke="#c9814a" stroke-width="4" stroke-linecap="round" stroke-linejoin="round" opacity="0.1"/><rect x="32" y="842" width="16" height="16" fill="#c9814a" opacity="0.1"/><rect x="275" y="825" width="14" height="20" fill="#c9814a" opacity="0.09000000000000001"/><rect x="297" y="825" width="14" height="20" fill="#c9814a" opacity="0.09000000000000001"/><rect x="319" y="825" width="14" height="20" fill="#c9814a" opacity="0.09000000000000001"/><rect x="341" y="825" width="14" height="20" fill="#c9814a" opacity="0.09000000000000001"/>
<g clip-path="url(#artclip)">
  <rect x="52" y="150" width="646" height="410" fill="#0c1811"/>
  <circle cx="75" cy="175" r="7" fill="none" stroke="#c9814a" stroke-width="4" opacity="0.3"/><path d="M 75 175 L 150 175 L 75 160" fill="none" stroke="#c9814a" stroke-width="4" stroke-linecap="round" stroke-linejoin="round" opacity="0.3"/><rect x="67" y="152" width="16" height="16" fill="#c9814a" opacity="0.3"/><circle cx="525" cy="300" r="7" fill="none" stroke="#c9814a" stroke-width="4" opacity="0.3"/><path d="M 525 300 L 375 160" fill="none" stroke="#c9814a" stroke-width="4" stroke-linecap="round" stroke-linejoin="round" opacity="0.3"/><circle cx="375" cy="160" r="9" fill="#122419" stroke="#c9814a" stroke-width="4" opacity="0.3"/><circle cx="50" cy="500" r="7" fill="none" stroke="#c9814a" stroke-width="4" opacity="0.3"/><path d="M 50 500 L 150 500 L 150 425" fill="none" stroke="#c9814a" stroke-width="4" stroke-linecap="round" stroke-linejoin="round" opacity="0.3"/><rect x="142" y="417" width="16" height="16" fill="#c9814a" opacity="0.3"/><circle cx="150" cy="300" r="7" fill="none" stroke="#c9814a" stroke-width="4" opacity="0.3"/><path d="M 150 300 L 60 425 L 60 275" fill="none" stroke="#c9814a" stroke-width="4" stroke-linecap="round" stroke-linejoin="round" opacity="0.3"/><circle cx="60" cy="275" r="9" fill="#122419" stroke="#c9814a" stroke-width="4" opacity="0.3"/><circle cx="200" cy="250" r="7" fill="none" stroke="#c9814a" stroke-width="4" opacity="0.3"/><path d="M 200 250 L 200 160 L 350 310 L 450 210" fill="none" stroke="#c9814a" stroke-width="4" stroke-linecap="round" stroke-linejoin="round" opacity="0.3"/><circle cx="450" cy="210" r="9" fill="#122419" stroke="#c9814a" stroke-width="4" opacity="0.3"/><circle cx="250" cy="350" r="7" fill="none" stroke="#c9814a" stroke-width="4" opacity="0.3"/><path d="M 250 350 L 325 275" fill="none" stroke="#c9814a" stroke-width="4" stroke-linecap="round" stroke-linejoin="round" opacity="0.3"/><circle cx="325" cy="275" r="9" fill="#122419" stroke="#c9814a" stroke-width="4" opacity="0.3"/><circle cx="225" cy="275" r="7" fill="none" stroke="#c9814a" stroke-width="4" opacity="0.3"/><path d="M 225 275 L 225 350 L 175 350" fill="none" stroke="#c9814a" stroke-width="4" stroke-linecap="round" stroke-linejoin="round" opacity="0.3"/><rect x="167" y="342" width="16" height="16" fill="#c9814a" opacity="0.3"/><circle cx="325" cy="325" r="7" fill="none" stroke="#c9814a" stroke-width="4" opacity="0.3"/><path d="M 325 325 L 475 475 L 425 475" fill="none" stroke="#c9814a" stroke-width="4" stroke-linecap="round" stroke-linejoin="round" opacity="0.3"/><circle cx="425" cy="475" r="9" fill="#122419" stroke="#c9814a" stroke-width="4" opacity="0.3"/><circle cx="250" cy="500" r="7" fill="none" stroke="#c9814a" stroke-width="4" opacity="0.3"/><path d="M 250 500 L 100 350" fill="none" stroke="#c9814a" stroke-width="4" stroke-linecap="round" stroke-linejoin="round" opacity="0.3"/><circle cx="100" cy="350" r="9" fill="#122419" stroke="#c9814a" stroke-width="4" opacity="0.3"/><rect x="225" y="275" width="14" height="20" fill="#c9814a" opacity="0.27"/><rect x="247" y="275" width="14" height="20" fill="#c9814a" opacity="0.27"/><rect x="269" y="275" width="14" height="20" fill="#c9814a" opacity="0.27"/><rect x="291" y="275" width="14" height="20" fill="#c9814a" opacity="0.27"/>
  <circle cx="625" cy="550" r="7" fill="none" stroke="#9fc0e8" stroke-width="4" opacity="0.22"/><path d="M 625 550 L 690 550 L 690 550 L 690 550" fill="none" stroke="#9fc0e8" stroke-width="4" stroke-linecap="round" stroke-linejoin="round" opacity="0.22"/><circle cx="690" cy="550" r="9" fill="#122419" stroke="#9fc0e8" stroke-width="4" opacity="0.22"/><circle cx="550" cy="375" r="7" fill="none" stroke="#9fc0e8" stroke-width="4" opacity="0.22"/><path d="M 550 375 L 425 500 L 425 375 L 525 375" fill="none" stroke="#9fc0e8" stroke-width="4" stroke-linecap="round" stroke-linejoin="round" opacity="0.22"/><circle cx="525" cy="375" r="9" fill="#122419" stroke="#9fc0e8" stroke-width="4" opacity="0.22"/><circle cx="450" cy="200" r="7" fill="none" stroke="#9fc0e8" stroke-width="4" opacity="0.22"/><path d="M 450 200 L 450 350 L 375 350 L 375 200" fill="none" stroke="#9fc0e8" stroke-width="4" stroke-linecap="round" stroke-linejoin="round" opacity="0.22"/><circle cx="375" cy="200" r="9" fill="#122419" stroke="#9fc0e8" stroke-width="4" opacity="0.22"/><rect x="225" y="350" width="14" height="20" fill="#9fc0e8" opacity="0.198"/><rect x="247" y="350" width="14" height="20" fill="#9fc0e8" opacity="0.198"/><rect x="269" y="350" width="14" height="20" fill="#9fc0e8" opacity="0.198"/><rect x="291" y="350" width="14" height="20" fill="#9fc0e8" opacity="0.198"/>
  <g transform="translate(375 345) scale(1.035) translate(-375 -345)"><line x1="375" y1="252" x2="375" y2="208" stroke="#9fc0e8" stroke-width="10"/>
      <circle cx="375" cy="196" r="13" fill="#9fc0e8"/>
      <rect x="262" y="252" width="226" height="188" rx="28" fill="#173021" stroke="#9fc0e8" stroke-width="10"/>
      <rect x="236" y="310" width="26" height="64" rx="8" fill="#9fc0e8" opacity="0.7"/>
      <rect x="488" y="310" width="26" height="64" rx="8" fill="#9fc0e8" opacity="0.7"/>
      <rect x="300" y="308" width="52" height="30" rx="8" fill="#9fc0e8"/>
      <rect x="398" y="308" width="52" height="30" rx="8" fill="#9fc0e8"/>
      <rect x="318" y="384" width="114" height="12" rx="6" fill="#9fc0e8" opacity="0.6"/></g>
</g>
<rect x="52" y="150" width="646" height="410" rx="14" fill="none" stroke="#274a35" stroke-width="3"/>
<text x="200" y="102" font-family="DejaVu Sans Condensed" font-weight="bold" font-size="46"
  letter-spacing="2" fill="#dbe7de">REPAIRBOT</text>
<polygon points="95,28 152,61 152,127 95,160 38,127 38,61" fill="#f0b23e" stroke="#1c1405" stroke-width="4"/>
<text x="95" y="118" text-anchor="middle" font-family="DejaVu Sans" font-weight="bold" font-size="74" fill="#1c1405">4</text>
<text x="375" y="608" text-anchor="middle" font-family="DejaVu Sans Mono" font-size="26" letter-spacing="3"
  fill="#e8a96a">THE TECHNICIAN · UNIT · ROBOT</text>
<line x1="80" y1="626" x2="670" y2="626" stroke="#274a35" stroke-width="2"/>
<text x="375" y="742.6" text-anchor="middle" font-family="DejaVu Sans" font-size="30"
       fill="#dbe7de">At the end of your turn: Repair a random</text>
<text x="375" y="784.0" text-anchor="middle" font-family="DejaVu Sans" font-size="30"
       fill="#dbe7de">damaged friendly unit for 2.</text>

    <circle cx="95" cy="935" r="56" fill="#0c1811" stroke="#f0b23e" stroke-width="7"/>
    <text x="95" y="954" text-anchor="middle" font-family="DejaVu Sans" font-weight="bold" font-size="56" fill="#f0b23e">2</text>
    <circle cx="655" cy="935" r="56" fill="#0c1811" stroke="#5fe0a0" stroke-width="7"/>
    <text x="655" y="954" text-anchor="middle" font-family="DejaVu Sans" font-weight="bold" font-size="56" fill="#5fe0a0">5</text>
<rect x="70" y="1004" width="22" height="30" fill="url(#guldgrad)"/><rect x="104" y="1004" width="22" height="30" fill="url(#guldgrad)"/><rect x="138" y="1004" width="22" height="30" fill="url(#guldgrad)"/><rect x="172" y="1004" width="22" height="30" fill="url(#guldgrad)"/><rect x="206" y="1004" width="22" height="30" fill="url(#guldgrad)"/><rect x="240" y="1004" width="22" height="30" fill="url(#guldgrad)"/><rect x="274" y="1004" width="22" height="30" fill="url(#guldgrad)"/><rect x="308" y="1004" width="22" height="30" fill="url(#guldgrad)"/><rect x="342" y="1004" width="22" height="30" fill="url(#guldgrad)"/><rect x="376" y="1004" width="22" height="30" fill="url(#guldgrad)"/><rect x="410" y="1004" width="22" height="30" fill="url(#guldgrad)"/><rect x="444" y="1004" width="22" height="30" fill="url(#guldgrad)"/><rect x="478" y="1004" width="22" height="30" fill="url(#guldgrad)"/><rect x="512" y="1004" width="22" height="30" fill="url(#guldgrad)"/><rect x="546" y="1004" width="22" height="30" fill="url(#guldgrad)"/><rect x="580" y="1004" width="22" height="30" fill="url(#guldgrad)"/><rect x="614" y="1004" width="22" height="30" fill="url(#guldgrad)"/><rect x="648" y="1004" width="22" height="30" fill="url(#guldgrad)"/>
<rect x="60" y="1000" width="630" height="4" fill="#c9814a" opacity="0.5"/>
</svg>