<svg xmlns="http://www.w3.org/2000/svg" width="750" height="1050" viewBox="0 0 750 1050">
<defs>
  <linearGradient id="bggrad" x1="0" y1="0" x2="0" y2="1">
    <stop offset="0" stop-color="#0d3566"/><stop offset="0.5" stop-color="#08213f"/><stop offset="1" stop-color="#030c18"/>
  </linearGradient>
  <radialGradient id="artgrad" cx="0.5" cy="0.42" r="0.75">
    <stop offset="0" stop-color="#103050"/><stop offset="1" stop-color="#061a33"/>
  </radialGradient>
  <linearGradient id="guldgrad" x1="0" y1="0" x2="0" y2="1">
    <stop offset="0" stop-color="#ffd166"/><stop offset="1" stop-color="#9a7422"/>
  </linearGradient>
  <clipPath id="artclip"><rect x="52" y="150" width="646" height="410" rx="14"/></clipPath>
</defs>
<rect x="6" y="6" width="738" height="1038" rx="36" fill="url(#bggrad)" stroke="#4db4ff" stroke-width="6"/>
<rect x="22" y="22" width="706" height="1006" rx="26" fill="none" stroke="#4db4ff" stroke-width="2" opacity="0.7"/>
<circle cx="700" cy="725" r="7" fill="none" stroke="#c9814a" stroke-width="4" opacity="0.1"/><path d="M 700 725 L 625 650 L 625 620" fill="none" stroke="#c9814a" stroke-width="4" stroke-linecap="round" stroke-linejoin="round" opacity="0.1"/><rect x="617" y="612" width="16" height="16" fill="#c9814a" opacity="0.1"/><circle cx="125" cy="750" r="7" fill="none" stroke="#c9814a" stroke-width="4" opacity="0.1"/><path d="M 125 750 L 50 825 L 50 875" fill="none" stroke="#c9814a" stroke-width="4" stroke-linecap="round" stroke-linejoin="round" opacity="0.1"/><circle cx="50" cy="875" r="9" fill="#122419" stroke="#c9814a" stroke-width="4" opacity="0.1"/><circle cx="625" cy="800" r="7" fill="none" stroke="#c9814a" stroke-width="4" opacity="0.1"/><path d="M 625 800 L 575 800" fill="none" stroke="#c9814a" stroke-width="4" stroke-linecap="round" stroke-linejoin="round" opacity="0.1"/><rect x="567" y="792" width="16" height="16" fill="#c9814a" opacity="0.1"/><circle cx="625" cy="925" r="7" fill="none" stroke="#c9814a" stroke-width="4" opacity="0.1"/><path d="M 625 925 L 625 875" fill="none" stroke="#c9814a" stroke-width="4" stroke-linecap="round" stroke-linejoin="round" opacity="0.1"/><circle cx="625" cy="875" r="9" fill="#122419" stroke="#c9814a" stroke-width="4" opacity="0.1"/><circle cx="50" cy="700" r="7" fill="none" stroke="#c9814a" stroke-width="4" opacity="0.1"/><path d="M 50 700 L 100 700 L 175 625" fill="none" stroke="#c9814a" stroke-width="4" stroke-linecap="round" stroke-linejoin="round" opacity="0.1"/><circle cx="175" cy="625" r="9" fill="#122419" stroke="#c9814a" stroke-width="4" opacity="0.1"/><rect x="475" y="675" width="14" height="20" fill="#c9814a" opacity="0.09000000000000001"/><rect x="497" y="675" width="14" height="20" fill="#c9814a" opacity="0.09000000000000001"/><rect x="519" y="675" width="14" height="20" fill="#c9814a" opacity="0.09000000000000001"/><rect x="541" y="675" width="14" height="20" fill="#c9814a" opacity="0.09000000000000001"/>
<g clip-path="url(#artclip)">
  <rect x="52" y="150" width="646" height="410" fill="url(#artgrad)"/>
  <circle cx="200" cy="525" r="7" fill="none" stroke="#c9814a" stroke-width="4" opacity="0.3"/><path d="M 200 525 L 275 450 L 350 450" fill="none" stroke="#c9814a" stroke-width="4" stroke-linecap="round" stroke-linejoin="round" opacity="0.3"/><rect x="342" y="442" width="16" height="16" fill="#c9814a" opacity="0.3"/><circle cx="500" cy="500" r="7" fill="none" stroke="#c9814a" stroke-width="4" opacity="0.3"/><path d="M 500 500 L 350 500 L 350 375" fill="none" stroke="#c9814a" stroke-width="4" stroke-linecap="round" stroke-linejoin="round" opacity="0.3"/><circle cx="350" cy="375" r="9" fill="#122419" stroke="#c9814a" stroke-width="4" opacity="0.3"/><circle cx="150" cy="175" r="7" fill="none" stroke="#c9814a" stroke-width="4" opacity="0.3"/><path d="M 150 175 L 250 175 L 300 225" fill="none" stroke="#c9814a" stroke-width="4" stroke-linecap="round" stroke-linejoin="round" opacity="0.3"/><circle cx="300" cy="225" r="9" fill="#122419" stroke="#c9814a" stroke-width="4" opacity="0.3"/><circle cx="425" cy="400" r="7" fill="none" stroke="#c9814a" stroke-width="4" opacity="0.3"/><path d="M 425 400 L 475 450 L 400 450" fill="none" stroke="#c9814a" stroke-width="4" stroke-linecap="round" stroke-linejoin="round" opacity="0.3"/><circle cx="400" cy="450" r="9" fill="#122419" stroke="#c9814a" stroke-width="4" opacity="0.3"/><circle cx="600" cy="300" r="7" fill="none" stroke="#c9814a" stroke-width="4" opacity="0.3"/><path d="M 600 300 L 650 300" fill="none" stroke="#c9814a" stroke-width="4" stroke-linecap="round" stroke-linejoin="round" opacity="0.3"/><circle cx="650" cy="300" r="9" fill="#122419" stroke="#c9814a" stroke-width="4" opacity="0.3"/><circle cx="350" cy="450" r="7" fill="none" stroke="#c9814a" stroke-width="4" opacity="0.3"/><path d="M 350 450 L 400 400 L 325 400 L 375 350" fill="none" stroke="#c9814a" stroke-width="4" stroke-linecap="round" stroke-linejoin="round" opacity="0.3"/><rect x="367" y="342" width="16" height="16" fill="#c9814a" opacity="0.3"/><circle cx="275" cy="500" r="7" fill="none" stroke="#c9814a" stroke-width="4" opacity="0.3"/><path d="M 275 500 L 400 500" fill="none" stroke="#c9814a" stroke-width="4" stroke-linecap="round" stroke-linejoin="round" opacity="0.3"/><rect x="392" y="492" width="16" height="16" fill="#c9814a" opacity="0.3"/><circle cx="100" cy="250" r="7" fill="none" stroke="#c9814a" stroke-width="4" opacity="0.3"/><path d="M 100 250 L 100 160" fill="none" stroke="#c9814a" stroke-width="4" stroke-linecap="round" stroke-linejoin="round" opacity="0.3"/><rect x="92" y="152" width="16" height="16" fill="#c9814a" opacity="0.3"/><circle cx="450" cy="325" r="7" fill="none" stroke="#c9814a" stroke-width="4" opacity="0.3"/><path d="M 450 325 L 350 325" fill="none" stroke="#c9814a" stroke-width="4" stroke-linecap="round" stroke-linejoin="round" opacity="0.3"/><circle cx="350" cy="325" r="9" fill="#122419" stroke="#c9814a" stroke-width="4" opacity="0.3"/><rect x="200" y="500" width="14" height="20" fill="#c9814a" opacity="0.27"/><rect x="222" y="500" width="14" height="20" fill="#c9814a" opacity="0.27"/><rect x="244" y="500" width="14" height="20" fill="#c9814a" opacity="0.27"/><rect x="266" y="500" width="14" height="20" fill="#c9814a" opacity="0.27"/>
  <circle cx="75" cy="450" r="7" fill="none" stroke="#9fc0e8" stroke-width="4" opacity="0.22"/><path d="M 75 450 L 60 375 L 60 425" fill="none" stroke="#9fc0e8" stroke-width="4" stroke-linecap="round" stroke-linejoin="round" opacity="0.22"/><rect x="52" y="417" width="16" height="16" fill="#9fc0e8" opacity="0.22"/><circle cx="350" cy="275" r="7" fill="none" stroke="#9fc0e8" stroke-width="4" opacity="0.22"/><path d="M 350 275 L 350 375 L 425 375 L 550 500" fill="none" stroke="#9fc0e8" stroke-width="4" stroke-linecap="round" stroke-linejoin="round" opacity="0.22"/><circle cx="550" cy="500" r="9" fill="#122419" stroke="#9fc0e8" stroke-width="4" opacity="0.22"/><circle cx="350" cy="525" r="7" fill="none" stroke="#9fc0e8" stroke-width="4" opacity="0.22"/><path d="M 350 525 L 475 525" fill="none" stroke="#9fc0e8" stroke-width="4" stroke-linecap="round" stroke-linejoin="round" opacity="0.22"/><circle cx="475" cy="525" r="9" fill="#122419" stroke="#9fc0e8" stroke-width="4" opacity="0.22"/><rect x="300" y="475" width="14" height="20" fill="#9fc0e8" opacity="0.198"/><rect x="322" y="475" width="14" height="20" fill="#9fc0e8" opacity="0.198"/><rect x="344" y="475" width="14" height="20" fill="#9fc0e8" opacity="0.198"/><rect x="366" y="475" width="14" height="20" fill="#9fc0e8" opacity="0.198"/>
  <g transform="translate(375 345) scale(1.055) translate(-375 -345)"><line x1="375" y1="252" x2="375" y2="208" stroke="#9fc0e8" stroke-width="10" stroke-linecap="round"/><circle cx="375" cy="196" r="13" fill="#9fc0e8"/><rect x="262" y="252" width="226" height="188" rx="28" fill="#173021" stroke="#9fc0e8" stroke-width="10"/><rect x="236" y="310" width="26" height="64" rx="8" fill="#9fc0e8" opacity="0.7"/><rect x="488" y="310" width="26" height="64" rx="8" fill="#9fc0e8" opacity="0.7"/><rect x="300" y="308" width="52" height="30" rx="8" fill="#9fc0e8"/><rect x="398" y="308" width="52" height="30" rx="8" fill="#9fc0e8"/><rect x="318" y="384" width="114" height="12" rx="6" fill="#9fc0e8" opacity="0.6"/></g>
</g>
<rect x="52" y="150" width="646" height="410" rx="14" fill="none" stroke="#274a35" stroke-width="3"/>
<text x="200" y="102" font-family="DejaVu Sans Condensed" font-weight="bold" font-size="46"
  letter-spacing="2" fill="#dbe7de">GARBAGEBOT</text>
<polygon points="95,28 152,61 152,127 95,160 38,127 38,61" fill="#f0b23e" stroke="#1c1405" stroke-width="4"/>
<text x="95" y="118" text-anchor="middle" font-family="DejaVu Sans" font-weight="bold" font-size="74" fill="#1c1405">2</text>
<text x="375" y="608" text-anchor="middle" font-family="DejaVu Sans Mono" font-size="26" letter-spacing="3"
  fill="#87a693">UNIT · ROBOT</text>
<line x1="80" y1="626" x2="670" y2="626" stroke="#4db4ff" stroke-width="2" opacity="0.5"/>
<rect x="46" y="640" width="658" height="236" rx="16" fill="#0b2c55" opacity="0.55"/>
<text x="375" y="742.6" text-anchor="middle" font-family="DejaVu Sans" font-size="30"
       fill="#dbe7de">Breakdown: Add a random Component to</text>
<text x="375" y="784.0" text-anchor="middle" font-family="DejaVu Sans" font-size="30"
       fill="#dbe7de">your hand.</text>

    <circle cx="95" cy="935" r="56" fill="#0c1811" stroke="#f0b23e" stroke-width="7"/>
    <text x="95" y="954" text-anchor="middle" font-family="DejaVu Sans" font-weight="bold" font-size="56" fill="#f0b23e">2</text>
    <circle cx="655" cy="935" r="56" fill="#0c1811" stroke="#5fe0a0" stroke-width="7"/>
    <text x="655" y="954" text-anchor="middle" font-family="DejaVu Sans" font-weight="bold" font-size="56" fill="#5fe0a0">3</text>
<rect x="70" y="1004" width="22" height="30" fill="url(#guldgrad)"/><rect x="104" y="1004" width="22" height="30" fill="url(#guldgrad)"/><rect x="138" y="1004" width="22" height="30" fill="url(#guldgrad)"/><rect x="172" y="1004" width="22" height="30" fill="url(#guldgrad)"/><rect x="206" y="1004" width="22" height="30" fill="url(#guldgrad)"/><rect x="240" y="1004" width="22" height="30" fill="url(#guldgrad)"/><rect x="274" y="1004" width="22" height="30" fill="url(#guldgrad)"/><rect x="308" y="1004" width="22" height="30" fill="url(#guldgrad)"/><rect x="342" y="1004" width="22" height="30" fill="url(#guldgrad)"/><rect x="376" y="1004" width="22" height="30" fill="url(#guldgrad)"/><rect x="410" y="1004" width="22" height="30" fill="url(#guldgrad)"/><rect x="444" y="1004" width="22" height="30" fill="url(#guldgrad)"/><rect x="478" y="1004" width="22" height="30" fill="url(#guldgrad)"/><rect x="512" y="1004" width="22" height="30" fill="url(#guldgrad)"/><rect x="546" y="1004" width="22" height="30" fill="url(#guldgrad)"/><rect x="580" y="1004" width="22" height="30" fill="url(#guldgrad)"/><rect x="614" y="1004" width="22" height="30" fill="url(#guldgrad)"/><rect x="648" y="1004" width="22" height="30" fill="url(#guldgrad)"/>
<rect x="60" y="1000" width="630" height="4" fill="#c9814a" opacity="0.5"/>
</svg>