<svg xmlns="http://www.w3.org/2000/svg" width="750" height="1050" viewBox="0 0 750 1050">
<defs>
  <linearGradient id="bggrad" x1="0" y1="0" x2="0" y2="1">
    <stop offset="0" stop-color="#4a0f52"/><stop offset="0.5" stop-color="#2d0932"/><stop offset="1" stop-color="#120414"/>
  </linearGradient>
  <radialGradient id="artgrad" cx="0.5" cy="0.42" r="0.75">
    <stop offset="0" stop-color="#3f1341"/><stop offset="1" stop-color="#230827"/>
  </radialGradient>
  <linearGradient id="guldgrad" x1="0" y1="0" x2="0" y2="1">
    <stop offset="0" stop-color="#ffd166"/><stop offset="1" stop-color="#9a7422"/>
  </linearGradient>
  <clipPath id="artclip"><rect x="52" y="150" width="646" height="410" rx="14"/></clipPath>
</defs>
<rect x="6" y="6" width="738" height="1038" rx="36" fill="url(#bggrad)" stroke="#e85adf" stroke-width="6"/>
<rect x="22" y="22" width="706" height="1006" rx="26" fill="none" stroke="#e85adf" stroke-width="2" opacity="0.7"/>
<circle cx="625" cy="850" r="7" fill="none" stroke="#c9814a" stroke-width="4" opacity="0.1"/><path d="M 625 850 L 625 925" fill="none" stroke="#c9814a" stroke-width="4" stroke-linecap="round" stroke-linejoin="round" opacity="0.1"/><circle cx="625" cy="925" r="9" fill="#122419" stroke="#c9814a" stroke-width="4" opacity="0.1"/><circle cx="200" cy="850" r="7" fill="none" stroke="#c9814a" stroke-width="4" opacity="0.1"/><path d="M 200 850 L 350 850" fill="none" stroke="#c9814a" stroke-width="4" stroke-linecap="round" stroke-linejoin="round" opacity="0.1"/><rect x="342" y="842" width="16" height="16" fill="#c9814a" opacity="0.1"/><circle cx="50" cy="925" r="7" fill="none" stroke="#c9814a" stroke-width="4" opacity="0.1"/><path d="M 50 925 L 50 850 L 175 850 L 175 775" fill="none" stroke="#c9814a" stroke-width="4" stroke-linecap="round" stroke-linejoin="round" opacity="0.1"/><rect x="167" y="767" width="16" height="16" fill="#c9814a" opacity="0.1"/><circle cx="600" cy="975" r="7" fill="none" stroke="#c9814a" stroke-width="4" opacity="0.1"/><path d="M 600 975 L 600 980 L 700 980" fill="none" stroke="#c9814a" stroke-width="4" stroke-linecap="round" stroke-linejoin="round" opacity="0.1"/><rect x="692" y="972" width="16" height="16" fill="#c9814a" opacity="0.1"/><circle cx="350" cy="725" r="7" fill="none" stroke="#c9814a" stroke-width="4" opacity="0.1"/><path d="M 350 725 L 450 725" fill="none" stroke="#c9814a" stroke-width="4" stroke-linecap="round" stroke-linejoin="round" opacity="0.1"/><rect x="442" y="717" width="16" height="16" fill="#c9814a" opacity="0.1"/><rect x="100" y="800" width="14" height="20" fill="#c9814a" opacity="0.09000000000000001"/><rect x="122" y="800" width="14" height="20" fill="#c9814a" opacity="0.09000000000000001"/><rect x="144" y="800" width="14" height="20" fill="#c9814a" opacity="0.09000000000000001"/><rect x="166" y="800" width="14" height="20" fill="#c9814a" opacity="0.09000000000000001"/>
<g clip-path="url(#artclip)">
  <rect x="52" y="150" width="646" height="410" fill="url(#artgrad)"/>
  <circle cx="525" cy="450" r="7" fill="none" stroke="#c9814a" stroke-width="4" opacity="0.3"/><path d="M 525 450 L 525 300 L 400 300" fill="none" stroke="#c9814a" stroke-width="4" stroke-linecap="round" stroke-linejoin="round" opacity="0.3"/><rect x="392" y="292" width="16" height="16" fill="#c9814a" opacity="0.3"/><circle cx="425" cy="475" r="7" fill="none" stroke="#c9814a" stroke-width="4" opacity="0.3"/><path d="M 425 475 L 525 375 L 525 275" fill="none" stroke="#c9814a" stroke-width="4" stroke-linecap="round" stroke-linejoin="round" opacity="0.3"/><circle cx="525" cy="275" r="9" fill="#122419" stroke="#c9814a" stroke-width="4" opacity="0.3"/><circle cx="575" cy="175" r="7" fill="none" stroke="#c9814a" stroke-width="4" opacity="0.3"/><path d="M 575 175 L 575 160 L 650 160 L 650 310" fill="none" stroke="#c9814a" stroke-width="4" stroke-linecap="round" stroke-linejoin="round" opacity="0.3"/><rect x="642" y="302" width="16" height="16" fill="#c9814a" opacity="0.3"/><circle cx="175" cy="175" r="7" fill="none" stroke="#c9814a" stroke-width="4" opacity="0.3"/><path d="M 175 175 L 100 160 L 175 160" fill="none" stroke="#c9814a" stroke-width="4" stroke-linecap="round" stroke-linejoin="round" opacity="0.3"/><circle cx="175" cy="160" r="9" fill="#122419" stroke="#c9814a" stroke-width="4" opacity="0.3"/><circle cx="225" cy="350" r="7" fill="none" stroke="#c9814a" stroke-width="4" opacity="0.3"/><path d="M 225 350 L 225 275 L 150 275" fill="none" stroke="#c9814a" stroke-width="4" stroke-linecap="round" stroke-linejoin="round" opacity="0.3"/><rect x="142" y="267" width="16" height="16" fill="#c9814a" opacity="0.3"/><circle cx="275" cy="350" r="7" fill="none" stroke="#c9814a" stroke-width="4" opacity="0.3"/><path d="M 275 350 L 175 450 L 300 450 L 400 550" fill="none" stroke="#c9814a" stroke-width="4" stroke-linecap="round" stroke-linejoin="round" opacity="0.3"/><rect x="392" y="542" width="16" height="16" fill="#c9814a" opacity="0.3"/><circle cx="350" cy="450" r="7" fill="none" stroke="#c9814a" stroke-width="4" opacity="0.3"/><path d="M 350 450 L 350 400 L 425 400 L 425 325" fill="none" stroke="#c9814a" stroke-width="4" stroke-linecap="round" stroke-linejoin="round" opacity="0.3"/><circle cx="425" cy="325" r="9" fill="#122419" stroke="#c9814a" stroke-width="4" opacity="0.3"/><circle cx="75" cy="225" r="7" fill="none" stroke="#c9814a" stroke-width="4" opacity="0.3"/><path d="M 75 225 L 75 175" fill="none" stroke="#c9814a" stroke-width="4" stroke-linecap="round" stroke-linejoin="round" opacity="0.3"/><rect x="67" y="167" width="16" height="16" fill="#c9814a" opacity="0.3"/><circle cx="350" cy="375" r="7" fill="none" stroke="#c9814a" stroke-width="4" opacity="0.3"/><path d="M 350 375 L 350 300 L 450 300" fill="none" stroke="#c9814a" stroke-width="4" stroke-linecap="round" stroke-linejoin="round" opacity="0.3"/><circle cx="450" cy="300" r="9" fill="#122419" stroke="#c9814a" stroke-width="4" opacity="0.3"/><rect x="200" y="200" width="14" height="20" fill="#c9814a" opacity="0.27"/><rect x="222" y="200" width="14" height="20" fill="#c9814a" opacity="0.27"/><rect x="244" y="200" width="14" height="20" fill="#c9814a" opacity="0.27"/><rect x="266" y="200" width="14" height="20" fill="#c9814a" opacity="0.27"/>
  <circle cx="525" cy="200" r="7" fill="none" stroke="#c76bd9" stroke-width="4" opacity="0.22"/><path d="M 525 200 L 375 350 L 425 350" fill="none" stroke="#c76bd9" stroke-width="4" stroke-linecap="round" stroke-linejoin="round" opacity="0.22"/><circle cx="425" cy="350" r="9" fill="#122419" stroke="#c76bd9" stroke-width="4" opacity="0.22"/><circle cx="200" cy="450" r="7" fill="none" stroke="#c76bd9" stroke-width="4" opacity="0.22"/><path d="M 200 450 L 200 500 L 75 500 L 75 450" fill="none" stroke="#c76bd9" stroke-width="4" stroke-linecap="round" stroke-linejoin="round" opacity="0.22"/><rect x="67" y="442" width="16" height="16" fill="#c76bd9" opacity="0.22"/><circle cx="475" cy="225" r="7" fill="none" stroke="#c76bd9" stroke-width="4" opacity="0.22"/><path d="M 475 225 L 475 160 L 525 160 L 575 160" fill="none" stroke="#c76bd9" stroke-width="4" stroke-linecap="round" stroke-linejoin="round" opacity="0.22"/><rect x="567" y="152" width="16" height="16" fill="#c76bd9" opacity="0.22"/><rect x="500" y="425" width="14" height="20" fill="#c76bd9" opacity="0.198"/><rect x="522" y="425" width="14" height="20" fill="#c76bd9" opacity="0.198"/><rect x="544" y="425" width="14" height="20" fill="#c76bd9" opacity="0.198"/><rect x="566" y="425" width="14" height="20" fill="#c76bd9" opacity="0.198"/>
  <g transform="translate(375 345) scale(1.030) translate(-375 -345)"><line x1="463.6924351210835" y1="381.7376095070486" x2="515.4296889417155" y2="403.16788171949366" stroke="#c76bd9" stroke-width="13" stroke-linecap="round"/><circle cx="515.4296889417155" cy="403.16788171949366" r="15" fill="#c76bd9"/><line x1="411.7376095070486" y1="433.6924351210835" x2="433.16788171949366" y2="485.4296889417156" stroke="#c76bd9" stroke-width="13" stroke-linecap="round"/><circle cx="433.16788171949366" cy="485.4296889417156" r="15" fill="#c76bd9"/><line x1="338.2623904929514" y1="433.6924351210835" x2="316.8321182805064" y2="485.4296889417156" stroke="#c76bd9" stroke-width="13" stroke-linecap="round"/><circle cx="316.8321182805064" cy="485.4296889417156" r="15" fill="#c76bd9"/><line x1="286.3075648789165" y1="381.73760950704866" x2="234.5703110582844" y2="403.16788171949366" stroke="#c76bd9" stroke-width="13" stroke-linecap="round"/><circle cx="234.5703110582844" cy="403.16788171949366" r="15" fill="#c76bd9"/><line x1="286.3075648789165" y1="308.2623904929514" x2="234.5703110582844" y2="286.8321182805064" stroke="#c76bd9" stroke-width="13" stroke-linecap="round"/><circle cx="234.5703110582844" cy="286.8321182805064" r="15" fill="#c76bd9"/><line x1="338.26239049295134" y1="256.3075648789165" x2="316.8321182805063" y2="204.57031105828446" stroke="#c76bd9" stroke-width="13" stroke-linecap="round"/><circle cx="316.8321182805063" cy="204.57031105828446" r="15" fill="#c76bd9"/><line x1="411.73760950704866" y1="256.3075648789165" x2="433.16788171949366" y2="204.57031105828443" stroke="#c76bd9" stroke-width="13" stroke-linecap="round"/><circle cx="433.16788171949366" cy="204.57031105828443" r="15" fill="#c76bd9"/><line x1="463.6924351210835" y1="308.26239049295134" x2="515.4296889417155" y2="286.8321182805063" stroke="#c76bd9" stroke-width="13" stroke-linecap="round"/><circle cx="515.4296889417155" cy="286.8321182805063" r="15" fill="#c76bd9"/><circle cx="375" cy="345" r="96" fill="#173021" stroke="#c76bd9" stroke-width="10"/><circle cx="345" cy="322" r="14" fill="#c76bd9"/><circle cx="404" cy="352" r="19" fill="#c76bd9"/><circle cx="358" cy="386" r="10" fill="#c76bd9"/></g>
</g>
<rect x="52" y="150" width="646" height="410" rx="14" fill="none" stroke="#274a35" stroke-width="3"/>
<text x="200" y="102" font-family="DejaVu Sans Condensed" font-weight="bold" font-size="46"
  letter-spacing="2" fill="#dbe7de">SPYWARE</text>
<polygon points="95,28 152,61 152,127 95,160 38,127 38,61" fill="#f0b23e" stroke="#1c1405" stroke-width="4"/>
<text x="95" y="118" text-anchor="middle" font-family="DejaVu Sans" font-weight="bold" font-size="74" fill="#1c1405">2</text>
<text x="375" y="608" text-anchor="middle" font-family="DejaVu Sans Mono" font-size="26" letter-spacing="3"
  fill="#87a693">UNIT · VIRUS</text>
<line x1="80" y1="626" x2="670" y2="626" stroke="#e85adf" stroke-width="2" opacity="0.5"/>
<rect x="46" y="640" width="658" height="236" rx="16" fill="#3d0d44" opacity="0.55"/>
<text x="375" y="742.6" text-anchor="middle" font-family="DejaVu Sans" font-size="30"
       fill="#dbe7de">Install: Copy a random card from your</text>
<text x="375" y="784.0" text-anchor="middle" font-family="DejaVu Sans" font-size="30"
       fill="#dbe7de">opponent’s hand to yours.</text>

    <circle cx="95" cy="935" r="56" fill="#0c1811" stroke="#f0b23e" stroke-width="7"/>
    <text x="95" y="954" text-anchor="middle" font-family="DejaVu Sans" font-weight="bold" font-size="56" fill="#f0b23e">1</text>
    <circle cx="655" cy="935" r="56" fill="#0c1811" stroke="#5fe0a0" stroke-width="7"/>
    <text x="655" y="954" text-anchor="middle" font-family="DejaVu Sans" font-weight="bold" font-size="56" fill="#5fe0a0">3</text>
<rect x="70" y="1004" width="22" height="30" fill="url(#guldgrad)"/><rect x="104" y="1004" width="22" height="30" fill="url(#guldgrad)"/><rect x="138" y="1004" width="22" height="30" fill="url(#guldgrad)"/><rect x="172" y="1004" width="22" height="30" fill="url(#guldgrad)"/><rect x="206" y="1004" width="22" height="30" fill="url(#guldgrad)"/><rect x="240" y="1004" width="22" height="30" fill="url(#guldgrad)"/><rect x="274" y="1004" width="22" height="30" fill="url(#guldgrad)"/><rect x="308" y="1004" width="22" height="30" fill="url(#guldgrad)"/><rect x="342" y="1004" width="22" height="30" fill="url(#guldgrad)"/><rect x="376" y="1004" width="22" height="30" fill="url(#guldgrad)"/><rect x="410" y="1004" width="22" height="30" fill="url(#guldgrad)"/><rect x="444" y="1004" width="22" height="30" fill="url(#guldgrad)"/><rect x="478" y="1004" width="22" height="30" fill="url(#guldgrad)"/><rect x="512" y="1004" width="22" height="30" fill="url(#guldgrad)"/><rect x="546" y="1004" width="22" height="30" fill="url(#guldgrad)"/><rect x="580" y="1004" width="22" height="30" fill="url(#guldgrad)"/><rect x="614" y="1004" width="22" height="30" fill="url(#guldgrad)"/><rect x="648" y="1004" width="22" height="30" fill="url(#guldgrad)"/>
<rect x="60" y="1000" width="630" height="4" fill="#c9814a" opacity="0.5"/>
</svg>