<svg xmlns="http://www.w3.org/2000/svg" width="750" height="1050" viewBox="0 0 750 1050">
<defs>
  <linearGradient id="bggrad" x1="0" y1="0" x2="0" y2="1">
    <stop offset="0" stop-color="#0d3566"/><stop offset="0.5" stop-color="#08213f"/><stop offset="1" stop-color="#030c18"/>
  </linearGradient>
  <radialGradient id="artgrad" cx="0.5" cy="0.42" r="0.75">
    <stop offset="0" stop-color="#103050"/><stop offset="1" stop-color="#061a33"/>
  </radialGradient>
  <linearGradient id="guldgrad" x1="0" y1="0" x2="0" y2="1">
    <stop offset="0" stop-color="#ffd166"/><stop offset="1" stop-color="#9a7422"/>
  </linearGradient>
  <clipPath id="artclip"><rect x="52" y="150" width="646" height="410" rx="14"/></clipPath>
</defs>
<rect x="6" y="6" width="738" height="1038" rx="36" fill="url(#bggrad)" stroke="#4db4ff" stroke-width="6"/>
<rect x="22" y="22" width="706" height="1006" rx="26" fill="none" stroke="#4db4ff" stroke-width="2" opacity="0.7"/>
<circle cx="475" cy="825" r="7" fill="none" stroke="#c9814a" stroke-width="4" opacity="0.1"/><path d="M 475 825 L 550 900" fill="none" stroke="#c9814a" stroke-width="4" stroke-linecap="round" stroke-linejoin="round" opacity="0.1"/><circle cx="550" cy="900" r="9" fill="#122419" stroke="#c9814a" stroke-width="4" opacity="0.1"/><circle cx="350" cy="625" r="7" fill="none" stroke="#c9814a" stroke-width="4" opacity="0.1"/><path d="M 350 625 L 250 625 L 375 620 L 475 620" fill="none" stroke="#c9814a" stroke-width="4" stroke-linecap="round" stroke-linejoin="round" opacity="0.1"/><circle cx="475" cy="620" r="9" fill="#122419" stroke="#c9814a" stroke-width="4" opacity="0.1"/><circle cx="625" cy="675" r="7" fill="none" stroke="#c9814a" stroke-width="4" opacity="0.1"/><path d="M 625 675 L 625 775 L 575 825" fill="none" stroke="#c9814a" stroke-width="4" stroke-linecap="round" stroke-linejoin="round" opacity="0.1"/><rect x="567" y="817" width="16" height="16" fill="#c9814a" opacity="0.1"/><circle cx="275" cy="725" r="7" fill="none" stroke="#c9814a" stroke-width="4" opacity="0.1"/><path d="M 275 725 L 225 675 L 150 750 L 50 650" fill="none" stroke="#c9814a" stroke-width="4" stroke-linecap="round" stroke-linejoin="round" opacity="0.1"/><circle cx="50" cy="650" r="9" fill="#122419" stroke="#c9814a" stroke-width="4" opacity="0.1"/><circle cx="525" cy="775" r="7" fill="none" stroke="#c9814a" stroke-width="4" opacity="0.1"/><path d="M 525 775 L 575 775 L 575 850 L 450 725" fill="none" stroke="#c9814a" stroke-width="4" stroke-linecap="round" stroke-linejoin="round" opacity="0.1"/><circle cx="450" cy="725" r="9" fill="#122419" stroke="#c9814a" stroke-width="4" opacity="0.1"/><rect x="200" y="800" width="14" height="20" fill="#c9814a" opacity="0.09000000000000001"/><rect x="222" y="800" width="14" height="20" fill="#c9814a" opacity="0.09000000000000001"/><rect x="244" y="800" width="14" height="20" fill="#c9814a" opacity="0.09000000000000001"/><rect x="266" y="800" width="14" height="20" fill="#c9814a" opacity="0.09000000000000001"/>
<g clip-path="url(#artclip)">
  <rect x="52" y="150" width="646" height="410" fill="url(#artgrad)"/>
  <circle cx="275" cy="425" r="7" fill="none" stroke="#c9814a" stroke-width="4" opacity="0.3"/><path d="M 275 425 L 275 300 L 350 225" fill="none" stroke="#c9814a" stroke-width="4" stroke-linecap="round" stroke-linejoin="round" opacity="0.3"/><circle cx="350" cy="225" r="9" fill="#122419" stroke="#c9814a" stroke-width="4" opacity="0.3"/><circle cx="150" cy="225" r="7" fill="none" stroke="#c9814a" stroke-width="4" opacity="0.3"/><path d="M 150 225 L 150 175 L 300 175 L 425 300" fill="none" stroke="#c9814a" stroke-width="4" stroke-linecap="round" stroke-linejoin="round" opacity="0.3"/><rect x="417" y="292" width="16" height="16" fill="#c9814a" opacity="0.3"/><circle cx="225" cy="350" r="7" fill="none" stroke="#c9814a" stroke-width="4" opacity="0.3"/><path d="M 225 350 L 225 300" fill="none" stroke="#c9814a" stroke-width="4" stroke-linecap="round" stroke-linejoin="round" opacity="0.3"/><circle cx="225" cy="300" r="9" fill="#122419" stroke="#c9814a" stroke-width="4" opacity="0.3"/><circle cx="475" cy="550" r="7" fill="none" stroke="#c9814a" stroke-width="4" opacity="0.3"/><path d="M 475 550 L 475 550 L 350 425 L 475 425" fill="none" stroke="#c9814a" stroke-width="4" stroke-linecap="round" stroke-linejoin="round" opacity="0.3"/><rect x="467" y="417" width="16" height="16" fill="#c9814a" opacity="0.3"/><circle cx="150" cy="250" r="7" fill="none" stroke="#c9814a" stroke-width="4" opacity="0.3"/><path d="M 150 250 L 275 250 L 125 160 L 125 285" fill="none" stroke="#c9814a" stroke-width="4" stroke-linecap="round" stroke-linejoin="round" opacity="0.3"/><rect x="117" y="277" width="16" height="16" fill="#c9814a" opacity="0.3"/><circle cx="550" cy="175" r="7" fill="none" stroke="#c9814a" stroke-width="4" opacity="0.3"/><path d="M 550 175 L 600 160 L 450 160" fill="none" stroke="#c9814a" stroke-width="4" stroke-linecap="round" stroke-linejoin="round" opacity="0.3"/><circle cx="450" cy="160" r="9" fill="#122419" stroke="#c9814a" stroke-width="4" opacity="0.3"/><circle cx="475" cy="375" r="7" fill="none" stroke="#c9814a" stroke-width="4" opacity="0.3"/><path d="M 475 375 L 350 500" fill="none" stroke="#c9814a" stroke-width="4" stroke-linecap="round" stroke-linejoin="round" opacity="0.3"/><circle cx="350" cy="500" r="9" fill="#122419" stroke="#c9814a" stroke-width="4" opacity="0.3"/><circle cx="575" cy="225" r="7" fill="none" stroke="#c9814a" stroke-width="4" opacity="0.3"/><path d="M 575 225 L 500 225" fill="none" stroke="#c9814a" stroke-width="4" stroke-linecap="round" stroke-linejoin="round" opacity="0.3"/><rect x="492" y="217" width="16" height="16" fill="#c9814a" opacity="0.3"/><circle cx="675" cy="200" r="7" fill="none" stroke="#c9814a" stroke-width="4" opacity="0.3"/><path d="M 675 200 L 675 160" fill="none" stroke="#c9814a" stroke-width="4" stroke-linecap="round" stroke-linejoin="round" opacity="0.3"/><rect x="667" y="152" width="16" height="16" fill="#c9814a" opacity="0.3"/><rect x="525" y="425" width="14" height="20" fill="#c9814a" opacity="0.27"/><rect x="547" y="425" width="14" height="20" fill="#c9814a" opacity="0.27"/><rect x="569" y="425" width="14" height="20" fill="#c9814a" opacity="0.27"/><rect x="591" y="425" width="14" height="20" fill="#c9814a" opacity="0.27"/>
  <circle cx="225" cy="500" r="7" fill="none" stroke="#9fc0e8" stroke-width="4" opacity="0.22"/><path d="M 225 500 L 225 400 L 375 400 L 275 300" fill="none" stroke="#9fc0e8" stroke-width="4" stroke-linecap="round" stroke-linejoin="round" opacity="0.22"/><circle cx="275" cy="300" r="9" fill="#122419" stroke="#9fc0e8" stroke-width="4" opacity="0.22"/><circle cx="450" cy="250" r="7" fill="none" stroke="#9fc0e8" stroke-width="4" opacity="0.22"/><path d="M 450 250 L 375 325 L 375 225 L 300 225" fill="none" stroke="#9fc0e8" stroke-width="4" stroke-linecap="round" stroke-linejoin="round" opacity="0.22"/><circle cx="300" cy="225" r="9" fill="#122419" stroke="#9fc0e8" stroke-width="4" opacity="0.22"/><circle cx="225" cy="550" r="7" fill="none" stroke="#9fc0e8" stroke-width="4" opacity="0.22"/><path d="M 225 550 L 300 550" fill="none" stroke="#9fc0e8" stroke-width="4" stroke-linecap="round" stroke-linejoin="round" opacity="0.22"/><rect x="292" y="542" width="16" height="16" fill="#9fc0e8" opacity="0.22"/><rect x="75" y="400" width="14" height="20" fill="#9fc0e8" opacity="0.198"/><rect x="97" y="400" width="14" height="20" fill="#9fc0e8" opacity="0.198"/><rect x="119" y="400" width="14" height="20" fill="#9fc0e8" opacity="0.198"/><rect x="141" y="400" width="14" height="20" fill="#9fc0e8" opacity="0.198"/>
  <g transform="translate(375 345) scale(0.991) translate(-375 -345)"><line x1="375" y1="252" x2="375" y2="208" stroke="#9fc0e8" stroke-width="10" stroke-linecap="round"/><circle cx="375" cy="196" r="13" fill="#9fc0e8"/><rect x="262" y="252" width="226" height="188" rx="28" fill="#173021" stroke="#9fc0e8" stroke-width="10"/><rect x="236" y="310" width="26" height="64" rx="8" fill="#9fc0e8" opacity="0.7"/><rect x="488" y="310" width="26" height="64" rx="8" fill="#9fc0e8" opacity="0.7"/><rect x="300" y="308" width="52" height="30" rx="8" fill="#9fc0e8"/><rect x="398" y="308" width="52" height="30" rx="8" fill="#9fc0e8"/><rect x="318" y="384" width="114" height="12" rx="6" fill="#9fc0e8" opacity="0.6"/></g>
</g>
<rect x="52" y="150" width="646" height="410" rx="14" fill="none" stroke="#274a35" stroke-width="3"/>
<text x="200" y="102" font-family="DejaVu Sans Condensed" font-weight="bold" font-size="46"
  letter-spacing="2" fill="#dbe7de">SPEEDBOT</text>
<polygon points="95,28 152,61 152,127 95,160 38,127 38,61" fill="#f0b23e" stroke="#1c1405" stroke-width="4"/>
<text x="95" y="118" text-anchor="middle" font-family="DejaVu Sans" font-weight="bold" font-size="74" fill="#1c1405">3</text>
<text x="375" y="608" text-anchor="middle" font-family="DejaVu Sans Mono" font-size="26" letter-spacing="3"
  fill="#87a693">UNIT · ROBOT</text>
<line x1="80" y1="626" x2="670" y2="626" stroke="#4db4ff" stroke-width="2" opacity="0.5"/>
<rect x="46" y="640" width="658" height="236" rx="16" fill="#0b2c55" opacity="0.55"/>
<text x="375" y="763.3" text-anchor="middle" font-family="DejaVu Sans" font-size="30"
       fill="#dbe7de">Turbo.</text>

    <circle cx="95" cy="935" r="56" fill="#0c1811" stroke="#f0b23e" stroke-width="7"/>
    <text x="95" y="954" text-anchor="middle" font-family="DejaVu Sans" font-weight="bold" font-size="56" fill="#f0b23e">3</text>
    <circle cx="655" cy="935" r="56" fill="#0c1811" stroke="#5fe0a0" stroke-width="7"/>
    <text x="655" y="954" text-anchor="middle" font-family="DejaVu Sans" font-weight="bold" font-size="56" fill="#5fe0a0">2</text>
<rect x="70" y="1004" width="22" height="30" fill="url(#guldgrad)"/><rect x="104" y="1004" width="22" height="30" fill="url(#guldgrad)"/><rect x="138" y="1004" width="22" height="30" fill="url(#guldgrad)"/><rect x="172" y="1004" width="22" height="30" fill="url(#guldgrad)"/><rect x="206" y="1004" width="22" height="30" fill="url(#guldgrad)"/><rect x="240" y="1004" width="22" height="30" fill="url(#guldgrad)"/><rect x="274" y="1004" width="22" height="30" fill="url(#guldgrad)"/><rect x="308" y="1004" width="22" height="30" fill="url(#guldgrad)"/><rect x="342" y="1004" width="22" height="30" fill="url(#guldgrad)"/><rect x="376" y="1004" width="22" height="30" fill="url(#guldgrad)"/><rect x="410" y="1004" width="22" height="30" fill="url(#guldgrad)"/><rect x="444" y="1004" width="22" height="30" fill="url(#guldgrad)"/><rect x="478" y="1004" width="22" height="30" fill="url(#guldgrad)"/><rect x="512" y="1004" width="22" height="30" fill="url(#guldgrad)"/><rect x="546" y="1004" width="22" height="30" fill="url(#guldgrad)"/><rect x="580" y="1004" width="22" height="30" fill="url(#guldgrad)"/><rect x="614" y="1004" width="22" height="30" fill="url(#guldgrad)"/><rect x="648" y="1004" width="22" height="30" fill="url(#guldgrad)"/>
<rect x="60" y="1000" width="630" height="4" fill="#c9814a" opacity="0.5"/>
</svg>