<svg xmlns="http://www.w3.org/2000/svg" width="750" height="1050" viewBox="0 0 750 1050">
<defs>
  <linearGradient id="bggrad" x1="0" y1="0" x2="0" y2="1">
    <stop offset="0" stop-color="#173021"/><stop offset="0.5" stop-color="#122419"/><stop offset="1" stop-color="#0c1811"/>
  </linearGradient>
  <linearGradient id="guldgrad" x1="0" y1="0" x2="0" y2="1">
    <stop offset="0" stop-color="#ffd166"/><stop offset="1" stop-color="#9a7422"/>
  </linearGradient>
  <clipPath id="artclip"><rect x="52" y="150" width="646" height="410" rx="14"/></clipPath>
</defs>
<rect x="6" y="6" width="738" height="1038" rx="36" fill="url(#bggrad)" stroke="#274a35" stroke-width="6"/>
<rect x="22" y="22" width="706" height="1006" rx="26" fill="none" stroke="#c9814a" stroke-width="2" opacity="0.55"/>
<circle cx="675" cy="950" r="7" fill="none" stroke="#c9814a" stroke-width="4" opacity="0.1"/><path d="M 675 950 L 675 825 L 600 825" fill="none" stroke="#c9814a" stroke-width="4" stroke-linecap="round" stroke-linejoin="round" opacity="0.1"/><circle cx="600" cy="825" r="9" fill="#122419" stroke="#c9814a" stroke-width="4" opacity="0.1"/><circle cx="225" cy="825" r="7" fill="none" stroke="#c9814a" stroke-width="4" opacity="0.1"/><path d="M 225 825 L 275 825 L 275 750 L 125 900" fill="none" stroke="#c9814a" stroke-width="4" stroke-linecap="round" stroke-linejoin="round" opacity="0.1"/><circle cx="125" cy="900" r="9" fill="#122419" stroke="#c9814a" stroke-width="4" opacity="0.1"/><circle cx="275" cy="700" r="7" fill="none" stroke="#c9814a" stroke-width="4" opacity="0.1"/><path d="M 275 700 L 275 775 L 425 775" fill="none" stroke="#c9814a" stroke-width="4" stroke-linecap="round" stroke-linejoin="round" opacity="0.1"/><circle cx="425" cy="775" r="9" fill="#122419" stroke="#c9814a" stroke-width="4" opacity="0.1"/><circle cx="450" cy="975" r="7" fill="none" stroke="#c9814a" stroke-width="4" opacity="0.1"/><path d="M 450 975 L 450 875 L 500 875" fill="none" stroke="#c9814a" stroke-width="4" stroke-linecap="round" stroke-linejoin="round" opacity="0.1"/><circle cx="500" cy="875" r="9" fill="#122419" stroke="#c9814a" stroke-width="4" opacity="0.1"/><circle cx="325" cy="900" r="7" fill="none" stroke="#c9814a" stroke-width="4" opacity="0.1"/><path d="M 325 900 L 400 900 L 400 980" fill="none" stroke="#c9814a" stroke-width="4" stroke-linecap="round" stroke-linejoin="round" opacity="0.1"/><circle cx="400" cy="980" r="9" fill="#122419" stroke="#c9814a" stroke-width="4" opacity="0.1"/><rect x="375" y="925" width="14" height="20" fill="#c9814a" opacity="0.09000000000000001"/><rect x="397" y="925" width="14" height="20" fill="#c9814a" opacity="0.09000000000000001"/><rect x="419" y="925" width="14" height="20" fill="#c9814a" opacity="0.09000000000000001"/><rect x="441" y="925" width="14" height="20" fill="#c9814a" opacity="0.09000000000000001"/>
<g clip-path="url(#artclip)">
  <rect x="52" y="150" width="646" height="410" fill="#0c1811"/>
  <circle cx="225" cy="175" r="7" fill="none" stroke="#c9814a" stroke-width="4" opacity="0.3"/><path d="M 225 175 L 375 325" fill="none" stroke="#c9814a" stroke-width="4" stroke-linecap="round" stroke-linejoin="round" opacity="0.3"/><circle cx="375" cy="325" r="9" fill="#122419" stroke="#c9814a" stroke-width="4" opacity="0.3"/><circle cx="125" cy="525" r="7" fill="none" stroke="#c9814a" stroke-width="4" opacity="0.3"/><path d="M 125 525 L 225 425 L 100 550 L 100 425" fill="none" stroke="#c9814a" stroke-width="4" stroke-linecap="round" stroke-linejoin="round" opacity="0.3"/><rect x="92" y="417" width="16" height="16" fill="#c9814a" opacity="0.3"/><circle cx="250" cy="150" r="7" fill="none" stroke="#c9814a" stroke-width="4" opacity="0.3"/><path d="M 250 150 L 250 160 L 400 160" fill="none" stroke="#c9814a" stroke-width="4" stroke-linecap="round" stroke-linejoin="round" opacity="0.3"/><circle cx="400" cy="160" r="9" fill="#122419" stroke="#c9814a" stroke-width="4" opacity="0.3"/><circle cx="200" cy="375" r="7" fill="none" stroke="#c9814a" stroke-width="4" opacity="0.3"/><path d="M 200 375 L 325 250 L 475 160" fill="none" stroke="#c9814a" stroke-width="4" stroke-linecap="round" stroke-linejoin="round" opacity="0.3"/><rect x="467" y="152" width="16" height="16" fill="#c9814a" opacity="0.3"/><circle cx="575" cy="200" r="7" fill="none" stroke="#c9814a" stroke-width="4" opacity="0.3"/><path d="M 575 200 L 575 300 L 475 300" fill="none" stroke="#c9814a" stroke-width="4" stroke-linecap="round" stroke-linejoin="round" opacity="0.3"/><rect x="467" y="292" width="16" height="16" fill="#c9814a" opacity="0.3"/><circle cx="400" cy="375" r="7" fill="none" stroke="#c9814a" stroke-width="4" opacity="0.3"/><path d="M 400 375 L 525 250 L 525 375" fill="none" stroke="#c9814a" stroke-width="4" stroke-linecap="round" stroke-linejoin="round" opacity="0.3"/><rect x="517" y="367" width="16" height="16" fill="#c9814a" opacity="0.3"/><circle cx="475" cy="475" r="7" fill="none" stroke="#c9814a" stroke-width="4" opacity="0.3"/><path d="M 475 475 L 325 475" fill="none" stroke="#c9814a" stroke-width="4" stroke-linecap="round" stroke-linejoin="round" opacity="0.3"/><rect x="317" y="467" width="16" height="16" fill="#c9814a" opacity="0.3"/><circle cx="650" cy="300" r="7" fill="none" stroke="#c9814a" stroke-width="4" opacity="0.3"/><path d="M 650 300 L 650 450" fill="none" stroke="#c9814a" stroke-width="4" stroke-linecap="round" stroke-linejoin="round" opacity="0.3"/><circle cx="650" cy="450" r="9" fill="#122419" stroke="#c9814a" stroke-width="4" opacity="0.3"/><circle cx="200" cy="450" r="7" fill="none" stroke="#c9814a" stroke-width="4" opacity="0.3"/><path d="M 200 450 L 200 375" fill="none" stroke="#c9814a" stroke-width="4" stroke-linecap="round" stroke-linejoin="round" opacity="0.3"/><rect x="192" y="367" width="16" height="16" fill="#c9814a" opacity="0.3"/><rect x="425" y="175" width="14" height="20" fill="#c9814a" opacity="0.27"/><rect x="447" y="175" width="14" height="20" fill="#c9814a" opacity="0.27"/><rect x="469" y="175" width="14" height="20" fill="#c9814a" opacity="0.27"/><rect x="491" y="175" width="14" height="20" fill="#c9814a" opacity="0.27"/>
  <circle cx="375" cy="450" r="7" fill="none" stroke="#c76bd9" stroke-width="4" opacity="0.22"/><path d="M 375 450 L 375 400 L 300 400 L 375 325" fill="none" stroke="#c76bd9" stroke-width="4" stroke-linecap="round" stroke-linejoin="round" opacity="0.22"/><circle cx="375" cy="325" r="9" fill="#122419" stroke="#c76bd9" stroke-width="4" opacity="0.22"/><circle cx="600" cy="500" r="7" fill="none" stroke="#c76bd9" stroke-width="4" opacity="0.22"/><path d="M 600 500 L 600 400 L 650 450" fill="none" stroke="#c76bd9" stroke-width="4" stroke-linecap="round" stroke-linejoin="round" opacity="0.22"/><rect x="642" y="442" width="16" height="16" fill="#c76bd9" opacity="0.22"/><circle cx="500" cy="175" r="7" fill="none" stroke="#c76bd9" stroke-width="4" opacity="0.22"/><path d="M 500 175 L 500 325 L 375 325 L 275 425" fill="none" stroke="#c76bd9" stroke-width="4" stroke-linecap="round" stroke-linejoin="round" opacity="0.22"/><circle cx="275" cy="425" r="9" fill="#122419" stroke="#c76bd9" stroke-width="4" opacity="0.22"/><rect x="375" y="375" width="14" height="20" fill="#c76bd9" opacity="0.198"/><rect x="397" y="375" width="14" height="20" fill="#c76bd9" opacity="0.198"/><rect x="419" y="375" width="14" height="20" fill="#c76bd9" opacity="0.198"/><rect x="441" y="375" width="14" height="20" fill="#c76bd9" opacity="0.198"/>
  <g transform="translate(375 345) scale(0.990) translate(-375 -345)"><line x1="463.7" y1="381.7" x2="515.4" y2="403.2" stroke="#c76bd9" stroke-width="13" stroke-linecap="round"/>
           <circle cx="515.4" cy="403.2" r="15" fill="#c76bd9"/><line x1="411.7" y1="433.7" x2="433.2" y2="485.4" stroke="#c76bd9" stroke-width="13" stroke-linecap="round"/>
           <circle cx="433.2" cy="485.4" r="15" fill="#c76bd9"/><line x1="338.3" y1="433.7" x2="316.8" y2="485.4" stroke="#c76bd9" stroke-width="13" stroke-linecap="round"/>
           <circle cx="316.8" cy="485.4" r="15" fill="#c76bd9"/><line x1="286.3" y1="381.7" x2="234.6" y2="403.2" stroke="#c76bd9" stroke-width="13" stroke-linecap="round"/>
           <circle cx="234.6" cy="403.2" r="15" fill="#c76bd9"/><line x1="286.3" y1="308.3" x2="234.6" y2="286.8" stroke="#c76bd9" stroke-width="13" stroke-linecap="round"/>
           <circle cx="234.6" cy="286.8" r="15" fill="#c76bd9"/><line x1="338.3" y1="256.3" x2="316.8" y2="204.6" stroke="#c76bd9" stroke-width="13" stroke-linecap="round"/>
           <circle cx="316.8" cy="204.6" r="15" fill="#c76bd9"/><line x1="411.7" y1="256.3" x2="433.2" y2="204.6" stroke="#c76bd9" stroke-width="13" stroke-linecap="round"/>
           <circle cx="433.2" cy="204.6" r="15" fill="#c76bd9"/><line x1="463.7" y1="308.3" x2="515.4" y2="286.8" stroke="#c76bd9" stroke-width="13" stroke-linecap="round"/>
           <circle cx="515.4" cy="286.8" r="15" fill="#c76bd9"/><circle cx="375" cy="345" r="96" fill="#173021" stroke="#c76bd9" stroke-width="10"/>
      <circle cx="345" cy="322" r="14" fill="#c76bd9" opacity="0.85"/>
      <circle cx="404" cy="352" r="19" fill="#c76bd9" opacity="0.6"/>
      <circle cx="358" cy="386" r="10" fill="#c76bd9" opacity="0.75"/></g>
</g>
<rect x="52" y="150" width="646" height="410" rx="14" fill="none" stroke="#274a35" stroke-width="3"/>
<text x="200" y="102" font-family="DejaVu Sans Condensed" font-weight="bold" font-size="46"
  letter-spacing="2" fill="#dbe7de">TROJAN HORSE</text>
<polygon points="95,28 152,61 152,127 95,160 38,127 38,61" fill="#f0b23e" stroke="#1c1405" stroke-width="4"/>
<text x="95" y="118" text-anchor="middle" font-family="DejaVu Sans" font-weight="bold" font-size="74" fill="#1c1405">4</text>
<text x="375" y="608" text-anchor="middle" font-family="DejaVu Sans Mono" font-size="26" letter-spacing="3"
  fill="#87a693">UNIT · VIRUS</text>
<line x1="80" y1="626" x2="670" y2="626" stroke="#274a35" stroke-width="2"/>
<text x="375" y="763.3" text-anchor="middle" font-family="DejaVu Sans" font-size="30"
       fill="#dbe7de">Cloaked.</text>

    <circle cx="95" cy="935" r="56" fill="#0c1811" stroke="#f0b23e" stroke-width="7"/>
    <text x="95" y="954" text-anchor="middle" font-family="DejaVu Sans" font-weight="bold" font-size="56" fill="#f0b23e">4</text>
    <circle cx="655" cy="935" r="56" fill="#0c1811" stroke="#5fe0a0" stroke-width="7"/>
    <text x="655" y="954" text-anchor="middle" font-family="DejaVu Sans" font-weight="bold" font-size="56" fill="#5fe0a0">4</text>
<rect x="70" y="1004" width="22" height="30" fill="url(#guldgrad)"/><rect x="104" y="1004" width="22" height="30" fill="url(#guldgrad)"/><rect x="138" y="1004" width="22" height="30" fill="url(#guldgrad)"/><rect x="172" y="1004" width="22" height="30" fill="url(#guldgrad)"/><rect x="206" y="1004" width="22" height="30" fill="url(#guldgrad)"/><rect x="240" y="1004" width="22" height="30" fill="url(#guldgrad)"/><rect x="274" y="1004" width="22" height="30" fill="url(#guldgrad)"/><rect x="308" y="1004" width="22" height="30" fill="url(#guldgrad)"/><rect x="342" y="1004" width="22" height="30" fill="url(#guldgrad)"/><rect x="376" y="1004" width="22" height="30" fill="url(#guldgrad)"/><rect x="410" y="1004" width="22" height="30" fill="url(#guldgrad)"/><rect x="444" y="1004" width="22" height="30" fill="url(#guldgrad)"/><rect x="478" y="1004" width="22" height="30" fill="url(#guldgrad)"/><rect x="512" y="1004" width="22" height="30" fill="url(#guldgrad)"/><rect x="546" y="1004" width="22" height="30" fill="url(#guldgrad)"/><rect x="580" y="1004" width="22" height="30" fill="url(#guldgrad)"/><rect x="614" y="1004" width="22" height="30" fill="url(#guldgrad)"/><rect x="648" y="1004" width="22" height="30" fill="url(#guldgrad)"/>
<rect x="60" y="1000" width="630" height="4" fill="#c9814a" opacity="0.5"/>
</svg>