<svg xmlns="http://www.w3.org/2000/svg" width="750" height="1050" viewBox="0 0 750 1050">
<defs>
  <linearGradient id="bggrad" x1="0" y1="0" x2="0" y2="1">
    <stop offset="0" stop-color="#5a3806"/><stop offset="0.5" stop-color="#341f04"/><stop offset="1" stop-color="#130b02"/>
  </linearGradient>
  <radialGradient id="artgrad" cx="0.5" cy="0.42" r="0.75">
    <stop offset="0" stop-color="#432a08"/><stop offset="1" stop-color="#241603"/>
  </radialGradient>
  <linearGradient id="guldgrad" x1="0" y1="0" x2="0" y2="1">
    <stop offset="0" stop-color="#ffd166"/><stop offset="1" stop-color="#9a7422"/>
  </linearGradient>
  <clipPath id="artclip"><rect x="52" y="150" width="646" height="410" rx="14"/></clipPath>
</defs>
<rect x="6" y="6" width="738" height="1038" rx="36" fill="url(#bggrad)" stroke="#ffd166" stroke-width="9"/>
<rect x="22" y="22" width="706" height="1006" rx="26" fill="none" stroke="#ffa726" stroke-width="3" opacity="0.7"/>
<circle cx="700" cy="950" r="7" fill="none" stroke="#c9814a" stroke-width="4" opacity="0.1"/><path d="M 700 950 L 600 950 L 600 980" fill="none" stroke="#c9814a" stroke-width="4" stroke-linecap="round" stroke-linejoin="round" opacity="0.1"/><circle cx="600" cy="980" r="9" fill="#122419" stroke="#c9814a" stroke-width="4" opacity="0.1"/><circle cx="50" cy="950" r="7" fill="none" stroke="#c9814a" stroke-width="4" opacity="0.1"/><path d="M 50 950 L 50 980" fill="none" stroke="#c9814a" stroke-width="4" stroke-linecap="round" stroke-linejoin="round" opacity="0.1"/><circle cx="50" cy="980" r="9" fill="#122419" stroke="#c9814a" stroke-width="4" opacity="0.1"/><circle cx="400" cy="675" r="7" fill="none" stroke="#c9814a" stroke-width="4" opacity="0.1"/><path d="M 400 675 L 325 750 L 225 750" fill="none" stroke="#c9814a" stroke-width="4" stroke-linecap="round" stroke-linejoin="round" opacity="0.1"/><circle cx="225" cy="750" r="9" fill="#122419" stroke="#c9814a" stroke-width="4" opacity="0.1"/><circle cx="75" cy="950" r="7" fill="none" stroke="#c9814a" stroke-width="4" opacity="0.1"/><path d="M 75 950 L 75 980 L 40 980" fill="none" stroke="#c9814a" stroke-width="4" stroke-linecap="round" stroke-linejoin="round" opacity="0.1"/><rect x="32" y="972" width="16" height="16" fill="#c9814a" opacity="0.1"/><circle cx="375" cy="700" r="7" fill="none" stroke="#c9814a" stroke-width="4" opacity="0.1"/><path d="M 375 700 L 375 625 L 325 625 L 325 700" fill="none" stroke="#c9814a" stroke-width="4" stroke-linecap="round" stroke-linejoin="round" opacity="0.1"/><circle cx="325" cy="700" r="9" fill="#122419" stroke="#c9814a" stroke-width="4" opacity="0.1"/><rect x="175" y="650" width="14" height="20" fill="#c9814a" opacity="0.09000000000000001"/><rect x="197" y="650" width="14" height="20" fill="#c9814a" opacity="0.09000000000000001"/><rect x="219" y="650" width="14" height="20" fill="#c9814a" opacity="0.09000000000000001"/><rect x="241" y="650" width="14" height="20" fill="#c9814a" opacity="0.09000000000000001"/>
<g clip-path="url(#artclip)">
  <rect x="52" y="150" width="646" height="410" fill="url(#artgrad)"/>
  <circle cx="125" cy="175" r="7" fill="none" stroke="#c9814a" stroke-width="4" opacity="0.3"/><path d="M 125 175 L 125 160" fill="none" stroke="#c9814a" stroke-width="4" stroke-linecap="round" stroke-linejoin="round" opacity="0.3"/><rect x="117" y="152" width="16" height="16" fill="#c9814a" opacity="0.3"/><circle cx="150" cy="200" r="7" fill="none" stroke="#c9814a" stroke-width="4" opacity="0.3"/><path d="M 150 200 L 200 200 L 75 160 L 60 160" fill="none" stroke="#c9814a" stroke-width="4" stroke-linecap="round" stroke-linejoin="round" opacity="0.3"/><rect x="52" y="152" width="16" height="16" fill="#c9814a" opacity="0.3"/><circle cx="600" cy="275" r="7" fill="none" stroke="#c9814a" stroke-width="4" opacity="0.3"/><path d="M 600 275 L 600 160 L 690 160 L 690 160" fill="none" stroke="#c9814a" stroke-width="4" stroke-linecap="round" stroke-linejoin="round" opacity="0.3"/><circle cx="690" cy="160" r="9" fill="#122419" stroke="#c9814a" stroke-width="4" opacity="0.3"/><circle cx="250" cy="375" r="7" fill="none" stroke="#c9814a" stroke-width="4" opacity="0.3"/><path d="M 250 375 L 125 375" fill="none" stroke="#c9814a" stroke-width="4" stroke-linecap="round" stroke-linejoin="round" opacity="0.3"/><circle cx="125" cy="375" r="9" fill="#122419" stroke="#c9814a" stroke-width="4" opacity="0.3"/><circle cx="75" cy="225" r="7" fill="none" stroke="#c9814a" stroke-width="4" opacity="0.3"/><path d="M 75 225 L 75 160 L 60 160 L 60 160" fill="none" stroke="#c9814a" stroke-width="4" stroke-linecap="round" stroke-linejoin="round" opacity="0.3"/><circle cx="60" cy="160" r="9" fill="#122419" stroke="#c9814a" stroke-width="4" opacity="0.3"/><circle cx="275" cy="425" r="7" fill="none" stroke="#c9814a" stroke-width="4" opacity="0.3"/><path d="M 275 425 L 275 300" fill="none" stroke="#c9814a" stroke-width="4" stroke-linecap="round" stroke-linejoin="round" opacity="0.3"/><rect x="267" y="292" width="16" height="16" fill="#c9814a" opacity="0.3"/><circle cx="500" cy="325" r="7" fill="none" stroke="#c9814a" stroke-width="4" opacity="0.3"/><path d="M 500 325 L 425 250 L 425 175" fill="none" stroke="#c9814a" stroke-width="4" stroke-linecap="round" stroke-linejoin="round" opacity="0.3"/><circle cx="425" cy="175" r="9" fill="#122419" stroke="#c9814a" stroke-width="4" opacity="0.3"/><circle cx="225" cy="325" r="7" fill="none" stroke="#c9814a" stroke-width="4" opacity="0.3"/><path d="M 225 325 L 125 425" fill="none" stroke="#c9814a" stroke-width="4" stroke-linecap="round" stroke-linejoin="round" opacity="0.3"/><circle cx="125" cy="425" r="9" fill="#122419" stroke="#c9814a" stroke-width="4" opacity="0.3"/><circle cx="275" cy="525" r="7" fill="none" stroke="#c9814a" stroke-width="4" opacity="0.3"/><path d="M 275 525 L 275 550 L 150 550 L 275 550" fill="none" stroke="#c9814a" stroke-width="4" stroke-linecap="round" stroke-linejoin="round" opacity="0.3"/><circle cx="275" cy="550" r="9" fill="#122419" stroke="#c9814a" stroke-width="4" opacity="0.3"/><rect x="300" y="225" width="14" height="20" fill="#c9814a" opacity="0.27"/><rect x="322" y="225" width="14" height="20" fill="#c9814a" opacity="0.27"/><rect x="344" y="225" width="14" height="20" fill="#c9814a" opacity="0.27"/><rect x="366" y="225" width="14" height="20" fill="#c9814a" opacity="0.27"/>
  <circle cx="100" cy="425" r="7" fill="none" stroke="#e8a96a" stroke-width="4" opacity="0.22"/><path d="M 100 425 L 225 425 L 75 550 L 75 500" fill="none" stroke="#e8a96a" stroke-width="4" stroke-linecap="round" stroke-linejoin="round" opacity="0.22"/><rect x="67" y="492" width="16" height="16" fill="#e8a96a" opacity="0.22"/><circle cx="575" cy="250" r="7" fill="none" stroke="#e8a96a" stroke-width="4" opacity="0.22"/><path d="M 575 250 L 500 325 L 625 325 L 525 425" fill="none" stroke="#e8a96a" stroke-width="4" stroke-linecap="round" stroke-linejoin="round" opacity="0.22"/><circle cx="525" cy="425" r="9" fill="#122419" stroke="#e8a96a" stroke-width="4" opacity="0.22"/><circle cx="450" cy="200" r="7" fill="none" stroke="#e8a96a" stroke-width="4" opacity="0.22"/><path d="M 450 200 L 325 325" fill="none" stroke="#e8a96a" stroke-width="4" stroke-linecap="round" stroke-linejoin="round" opacity="0.22"/><rect x="317" y="317" width="16" height="16" fill="#e8a96a" opacity="0.22"/><rect x="225" y="475" width="14" height="20" fill="#e8a96a" opacity="0.198"/><rect x="247" y="475" width="14" height="20" fill="#e8a96a" opacity="0.198"/><rect x="269" y="475" width="14" height="20" fill="#e8a96a" opacity="0.198"/><rect x="291" y="475" width="14" height="20" fill="#e8a96a" opacity="0.198"/>
  <g transform="translate(375 345) scale(0.926) translate(-375 -345)"><rect x="228" y="268" width="30" height="14" rx="4" fill="#e8a96a"/>
            <rect x="492" y="268" width="30" height="14" rx="4" fill="#e8a96a"/><rect x="228" y="300" width="30" height="14" rx="4" fill="#e8a96a"/>
            <rect x="492" y="300" width="30" height="14" rx="4" fill="#e8a96a"/><rect x="228" y="332" width="30" height="14" rx="4" fill="#e8a96a"/>
            <rect x="492" y="332" width="30" height="14" rx="4" fill="#e8a96a"/><rect x="228" y="364" width="30" height="14" rx="4" fill="#e8a96a"/>
            <rect x="492" y="364" width="30" height="14" rx="4" fill="#e8a96a"/><rect x="228" y="396" width="30" height="14" rx="4" fill="#e8a96a"/>
            <rect x="492" y="396" width="30" height="14" rx="4" fill="#e8a96a"/><rect x="228" y="428" width="30" height="14" rx="4" fill="#e8a96a"/>
            <rect x="492" y="428" width="30" height="14" rx="4" fill="#e8a96a"/><rect x="258" y="245" width="234" height="200" rx="16" fill="#173021" stroke="#e8a96a" stroke-width="10"/>
      <circle cx="298" cy="285" r="11" fill="#e8a96a"/>
      <rect x="288" y="330" width="174" height="8" rx="4" fill="#e8a96a" opacity="0.55"/>
      <rect x="288" y="356" width="130" height="8" rx="4" fill="#e8a96a" opacity="0.35"/></g>
</g>
<rect x="52" y="150" width="646" height="410" rx="14" fill="none" stroke="#ffd166" stroke-width="3"/>
<text x="200" y="102" font-family="DejaVu Sans Condensed" font-weight="bold" font-size="38"
  letter-spacing="2" fill="#ffd166">THE MOTHERBOARD</text>
<polygon points="95,28 152,61 152,127 95,160 38,127 38,61" fill="#f0b23e" stroke="#1c1405" stroke-width="4"/>
<text x="95" y="118" text-anchor="middle" font-family="DejaVu Sans" font-weight="bold" font-size="74" fill="#1c1405">6</text>
<text x="375" y="608" text-anchor="middle" font-family="DejaVu Sans Mono" font-size="26" letter-spacing="3"
  fill="#ffd166">★ LEGENDARY · UNIT · COMPONENT</text>
<line x1="80" y1="626" x2="670" y2="626" stroke="#ffa726" stroke-width="2" opacity="0.5"/>
<rect x="46" y="640" width="658" height="236" rx="16" fill="#452c05" opacity="0.55"/>
<text x="375" y="763.3" text-anchor="middle" font-family="DejaVu Sans" font-size="30"
       fill="#dbe7de">Grounded. Your other units have +1/+1.</text>

    <circle cx="95" cy="935" r="56" fill="#0c1811" stroke="#f0b23e" stroke-width="7"/>
    <text x="95" y="954" text-anchor="middle" font-family="DejaVu Sans" font-weight="bold" font-size="56" fill="#f0b23e">0</text>
    <circle cx="655" cy="935" r="56" fill="#0c1811" stroke="#5fe0a0" stroke-width="7"/>
    <text x="655" y="954" text-anchor="middle" font-family="DejaVu Sans" font-weight="bold" font-size="56" fill="#5fe0a0">8</text>
<rect x="70" y="1004" width="22" height="30" fill="url(#guldgrad)"/><rect x="104" y="1004" width="22" height="30" fill="url(#guldgrad)"/><rect x="138" y="1004" width="22" height="30" fill="url(#guldgrad)"/><rect x="172" y="1004" width="22" height="30" fill="url(#guldgrad)"/><rect x="206" y="1004" width="22" height="30" fill="url(#guldgrad)"/><rect x="240" y="1004" width="22" height="30" fill="url(#guldgrad)"/><rect x="274" y="1004" width="22" height="30" fill="url(#guldgrad)"/><rect x="308" y="1004" width="22" height="30" fill="url(#guldgrad)"/><rect x="342" y="1004" width="22" height="30" fill="url(#guldgrad)"/><rect x="376" y="1004" width="22" height="30" fill="url(#guldgrad)"/><rect x="410" y="1004" width="22" height="30" fill="url(#guldgrad)"/><rect x="444" y="1004" width="22" height="30" fill="url(#guldgrad)"/><rect x="478" y="1004" width="22" height="30" fill="url(#guldgrad)"/><rect x="512" y="1004" width="22" height="30" fill="url(#guldgrad)"/><rect x="546" y="1004" width="22" height="30" fill="url(#guldgrad)"/><rect x="580" y="1004" width="22" height="30" fill="url(#guldgrad)"/><rect x="614" y="1004" width="22" height="30" fill="url(#guldgrad)"/><rect x="648" y="1004" width="22" height="30" fill="url(#guldgrad)"/>
<rect x="60" y="1000" width="630" height="4" fill="#c9814a" opacity="0.5"/>
</svg>