<svg xmlns="http://www.w3.org/2000/svg" width="750" height="1050" viewBox="0 0 750 1050">
<defs>
  <linearGradient id="bggrad" x1="0" y1="0" x2="0" y2="1">
    <stop offset="0" stop-color="#0d3566"/><stop offset="0.5" stop-color="#08213f"/><stop offset="1" stop-color="#030c18"/>
  </linearGradient>
  <radialGradient id="artgrad" cx="0.5" cy="0.42" r="0.75">
    <stop offset="0" stop-color="#103050"/><stop offset="1" stop-color="#061a33"/>
  </radialGradient>
  <linearGradient id="guldgrad" x1="0" y1="0" x2="0" y2="1">
    <stop offset="0" stop-color="#ffd166"/><stop offset="1" stop-color="#9a7422"/>
  </linearGradient>
  <clipPath id="artclip"><rect x="52" y="150" width="646" height="410" rx="14"/></clipPath>
</defs>
<rect x="6" y="6" width="738" height="1038" rx="36" fill="url(#bggrad)" stroke="#ffd166" stroke-width="9"/>
<rect x="22" y="22" width="706" height="1006" rx="26" fill="none" stroke="#4db4ff" stroke-width="3" opacity="0.7"/>
<circle cx="300" cy="975" r="7" fill="none" stroke="#c9814a" stroke-width="4" opacity="0.1"/><path d="M 300 975 L 450 975" fill="none" stroke="#c9814a" stroke-width="4" stroke-linecap="round" stroke-linejoin="round" opacity="0.1"/><rect x="442" y="967" width="16" height="16" fill="#c9814a" opacity="0.1"/><circle cx="225" cy="950" r="7" fill="none" stroke="#c9814a" stroke-width="4" opacity="0.1"/><path d="M 225 950 L 350 825" fill="none" stroke="#c9814a" stroke-width="4" stroke-linecap="round" stroke-linejoin="round" opacity="0.1"/><circle cx="350" cy="825" r="9" fill="#122419" stroke="#c9814a" stroke-width="4" opacity="0.1"/><circle cx="650" cy="700" r="7" fill="none" stroke="#c9814a" stroke-width="4" opacity="0.1"/><path d="M 650 700 L 575 700 L 575 625" fill="none" stroke="#c9814a" stroke-width="4" stroke-linecap="round" stroke-linejoin="round" opacity="0.1"/><circle cx="575" cy="625" r="9" fill="#122419" stroke="#c9814a" stroke-width="4" opacity="0.1"/><circle cx="650" cy="700" r="7" fill="none" stroke="#c9814a" stroke-width="4" opacity="0.1"/><path d="M 650 700 L 650 650 L 700 650 L 700 700" fill="none" stroke="#c9814a" stroke-width="4" stroke-linecap="round" stroke-linejoin="round" opacity="0.1"/><rect x="692" y="692" width="16" height="16" fill="#c9814a" opacity="0.1"/><circle cx="500" cy="775" r="7" fill="none" stroke="#c9814a" stroke-width="4" opacity="0.1"/><path d="M 500 775 L 500 875 L 425 950" fill="none" stroke="#c9814a" stroke-width="4" stroke-linecap="round" stroke-linejoin="round" opacity="0.1"/><rect x="417" y="942" width="16" height="16" fill="#c9814a" opacity="0.1"/><rect x="50" y="800" width="14" height="20" fill="#c9814a" opacity="0.09000000000000001"/><rect x="72" y="800" width="14" height="20" fill="#c9814a" opacity="0.09000000000000001"/><rect x="94" y="800" width="14" height="20" fill="#c9814a" opacity="0.09000000000000001"/><rect x="116" y="800" width="14" height="20" fill="#c9814a" opacity="0.09000000000000001"/>
<g clip-path="url(#artclip)">
  <rect x="52" y="150" width="646" height="410" fill="url(#artgrad)"/>
  <circle cx="525" cy="400" r="7" fill="none" stroke="#c9814a" stroke-width="4" opacity="0.3"/><path d="M 525 400 L 575 450 L 690 550" fill="none" stroke="#c9814a" stroke-width="4" stroke-linecap="round" stroke-linejoin="round" opacity="0.3"/><circle cx="690" cy="550" r="9" fill="#122419" stroke="#c9814a" stroke-width="4" opacity="0.3"/><circle cx="600" cy="450" r="7" fill="none" stroke="#c9814a" stroke-width="4" opacity="0.3"/><path d="M 600 450 L 550 450 L 550 525" fill="none" stroke="#c9814a" stroke-width="4" stroke-linecap="round" stroke-linejoin="round" opacity="0.3"/><circle cx="550" cy="525" r="9" fill="#122419" stroke="#c9814a" stroke-width="4" opacity="0.3"/><circle cx="300" cy="375" r="7" fill="none" stroke="#c9814a" stroke-width="4" opacity="0.3"/><path d="M 300 375 L 200 275" fill="none" stroke="#c9814a" stroke-width="4" stroke-linecap="round" stroke-linejoin="round" opacity="0.3"/><circle cx="200" cy="275" r="9" fill="#122419" stroke="#c9814a" stroke-width="4" opacity="0.3"/><circle cx="175" cy="325" r="7" fill="none" stroke="#c9814a" stroke-width="4" opacity="0.3"/><path d="M 175 325 L 175 450 L 275 450" fill="none" stroke="#c9814a" stroke-width="4" stroke-linecap="round" stroke-linejoin="round" opacity="0.3"/><rect x="267" y="442" width="16" height="16" fill="#c9814a" opacity="0.3"/><circle cx="500" cy="275" r="7" fill="none" stroke="#c9814a" stroke-width="4" opacity="0.3"/><path d="M 500 275 L 600 275" fill="none" stroke="#c9814a" stroke-width="4" stroke-linecap="round" stroke-linejoin="round" opacity="0.3"/><circle cx="600" cy="275" r="9" fill="#122419" stroke="#c9814a" stroke-width="4" opacity="0.3"/><circle cx="525" cy="400" r="7" fill="none" stroke="#c9814a" stroke-width="4" opacity="0.3"/><path d="M 525 400 L 375 250" fill="none" stroke="#c9814a" stroke-width="4" stroke-linecap="round" stroke-linejoin="round" opacity="0.3"/><circle cx="375" cy="250" r="9" fill="#122419" stroke="#c9814a" stroke-width="4" opacity="0.3"/><circle cx="175" cy="225" r="7" fill="none" stroke="#c9814a" stroke-width="4" opacity="0.3"/><path d="M 175 225 L 325 160" fill="none" stroke="#c9814a" stroke-width="4" stroke-linecap="round" stroke-linejoin="round" opacity="0.3"/><rect x="317" y="152" width="16" height="16" fill="#c9814a" opacity="0.3"/><circle cx="200" cy="225" r="7" fill="none" stroke="#c9814a" stroke-width="4" opacity="0.3"/><path d="M 200 225 L 300 160" fill="none" stroke="#c9814a" stroke-width="4" stroke-linecap="round" stroke-linejoin="round" opacity="0.3"/><circle cx="300" cy="160" r="9" fill="#122419" stroke="#c9814a" stroke-width="4" opacity="0.3"/><circle cx="275" cy="375" r="7" fill="none" stroke="#c9814a" stroke-width="4" opacity="0.3"/><path d="M 275 375 L 375 475 L 375 400" fill="none" stroke="#c9814a" stroke-width="4" stroke-linecap="round" stroke-linejoin="round" opacity="0.3"/><circle cx="375" cy="400" r="9" fill="#122419" stroke="#c9814a" stroke-width="4" opacity="0.3"/><rect x="575" y="450" width="14" height="20" fill="#c9814a" opacity="0.27"/><rect x="597" y="450" width="14" height="20" fill="#c9814a" opacity="0.27"/><rect x="619" y="450" width="14" height="20" fill="#c9814a" opacity="0.27"/><rect x="641" y="450" width="14" height="20" fill="#c9814a" opacity="0.27"/>
  <circle cx="250" cy="225" r="7" fill="none" stroke="#9fc0e8" stroke-width="4" opacity="0.22"/><path d="M 250 225 L 175 300 L 75 300 L 75 250" fill="none" stroke="#9fc0e8" stroke-width="4" stroke-linecap="round" stroke-linejoin="round" opacity="0.22"/><rect x="67" y="242" width="16" height="16" fill="#9fc0e8" opacity="0.22"/><circle cx="275" cy="275" r="7" fill="none" stroke="#9fc0e8" stroke-width="4" opacity="0.22"/><path d="M 275 275 L 375 175" fill="none" stroke="#9fc0e8" stroke-width="4" stroke-linecap="round" stroke-linejoin="round" opacity="0.22"/><circle cx="375" cy="175" r="9" fill="#122419" stroke="#9fc0e8" stroke-width="4" opacity="0.22"/><circle cx="225" cy="225" r="7" fill="none" stroke="#9fc0e8" stroke-width="4" opacity="0.22"/><path d="M 225 225 L 225 160 L 325 160 L 325 285" fill="none" stroke="#9fc0e8" stroke-width="4" stroke-linecap="round" stroke-linejoin="round" opacity="0.22"/><rect x="317" y="277" width="16" height="16" fill="#9fc0e8" opacity="0.22"/><rect x="250" y="225" width="14" height="20" fill="#9fc0e8" opacity="0.198"/><rect x="272" y="225" width="14" height="20" fill="#9fc0e8" opacity="0.198"/><rect x="294" y="225" width="14" height="20" fill="#9fc0e8" opacity="0.198"/><rect x="316" y="225" width="14" height="20" fill="#9fc0e8" opacity="0.198"/>
  <g transform="translate(375 345) scale(0.987) translate(-375 -345)"><line x1="375" y1="252" x2="375" y2="208" stroke="#9fc0e8" stroke-width="10" stroke-linecap="round"/><circle cx="375" cy="196" r="13" fill="#9fc0e8"/><rect x="262" y="252" width="226" height="188" rx="28" fill="#173021" stroke="#9fc0e8" stroke-width="10"/><rect x="236" y="310" width="26" height="64" rx="8" fill="#9fc0e8" opacity="0.7"/><rect x="488" y="310" width="26" height="64" rx="8" fill="#9fc0e8" opacity="0.7"/><path d="M 300 315 L 352 335 L 300 355 Z" fill="#9fc0e8"/><path d="M 450 315 L 398 335 L 450 355 Z" fill="#9fc0e8"/><rect x="318" y="384" width="114" height="12" rx="6" fill="#9fc0e8" opacity="0.6"/></g>
</g>
<rect x="52" y="150" width="646" height="410" rx="14" fill="none" stroke="#ffd166" stroke-width="3"/>
<text x="200" y="102" font-family="DejaVu Sans Condensed" font-weight="bold" font-size="46"
  letter-spacing="2" fill="#ffd166">TITAN-9000</text>
<polygon points="95,28 152,61 152,127 95,160 38,127 38,61" fill="#f0b23e" stroke="#1c1405" stroke-width="4"/>
<text x="95" y="118" text-anchor="middle" font-family="DejaVu Sans" font-weight="bold" font-size="74" fill="#1c1405">9</text>
<text x="375" y="608" text-anchor="middle" font-family="DejaVu Sans Mono" font-size="26" letter-spacing="3"
  fill="#ffd166">★ LEGENDARY · UNIT · ROBOT</text>
<line x1="80" y1="626" x2="670" y2="626" stroke="#4db4ff" stroke-width="2" opacity="0.5"/>
<rect x="46" y="640" width="658" height="236" rx="16" fill="#0b2c55" opacity="0.55"/>
<text x="375" y="742.6" text-anchor="middle" font-family="DejaVu Sans" font-size="30"
       fill="#dbe7de">Grounded. Install: Destroy the enemy</text>
<text x="375" y="784.0" text-anchor="middle" font-family="DejaVu Sans" font-size="30"
       fill="#dbe7de">unit with the highest Attack.</text>

    <circle cx="95" cy="935" r="56" fill="#0c1811" stroke="#f0b23e" stroke-width="7"/>
    <text x="95" y="954" text-anchor="middle" font-family="DejaVu Sans" font-weight="bold" font-size="56" fill="#f0b23e">8</text>
    <circle cx="655" cy="935" r="56" fill="#0c1811" stroke="#5fe0a0" stroke-width="7"/>
    <text x="655" y="954" text-anchor="middle" font-family="DejaVu Sans" font-weight="bold" font-size="56" fill="#5fe0a0">8</text>
<rect x="70" y="1004" width="22" height="30" fill="url(#guldgrad)"/><rect x="104" y="1004" width="22" height="30" fill="url(#guldgrad)"/><rect x="138" y="1004" width="22" height="30" fill="url(#guldgrad)"/><rect x="172" y="1004" width="22" height="30" fill="url(#guldgrad)"/><rect x="206" y="1004" width="22" height="30" fill="url(#guldgrad)"/><rect x="240" y="1004" width="22" height="30" fill="url(#guldgrad)"/><rect x="274" y="1004" width="22" height="30" fill="url(#guldgrad)"/><rect x="308" y="1004" width="22" height="30" fill="url(#guldgrad)"/><rect x="342" y="1004" width="22" height="30" fill="url(#guldgrad)"/><rect x="376" y="1004" width="22" height="30" fill="url(#guldgrad)"/><rect x="410" y="1004" width="22" height="30" fill="url(#guldgrad)"/><rect x="444" y="1004" width="22" height="30" fill="url(#guldgrad)"/><rect x="478" y="1004" width="22" height="30" fill="url(#guldgrad)"/><rect x="512" y="1004" width="22" height="30" fill="url(#guldgrad)"/><rect x="546" y="1004" width="22" height="30" fill="url(#guldgrad)"/><rect x="580" y="1004" width="22" height="30" fill="url(#guldgrad)"/><rect x="614" y="1004" width="22" height="30" fill="url(#guldgrad)"/><rect x="648" y="1004" width="22" height="30" fill="url(#guldgrad)"/>
<rect x="60" y="1000" width="630" height="4" fill="#c9814a" opacity="0.5"/>
</svg>