<svg xmlns="http://www.w3.org/2000/svg" width="750" height="1050" viewBox="0 0 750 1050">
<defs>
  <filter id="cardDrop" x="-6%" y="-3%" width="112%" height="110%" color-interpolation-filters="sRGB">
    <feDropShadow dx="0" dy="10" stdDeviation="14" flood-color="#000" flood-opacity="0.5"/>
    <feDropShadow dx="0" dy="3" stdDeviation="4" flood-color="#000" flood-opacity="0.35"/>
  </filter>
  <filter id="paperGrain" x="0" y="0" width="100%" height="100%">
    <feTurbulence type="fractalNoise" baseFrequency="0.72" numOctaves="4" seed="17" result="n"/>
    <feColorMatrix in="n" type="matrix" values="0 0 0 0 0.48  0 0 0 0 0.42  0 0 0 0 0.36  0 0 0 0.07 0" result="g"/>
    <feBlend in="SourceGraphic" in2="g" mode="multiply"/>
  </filter>
  <filter id="artDepth" x="-8%" y="-8%" width="116%" height="116%">
    <feGaussianBlur in="SourceAlpha" stdDeviation="6" result="blur"/>
    <feOffset dy="4" result="off"/><feFlood flood-color="#000" flood-opacity="0.45"/>
    <feComposite in2="off" operator="in" result="sh"/>
    <feMerge><feMergeNode in="sh"/><feMergeNode in="SourceGraphic"/></feMerge>
  </filter>
  <linearGradient id="bggrad" x1="0" y1="0" x2="0" y2="1">
    <stop offset="0" stop-color="#644415"/>
    <stop offset="0.45" stop-color="#341f04"/>
    <stop offset="1" stop-color="#100902"/>
  </linearGradient>
  <linearGradient id="bevelHi" x1="0" y1="0" x2="1" y2="1">
    <stop offset="0" stop-color="#fff" stop-opacity="0.22"/>
    <stop offset="0.35" stop-color="#fff" stop-opacity="0"/>
    <stop offset="1" stop-color="#000" stop-opacity="0.28"/>
  </linearGradient>
  <radialGradient id="artgrad" cx="0.5" cy="0.38" r="0.82">
    <stop offset="0" stop-color="#54360b"/>
    <stop offset="0.7" stop-color="#241603"/>
    <stop offset="1" stop-color="#170eNaN"/>
  </radialGradient>
  <linearGradient id="artInset" x1="0" y1="0" x2="0" y2="1">
    <stop offset="0" stop-color="#000" stop-opacity="0.38"/>
    <stop offset="0.12" stop-color="#000" stop-opacity="0"/>
    <stop offset="0.88" stop-color="#000" stop-opacity="0"/>
    <stop offset="1" stop-color="#000" stop-opacity="0.42"/>
  </linearGradient>
  <linearGradient id="guldgrad" x1="0" y1="0" x2="0" y2="1">
    <stop offset="0" stop-color="#ffe9a0"/>
    <stop offset="0.45" stop-color="#ffd166"/>
    <stop offset="1" stop-color="#6a5018"/>
  </linearGradient>
  <linearGradient id="guldShine" x1="0" y1="0" x2="1" y2="0">
    <stop offset="0" stop-color="#fff" stop-opacity="0"/>
    <stop offset="0.5" stop-color="#fff" stop-opacity="0.45"/>
    <stop offset="1" stop-color="#fff" stop-opacity="0"/>
  </linearGradient>
  <linearGradient id="gloss" x1="0" y1="0" x2="1" y2="1">
    <stop offset="0.28" stop-color="#fff" stop-opacity="0"/>
    <stop offset="0.46" stop-color="#fff" stop-opacity="0.16"/>
    <stop offset="0.54" stop-color="#fff" stop-opacity="0.06"/>
    <stop offset="0.72" stop-color="#fff" stop-opacity="0"/>
  </linearGradient>
  <pattern id="fiber" width="6" height="6" patternUnits="userSpaceOnUse" patternTransform="rotate(12)">
    <line x1="0" y1="0" x2="0" y2="6" stroke="#fff" stroke-width="0.6" opacity="0.04"/>
    <line x1="3" y1="0" x2="3" y2="6" stroke="#000" stroke-width="0.5" opacity="0.06"/>
  </pattern>
  <clipPath id="artclip"><rect x="52" y="150" width="646" height="410" rx="14"/></clipPath>
  <clipPath id="cardclip"><rect x="6" y="6" width="738" height="1038" rx="36"/></clipPath>
  </defs>

  <rect x="10" y="1042" width="730" height="7" rx="3" fill="#080604" opacity="0.85"/>
  <rect x="10" y="1042" width="730" height="3" rx="2" fill="#734bNaN" opacity="0.5"/>
<g filter="url(#cardDrop)">
<g filter="url(#paperGrain)" clip-path="url(#cardclip)">
<rect x="6" y="6" width="738" height="1038" rx="36" fill="url(#bggrad)" stroke="#ffa726" stroke-width="6"/>
<rect x="6" y="6" width="738" height="1038" rx="36" fill="url(#fiber)"/>
<rect x="22" y="22" width="706" height="1006" rx="26" fill="none" stroke="#ffa726" stroke-width="2" opacity="0.75"/>
<rect x="14" y="14" width="722" height="1022" rx="32" fill="none" stroke="url(#bevelHi)" stroke-width="3" opacity="0.55"/>
<circle cx="150" cy="675" r="7" fill="none" stroke="#c9814a" stroke-width="4" opacity="0.1"/><path d="M 150 675 L 300 620 L 225 695" fill="none" stroke="#c9814a" stroke-width="4" stroke-linecap="round" stroke-linejoin="round" opacity="0.1"/><circle cx="225" cy="695" r="9" fill="#122419" stroke="#c9814a" stroke-width="4" opacity="0.1"/><circle cx="75" cy="875" r="7" fill="none" stroke="#c9814a" stroke-width="4" opacity="0.1"/><path d="M 75 875 L 75 975" fill="none" stroke="#c9814a" stroke-width="4" stroke-linecap="round" stroke-linejoin="round" opacity="0.1"/><rect x="67" y="967" width="16" height="16" fill="#c9814a" opacity="0.1"/><circle cx="175" cy="750" r="7" fill="none" stroke="#c9814a" stroke-width="4" opacity="0.1"/><path d="M 175 750 L 300 625" fill="none" stroke="#c9814a" stroke-width="4" stroke-linecap="round" stroke-linejoin="round" opacity="0.1"/><rect x="292" y="617" width="16" height="16" fill="#c9814a" opacity="0.1"/><circle cx="625" cy="725" r="7" fill="none" stroke="#c9814a" stroke-width="4" opacity="0.1"/><path d="M 625 725 L 710 850" fill="none" stroke="#c9814a" stroke-width="4" stroke-linecap="round" stroke-linejoin="round" opacity="0.1"/><rect x="702" y="842" width="16" height="16" fill="#c9814a" opacity="0.1"/><circle cx="200" cy="725" r="7" fill="none" stroke="#c9814a" stroke-width="4" opacity="0.1"/><path d="M 200 725 L 200 850 L 325 850" fill="none" stroke="#c9814a" stroke-width="4" stroke-linecap="round" stroke-linejoin="round" opacity="0.1"/><rect x="317" y="842" width="16" height="16" fill="#c9814a" opacity="0.1"/><rect x="450" y="775" width="14" height="20" fill="#c9814a" opacity="0.09000000000000001"/><rect x="472" y="775" width="14" height="20" fill="#c9814a" opacity="0.09000000000000001"/><rect x="494" y="775" width="14" height="20" fill="#c9814a" opacity="0.09000000000000001"/><rect x="516" y="775" width="14" height="20" fill="#c9814a" opacity="0.09000000000000001"/>
<g clip-path="url(#artclip)" filter="url(#artDepth)">
  <rect x="52" y="150" width="646" height="410" fill="url(#artgrad)"/>
  <circle cx="425" cy="525" r="7" fill="none" stroke="#c9814a" stroke-width="4" opacity="0.3"/><path d="M 425 525 L 425 550 L 275 550 L 350 550" fill="none" stroke="#c9814a" stroke-width="4" stroke-linecap="round" stroke-linejoin="round" opacity="0.3"/><rect x="342" y="542" width="16" height="16" fill="#c9814a" opacity="0.3"/><circle cx="200" cy="225" r="7" fill="none" stroke="#c9814a" stroke-width="4" opacity="0.3"/><path d="M 200 225 L 325 225 L 325 160" fill="none" stroke="#c9814a" stroke-width="4" stroke-linecap="round" stroke-linejoin="round" opacity="0.3"/><rect x="317" y="152" width="16" height="16" fill="#c9814a" opacity="0.3"/><circle cx="500" cy="200" r="7" fill="none" stroke="#c9814a" stroke-width="4" opacity="0.3"/><path d="M 500 200 L 375 200 L 375 275 L 275 175" fill="none" stroke="#c9814a" stroke-width="4" stroke-linecap="round" stroke-linejoin="round" opacity="0.3"/><circle cx="275" cy="175" r="9" fill="#122419" stroke="#c9814a" stroke-width="4" opacity="0.3"/><circle cx="350" cy="225" r="7" fill="none" stroke="#c9814a" stroke-width="4" opacity="0.3"/><path d="M 350 225 L 500 225 L 500 160" fill="none" stroke="#c9814a" stroke-width="4" stroke-linecap="round" stroke-linejoin="round" opacity="0.3"/><circle cx="500" cy="160" r="9" fill="#122419" stroke="#c9814a" stroke-width="4" opacity="0.3"/><circle cx="425" cy="525" r="7" fill="none" stroke="#c9814a" stroke-width="4" opacity="0.3"/><path d="M 425 525 L 575 550 L 575 550 L 675 450" fill="none" stroke="#c9814a" stroke-width="4" stroke-linecap="round" stroke-linejoin="round" opacity="0.3"/><circle cx="675" cy="450" r="9" fill="#122419" stroke="#c9814a" stroke-width="4" opacity="0.3"/><circle cx="625" cy="175" r="7" fill="none" stroke="#c9814a" stroke-width="4" opacity="0.3"/><path d="M 625 175 L 690 160" fill="none" stroke="#c9814a" stroke-width="4" stroke-linecap="round" stroke-linejoin="round" opacity="0.3"/><rect x="682" y="152" width="16" height="16" fill="#c9814a" opacity="0.3"/><circle cx="475" cy="350" r="7" fill="none" stroke="#c9814a" stroke-width="4" opacity="0.3"/><path d="M 475 350 L 525 400" fill="none" stroke="#c9814a" stroke-width="4" stroke-linecap="round" stroke-linejoin="round" opacity="0.3"/><circle cx="525" cy="400" r="9" fill="#122419" stroke="#c9814a" stroke-width="4" opacity="0.3"/><circle cx="375" cy="175" r="7" fill="none" stroke="#c9814a" stroke-width="4" opacity="0.3"/><path d="M 375 175 L 475 160 L 475 160" fill="none" stroke="#c9814a" stroke-width="4" stroke-linecap="round" stroke-linejoin="round" opacity="0.3"/><circle cx="475" cy="160" r="9" fill="#122419" stroke="#c9814a" stroke-width="4" opacity="0.3"/><circle cx="350" cy="450" r="7" fill="none" stroke="#c9814a" stroke-width="4" opacity="0.3"/><path d="M 350 450 L 300 450 L 350 400" fill="none" stroke="#c9814a" stroke-width="4" stroke-linecap="round" stroke-linejoin="round" opacity="0.3"/><circle cx="350" cy="400" r="9" fill="#122419" stroke="#c9814a" stroke-width="4" opacity="0.3"/><rect x="125" y="450" width="14" height="20" fill="#c9814a" opacity="0.27"/><rect x="147" y="450" width="14" height="20" fill="#c9814a" opacity="0.27"/><rect x="169" y="450" width="14" height="20" fill="#c9814a" opacity="0.27"/><rect x="191" y="450" width="14" height="20" fill="#c9814a" opacity="0.27"/>
  <circle cx="75" cy="475" r="7" fill="none" stroke="#e8a96a" stroke-width="4" opacity="0.22"/><path d="M 75 475 L 75 375 L 125 325 L 60 200" fill="none" stroke="#e8a96a" stroke-width="4" stroke-linecap="round" stroke-linejoin="round" opacity="0.22"/><circle cx="60" cy="200" r="9" fill="#122419" stroke="#e8a96a" stroke-width="4" opacity="0.22"/><circle cx="150" cy="450" r="7" fill="none" stroke="#e8a96a" stroke-width="4" opacity="0.22"/><path d="M 150 450 L 150 300 L 250 200" fill="none" stroke="#e8a96a" stroke-width="4" stroke-linecap="round" stroke-linejoin="round" opacity="0.22"/><circle cx="250" cy="200" r="9" fill="#122419" stroke="#e8a96a" stroke-width="4" opacity="0.22"/><circle cx="450" cy="275" r="7" fill="none" stroke="#e8a96a" stroke-width="4" opacity="0.22"/><path d="M 450 275 L 450 160 L 550 260" fill="none" stroke="#e8a96a" stroke-width="4" stroke-linecap="round" stroke-linejoin="round" opacity="0.22"/><circle cx="550" cy="260" r="9" fill="#122419" stroke="#e8a96a" stroke-width="4" opacity="0.22"/><rect x="450" y="300" width="14" height="20" fill="#e8a96a" opacity="0.198"/><rect x="472" y="300" width="14" height="20" fill="#e8a96a" opacity="0.198"/><rect x="494" y="300" width="14" height="20" fill="#e8a96a" opacity="0.198"/><rect x="516" y="300" width="14" height="20" fill="#e8a96a" opacity="0.198"/>
  <g transform="translate(375 345) scale(1.021) translate(-375 -345)"><line x1="150" y1="345" x2="255" y2="345" stroke="#e8a96a" stroke-width="9" stroke-linecap="round"/><line x1="495" y1="345" x2="600" y2="345" stroke="#e8a96a" stroke-width="9" stroke-linecap="round"/><rect x="285" y="315" width="180" height="60" rx="30" fill="none" stroke="#e8a96a" stroke-width="10"/><path d="M 300 345 Q 375 320 450 345" fill="none" stroke="#e8a96a" stroke-width="7" stroke-linecap="round" stroke-linejoin="round"/></g>
  <rect x="52" y="150" width="646" height="410" fill="url(#artInset)"/>
</g>
<rect x="52" y="150" width="646" height="410" rx="14" fill="none" stroke="#bf7dNaN" stroke-width="4"/>
<rect x="56" y="154" width="638" height="402" rx="12" fill="none" stroke="#fff" stroke-width="1.5" opacity="0.08"/>
<text x="200" y="102" font-family="DejaVu Sans Condensed" font-weight="bold" font-size="38"
  letter-spacing="2" fill="#dbe7de">SURGE PROTECTOR</text>
<polygon points="95,28 152,61 152,127 95,160 38,127 38,61" fill="#f0b23e" stroke="#1c1405" stroke-width="4"/>
<polygon points="95,32 146,61 146,123 95,152 44,123 44,61" fill="none" stroke="#fff" stroke-width="2" opacity="0.2"/>
<text x="95" y="118" text-anchor="middle" font-family="DejaVu Sans" font-weight="bold" font-size="74" fill="#1c1405">3</text>
<text x="375" y="608" text-anchor="middle" font-family="DejaVu Sans Mono" font-size="26" letter-spacing="3"
  fill="#87a693">UNIT · COMPONENT</text>
<line x1="80" y1="626" x2="670" y2="626" stroke="#ffa726" stroke-width="2" opacity="0.5"/>
<rect x="46" y="640" width="658" height="236" rx="16" fill="#452c05" opacity="0.62"/>
<rect x="50" y="644" width="650" height="214" rx="14" fill="url(#fiber)" opacity="0.35"/>
<text x="375" y="763.3" text-anchor="middle" font-family="DejaVu Sans" font-size="30"
       fill="#dbe7de">Grounded. Insulated.</text>

    <g filter="url(#cardDrop)">
      <circle cx="95" cy="935" r="56" fill="#1d1e0d" stroke="#f0b23e" stroke-width="7"/>
      <circle cx="95" cy="932" r="48" fill="none" stroke="#fff" stroke-width="2" opacity="0.12"/>
      <text x="95" y="954" text-anchor="middle" font-family="DejaVu Sans" font-weight="bold" font-size="56" fill="#f0b23e">2</text>
      <circle cx="655" cy="935" r="56" fill="#1d1e0d" stroke="#5fe0a0" stroke-width="7"/>
      <circle cx="655" cy="932" r="48" fill="none" stroke="#fff" stroke-width="2" opacity="0.12"/>
      <text x="655" y="954" text-anchor="middle" font-family="DejaVu Sans" font-weight="bold" font-size="56" fill="#5fe0a0">5</text>
    </g>
<rect x="70" y="1004" width="22" height="30" rx="2" fill="url(#guldgrad)" stroke="#4a3810" stroke-width="1"/>
      <rect x="72" y="1006" width="18" height="8" rx="1" fill="url(#guldShine)" opacity="0.55"/><rect x="104" y="1004" width="22" height="30" rx="2" fill="url(#guldgrad)" stroke="#4a3810" stroke-width="1"/>
      <rect x="106" y="1006" width="18" height="8" rx="1" fill="url(#guldShine)" opacity="0.55"/><rect x="138" y="1004" width="22" height="30" rx="2" fill="url(#guldgrad)" stroke="#4a3810" stroke-width="1"/>
      <rect x="140" y="1006" width="18" height="8" rx="1" fill="url(#guldShine)" opacity="0.55"/><rect x="172" y="1004" width="22" height="30" rx="2" fill="url(#guldgrad)" stroke="#4a3810" stroke-width="1"/>
      <rect x="174" y="1006" width="18" height="8" rx="1" fill="url(#guldShine)" opacity="0.55"/><rect x="206" y="1004" width="22" height="30" rx="2" fill="url(#guldgrad)" stroke="#4a3810" stroke-width="1"/>
      <rect x="208" y="1006" width="18" height="8" rx="1" fill="url(#guldShine)" opacity="0.55"/><rect x="240" y="1004" width="22" height="30" rx="2" fill="url(#guldgrad)" stroke="#4a3810" stroke-width="1"/>
      <rect x="242" y="1006" width="18" height="8" rx="1" fill="url(#guldShine)" opacity="0.55"/><rect x="274" y="1004" width="22" height="30" rx="2" fill="url(#guldgrad)" stroke="#4a3810" stroke-width="1"/>
      <rect x="276" y="1006" width="18" height="8" rx="1" fill="url(#guldShine)" opacity="0.55"/><rect x="308" y="1004" width="22" height="30" rx="2" fill="url(#guldgrad)" stroke="#4a3810" stroke-width="1"/>
      <rect x="310" y="1006" width="18" height="8" rx="1" fill="url(#guldShine)" opacity="0.55"/><rect x="342" y="1004" width="22" height="30" rx="2" fill="url(#guldgrad)" stroke="#4a3810" stroke-width="1"/>
      <rect x="344" y="1006" width="18" height="8" rx="1" fill="url(#guldShine)" opacity="0.55"/><rect x="376" y="1004" width="22" height="30" rx="2" fill="url(#guldgrad)" stroke="#4a3810" stroke-width="1"/>
      <rect x="378" y="1006" width="18" height="8" rx="1" fill="url(#guldShine)" opacity="0.55"/><rect x="410" y="1004" width="22" height="30" rx="2" fill="url(#guldgrad)" stroke="#4a3810" stroke-width="1"/>
      <rect x="412" y="1006" width="18" height="8" rx="1" fill="url(#guldShine)" opacity="0.55"/><rect x="444" y="1004" width="22" height="30" rx="2" fill="url(#guldgrad)" stroke="#4a3810" stroke-width="1"/>
      <rect x="446" y="1006" width="18" height="8" rx="1" fill="url(#guldShine)" opacity="0.55"/><rect x="478" y="1004" width="22" height="30" rx="2" fill="url(#guldgrad)" stroke="#4a3810" stroke-width="1"/>
      <rect x="480" y="1006" width="18" height="8" rx="1" fill="url(#guldShine)" opacity="0.55"/><rect x="512" y="1004" width="22" height="30" rx="2" fill="url(#guldgrad)" stroke="#4a3810" stroke-width="1"/>
      <rect x="514" y="1006" width="18" height="8" rx="1" fill="url(#guldShine)" opacity="0.55"/><rect x="546" y="1004" width="22" height="30" rx="2" fill="url(#guldgrad)" stroke="#4a3810" stroke-width="1"/>
      <rect x="548" y="1006" width="18" height="8" rx="1" fill="url(#guldShine)" opacity="0.55"/><rect x="580" y="1004" width="22" height="30" rx="2" fill="url(#guldgrad)" stroke="#4a3810" stroke-width="1"/>
      <rect x="582" y="1006" width="18" height="8" rx="1" fill="url(#guldShine)" opacity="0.55"/><rect x="614" y="1004" width="22" height="30" rx="2" fill="url(#guldgrad)" stroke="#4a3810" stroke-width="1"/>
      <rect x="616" y="1006" width="18" height="8" rx="1" fill="url(#guldShine)" opacity="0.55"/><rect x="648" y="1004" width="22" height="30" rx="2" fill="url(#guldgrad)" stroke="#4a3810" stroke-width="1"/>
      <rect x="650" y="1006" width="18" height="8" rx="1" fill="url(#guldShine)" opacity="0.55"/>
<rect x="60" y="1000" width="630" height="4" fill="#c9814a" opacity="0.55"/>
<rect x="6" y="6" width="738" height="1038" rx="36" fill="url(#gloss)" opacity="0.85"/>

</g></g>
</svg>