<svg xmlns="http://www.w3.org/2000/svg" width="750" height="1050" viewBox="0 0 750 1050">
<defs>
  <linearGradient id="bggrad" x1="0" y1="0" x2="0" y2="1">
    <stop offset="0" stop-color="#331d12"/><stop offset="0.5" stop-color="#22130b"/><stop offset="1" stop-color="#130a06"/>
  </linearGradient>
  <radialGradient id="artgrad" cx="0.5" cy="0.42" r="0.75">
    <stop offset="0" stop-color="#3c2113"/><stop offset="1" stop-color="#1c0f08"/>
  </radialGradient>
  <linearGradient id="guldgrad" x1="0" y1="0" x2="0" y2="1">
    <stop offset="0" stop-color="#ffd166"/><stop offset="1" stop-color="#9a7422"/>
  </linearGradient>
  <clipPath id="artclip"><rect x="52" y="150" width="646" height="410" rx="14"/></clipPath>
</defs>
<rect x="6" y="6" width="738" height="1038" rx="36" fill="url(#bggrad)" stroke="#ff8c5a" stroke-width="6"/>
<rect x="22" y="22" width="706" height="1006" rx="26" fill="none" stroke="#ff8c5a" stroke-width="2" opacity="0.7"/>
<circle cx="150" cy="825" r="7" fill="none" stroke="#c9814a" stroke-width="4" opacity="0.1"/><path d="M 150 825 L 100 825" fill="none" stroke="#c9814a" stroke-width="4" stroke-linecap="round" stroke-linejoin="round" opacity="0.1"/><rect x="92" y="817" width="16" height="16" fill="#c9814a" opacity="0.1"/><circle cx="225" cy="725" r="7" fill="none" stroke="#c9814a" stroke-width="4" opacity="0.1"/><path d="M 225 725 L 175 675" fill="none" stroke="#c9814a" stroke-width="4" stroke-linecap="round" stroke-linejoin="round" opacity="0.1"/><rect x="167" y="667" width="16" height="16" fill="#c9814a" opacity="0.1"/><circle cx="550" cy="700" r="7" fill="none" stroke="#c9814a" stroke-width="4" opacity="0.1"/><path d="M 550 700 L 550 775 L 625 775" fill="none" stroke="#c9814a" stroke-width="4" stroke-linecap="round" stroke-linejoin="round" opacity="0.1"/><rect x="617" y="767" width="16" height="16" fill="#c9814a" opacity="0.1"/><circle cx="125" cy="650" r="7" fill="none" stroke="#c9814a" stroke-width="4" opacity="0.1"/><path d="M 125 650 L 175 700" fill="none" stroke="#c9814a" stroke-width="4" stroke-linecap="round" stroke-linejoin="round" opacity="0.1"/><rect x="167" y="692" width="16" height="16" fill="#c9814a" opacity="0.1"/><circle cx="250" cy="850" r="7" fill="none" stroke="#c9814a" stroke-width="4" opacity="0.1"/><path d="M 250 850 L 250 925 L 175 925 L 40 775" fill="none" stroke="#c9814a" stroke-width="4" stroke-linecap="round" stroke-linejoin="round" opacity="0.1"/><circle cx="40" cy="775" r="9" fill="#122419" stroke="#c9814a" stroke-width="4" opacity="0.1"/><rect x="375" y="650" width="14" height="20" fill="#c9814a" opacity="0.09000000000000001"/><rect x="397" y="650" width="14" height="20" fill="#c9814a" opacity="0.09000000000000001"/><rect x="419" y="650" width="14" height="20" fill="#c9814a" opacity="0.09000000000000001"/><rect x="441" y="650" width="14" height="20" fill="#c9814a" opacity="0.09000000000000001"/>
<g clip-path="url(#artclip)">
  <rect x="52" y="150" width="646" height="410" fill="url(#artgrad)"/>
  <circle cx="100" cy="250" r="7" fill="none" stroke="#c9814a" stroke-width="4" opacity="0.3"/><path d="M 100 250 L 250 160 L 175 160 L 175 160" fill="none" stroke="#c9814a" stroke-width="4" stroke-linecap="round" stroke-linejoin="round" opacity="0.3"/><circle cx="175" cy="160" r="9" fill="#122419" stroke="#c9814a" stroke-width="4" opacity="0.3"/><circle cx="300" cy="250" r="7" fill="none" stroke="#c9814a" stroke-width="4" opacity="0.3"/><path d="M 300 250 L 450 250 L 500 200 L 500 160" fill="none" stroke="#c9814a" stroke-width="4" stroke-linecap="round" stroke-linejoin="round" opacity="0.3"/><circle cx="500" cy="160" r="9" fill="#122419" stroke="#c9814a" stroke-width="4" opacity="0.3"/><circle cx="375" cy="325" r="7" fill="none" stroke="#c9814a" stroke-width="4" opacity="0.3"/><path d="M 375 325 L 425 325" fill="none" stroke="#c9814a" stroke-width="4" stroke-linecap="round" stroke-linejoin="round" opacity="0.3"/><rect x="417" y="317" width="16" height="16" fill="#c9814a" opacity="0.3"/><circle cx="675" cy="325" r="7" fill="none" stroke="#c9814a" stroke-width="4" opacity="0.3"/><path d="M 675 325 L 525 475" fill="none" stroke="#c9814a" stroke-width="4" stroke-linecap="round" stroke-linejoin="round" opacity="0.3"/><circle cx="525" cy="475" r="9" fill="#122419" stroke="#c9814a" stroke-width="4" opacity="0.3"/><circle cx="425" cy="500" r="7" fill="none" stroke="#c9814a" stroke-width="4" opacity="0.3"/><path d="M 425 500 L 300 500" fill="none" stroke="#c9814a" stroke-width="4" stroke-linecap="round" stroke-linejoin="round" opacity="0.3"/><rect x="292" y="492" width="16" height="16" fill="#c9814a" opacity="0.3"/><circle cx="325" cy="200" r="7" fill="none" stroke="#c9814a" stroke-width="4" opacity="0.3"/><path d="M 325 200 L 275 200 L 275 350" fill="none" stroke="#c9814a" stroke-width="4" stroke-linecap="round" stroke-linejoin="round" opacity="0.3"/><rect x="267" y="342" width="16" height="16" fill="#c9814a" opacity="0.3"/><circle cx="525" cy="475" r="7" fill="none" stroke="#c9814a" stroke-width="4" opacity="0.3"/><path d="M 525 475 L 575 525 L 575 475" fill="none" stroke="#c9814a" stroke-width="4" stroke-linecap="round" stroke-linejoin="round" opacity="0.3"/><circle cx="575" cy="475" r="9" fill="#122419" stroke="#c9814a" stroke-width="4" opacity="0.3"/><circle cx="275" cy="275" r="7" fill="none" stroke="#c9814a" stroke-width="4" opacity="0.3"/><path d="M 275 275 L 125 275 L 125 160 L 200 160" fill="none" stroke="#c9814a" stroke-width="4" stroke-linecap="round" stroke-linejoin="round" opacity="0.3"/><rect x="192" y="152" width="16" height="16" fill="#c9814a" opacity="0.3"/><circle cx="425" cy="375" r="7" fill="none" stroke="#c9814a" stroke-width="4" opacity="0.3"/><path d="M 425 375 L 425 525 L 500 525 L 500 475" fill="none" stroke="#c9814a" stroke-width="4" stroke-linecap="round" stroke-linejoin="round" opacity="0.3"/><circle cx="500" cy="475" r="9" fill="#122419" stroke="#c9814a" stroke-width="4" opacity="0.3"/><rect x="425" y="425" width="14" height="20" fill="#c9814a" opacity="0.27"/><rect x="447" y="425" width="14" height="20" fill="#c9814a" opacity="0.27"/><rect x="469" y="425" width="14" height="20" fill="#c9814a" opacity="0.27"/><rect x="491" y="425" width="14" height="20" fill="#c9814a" opacity="0.27"/>
  <circle cx="225" cy="500" r="7" fill="none" stroke="#ff8c5a" stroke-width="4" opacity="0.22"/><path d="M 225 500 L 175 450" fill="none" stroke="#ff8c5a" stroke-width="4" stroke-linecap="round" stroke-linejoin="round" opacity="0.22"/><circle cx="175" cy="450" r="9" fill="#122419" stroke="#ff8c5a" stroke-width="4" opacity="0.22"/><circle cx="625" cy="550" r="7" fill="none" stroke="#ff8c5a" stroke-width="4" opacity="0.22"/><path d="M 625 550 L 575 550 L 475 550" fill="none" stroke="#ff8c5a" stroke-width="4" stroke-linecap="round" stroke-linejoin="round" opacity="0.22"/><rect x="467" y="542" width="16" height="16" fill="#ff8c5a" opacity="0.22"/><circle cx="200" cy="300" r="7" fill="none" stroke="#ff8c5a" stroke-width="4" opacity="0.22"/><path d="M 200 300 L 125 225 L 60 225 L 60 160" fill="none" stroke="#ff8c5a" stroke-width="4" stroke-linecap="round" stroke-linejoin="round" opacity="0.22"/><rect x="52" y="152" width="16" height="16" fill="#ff8c5a" opacity="0.22"/><rect x="475" y="275" width="14" height="20" fill="#ff8c5a" opacity="0.198"/><rect x="497" y="275" width="14" height="20" fill="#ff8c5a" opacity="0.198"/><rect x="519" y="275" width="14" height="20" fill="#ff8c5a" opacity="0.198"/><rect x="541" y="275" width="14" height="20" fill="#ff8c5a" opacity="0.198"/>
  <g transform="translate(375 345) scale(1.075) translate(-375 -345)"><polygon points="511.83201379794133,266 511.83201379794133,424 375,503 238.16798620205867,424 238.16798620205867,266.00000000000006 374.99999999999983,187" fill="none" stroke="#ff8c5a" stroke-width="10" stroke-linejoin="round"/>
      <polygon points="511.83201379794133,266 511.83201379794133,424 375,503 238.16798620205867,424 238.16798620205867,266.00000000000006 374.99999999999983,187" fill="#ff8c5a" opacity="0.07"/>
      <path d="M 402 232 L 322 372 L 372 372 L 344 462 L 434 318 L 380 318 Z" fill="#ff8c5a" stroke="#0c1811" stroke-width="5" stroke-linejoin="round"/></g>
</g>
<rect x="52" y="150" width="646" height="410" rx="14" fill="none" stroke="#274a35" stroke-width="3"/>
<text x="200" y="102" font-family="DejaVu Sans Condensed" font-weight="bold" font-size="46"
  letter-spacing="2" fill="#dbe7de">HEAT WAVE</text>
<polygon points="95,28 152,61 152,127 95,160 38,127 38,61" fill="#f0b23e" stroke="#1c1405" stroke-width="4"/>
<text x="95" y="118" text-anchor="middle" font-family="DejaVu Sans" font-weight="bold" font-size="74" fill="#1c1405">5</text>
<text x="375" y="608" text-anchor="middle" font-family="DejaVu Sans Mono" font-size="26" letter-spacing="3"
  fill="#ff8c5a">THE OVERCLOCKER · SPELL</text>
<line x1="80" y1="626" x2="670" y2="626" stroke="#ff8c5a" stroke-width="2" opacity="0.5"/>
<rect x="46" y="640" width="658" height="346" rx="16" fill="#2a170d" opacity="0.55"/>
<text x="375" y="797.6" text-anchor="middle" font-family="DejaVu Sans" font-size="30"
       fill="#dbe7de">Deal 3 damage to all enemy units.</text>
<text x="375" y="839.0" text-anchor="middle" font-family="DejaVu Sans" font-size="30"
       fill="#dbe7de">Overheat (2).</text>

<rect x="70" y="1004" width="22" height="30" fill="url(#guldgrad)"/><rect x="104" y="1004" width="22" height="30" fill="url(#guldgrad)"/><rect x="138" y="1004" width="22" height="30" fill="url(#guldgrad)"/><rect x="172" y="1004" width="22" height="30" fill="url(#guldgrad)"/><rect x="206" y="1004" width="22" height="30" fill="url(#guldgrad)"/><rect x="240" y="1004" width="22" height="30" fill="url(#guldgrad)"/><rect x="274" y="1004" width="22" height="30" fill="url(#guldgrad)"/><rect x="308" y="1004" width="22" height="30" fill="url(#guldgrad)"/><rect x="342" y="1004" width="22" height="30" fill="url(#guldgrad)"/><rect x="376" y="1004" width="22" height="30" fill="url(#guldgrad)"/><rect x="410" y="1004" width="22" height="30" fill="url(#guldgrad)"/><rect x="444" y="1004" width="22" height="30" fill="url(#guldgrad)"/><rect x="478" y="1004" width="22" height="30" fill="url(#guldgrad)"/><rect x="512" y="1004" width="22" height="30" fill="url(#guldgrad)"/><rect x="546" y="1004" width="22" height="30" fill="url(#guldgrad)"/><rect x="580" y="1004" width="22" height="30" fill="url(#guldgrad)"/><rect x="614" y="1004" width="22" height="30" fill="url(#guldgrad)"/><rect x="648" y="1004" width="22" height="30" fill="url(#guldgrad)"/>
<rect x="60" y="1000" width="630" height="4" fill="#c9814a" opacity="0.5"/>
</svg>