<svg xmlns="http://www.w3.org/2000/svg" width="750" height="1050" viewBox="0 0 750 1050">
<defs>
  <linearGradient id="bggrad" x1="0" y1="0" x2="0" y2="1">
    <stop offset="0" stop-color="#4a4708"/><stop offset="0.5" stop-color="#2b2905"/><stop offset="1" stop-color="#131202"/>
  </linearGradient>
  <radialGradient id="artgrad" cx="0.5" cy="0.42" r="0.75">
    <stop offset="0" stop-color="#403d0b"/><stop offset="1" stop-color="#232103"/>
  </radialGradient>
  <linearGradient id="guldgrad" x1="0" y1="0" x2="0" y2="1">
    <stop offset="0" stop-color="#ffd166"/><stop offset="1" stop-color="#9a7422"/>
  </linearGradient>
  <clipPath id="artclip"><rect x="52" y="150" width="646" height="410" rx="14"/></clipPath>
</defs>
<rect x="6" y="6" width="738" height="1038" rx="36" fill="url(#bggrad)" stroke="#f5ea3a" stroke-width="6"/>
<rect x="22" y="22" width="706" height="1006" rx="26" fill="none" stroke="#f5ea3a" stroke-width="2" opacity="0.7"/>
<circle cx="175" cy="775" r="7" fill="none" stroke="#c9814a" stroke-width="4" opacity="0.1"/><path d="M 175 775 L 125 775 L 125 700" fill="none" stroke="#c9814a" stroke-width="4" stroke-linecap="round" stroke-linejoin="round" opacity="0.1"/><circle cx="125" cy="700" r="9" fill="#122419" stroke="#c9814a" stroke-width="4" opacity="0.1"/><circle cx="700" cy="675" r="7" fill="none" stroke="#c9814a" stroke-width="4" opacity="0.1"/><path d="M 700 675 L 650 675 L 650 800 L 710 800" fill="none" stroke="#c9814a" stroke-width="4" stroke-linecap="round" stroke-linejoin="round" opacity="0.1"/><circle cx="710" cy="800" r="9" fill="#122419" stroke="#c9814a" stroke-width="4" opacity="0.1"/><circle cx="450" cy="950" r="7" fill="none" stroke="#c9814a" stroke-width="4" opacity="0.1"/><path d="M 450 950 L 350 950 L 300 900 L 300 850" fill="none" stroke="#c9814a" stroke-width="4" stroke-linecap="round" stroke-linejoin="round" opacity="0.1"/><rect x="292" y="842" width="16" height="16" fill="#c9814a" opacity="0.1"/><circle cx="600" cy="700" r="7" fill="none" stroke="#c9814a" stroke-width="4" opacity="0.1"/><path d="M 600 700 L 600 620 L 550 620 L 600 670" fill="none" stroke="#c9814a" stroke-width="4" stroke-linecap="round" stroke-linejoin="round" opacity="0.1"/><circle cx="600" cy="670" r="9" fill="#122419" stroke="#c9814a" stroke-width="4" opacity="0.1"/><circle cx="125" cy="650" r="7" fill="none" stroke="#c9814a" stroke-width="4" opacity="0.1"/><path d="M 125 650 L 200 650 L 275 725 L 275 620" fill="none" stroke="#c9814a" stroke-width="4" stroke-linecap="round" stroke-linejoin="round" opacity="0.1"/><circle cx="275" cy="620" r="9" fill="#122419" stroke="#c9814a" stroke-width="4" opacity="0.1"/><rect x="500" y="825" width="14" height="20" fill="#c9814a" opacity="0.09000000000000001"/><rect x="522" y="825" width="14" height="20" fill="#c9814a" opacity="0.09000000000000001"/><rect x="544" y="825" width="14" height="20" fill="#c9814a" opacity="0.09000000000000001"/><rect x="566" y="825" width="14" height="20" fill="#c9814a" opacity="0.09000000000000001"/>
<g clip-path="url(#artclip)">
  <rect x="52" y="150" width="646" height="410" fill="url(#artgrad)"/>
  <circle cx="200" cy="250" r="7" fill="none" stroke="#c9814a" stroke-width="4" opacity="0.3"/><path d="M 200 250 L 100 250 L 100 350 L 175 350" fill="none" stroke="#c9814a" stroke-width="4" stroke-linecap="round" stroke-linejoin="round" opacity="0.3"/><circle cx="175" cy="350" r="9" fill="#122419" stroke="#c9814a" stroke-width="4" opacity="0.3"/><circle cx="525" cy="525" r="7" fill="none" stroke="#c9814a" stroke-width="4" opacity="0.3"/><path d="M 525 525 L 475 475 L 475 550 L 350 550" fill="none" stroke="#c9814a" stroke-width="4" stroke-linecap="round" stroke-linejoin="round" opacity="0.3"/><circle cx="350" cy="550" r="9" fill="#122419" stroke="#c9814a" stroke-width="4" opacity="0.3"/><circle cx="400" cy="375" r="7" fill="none" stroke="#c9814a" stroke-width="4" opacity="0.3"/><path d="M 400 375 L 400 300 L 275 300 L 275 450" fill="none" stroke="#c9814a" stroke-width="4" stroke-linecap="round" stroke-linejoin="round" opacity="0.3"/><circle cx="275" cy="450" r="9" fill="#122419" stroke="#c9814a" stroke-width="4" opacity="0.3"/><circle cx="100" cy="175" r="7" fill="none" stroke="#c9814a" stroke-width="4" opacity="0.3"/><path d="M 100 175 L 150 225 L 150 160 L 60 310" fill="none" stroke="#c9814a" stroke-width="4" stroke-linecap="round" stroke-linejoin="round" opacity="0.3"/><rect x="52" y="302" width="16" height="16" fill="#c9814a" opacity="0.3"/><circle cx="125" cy="175" r="7" fill="none" stroke="#c9814a" stroke-width="4" opacity="0.3"/><path d="M 125 175 L 125 225" fill="none" stroke="#c9814a" stroke-width="4" stroke-linecap="round" stroke-linejoin="round" opacity="0.3"/><circle cx="125" cy="225" r="9" fill="#122419" stroke="#c9814a" stroke-width="4" opacity="0.3"/><circle cx="100" cy="450" r="7" fill="none" stroke="#c9814a" stroke-width="4" opacity="0.3"/><path d="M 100 450 L 200 450" fill="none" stroke="#c9814a" stroke-width="4" stroke-linecap="round" stroke-linejoin="round" opacity="0.3"/><circle cx="200" cy="450" r="9" fill="#122419" stroke="#c9814a" stroke-width="4" opacity="0.3"/><circle cx="125" cy="300" r="7" fill="none" stroke="#c9814a" stroke-width="4" opacity="0.3"/><path d="M 125 300 L 125 425 L 250 425" fill="none" stroke="#c9814a" stroke-width="4" stroke-linecap="round" stroke-linejoin="round" opacity="0.3"/><circle cx="250" cy="425" r="9" fill="#122419" stroke="#c9814a" stroke-width="4" opacity="0.3"/><circle cx="425" cy="450" r="7" fill="none" stroke="#c9814a" stroke-width="4" opacity="0.3"/><path d="M 425 450 L 500 375 L 425 375 L 425 450" fill="none" stroke="#c9814a" stroke-width="4" stroke-linecap="round" stroke-linejoin="round" opacity="0.3"/><circle cx="425" cy="450" r="9" fill="#122419" stroke="#c9814a" stroke-width="4" opacity="0.3"/><circle cx="650" cy="475" r="7" fill="none" stroke="#c9814a" stroke-width="4" opacity="0.3"/><path d="M 650 475 L 575 550 L 575 450 L 500 375" fill="none" stroke="#c9814a" stroke-width="4" stroke-linecap="round" stroke-linejoin="round" opacity="0.3"/><rect x="492" y="367" width="16" height="16" fill="#c9814a" opacity="0.3"/><rect x="300" y="350" width="14" height="20" fill="#c9814a" opacity="0.27"/><rect x="322" y="350" width="14" height="20" fill="#c9814a" opacity="0.27"/><rect x="344" y="350" width="14" height="20" fill="#c9814a" opacity="0.27"/><rect x="366" y="350" width="14" height="20" fill="#c9814a" opacity="0.27"/>
  <circle cx="475" cy="475" r="7" fill="none" stroke="undefined" stroke-width="4" opacity="0.22"/><path d="M 475 475 L 475 425 L 425 375" fill="none" stroke="undefined" stroke-width="4" stroke-linecap="round" stroke-linejoin="round" opacity="0.22"/><rect x="417" y="367" width="16" height="16" fill="undefined" opacity="0.22"/><circle cx="625" cy="475" r="7" fill="none" stroke="undefined" stroke-width="4" opacity="0.22"/><path d="M 625 475 L 675 425 L 675 475" fill="none" stroke="undefined" stroke-width="4" stroke-linecap="round" stroke-linejoin="round" opacity="0.22"/><circle cx="675" cy="475" r="9" fill="#122419" stroke="undefined" stroke-width="4" opacity="0.22"/><circle cx="625" cy="400" r="7" fill="none" stroke="undefined" stroke-width="4" opacity="0.22"/><path d="M 625 400 L 475 550" fill="none" stroke="undefined" stroke-width="4" stroke-linecap="round" stroke-linejoin="round" opacity="0.22"/><circle cx="475" cy="550" r="9" fill="#122419" stroke="undefined" stroke-width="4" opacity="0.22"/><rect x="175" y="250" width="14" height="20" fill="undefined" opacity="0.198"/><rect x="197" y="250" width="14" height="20" fill="undefined" opacity="0.198"/><rect x="219" y="250" width="14" height="20" fill="undefined" opacity="0.198"/><rect x="241" y="250" width="14" height="20" fill="undefined" opacity="0.198"/>
  <g transform="translate(375 345) scale(1.024) translate(-375 -345)"><polygon points="511.8,266.0 511.8,424.0 375.0,503.0 238.2,424.0 238.2,266.0 375.0,187.0" fill="none" stroke="undefined" stroke-width="10" stroke-linejoin="round"/><polygon points="511.8,266.0 511.8,424.0 375.0,503.0 238.2,424.0 238.2,266.0 375.0,187.0" fill="undefined" opacity="0.07"/><path d="M 402 232 L 322 372 L 372 372 L 344 462 L 434 318 L 380 318 Z" fill="undefined" stroke="#0c1811" stroke-width="5" stroke-linejoin="round"/></g>
</g>
<rect x="52" y="150" width="646" height="410" rx="14" fill="none" stroke="#274a35" stroke-width="3"/>
<text x="200" y="102" font-family="DejaVu Sans Condensed" font-weight="bold" font-size="46"
  letter-spacing="2" fill="#dbe7de">EMP</text>
<polygon points="95,28 152,61 152,127 95,160 38,127 38,61" fill="#f0b23e" stroke="#1c1405" stroke-width="4"/>
<text x="95" y="118" text-anchor="middle" font-family="DejaVu Sans" font-weight="bold" font-size="74" fill="#1c1405">7</text>
<text x="375" y="608" text-anchor="middle" font-family="DejaVu Sans Mono" font-size="26" letter-spacing="3"
  fill="#87a693">SPELL</text>
<line x1="80" y1="626" x2="670" y2="626" stroke="#f5ea3a" stroke-width="2" opacity="0.5"/>
<rect x="46" y="640" width="658" height="346" rx="16" fill="#3a3806" opacity="0.55"/>
<text x="375" y="818.3" text-anchor="middle" font-family="DejaVu Sans" font-size="30"
       fill="#dbe7de">Destroy all units.</text>

<rect x="70" y="1004" width="22" height="30" fill="url(#guldgrad)"/><rect x="104" y="1004" width="22" height="30" fill="url(#guldgrad)"/><rect x="138" y="1004" width="22" height="30" fill="url(#guldgrad)"/><rect x="172" y="1004" width="22" height="30" fill="url(#guldgrad)"/><rect x="206" y="1004" width="22" height="30" fill="url(#guldgrad)"/><rect x="240" y="1004" width="22" height="30" fill="url(#guldgrad)"/><rect x="274" y="1004" width="22" height="30" fill="url(#guldgrad)"/><rect x="308" y="1004" width="22" height="30" fill="url(#guldgrad)"/><rect x="342" y="1004" width="22" height="30" fill="url(#guldgrad)"/><rect x="376" y="1004" width="22" height="30" fill="url(#guldgrad)"/><rect x="410" y="1004" width="22" height="30" fill="url(#guldgrad)"/><rect x="444" y="1004" width="22" height="30" fill="url(#guldgrad)"/><rect x="478" y="1004" width="22" height="30" fill="url(#guldgrad)"/><rect x="512" y="1004" width="22" height="30" fill="url(#guldgrad)"/><rect x="546" y="1004" width="22" height="30" fill="url(#guldgrad)"/><rect x="580" y="1004" width="22" height="30" fill="url(#guldgrad)"/><rect x="614" y="1004" width="22" height="30" fill="url(#guldgrad)"/><rect x="648" y="1004" width="22" height="30" fill="url(#guldgrad)"/>
<rect x="60" y="1000" width="630" height="4" fill="#c9814a" opacity="0.5"/>
</svg>