<svg xmlns="http://www.w3.org/2000/svg" width="750" height="1050" viewBox="0 0 750 1050">
<defs>
  <filter id="cardDrop" x="-6%" y="-3%" width="112%" height="110%" color-interpolation-filters="sRGB">
    <feDropShadow dx="0" dy="10" stdDeviation="14" flood-color="#000" flood-opacity="0.5"/>
    <feDropShadow dx="0" dy="3" stdDeviation="4" flood-color="#000" flood-opacity="0.35"/>
  </filter>
  <filter id="paperGrain" x="0" y="0" width="100%" height="100%">
    <feTurbulence type="fractalNoise" baseFrequency="0.72" numOctaves="4" seed="17" result="n"/>
    <feColorMatrix in="n" type="matrix" values="0 0 0 0 0.48  0 0 0 0 0.42  0 0 0 0 0.36  0 0 0 0.07 0" result="g"/>
    <feBlend in="SourceGraphic" in2="g" mode="multiply"/>
  </filter>
  <filter id="artDepth" x="-8%" y="-8%" width="116%" height="116%">
    <feGaussianBlur in="SourceAlpha" stdDeviation="6" result="blur"/>
    <feOffset dy="4" result="off"/><feFlood flood-color="#000" flood-opacity="0.45"/>
    <feComposite in2="off" operator="in" result="sh"/>
    <feMerge><feMergeNode in="sh"/><feMergeNode in="SourceGraphic"/></feMerge>
  </filter>
  <linearGradient id="bggrad" x1="0" y1="0" x2="0" y2="1">
    <stop offset="0" stop-color="#644415"/>
    <stop offset="0.45" stop-color="#341f04"/>
    <stop offset="1" stop-color="#100902"/>
  </linearGradient>
  <linearGradient id="bevelHi" x1="0" y1="0" x2="1" y2="1">
    <stop offset="0" stop-color="#fff" stop-opacity="0.22"/>
    <stop offset="0.35" stop-color="#fff" stop-opacity="0"/>
    <stop offset="1" stop-color="#000" stop-opacity="0.28"/>
  </linearGradient>
  <radialGradient id="artgrad" cx="0.5" cy="0.38" r="0.82">
    <stop offset="0" stop-color="#54360b"/>
    <stop offset="0.7" stop-color="#241603"/>
    <stop offset="1" stop-color="#170eNaN"/>
  </radialGradient>
  <linearGradient id="artInset" x1="0" y1="0" x2="0" y2="1">
    <stop offset="0" stop-color="#000" stop-opacity="0.38"/>
    <stop offset="0.12" stop-color="#000" stop-opacity="0"/>
    <stop offset="0.88" stop-color="#000" stop-opacity="0"/>
    <stop offset="1" stop-color="#000" stop-opacity="0.42"/>
  </linearGradient>
  <linearGradient id="guldgrad" x1="0" y1="0" x2="0" y2="1">
    <stop offset="0" stop-color="#ffe9a0"/>
    <stop offset="0.45" stop-color="#ffd166"/>
    <stop offset="1" stop-color="#6a5018"/>
  </linearGradient>
  <linearGradient id="guldShine" x1="0" y1="0" x2="1" y2="0">
    <stop offset="0" stop-color="#fff" stop-opacity="0"/>
    <stop offset="0.5" stop-color="#fff" stop-opacity="0.45"/>
    <stop offset="1" stop-color="#fff" stop-opacity="0"/>
  </linearGradient>
  <linearGradient id="gloss" x1="0" y1="0" x2="1" y2="1">
    <stop offset="0.28" stop-color="#fff" stop-opacity="0"/>
    <stop offset="0.46" stop-color="#fff" stop-opacity="0.16"/>
    <stop offset="0.54" stop-color="#fff" stop-opacity="0.06"/>
    <stop offset="0.72" stop-color="#fff" stop-opacity="0"/>
  </linearGradient>
  <pattern id="fiber" width="6" height="6" patternUnits="userSpaceOnUse" patternTransform="rotate(12)">
    <line x1="0" y1="0" x2="0" y2="6" stroke="#fff" stroke-width="0.6" opacity="0.04"/>
    <line x1="3" y1="0" x2="3" y2="6" stroke="#000" stroke-width="0.5" opacity="0.06"/>
  </pattern>
  <clipPath id="artclip"><rect x="52" y="150" width="646" height="410" rx="14"/></clipPath>
  <clipPath id="cardclip"><rect x="6" y="6" width="738" height="1038" rx="36"/></clipPath>
  </defs>

  <rect x="10" y="1042" width="730" height="7" rx="3" fill="#080604" opacity="0.85"/>
  <rect x="10" y="1042" width="730" height="3" rx="2" fill="#734bNaN" opacity="0.5"/>
<g filter="url(#cardDrop)">
<g filter="url(#paperGrain)" clip-path="url(#cardclip)">
<rect x="6" y="6" width="738" height="1038" rx="36" fill="url(#bggrad)" stroke="#ffa726" stroke-width="6"/>
<rect x="6" y="6" width="738" height="1038" rx="36" fill="url(#fiber)"/>
<rect x="22" y="22" width="706" height="1006" rx="26" fill="none" stroke="#ffa726" stroke-width="2" opacity="0.75"/>
<rect x="14" y="14" width="722" height="1022" rx="32" fill="none" stroke="url(#bevelHi)" stroke-width="3" opacity="0.55"/>
<circle cx="350" cy="675" r="7" fill="none" stroke="#c9814a" stroke-width="4" opacity="0.1"/><path d="M 350 675 L 350 620 L 400 620 L 400 620" fill="none" stroke="#c9814a" stroke-width="4" stroke-linecap="round" stroke-linejoin="round" opacity="0.1"/><rect x="392" y="612" width="16" height="16" fill="#c9814a" opacity="0.1"/><circle cx="375" cy="925" r="7" fill="none" stroke="#c9814a" stroke-width="4" opacity="0.1"/><path d="M 375 925 L 475 825" fill="none" stroke="#c9814a" stroke-width="4" stroke-linecap="round" stroke-linejoin="round" opacity="0.1"/><rect x="467" y="817" width="16" height="16" fill="#c9814a" opacity="0.1"/><circle cx="275" cy="725" r="7" fill="none" stroke="#c9814a" stroke-width="4" opacity="0.1"/><path d="M 275 725 L 400 620" fill="none" stroke="#c9814a" stroke-width="4" stroke-linecap="round" stroke-linejoin="round" opacity="0.1"/><circle cx="400" cy="620" r="9" fill="#122419" stroke="#c9814a" stroke-width="4" opacity="0.1"/><circle cx="350" cy="700" r="7" fill="none" stroke="#c9814a" stroke-width="4" opacity="0.1"/><path d="M 350 700 L 250 800" fill="none" stroke="#c9814a" stroke-width="4" stroke-linecap="round" stroke-linejoin="round" opacity="0.1"/><rect x="242" y="792" width="16" height="16" fill="#c9814a" opacity="0.1"/><circle cx="675" cy="650" r="7" fill="none" stroke="#c9814a" stroke-width="4" opacity="0.1"/><path d="M 675 650 L 675 775" fill="none" stroke="#c9814a" stroke-width="4" stroke-linecap="round" stroke-linejoin="round" opacity="0.1"/><circle cx="675" cy="775" r="9" fill="#122419" stroke="#c9814a" stroke-width="4" opacity="0.1"/><rect x="575" y="700" width="14" height="20" fill="#c9814a" opacity="0.09000000000000001"/><rect x="597" y="700" width="14" height="20" fill="#c9814a" opacity="0.09000000000000001"/><rect x="619" y="700" width="14" height="20" fill="#c9814a" opacity="0.09000000000000001"/><rect x="641" y="700" width="14" height="20" fill="#c9814a" opacity="0.09000000000000001"/>
<g clip-path="url(#artclip)" filter="url(#artDepth)">
  <rect x="52" y="150" width="646" height="410" fill="url(#artgrad)"/>
  <circle cx="525" cy="250" r="7" fill="none" stroke="#c9814a" stroke-width="4" opacity="0.3"/><path d="M 525 250 L 575 200 L 575 275" fill="none" stroke="#c9814a" stroke-width="4" stroke-linecap="round" stroke-linejoin="round" opacity="0.3"/><circle cx="575" cy="275" r="9" fill="#122419" stroke="#c9814a" stroke-width="4" opacity="0.3"/><circle cx="525" cy="525" r="7" fill="none" stroke="#c9814a" stroke-width="4" opacity="0.3"/><path d="M 525 525 L 450 550 L 300 550" fill="none" stroke="#c9814a" stroke-width="4" stroke-linecap="round" stroke-linejoin="round" opacity="0.3"/><circle cx="300" cy="550" r="9" fill="#122419" stroke="#c9814a" stroke-width="4" opacity="0.3"/><circle cx="550" cy="425" r="7" fill="none" stroke="#c9814a" stroke-width="4" opacity="0.3"/><path d="M 550 425 L 690 550" fill="none" stroke="#c9814a" stroke-width="4" stroke-linecap="round" stroke-linejoin="round" opacity="0.3"/><circle cx="690" cy="550" r="9" fill="#122419" stroke="#c9814a" stroke-width="4" opacity="0.3"/><circle cx="525" cy="150" r="7" fill="none" stroke="#c9814a" stroke-width="4" opacity="0.3"/><path d="M 525 150 L 525 225" fill="none" stroke="#c9814a" stroke-width="4" stroke-linecap="round" stroke-linejoin="round" opacity="0.3"/><circle cx="525" cy="225" r="9" fill="#122419" stroke="#c9814a" stroke-width="4" opacity="0.3"/><circle cx="225" cy="450" r="7" fill="none" stroke="#c9814a" stroke-width="4" opacity="0.3"/><path d="M 225 450 L 350 550 L 250 550" fill="none" stroke="#c9814a" stroke-width="4" stroke-linecap="round" stroke-linejoin="round" opacity="0.3"/><circle cx="250" cy="550" r="9" fill="#122419" stroke="#c9814a" stroke-width="4" opacity="0.3"/><circle cx="650" cy="550" r="7" fill="none" stroke="#c9814a" stroke-width="4" opacity="0.3"/><path d="M 650 550 L 550 550 L 500 500 L 425 425" fill="none" stroke="#c9814a" stroke-width="4" stroke-linecap="round" stroke-linejoin="round" opacity="0.3"/><circle cx="425" cy="425" r="9" fill="#122419" stroke="#c9814a" stroke-width="4" opacity="0.3"/><circle cx="625" cy="350" r="7" fill="none" stroke="#c9814a" stroke-width="4" opacity="0.3"/><path d="M 625 350 L 500 350" fill="none" stroke="#c9814a" stroke-width="4" stroke-linecap="round" stroke-linejoin="round" opacity="0.3"/><rect x="492" y="342" width="16" height="16" fill="#c9814a" opacity="0.3"/><circle cx="550" cy="425" r="7" fill="none" stroke="#c9814a" stroke-width="4" opacity="0.3"/><path d="M 550 425 L 550 550" fill="none" stroke="#c9814a" stroke-width="4" stroke-linecap="round" stroke-linejoin="round" opacity="0.3"/><circle cx="550" cy="550" r="9" fill="#122419" stroke="#c9814a" stroke-width="4" opacity="0.3"/><circle cx="625" cy="400" r="7" fill="none" stroke="#c9814a" stroke-width="4" opacity="0.3"/><path d="M 625 400 L 525 400 L 525 475" fill="none" stroke="#c9814a" stroke-width="4" stroke-linecap="round" stroke-linejoin="round" opacity="0.3"/><rect x="517" y="467" width="16" height="16" fill="#c9814a" opacity="0.3"/><rect x="275" y="500" width="14" height="20" fill="#c9814a" opacity="0.27"/><rect x="297" y="500" width="14" height="20" fill="#c9814a" opacity="0.27"/><rect x="319" y="500" width="14" height="20" fill="#c9814a" opacity="0.27"/><rect x="341" y="500" width="14" height="20" fill="#c9814a" opacity="0.27"/>
  <circle cx="575" cy="525" r="7" fill="none" stroke="#e8a96a" stroke-width="4" opacity="0.22"/><path d="M 575 525 L 575 375 L 450 375" fill="none" stroke="#e8a96a" stroke-width="4" stroke-linecap="round" stroke-linejoin="round" opacity="0.22"/><rect x="442" y="367" width="16" height="16" fill="#e8a96a" opacity="0.22"/><circle cx="575" cy="450" r="7" fill="none" stroke="#e8a96a" stroke-width="4" opacity="0.22"/><path d="M 575 450 L 450 550" fill="none" stroke="#e8a96a" stroke-width="4" stroke-linecap="round" stroke-linejoin="round" opacity="0.22"/><circle cx="450" cy="550" r="9" fill="#122419" stroke="#e8a96a" stroke-width="4" opacity="0.22"/><circle cx="300" cy="275" r="7" fill="none" stroke="#e8a96a" stroke-width="4" opacity="0.22"/><path d="M 300 275 L 150 275 L 225 200" fill="none" stroke="#e8a96a" stroke-width="4" stroke-linecap="round" stroke-linejoin="round" opacity="0.22"/><circle cx="225" cy="200" r="9" fill="#122419" stroke="#e8a96a" stroke-width="4" opacity="0.22"/><rect x="100" y="400" width="14" height="20" fill="#e8a96a" opacity="0.198"/><rect x="122" y="400" width="14" height="20" fill="#e8a96a" opacity="0.198"/><rect x="144" y="400" width="14" height="20" fill="#e8a96a" opacity="0.198"/><rect x="166" y="400" width="14" height="20" fill="#e8a96a" opacity="0.198"/>
  <g transform="translate(375 345) scale(1.050) translate(-375 -345)"><line x1="150" y1="345" x2="255" y2="345" stroke="#e8a96a" stroke-width="9" stroke-linecap="round"/><line x1="495" y1="345" x2="600" y2="345" stroke="#e8a96a" stroke-width="9" stroke-linecap="round"/><path d="M 320 300 L 320 390 L 400 345 Z" fill="#e8a96a" stroke="#e8a96a" stroke-width="10" stroke-linecap="round" stroke-linejoin="round"/><line x1="400" y1="300" x2="400" y2="390" stroke="#e8a96a" stroke-width="11" stroke-linecap="round"/><path d="M 410 285 L 444 251" fill="none" stroke="#e8a96a" stroke-width="7" stroke-linecap="round" stroke-linejoin="round"/><path d="M 444 251 l -14 2 M 444 251 l 2 -14" fill="none" stroke="#e8a96a" stroke-width="6" stroke-linecap="round" stroke-linejoin="round"/><path d="M 440 315 L 474 281" fill="none" stroke="#e8a96a" stroke-width="7" stroke-linecap="round" stroke-linejoin="round"/><path d="M 474 281 l -14 2 M 474 281 l 2 -14" fill="none" stroke="#e8a96a" stroke-width="6" stroke-linecap="round" stroke-linejoin="round"/></g>
  <rect x="52" y="150" width="646" height="410" fill="url(#artInset)"/>
</g>
<rect x="52" y="150" width="646" height="410" rx="14" fill="none" stroke="#bf7dNaN" stroke-width="4"/>
<rect x="56" y="154" width="638" height="402" rx="12" fill="none" stroke="#fff" stroke-width="1.5" opacity="0.08"/>
<text x="200" y="102" font-family="DejaVu Sans Condensed" font-weight="bold" font-size="46"
  letter-spacing="2" fill="#dbe7de">LED</text>
<polygon points="95,28 152,61 152,127 95,160 38,127 38,61" fill="#f0b23e" stroke="#1c1405" stroke-width="4"/>
<polygon points="95,32 146,61 146,123 95,152 44,123 44,61" fill="none" stroke="#fff" stroke-width="2" opacity="0.2"/>
<text x="95" y="118" text-anchor="middle" font-family="DejaVu Sans" font-weight="bold" font-size="74" fill="#1c1405">1</text>
<text x="375" y="608" text-anchor="middle" font-family="DejaVu Sans Mono" font-size="26" letter-spacing="3"
  fill="#87a693">UNIT · COMPONENT</text>
<line x1="80" y1="626" x2="670" y2="626" stroke="#ffa726" stroke-width="2" opacity="0.5"/>
<rect x="46" y="640" width="658" height="236" rx="16" fill="#452c05" opacity="0.62"/>
<rect x="50" y="644" width="650" height="214" rx="14" fill="url(#fiber)" opacity="0.35"/>
<text x="375" y="742.6" text-anchor="middle" font-family="DejaVu Sans" font-size="30"
       fill="#dbe7de">Breakdown: Give a random friendly unit</text>
<text x="375" y="784.0" text-anchor="middle" font-family="DejaVu Sans" font-size="30"
       fill="#dbe7de">+1/+0.</text>

    <g filter="url(#cardDrop)">
      <circle cx="95" cy="935" r="56" fill="#1d1e0d" stroke="#f0b23e" stroke-width="7"/>
      <circle cx="95" cy="932" r="48" fill="none" stroke="#fff" stroke-width="2" opacity="0.12"/>
      <text x="95" y="954" text-anchor="middle" font-family="DejaVu Sans" font-weight="bold" font-size="56" fill="#f0b23e">1</text>
      <circle cx="655" cy="935" r="56" fill="#1d1e0d" stroke="#5fe0a0" stroke-width="7"/>
      <circle cx="655" cy="932" r="48" fill="none" stroke="#fff" stroke-width="2" opacity="0.12"/>
      <text x="655" y="954" text-anchor="middle" font-family="DejaVu Sans" font-weight="bold" font-size="56" fill="#5fe0a0">1</text>
    </g>
<rect x="70" y="1004" width="22" height="30" rx="2" fill="url(#guldgrad)" stroke="#4a3810" stroke-width="1"/>
      <rect x="72" y="1006" width="18" height="8" rx="1" fill="url(#guldShine)" opacity="0.55"/><rect x="104" y="1004" width="22" height="30" rx="2" fill="url(#guldgrad)" stroke="#4a3810" stroke-width="1"/>
      <rect x="106" y="1006" width="18" height="8" rx="1" fill="url(#guldShine)" opacity="0.55"/><rect x="138" y="1004" width="22" height="30" rx="2" fill="url(#guldgrad)" stroke="#4a3810" stroke-width="1"/>
      <rect x="140" y="1006" width="18" height="8" rx="1" fill="url(#guldShine)" opacity="0.55"/><rect x="172" y="1004" width="22" height="30" rx="2" fill="url(#guldgrad)" stroke="#4a3810" stroke-width="1"/>
      <rect x="174" y="1006" width="18" height="8" rx="1" fill="url(#guldShine)" opacity="0.55"/><rect x="206" y="1004" width="22" height="30" rx="2" fill="url(#guldgrad)" stroke="#4a3810" stroke-width="1"/>
      <rect x="208" y="1006" width="18" height="8" rx="1" fill="url(#guldShine)" opacity="0.55"/><rect x="240" y="1004" width="22" height="30" rx="2" fill="url(#guldgrad)" stroke="#4a3810" stroke-width="1"/>
      <rect x="242" y="1006" width="18" height="8" rx="1" fill="url(#guldShine)" opacity="0.55"/><rect x="274" y="1004" width="22" height="30" rx="2" fill="url(#guldgrad)" stroke="#4a3810" stroke-width="1"/>
      <rect x="276" y="1006" width="18" height="8" rx="1" fill="url(#guldShine)" opacity="0.55"/><rect x="308" y="1004" width="22" height="30" rx="2" fill="url(#guldgrad)" stroke="#4a3810" stroke-width="1"/>
      <rect x="310" y="1006" width="18" height="8" rx="1" fill="url(#guldShine)" opacity="0.55"/><rect x="342" y="1004" width="22" height="30" rx="2" fill="url(#guldgrad)" stroke="#4a3810" stroke-width="1"/>
      <rect x="344" y="1006" width="18" height="8" rx="1" fill="url(#guldShine)" opacity="0.55"/><rect x="376" y="1004" width="22" height="30" rx="2" fill="url(#guldgrad)" stroke="#4a3810" stroke-width="1"/>
      <rect x="378" y="1006" width="18" height="8" rx="1" fill="url(#guldShine)" opacity="0.55"/><rect x="410" y="1004" width="22" height="30" rx="2" fill="url(#guldgrad)" stroke="#4a3810" stroke-width="1"/>
      <rect x="412" y="1006" width="18" height="8" rx="1" fill="url(#guldShine)" opacity="0.55"/><rect x="444" y="1004" width="22" height="30" rx="2" fill="url(#guldgrad)" stroke="#4a3810" stroke-width="1"/>
      <rect x="446" y="1006" width="18" height="8" rx="1" fill="url(#guldShine)" opacity="0.55"/><rect x="478" y="1004" width="22" height="30" rx="2" fill="url(#guldgrad)" stroke="#4a3810" stroke-width="1"/>
      <rect x="480" y="1006" width="18" height="8" rx="1" fill="url(#guldShine)" opacity="0.55"/><rect x="512" y="1004" width="22" height="30" rx="2" fill="url(#guldgrad)" stroke="#4a3810" stroke-width="1"/>
      <rect x="514" y="1006" width="18" height="8" rx="1" fill="url(#guldShine)" opacity="0.55"/><rect x="546" y="1004" width="22" height="30" rx="2" fill="url(#guldgrad)" stroke="#4a3810" stroke-width="1"/>
      <rect x="548" y="1006" width="18" height="8" rx="1" fill="url(#guldShine)" opacity="0.55"/><rect x="580" y="1004" width="22" height="30" rx="2" fill="url(#guldgrad)" stroke="#4a3810" stroke-width="1"/>
      <rect x="582" y="1006" width="18" height="8" rx="1" fill="url(#guldShine)" opacity="0.55"/><rect x="614" y="1004" width="22" height="30" rx="2" fill="url(#guldgrad)" stroke="#4a3810" stroke-width="1"/>
      <rect x="616" y="1006" width="18" height="8" rx="1" fill="url(#guldShine)" opacity="0.55"/><rect x="648" y="1004" width="22" height="30" rx="2" fill="url(#guldgrad)" stroke="#4a3810" stroke-width="1"/>
      <rect x="650" y="1006" width="18" height="8" rx="1" fill="url(#guldShine)" opacity="0.55"/>
<rect x="60" y="1000" width="630" height="4" fill="#c9814a" opacity="0.55"/>
<rect x="6" y="6" width="738" height="1038" rx="36" fill="url(#gloss)" opacity="0.85"/>

</g></g>
</svg>